%TF.GenerationSoftware,KiCad,Pcbnew,(5.1.10)-1*%
%TF.CreationDate,2022-05-16T19:26:02+08:00*%
%TF.ProjectId,lamp,6c616d70-2e6b-4696-9361-645f70636258,rev?*%
%TF.SameCoordinates,Original*%
%TF.FileFunction,Paste,Top*%
%TF.FilePolarity,Positive*%
%FSLAX46Y46*%
G04 Gerber Fmt 4.6, Leading zero omitted, Abs format (unit mm)*
G04 Created by KiCad (PCBNEW (5.1.10)-1) date 2022-05-16 19:26:02*
%MOMM*%
%LPD*%
G01*
G04 APERTURE LIST*
%ADD10R,2.300000X2.500000*%
%ADD11R,2.400000X3.500000*%
%ADD12R,1.800000X1.000000*%
%ADD13R,2.500000X1.800000*%
%ADD14R,0.600000X0.900000*%
%ADD15R,0.900000X0.600000*%
%ADD16R,1.500000X2.000000*%
%ADD17R,3.800000X2.000000*%
G04 APERTURE END LIST*
%TO.C,C10*%
G36*
G01*
X126436000Y-27478800D02*
X126436000Y-26978800D01*
G75*
G02*
X126661000Y-26753800I225000J0D01*
G01*
X127111000Y-26753800D01*
G75*
G02*
X127336000Y-26978800I0J-225000D01*
G01*
X127336000Y-27478800D01*
G75*
G02*
X127111000Y-27703800I-225000J0D01*
G01*
X126661000Y-27703800D01*
G75*
G02*
X126436000Y-27478800I0J225000D01*
G01*
G37*
G36*
G01*
X124886000Y-27478800D02*
X124886000Y-26978800D01*
G75*
G02*
X125111000Y-26753800I225000J0D01*
G01*
X125561000Y-26753800D01*
G75*
G02*
X125786000Y-26978800I0J-225000D01*
G01*
X125786000Y-27478800D01*
G75*
G02*
X125561000Y-27703800I-225000J0D01*
G01*
X125111000Y-27703800D01*
G75*
G02*
X124886000Y-27478800I0J225000D01*
G01*
G37*
%TD*%
%TO.C,C9*%
G36*
G01*
X126435700Y-25916700D02*
X126435700Y-25416700D01*
G75*
G02*
X126660700Y-25191700I225000J0D01*
G01*
X127110700Y-25191700D01*
G75*
G02*
X127335700Y-25416700I0J-225000D01*
G01*
X127335700Y-25916700D01*
G75*
G02*
X127110700Y-26141700I-225000J0D01*
G01*
X126660700Y-26141700D01*
G75*
G02*
X126435700Y-25916700I0J225000D01*
G01*
G37*
G36*
G01*
X124885700Y-25916700D02*
X124885700Y-25416700D01*
G75*
G02*
X125110700Y-25191700I225000J0D01*
G01*
X125560700Y-25191700D01*
G75*
G02*
X125785700Y-25416700I0J-225000D01*
G01*
X125785700Y-25916700D01*
G75*
G02*
X125560700Y-26141700I-225000J0D01*
G01*
X125110700Y-26141700D01*
G75*
G02*
X124885700Y-25916700I0J225000D01*
G01*
G37*
%TD*%
%TO.C,C8*%
G36*
G01*
X126093100Y-30653800D02*
X126093100Y-30153800D01*
G75*
G02*
X126318100Y-29928800I225000J0D01*
G01*
X126768100Y-29928800D01*
G75*
G02*
X126993100Y-30153800I0J-225000D01*
G01*
X126993100Y-30653800D01*
G75*
G02*
X126768100Y-30878800I-225000J0D01*
G01*
X126318100Y-30878800D01*
G75*
G02*
X126093100Y-30653800I0J225000D01*
G01*
G37*
G36*
G01*
X124543100Y-30653800D02*
X124543100Y-30153800D01*
G75*
G02*
X124768100Y-29928800I225000J0D01*
G01*
X125218100Y-29928800D01*
G75*
G02*
X125443100Y-30153800I0J-225000D01*
G01*
X125443100Y-30653800D01*
G75*
G02*
X125218100Y-30878800I-225000J0D01*
G01*
X124768100Y-30878800D01*
G75*
G02*
X124543100Y-30653800I0J225000D01*
G01*
G37*
%TD*%
%TO.C,C7*%
G36*
G01*
X126174999Y-32430000D02*
X126174999Y-31930000D01*
G75*
G02*
X126399999Y-31705000I225000J0D01*
G01*
X126849999Y-31705000D01*
G75*
G02*
X127074999Y-31930000I0J-225000D01*
G01*
X127074999Y-32430000D01*
G75*
G02*
X126849999Y-32655000I-225000J0D01*
G01*
X126399999Y-32655000D01*
G75*
G02*
X126174999Y-32430000I0J225000D01*
G01*
G37*
G36*
G01*
X124624999Y-32430000D02*
X124624999Y-31930000D01*
G75*
G02*
X124849999Y-31705000I225000J0D01*
G01*
X125299999Y-31705000D01*
G75*
G02*
X125524999Y-31930000I0J-225000D01*
G01*
X125524999Y-32430000D01*
G75*
G02*
X125299999Y-32655000I-225000J0D01*
G01*
X124849999Y-32655000D01*
G75*
G02*
X124624999Y-32430000I0J225000D01*
G01*
G37*
%TD*%
%TO.C,C100*%
G36*
G01*
X145419000Y-16201001D02*
X144469000Y-16201001D01*
G75*
G02*
X144219000Y-15951001I0J250000D01*
G01*
X144219000Y-15451001D01*
G75*
G02*
X144469000Y-15201001I250000J0D01*
G01*
X145419000Y-15201001D01*
G75*
G02*
X145669000Y-15451001I0J-250000D01*
G01*
X145669000Y-15951001D01*
G75*
G02*
X145419000Y-16201001I-250000J0D01*
G01*
G37*
G36*
G01*
X145419000Y-18101001D02*
X144469000Y-18101001D01*
G75*
G02*
X144219000Y-17851001I0J250000D01*
G01*
X144219000Y-17351001D01*
G75*
G02*
X144469000Y-17101001I250000J0D01*
G01*
X145419000Y-17101001D01*
G75*
G02*
X145669000Y-17351001I0J-250000D01*
G01*
X145669000Y-17851001D01*
G75*
G02*
X145419000Y-18101001I-250000J0D01*
G01*
G37*
%TD*%
%TO.C,R28*%
G36*
G01*
X140069999Y-16980000D02*
X140970001Y-16980000D01*
G75*
G02*
X141220000Y-17229999I0J-249999D01*
G01*
X141220000Y-17930001D01*
G75*
G02*
X140970001Y-18180000I-249999J0D01*
G01*
X140069999Y-18180000D01*
G75*
G02*
X139820000Y-17930001I0J249999D01*
G01*
X139820000Y-17229999D01*
G75*
G02*
X140069999Y-16980000I249999J0D01*
G01*
G37*
G36*
G01*
X140069999Y-14980000D02*
X140970001Y-14980000D01*
G75*
G02*
X141220000Y-15229999I0J-249999D01*
G01*
X141220000Y-15930001D01*
G75*
G02*
X140970001Y-16180000I-249999J0D01*
G01*
X140069999Y-16180000D01*
G75*
G02*
X139820000Y-15930001I0J249999D01*
G01*
X139820000Y-15229999D01*
G75*
G02*
X140069999Y-14980000I249999J0D01*
G01*
G37*
%TD*%
D10*
%TO.C,D1*%
X118475000Y-65675000D03*
X118475000Y-61375000D03*
%TD*%
%TO.C,LD1*%
G36*
G01*
X118390001Y-43590000D02*
X117489999Y-43590000D01*
G75*
G02*
X117240000Y-43340001I0J249999D01*
G01*
X117240000Y-42689999D01*
G75*
G02*
X117489999Y-42440000I249999J0D01*
G01*
X118390001Y-42440000D01*
G75*
G02*
X118640000Y-42689999I0J-249999D01*
G01*
X118640000Y-43340001D01*
G75*
G02*
X118390001Y-43590000I-249999J0D01*
G01*
G37*
G36*
G01*
X118390001Y-45640000D02*
X117489999Y-45640000D01*
G75*
G02*
X117240000Y-45390001I0J249999D01*
G01*
X117240000Y-44739999D01*
G75*
G02*
X117489999Y-44490000I249999J0D01*
G01*
X118390001Y-44490000D01*
G75*
G02*
X118640000Y-44739999I0J-249999D01*
G01*
X118640000Y-45390001D01*
G75*
G02*
X118390001Y-45640000I-249999J0D01*
G01*
G37*
%TD*%
%TO.C,F1*%
G36*
G01*
X113950000Y-65537500D02*
X115200000Y-65537500D01*
G75*
G02*
X115450000Y-65787500I0J-250000D01*
G01*
X115450000Y-66712500D01*
G75*
G02*
X115200000Y-66962500I-250000J0D01*
G01*
X113950000Y-66962500D01*
G75*
G02*
X113700000Y-66712500I0J250000D01*
G01*
X113700000Y-65787500D01*
G75*
G02*
X113950000Y-65537500I250000J0D01*
G01*
G37*
G36*
G01*
X113950000Y-62562500D02*
X115200000Y-62562500D01*
G75*
G02*
X115450000Y-62812500I0J-250000D01*
G01*
X115450000Y-63737500D01*
G75*
G02*
X115200000Y-63987500I-250000J0D01*
G01*
X113950000Y-63987500D01*
G75*
G02*
X113700000Y-63737500I0J250000D01*
G01*
X113700000Y-62812500D01*
G75*
G02*
X113950000Y-62562500I250000J0D01*
G01*
G37*
%TD*%
D11*
%TO.C,Y1*%
X129260000Y-32840000D03*
X129260000Y-38040000D03*
%TD*%
D12*
%TO.C,Y2*%
X128870000Y-29230000D03*
X128870000Y-26730000D03*
%TD*%
%TO.C,R29*%
G36*
G01*
X142269999Y-16942500D02*
X143170001Y-16942500D01*
G75*
G02*
X143420000Y-17192499I0J-249999D01*
G01*
X143420000Y-17892501D01*
G75*
G02*
X143170001Y-18142500I-249999J0D01*
G01*
X142269999Y-18142500D01*
G75*
G02*
X142020000Y-17892501I0J249999D01*
G01*
X142020000Y-17192499D01*
G75*
G02*
X142269999Y-16942500I249999J0D01*
G01*
G37*
G36*
G01*
X142269999Y-14942500D02*
X143170001Y-14942500D01*
G75*
G02*
X143420000Y-15192499I0J-249999D01*
G01*
X143420000Y-15892501D01*
G75*
G02*
X143170001Y-16142500I-249999J0D01*
G01*
X142269999Y-16142500D01*
G75*
G02*
X142020000Y-15892501I0J249999D01*
G01*
X142020000Y-15192499D01*
G75*
G02*
X142269999Y-14942500I249999J0D01*
G01*
G37*
%TD*%
%TO.C,R27*%
G36*
G01*
X124030001Y-43600000D02*
X123129999Y-43600000D01*
G75*
G02*
X122880000Y-43350001I0J249999D01*
G01*
X122880000Y-42649999D01*
G75*
G02*
X123129999Y-42400000I249999J0D01*
G01*
X124030001Y-42400000D01*
G75*
G02*
X124280000Y-42649999I0J-249999D01*
G01*
X124280000Y-43350001D01*
G75*
G02*
X124030001Y-43600000I-249999J0D01*
G01*
G37*
G36*
G01*
X124030001Y-45600000D02*
X123129999Y-45600000D01*
G75*
G02*
X122880000Y-45350001I0J249999D01*
G01*
X122880000Y-44649999D01*
G75*
G02*
X123129999Y-44400000I249999J0D01*
G01*
X124030001Y-44400000D01*
G75*
G02*
X124280000Y-44649999I0J-249999D01*
G01*
X124280000Y-45350001D01*
G75*
G02*
X124030001Y-45600000I-249999J0D01*
G01*
G37*
%TD*%
%TO.C,R26*%
G36*
G01*
X121030001Y-43600000D02*
X120129999Y-43600000D01*
G75*
G02*
X119880000Y-43350001I0J249999D01*
G01*
X119880000Y-42649999D01*
G75*
G02*
X120129999Y-42400000I249999J0D01*
G01*
X121030001Y-42400000D01*
G75*
G02*
X121280000Y-42649999I0J-249999D01*
G01*
X121280000Y-43350001D01*
G75*
G02*
X121030001Y-43600000I-249999J0D01*
G01*
G37*
G36*
G01*
X121030001Y-45600000D02*
X120129999Y-45600000D01*
G75*
G02*
X119880000Y-45350001I0J249999D01*
G01*
X119880000Y-44649999D01*
G75*
G02*
X120129999Y-44400000I249999J0D01*
G01*
X121030001Y-44400000D01*
G75*
G02*
X121280000Y-44649999I0J-249999D01*
G01*
X121280000Y-45350001D01*
G75*
G02*
X121030001Y-45600000I-249999J0D01*
G01*
G37*
%TD*%
%TO.C,R25*%
G36*
G01*
X139589999Y-55010000D02*
X140490001Y-55010000D01*
G75*
G02*
X140740000Y-55259999I0J-249999D01*
G01*
X140740000Y-55960001D01*
G75*
G02*
X140490001Y-56210000I-249999J0D01*
G01*
X139589999Y-56210000D01*
G75*
G02*
X139340000Y-55960001I0J249999D01*
G01*
X139340000Y-55259999D01*
G75*
G02*
X139589999Y-55010000I249999J0D01*
G01*
G37*
G36*
G01*
X139589999Y-53010000D02*
X140490001Y-53010000D01*
G75*
G02*
X140740000Y-53259999I0J-249999D01*
G01*
X140740000Y-53960001D01*
G75*
G02*
X140490001Y-54210000I-249999J0D01*
G01*
X139589999Y-54210000D01*
G75*
G02*
X139340000Y-53960001I0J249999D01*
G01*
X139340000Y-53259999D01*
G75*
G02*
X139589999Y-53010000I249999J0D01*
G01*
G37*
%TD*%
%TO.C,R24*%
G36*
G01*
X137249999Y-54930000D02*
X138150001Y-54930000D01*
G75*
G02*
X138400000Y-55179999I0J-249999D01*
G01*
X138400000Y-55880001D01*
G75*
G02*
X138150001Y-56130000I-249999J0D01*
G01*
X137249999Y-56130000D01*
G75*
G02*
X137000000Y-55880001I0J249999D01*
G01*
X137000000Y-55179999D01*
G75*
G02*
X137249999Y-54930000I249999J0D01*
G01*
G37*
G36*
G01*
X137249999Y-52930000D02*
X138150001Y-52930000D01*
G75*
G02*
X138400000Y-53179999I0J-249999D01*
G01*
X138400000Y-53880001D01*
G75*
G02*
X138150001Y-54130000I-249999J0D01*
G01*
X137249999Y-54130000D01*
G75*
G02*
X137000000Y-53880001I0J249999D01*
G01*
X137000000Y-53179999D01*
G75*
G02*
X137249999Y-52930000I249999J0D01*
G01*
G37*
%TD*%
%TO.C,R23*%
G36*
G01*
X134789999Y-54890000D02*
X135690001Y-54890000D01*
G75*
G02*
X135940000Y-55139999I0J-249999D01*
G01*
X135940000Y-55840001D01*
G75*
G02*
X135690001Y-56090000I-249999J0D01*
G01*
X134789999Y-56090000D01*
G75*
G02*
X134540000Y-55840001I0J249999D01*
G01*
X134540000Y-55139999D01*
G75*
G02*
X134789999Y-54890000I249999J0D01*
G01*
G37*
G36*
G01*
X134789999Y-52890000D02*
X135690001Y-52890000D01*
G75*
G02*
X135940000Y-53139999I0J-249999D01*
G01*
X135940000Y-53840001D01*
G75*
G02*
X135690001Y-54090000I-249999J0D01*
G01*
X134789999Y-54090000D01*
G75*
G02*
X134540000Y-53840001I0J249999D01*
G01*
X134540000Y-53139999D01*
G75*
G02*
X134789999Y-52890000I249999J0D01*
G01*
G37*
%TD*%
%TO.C,R22*%
G36*
G01*
X155090001Y-23830000D02*
X154189999Y-23830000D01*
G75*
G02*
X153940000Y-23580001I0J249999D01*
G01*
X153940000Y-22879999D01*
G75*
G02*
X154189999Y-22630000I249999J0D01*
G01*
X155090001Y-22630000D01*
G75*
G02*
X155340000Y-22879999I0J-249999D01*
G01*
X155340000Y-23580001D01*
G75*
G02*
X155090001Y-23830000I-249999J0D01*
G01*
G37*
G36*
G01*
X155090001Y-25830000D02*
X154189999Y-25830000D01*
G75*
G02*
X153940000Y-25580001I0J249999D01*
G01*
X153940000Y-24879999D01*
G75*
G02*
X154189999Y-24630000I249999J0D01*
G01*
X155090001Y-24630000D01*
G75*
G02*
X155340000Y-24879999I0J-249999D01*
G01*
X155340000Y-25580001D01*
G75*
G02*
X155090001Y-25830000I-249999J0D01*
G01*
G37*
%TD*%
%TO.C,R21*%
G36*
G01*
X154690001Y-30220000D02*
X153789999Y-30220000D01*
G75*
G02*
X153540000Y-29970001I0J249999D01*
G01*
X153540000Y-29269999D01*
G75*
G02*
X153789999Y-29020000I249999J0D01*
G01*
X154690001Y-29020000D01*
G75*
G02*
X154940000Y-29269999I0J-249999D01*
G01*
X154940000Y-29970001D01*
G75*
G02*
X154690001Y-30220000I-249999J0D01*
G01*
G37*
G36*
G01*
X154690001Y-32220000D02*
X153789999Y-32220000D01*
G75*
G02*
X153540000Y-31970001I0J249999D01*
G01*
X153540000Y-31269999D01*
G75*
G02*
X153789999Y-31020000I249999J0D01*
G01*
X154690001Y-31020000D01*
G75*
G02*
X154940000Y-31269999I0J-249999D01*
G01*
X154940000Y-31970001D01*
G75*
G02*
X154690001Y-32220000I-249999J0D01*
G01*
G37*
%TD*%
%TO.C,R20*%
G36*
G01*
X154480001Y-36380000D02*
X153579999Y-36380000D01*
G75*
G02*
X153330000Y-36130001I0J249999D01*
G01*
X153330000Y-35429999D01*
G75*
G02*
X153579999Y-35180000I249999J0D01*
G01*
X154480001Y-35180000D01*
G75*
G02*
X154730000Y-35429999I0J-249999D01*
G01*
X154730000Y-36130001D01*
G75*
G02*
X154480001Y-36380000I-249999J0D01*
G01*
G37*
G36*
G01*
X154480001Y-38380000D02*
X153579999Y-38380000D01*
G75*
G02*
X153330000Y-38130001I0J249999D01*
G01*
X153330000Y-37429999D01*
G75*
G02*
X153579999Y-37180000I249999J0D01*
G01*
X154480001Y-37180000D01*
G75*
G02*
X154730000Y-37429999I0J-249999D01*
G01*
X154730000Y-38130001D01*
G75*
G02*
X154480001Y-38380000I-249999J0D01*
G01*
G37*
%TD*%
%TO.C,R19*%
G36*
G01*
X157660000Y-45970001D02*
X157660000Y-45069999D01*
G75*
G02*
X157909999Y-44820000I249999J0D01*
G01*
X158610001Y-44820000D01*
G75*
G02*
X158860000Y-45069999I0J-249999D01*
G01*
X158860000Y-45970001D01*
G75*
G02*
X158610001Y-46220000I-249999J0D01*
G01*
X157909999Y-46220000D01*
G75*
G02*
X157660000Y-45970001I0J249999D01*
G01*
G37*
G36*
G01*
X155660000Y-45970001D02*
X155660000Y-45069999D01*
G75*
G02*
X155909999Y-44820000I249999J0D01*
G01*
X156610001Y-44820000D01*
G75*
G02*
X156860000Y-45069999I0J-249999D01*
G01*
X156860000Y-45970001D01*
G75*
G02*
X156610001Y-46220000I-249999J0D01*
G01*
X155909999Y-46220000D01*
G75*
G02*
X155660000Y-45970001I0J249999D01*
G01*
G37*
%TD*%
%TO.C,R18*%
G36*
G01*
X151120000Y-46020001D02*
X151120000Y-45119999D01*
G75*
G02*
X151369999Y-44870000I249999J0D01*
G01*
X152070001Y-44870000D01*
G75*
G02*
X152320000Y-45119999I0J-249999D01*
G01*
X152320000Y-46020001D01*
G75*
G02*
X152070001Y-46270000I-249999J0D01*
G01*
X151369999Y-46270000D01*
G75*
G02*
X151120000Y-46020001I0J249999D01*
G01*
G37*
G36*
G01*
X149120000Y-46020001D02*
X149120000Y-45119999D01*
G75*
G02*
X149369999Y-44870000I249999J0D01*
G01*
X150070001Y-44870000D01*
G75*
G02*
X150320000Y-45119999I0J-249999D01*
G01*
X150320000Y-46020001D01*
G75*
G02*
X150070001Y-46270000I-249999J0D01*
G01*
X149369999Y-46270000D01*
G75*
G02*
X149120000Y-46020001I0J249999D01*
G01*
G37*
%TD*%
%TO.C,R17*%
G36*
G01*
X144330000Y-45840001D02*
X144330000Y-44939999D01*
G75*
G02*
X144579999Y-44690000I249999J0D01*
G01*
X145280001Y-44690000D01*
G75*
G02*
X145530000Y-44939999I0J-249999D01*
G01*
X145530000Y-45840001D01*
G75*
G02*
X145280001Y-46090000I-249999J0D01*
G01*
X144579999Y-46090000D01*
G75*
G02*
X144330000Y-45840001I0J249999D01*
G01*
G37*
G36*
G01*
X142330000Y-45840001D02*
X142330000Y-44939999D01*
G75*
G02*
X142579999Y-44690000I249999J0D01*
G01*
X143280001Y-44690000D01*
G75*
G02*
X143530000Y-44939999I0J-249999D01*
G01*
X143530000Y-45840001D01*
G75*
G02*
X143280001Y-46090000I-249999J0D01*
G01*
X142579999Y-46090000D01*
G75*
G02*
X142330000Y-45840001I0J249999D01*
G01*
G37*
%TD*%
%TO.C,R16*%
G36*
G01*
X137500000Y-45680001D02*
X137500000Y-44779999D01*
G75*
G02*
X137749999Y-44530000I249999J0D01*
G01*
X138450001Y-44530000D01*
G75*
G02*
X138700000Y-44779999I0J-249999D01*
G01*
X138700000Y-45680001D01*
G75*
G02*
X138450001Y-45930000I-249999J0D01*
G01*
X137749999Y-45930000D01*
G75*
G02*
X137500000Y-45680001I0J249999D01*
G01*
G37*
G36*
G01*
X135500000Y-45680001D02*
X135500000Y-44779999D01*
G75*
G02*
X135749999Y-44530000I249999J0D01*
G01*
X136450001Y-44530000D01*
G75*
G02*
X136700000Y-44779999I0J-249999D01*
G01*
X136700000Y-45680001D01*
G75*
G02*
X136450001Y-45930000I-249999J0D01*
G01*
X135749999Y-45930000D01*
G75*
G02*
X135500000Y-45680001I0J249999D01*
G01*
G37*
%TD*%
%TO.C,R15*%
G36*
G01*
X130650000Y-45550001D02*
X130650000Y-44649999D01*
G75*
G02*
X130899999Y-44400000I249999J0D01*
G01*
X131600001Y-44400000D01*
G75*
G02*
X131850000Y-44649999I0J-249999D01*
G01*
X131850000Y-45550001D01*
G75*
G02*
X131600001Y-45800000I-249999J0D01*
G01*
X130899999Y-45800000D01*
G75*
G02*
X130650000Y-45550001I0J249999D01*
G01*
G37*
G36*
G01*
X128650000Y-45550001D02*
X128650000Y-44649999D01*
G75*
G02*
X128899999Y-44400000I249999J0D01*
G01*
X129600001Y-44400000D01*
G75*
G02*
X129850000Y-44649999I0J-249999D01*
G01*
X129850000Y-45550001D01*
G75*
G02*
X129600001Y-45800000I-249999J0D01*
G01*
X128899999Y-45800000D01*
G75*
G02*
X128650000Y-45550001I0J249999D01*
G01*
G37*
%TD*%
%TO.C,R14*%
G36*
G01*
X154160000Y-27920001D02*
X154160000Y-27019999D01*
G75*
G02*
X154409999Y-26770000I249999J0D01*
G01*
X155110001Y-26770000D01*
G75*
G02*
X155360000Y-27019999I0J-249999D01*
G01*
X155360000Y-27920001D01*
G75*
G02*
X155110001Y-28170000I-249999J0D01*
G01*
X154409999Y-28170000D01*
G75*
G02*
X154160000Y-27920001I0J249999D01*
G01*
G37*
G36*
G01*
X152160000Y-27920001D02*
X152160000Y-27019999D01*
G75*
G02*
X152409999Y-26770000I249999J0D01*
G01*
X153110001Y-26770000D01*
G75*
G02*
X153360000Y-27019999I0J-249999D01*
G01*
X153360000Y-27920001D01*
G75*
G02*
X153110001Y-28170000I-249999J0D01*
G01*
X152409999Y-28170000D01*
G75*
G02*
X152160000Y-27920001I0J249999D01*
G01*
G37*
%TD*%
%TO.C,R13*%
G36*
G01*
X153660000Y-34140001D02*
X153660000Y-33239999D01*
G75*
G02*
X153909999Y-32990000I249999J0D01*
G01*
X154610001Y-32990000D01*
G75*
G02*
X154860000Y-33239999I0J-249999D01*
G01*
X154860000Y-34140001D01*
G75*
G02*
X154610001Y-34390000I-249999J0D01*
G01*
X153909999Y-34390000D01*
G75*
G02*
X153660000Y-34140001I0J249999D01*
G01*
G37*
G36*
G01*
X151660000Y-34140001D02*
X151660000Y-33239999D01*
G75*
G02*
X151909999Y-32990000I249999J0D01*
G01*
X152610001Y-32990000D01*
G75*
G02*
X152860000Y-33239999I0J-249999D01*
G01*
X152860000Y-34140001D01*
G75*
G02*
X152610001Y-34390000I-249999J0D01*
G01*
X151909999Y-34390000D01*
G75*
G02*
X151660000Y-34140001I0J249999D01*
G01*
G37*
%TD*%
%TO.C,R12*%
G36*
G01*
X153630000Y-40390001D02*
X153630000Y-39489999D01*
G75*
G02*
X153879999Y-39240000I249999J0D01*
G01*
X154580001Y-39240000D01*
G75*
G02*
X154830000Y-39489999I0J-249999D01*
G01*
X154830000Y-40390001D01*
G75*
G02*
X154580001Y-40640000I-249999J0D01*
G01*
X153879999Y-40640000D01*
G75*
G02*
X153630000Y-40390001I0J249999D01*
G01*
G37*
G36*
G01*
X151630000Y-40390001D02*
X151630000Y-39489999D01*
G75*
G02*
X151879999Y-39240000I249999J0D01*
G01*
X152580001Y-39240000D01*
G75*
G02*
X152830000Y-39489999I0J-249999D01*
G01*
X152830000Y-40390001D01*
G75*
G02*
X152580001Y-40640000I-249999J0D01*
G01*
X151879999Y-40640000D01*
G75*
G02*
X151630000Y-40390001I0J249999D01*
G01*
G37*
%TD*%
%TO.C,R11*%
G36*
G01*
X153769999Y-45060000D02*
X154670001Y-45060000D01*
G75*
G02*
X154920000Y-45309999I0J-249999D01*
G01*
X154920000Y-46010001D01*
G75*
G02*
X154670001Y-46260000I-249999J0D01*
G01*
X153769999Y-46260000D01*
G75*
G02*
X153520000Y-46010001I0J249999D01*
G01*
X153520000Y-45309999D01*
G75*
G02*
X153769999Y-45060000I249999J0D01*
G01*
G37*
G36*
G01*
X153769999Y-43060000D02*
X154670001Y-43060000D01*
G75*
G02*
X154920000Y-43309999I0J-249999D01*
G01*
X154920000Y-44010001D01*
G75*
G02*
X154670001Y-44260000I-249999J0D01*
G01*
X153769999Y-44260000D01*
G75*
G02*
X153520000Y-44010001I0J249999D01*
G01*
X153520000Y-43309999D01*
G75*
G02*
X153769999Y-43060000I249999J0D01*
G01*
G37*
%TD*%
%TO.C,R10*%
G36*
G01*
X147139999Y-45070000D02*
X148040001Y-45070000D01*
G75*
G02*
X148290000Y-45319999I0J-249999D01*
G01*
X148290000Y-46020001D01*
G75*
G02*
X148040001Y-46270000I-249999J0D01*
G01*
X147139999Y-46270000D01*
G75*
G02*
X146890000Y-46020001I0J249999D01*
G01*
X146890000Y-45319999D01*
G75*
G02*
X147139999Y-45070000I249999J0D01*
G01*
G37*
G36*
G01*
X147139999Y-43070000D02*
X148040001Y-43070000D01*
G75*
G02*
X148290000Y-43319999I0J-249999D01*
G01*
X148290000Y-44020001D01*
G75*
G02*
X148040001Y-44270000I-249999J0D01*
G01*
X147139999Y-44270000D01*
G75*
G02*
X146890000Y-44020001I0J249999D01*
G01*
X146890000Y-43319999D01*
G75*
G02*
X147139999Y-43070000I249999J0D01*
G01*
G37*
%TD*%
%TO.C,R9*%
G36*
G01*
X140449999Y-44910000D02*
X141350001Y-44910000D01*
G75*
G02*
X141600000Y-45159999I0J-249999D01*
G01*
X141600000Y-45860001D01*
G75*
G02*
X141350001Y-46110000I-249999J0D01*
G01*
X140449999Y-46110000D01*
G75*
G02*
X140200000Y-45860001I0J249999D01*
G01*
X140200000Y-45159999D01*
G75*
G02*
X140449999Y-44910000I249999J0D01*
G01*
G37*
G36*
G01*
X140449999Y-42910000D02*
X141350001Y-42910000D01*
G75*
G02*
X141600000Y-43159999I0J-249999D01*
G01*
X141600000Y-43860001D01*
G75*
G02*
X141350001Y-44110000I-249999J0D01*
G01*
X140449999Y-44110000D01*
G75*
G02*
X140200000Y-43860001I0J249999D01*
G01*
X140200000Y-43159999D01*
G75*
G02*
X140449999Y-42910000I249999J0D01*
G01*
G37*
%TD*%
%TO.C,R8*%
G36*
G01*
X133599999Y-44800000D02*
X134500001Y-44800000D01*
G75*
G02*
X134750000Y-45049999I0J-249999D01*
G01*
X134750000Y-45750001D01*
G75*
G02*
X134500001Y-46000000I-249999J0D01*
G01*
X133599999Y-46000000D01*
G75*
G02*
X133350000Y-45750001I0J249999D01*
G01*
X133350000Y-45049999D01*
G75*
G02*
X133599999Y-44800000I249999J0D01*
G01*
G37*
G36*
G01*
X133599999Y-42800000D02*
X134500001Y-42800000D01*
G75*
G02*
X134750000Y-43049999I0J-249999D01*
G01*
X134750000Y-43750001D01*
G75*
G02*
X134500001Y-44000000I-249999J0D01*
G01*
X133599999Y-44000000D01*
G75*
G02*
X133350000Y-43750001I0J249999D01*
G01*
X133350000Y-43049999D01*
G75*
G02*
X133599999Y-42800000I249999J0D01*
G01*
G37*
%TD*%
%TO.C,R7*%
G36*
G01*
X126809999Y-44600000D02*
X127710001Y-44600000D01*
G75*
G02*
X127960000Y-44849999I0J-249999D01*
G01*
X127960000Y-45550001D01*
G75*
G02*
X127710001Y-45800000I-249999J0D01*
G01*
X126809999Y-45800000D01*
G75*
G02*
X126560000Y-45550001I0J249999D01*
G01*
X126560000Y-44849999D01*
G75*
G02*
X126809999Y-44600000I249999J0D01*
G01*
G37*
G36*
G01*
X126809999Y-42600000D02*
X127710001Y-42600000D01*
G75*
G02*
X127960000Y-42849999I0J-249999D01*
G01*
X127960000Y-43550001D01*
G75*
G02*
X127710001Y-43800000I-249999J0D01*
G01*
X126809999Y-43800000D01*
G75*
G02*
X126560000Y-43550001I0J249999D01*
G01*
X126560000Y-42849999D01*
G75*
G02*
X126809999Y-42600000I249999J0D01*
G01*
G37*
%TD*%
%TO.C,R6*%
G36*
G01*
X121750000Y-31689999D02*
X121750000Y-32590001D01*
G75*
G02*
X121500001Y-32840000I-249999J0D01*
G01*
X120799999Y-32840000D01*
G75*
G02*
X120550000Y-32590001I0J249999D01*
G01*
X120550000Y-31689999D01*
G75*
G02*
X120799999Y-31440000I249999J0D01*
G01*
X121500001Y-31440000D01*
G75*
G02*
X121750000Y-31689999I0J-249999D01*
G01*
G37*
G36*
G01*
X123750000Y-31689999D02*
X123750000Y-32590001D01*
G75*
G02*
X123500001Y-32840000I-249999J0D01*
G01*
X122799999Y-32840000D01*
G75*
G02*
X122550000Y-32590001I0J249999D01*
G01*
X122550000Y-31689999D01*
G75*
G02*
X122799999Y-31440000I249999J0D01*
G01*
X123500001Y-31440000D01*
G75*
G02*
X123750000Y-31689999I0J-249999D01*
G01*
G37*
%TD*%
%TO.C,R5*%
G36*
G01*
X121700000Y-28239999D02*
X121700000Y-29140001D01*
G75*
G02*
X121450001Y-29390000I-249999J0D01*
G01*
X120749999Y-29390000D01*
G75*
G02*
X120500000Y-29140001I0J249999D01*
G01*
X120500000Y-28239999D01*
G75*
G02*
X120749999Y-27990000I249999J0D01*
G01*
X121450001Y-27990000D01*
G75*
G02*
X121700000Y-28239999I0J-249999D01*
G01*
G37*
G36*
G01*
X123700000Y-28239999D02*
X123700000Y-29140001D01*
G75*
G02*
X123450001Y-29390000I-249999J0D01*
G01*
X122749999Y-29390000D01*
G75*
G02*
X122500000Y-29140001I0J249999D01*
G01*
X122500000Y-28239999D01*
G75*
G02*
X122749999Y-27990000I249999J0D01*
G01*
X123450001Y-27990000D01*
G75*
G02*
X123700000Y-28239999I0J-249999D01*
G01*
G37*
%TD*%
%TO.C,R4*%
G36*
G01*
X121750000Y-24639999D02*
X121750000Y-25540001D01*
G75*
G02*
X121500001Y-25790000I-249999J0D01*
G01*
X120799999Y-25790000D01*
G75*
G02*
X120550000Y-25540001I0J249999D01*
G01*
X120550000Y-24639999D01*
G75*
G02*
X120799999Y-24390000I249999J0D01*
G01*
X121500001Y-24390000D01*
G75*
G02*
X121750000Y-24639999I0J-249999D01*
G01*
G37*
G36*
G01*
X123750000Y-24639999D02*
X123750000Y-25540001D01*
G75*
G02*
X123500001Y-25790000I-249999J0D01*
G01*
X122799999Y-25790000D01*
G75*
G02*
X122550000Y-25540001I0J249999D01*
G01*
X122550000Y-24639999D01*
G75*
G02*
X122799999Y-24390000I249999J0D01*
G01*
X123500001Y-24390000D01*
G75*
G02*
X123750000Y-24639999I0J-249999D01*
G01*
G37*
%TD*%
%TO.C,R3*%
G36*
G01*
X126270001Y-37760000D02*
X125369999Y-37760000D01*
G75*
G02*
X125120000Y-37510001I0J249999D01*
G01*
X125120000Y-36809999D01*
G75*
G02*
X125369999Y-36560000I249999J0D01*
G01*
X126270001Y-36560000D01*
G75*
G02*
X126520000Y-36809999I0J-249999D01*
G01*
X126520000Y-37510001D01*
G75*
G02*
X126270001Y-37760000I-249999J0D01*
G01*
G37*
G36*
G01*
X126270001Y-39760000D02*
X125369999Y-39760000D01*
G75*
G02*
X125120000Y-39510001I0J249999D01*
G01*
X125120000Y-38809999D01*
G75*
G02*
X125369999Y-38560000I249999J0D01*
G01*
X126270001Y-38560000D01*
G75*
G02*
X126520000Y-38809999I0J-249999D01*
G01*
X126520000Y-39510001D01*
G75*
G02*
X126270001Y-39760000I-249999J0D01*
G01*
G37*
%TD*%
%TO.C,U1*%
G36*
G01*
X134400000Y-32100000D02*
X134400000Y-30775000D01*
G75*
G02*
X134475000Y-30700000I75000J0D01*
G01*
X134625000Y-30700000D01*
G75*
G02*
X134700000Y-30775000I0J-75000D01*
G01*
X134700000Y-32100000D01*
G75*
G02*
X134625000Y-32175000I-75000J0D01*
G01*
X134475000Y-32175000D01*
G75*
G02*
X134400000Y-32100000I0J75000D01*
G01*
G37*
G36*
G01*
X134900000Y-32100000D02*
X134900000Y-30775000D01*
G75*
G02*
X134975000Y-30700000I75000J0D01*
G01*
X135125000Y-30700000D01*
G75*
G02*
X135200000Y-30775000I0J-75000D01*
G01*
X135200000Y-32100000D01*
G75*
G02*
X135125000Y-32175000I-75000J0D01*
G01*
X134975000Y-32175000D01*
G75*
G02*
X134900000Y-32100000I0J75000D01*
G01*
G37*
G36*
G01*
X135400000Y-32100000D02*
X135400000Y-30775000D01*
G75*
G02*
X135475000Y-30700000I75000J0D01*
G01*
X135625000Y-30700000D01*
G75*
G02*
X135700000Y-30775000I0J-75000D01*
G01*
X135700000Y-32100000D01*
G75*
G02*
X135625000Y-32175000I-75000J0D01*
G01*
X135475000Y-32175000D01*
G75*
G02*
X135400000Y-32100000I0J75000D01*
G01*
G37*
G36*
G01*
X135900000Y-32100000D02*
X135900000Y-30775000D01*
G75*
G02*
X135975000Y-30700000I75000J0D01*
G01*
X136125000Y-30700000D01*
G75*
G02*
X136200000Y-30775000I0J-75000D01*
G01*
X136200000Y-32100000D01*
G75*
G02*
X136125000Y-32175000I-75000J0D01*
G01*
X135975000Y-32175000D01*
G75*
G02*
X135900000Y-32100000I0J75000D01*
G01*
G37*
G36*
G01*
X136400000Y-32100000D02*
X136400000Y-30775000D01*
G75*
G02*
X136475000Y-30700000I75000J0D01*
G01*
X136625000Y-30700000D01*
G75*
G02*
X136700000Y-30775000I0J-75000D01*
G01*
X136700000Y-32100000D01*
G75*
G02*
X136625000Y-32175000I-75000J0D01*
G01*
X136475000Y-32175000D01*
G75*
G02*
X136400000Y-32100000I0J75000D01*
G01*
G37*
G36*
G01*
X136900000Y-32100000D02*
X136900000Y-30775000D01*
G75*
G02*
X136975000Y-30700000I75000J0D01*
G01*
X137125000Y-30700000D01*
G75*
G02*
X137200000Y-30775000I0J-75000D01*
G01*
X137200000Y-32100000D01*
G75*
G02*
X137125000Y-32175000I-75000J0D01*
G01*
X136975000Y-32175000D01*
G75*
G02*
X136900000Y-32100000I0J75000D01*
G01*
G37*
G36*
G01*
X137400000Y-32100000D02*
X137400000Y-30775000D01*
G75*
G02*
X137475000Y-30700000I75000J0D01*
G01*
X137625000Y-30700000D01*
G75*
G02*
X137700000Y-30775000I0J-75000D01*
G01*
X137700000Y-32100000D01*
G75*
G02*
X137625000Y-32175000I-75000J0D01*
G01*
X137475000Y-32175000D01*
G75*
G02*
X137400000Y-32100000I0J75000D01*
G01*
G37*
G36*
G01*
X137900000Y-32100000D02*
X137900000Y-30775000D01*
G75*
G02*
X137975000Y-30700000I75000J0D01*
G01*
X138125000Y-30700000D01*
G75*
G02*
X138200000Y-30775000I0J-75000D01*
G01*
X138200000Y-32100000D01*
G75*
G02*
X138125000Y-32175000I-75000J0D01*
G01*
X137975000Y-32175000D01*
G75*
G02*
X137900000Y-32100000I0J75000D01*
G01*
G37*
G36*
G01*
X138400000Y-32100000D02*
X138400000Y-30775000D01*
G75*
G02*
X138475000Y-30700000I75000J0D01*
G01*
X138625000Y-30700000D01*
G75*
G02*
X138700000Y-30775000I0J-75000D01*
G01*
X138700000Y-32100000D01*
G75*
G02*
X138625000Y-32175000I-75000J0D01*
G01*
X138475000Y-32175000D01*
G75*
G02*
X138400000Y-32100000I0J75000D01*
G01*
G37*
G36*
G01*
X138900000Y-32100000D02*
X138900000Y-30775000D01*
G75*
G02*
X138975000Y-30700000I75000J0D01*
G01*
X139125000Y-30700000D01*
G75*
G02*
X139200000Y-30775000I0J-75000D01*
G01*
X139200000Y-32100000D01*
G75*
G02*
X139125000Y-32175000I-75000J0D01*
G01*
X138975000Y-32175000D01*
G75*
G02*
X138900000Y-32100000I0J75000D01*
G01*
G37*
G36*
G01*
X139400000Y-32100000D02*
X139400000Y-30775000D01*
G75*
G02*
X139475000Y-30700000I75000J0D01*
G01*
X139625000Y-30700000D01*
G75*
G02*
X139700000Y-30775000I0J-75000D01*
G01*
X139700000Y-32100000D01*
G75*
G02*
X139625000Y-32175000I-75000J0D01*
G01*
X139475000Y-32175000D01*
G75*
G02*
X139400000Y-32100000I0J75000D01*
G01*
G37*
G36*
G01*
X139900000Y-32100000D02*
X139900000Y-30775000D01*
G75*
G02*
X139975000Y-30700000I75000J0D01*
G01*
X140125000Y-30700000D01*
G75*
G02*
X140200000Y-30775000I0J-75000D01*
G01*
X140200000Y-32100000D01*
G75*
G02*
X140125000Y-32175000I-75000J0D01*
G01*
X139975000Y-32175000D01*
G75*
G02*
X139900000Y-32100000I0J75000D01*
G01*
G37*
G36*
G01*
X140725000Y-32925000D02*
X140725000Y-32775000D01*
G75*
G02*
X140800000Y-32700000I75000J0D01*
G01*
X142125000Y-32700000D01*
G75*
G02*
X142200000Y-32775000I0J-75000D01*
G01*
X142200000Y-32925000D01*
G75*
G02*
X142125000Y-33000000I-75000J0D01*
G01*
X140800000Y-33000000D01*
G75*
G02*
X140725000Y-32925000I0J75000D01*
G01*
G37*
G36*
G01*
X140725000Y-33425000D02*
X140725000Y-33275000D01*
G75*
G02*
X140800000Y-33200000I75000J0D01*
G01*
X142125000Y-33200000D01*
G75*
G02*
X142200000Y-33275000I0J-75000D01*
G01*
X142200000Y-33425000D01*
G75*
G02*
X142125000Y-33500000I-75000J0D01*
G01*
X140800000Y-33500000D01*
G75*
G02*
X140725000Y-33425000I0J75000D01*
G01*
G37*
G36*
G01*
X140725000Y-33925000D02*
X140725000Y-33775000D01*
G75*
G02*
X140800000Y-33700000I75000J0D01*
G01*
X142125000Y-33700000D01*
G75*
G02*
X142200000Y-33775000I0J-75000D01*
G01*
X142200000Y-33925000D01*
G75*
G02*
X142125000Y-34000000I-75000J0D01*
G01*
X140800000Y-34000000D01*
G75*
G02*
X140725000Y-33925000I0J75000D01*
G01*
G37*
G36*
G01*
X140725000Y-34425000D02*
X140725000Y-34275000D01*
G75*
G02*
X140800000Y-34200000I75000J0D01*
G01*
X142125000Y-34200000D01*
G75*
G02*
X142200000Y-34275000I0J-75000D01*
G01*
X142200000Y-34425000D01*
G75*
G02*
X142125000Y-34500000I-75000J0D01*
G01*
X140800000Y-34500000D01*
G75*
G02*
X140725000Y-34425000I0J75000D01*
G01*
G37*
G36*
G01*
X140725000Y-34925000D02*
X140725000Y-34775000D01*
G75*
G02*
X140800000Y-34700000I75000J0D01*
G01*
X142125000Y-34700000D01*
G75*
G02*
X142200000Y-34775000I0J-75000D01*
G01*
X142200000Y-34925000D01*
G75*
G02*
X142125000Y-35000000I-75000J0D01*
G01*
X140800000Y-35000000D01*
G75*
G02*
X140725000Y-34925000I0J75000D01*
G01*
G37*
G36*
G01*
X140725000Y-35425000D02*
X140725000Y-35275000D01*
G75*
G02*
X140800000Y-35200000I75000J0D01*
G01*
X142125000Y-35200000D01*
G75*
G02*
X142200000Y-35275000I0J-75000D01*
G01*
X142200000Y-35425000D01*
G75*
G02*
X142125000Y-35500000I-75000J0D01*
G01*
X140800000Y-35500000D01*
G75*
G02*
X140725000Y-35425000I0J75000D01*
G01*
G37*
G36*
G01*
X140725000Y-35925000D02*
X140725000Y-35775000D01*
G75*
G02*
X140800000Y-35700000I75000J0D01*
G01*
X142125000Y-35700000D01*
G75*
G02*
X142200000Y-35775000I0J-75000D01*
G01*
X142200000Y-35925000D01*
G75*
G02*
X142125000Y-36000000I-75000J0D01*
G01*
X140800000Y-36000000D01*
G75*
G02*
X140725000Y-35925000I0J75000D01*
G01*
G37*
G36*
G01*
X140725000Y-36425000D02*
X140725000Y-36275000D01*
G75*
G02*
X140800000Y-36200000I75000J0D01*
G01*
X142125000Y-36200000D01*
G75*
G02*
X142200000Y-36275000I0J-75000D01*
G01*
X142200000Y-36425000D01*
G75*
G02*
X142125000Y-36500000I-75000J0D01*
G01*
X140800000Y-36500000D01*
G75*
G02*
X140725000Y-36425000I0J75000D01*
G01*
G37*
G36*
G01*
X140725000Y-36925000D02*
X140725000Y-36775000D01*
G75*
G02*
X140800000Y-36700000I75000J0D01*
G01*
X142125000Y-36700000D01*
G75*
G02*
X142200000Y-36775000I0J-75000D01*
G01*
X142200000Y-36925000D01*
G75*
G02*
X142125000Y-37000000I-75000J0D01*
G01*
X140800000Y-37000000D01*
G75*
G02*
X140725000Y-36925000I0J75000D01*
G01*
G37*
G36*
G01*
X140725000Y-37425000D02*
X140725000Y-37275000D01*
G75*
G02*
X140800000Y-37200000I75000J0D01*
G01*
X142125000Y-37200000D01*
G75*
G02*
X142200000Y-37275000I0J-75000D01*
G01*
X142200000Y-37425000D01*
G75*
G02*
X142125000Y-37500000I-75000J0D01*
G01*
X140800000Y-37500000D01*
G75*
G02*
X140725000Y-37425000I0J75000D01*
G01*
G37*
G36*
G01*
X140725000Y-37925000D02*
X140725000Y-37775000D01*
G75*
G02*
X140800000Y-37700000I75000J0D01*
G01*
X142125000Y-37700000D01*
G75*
G02*
X142200000Y-37775000I0J-75000D01*
G01*
X142200000Y-37925000D01*
G75*
G02*
X142125000Y-38000000I-75000J0D01*
G01*
X140800000Y-38000000D01*
G75*
G02*
X140725000Y-37925000I0J75000D01*
G01*
G37*
G36*
G01*
X140725000Y-38425000D02*
X140725000Y-38275000D01*
G75*
G02*
X140800000Y-38200000I75000J0D01*
G01*
X142125000Y-38200000D01*
G75*
G02*
X142200000Y-38275000I0J-75000D01*
G01*
X142200000Y-38425000D01*
G75*
G02*
X142125000Y-38500000I-75000J0D01*
G01*
X140800000Y-38500000D01*
G75*
G02*
X140725000Y-38425000I0J75000D01*
G01*
G37*
G36*
G01*
X139900000Y-40425000D02*
X139900000Y-39100000D01*
G75*
G02*
X139975000Y-39025000I75000J0D01*
G01*
X140125000Y-39025000D01*
G75*
G02*
X140200000Y-39100000I0J-75000D01*
G01*
X140200000Y-40425000D01*
G75*
G02*
X140125000Y-40500000I-75000J0D01*
G01*
X139975000Y-40500000D01*
G75*
G02*
X139900000Y-40425000I0J75000D01*
G01*
G37*
G36*
G01*
X139400000Y-40425000D02*
X139400000Y-39100000D01*
G75*
G02*
X139475000Y-39025000I75000J0D01*
G01*
X139625000Y-39025000D01*
G75*
G02*
X139700000Y-39100000I0J-75000D01*
G01*
X139700000Y-40425000D01*
G75*
G02*
X139625000Y-40500000I-75000J0D01*
G01*
X139475000Y-40500000D01*
G75*
G02*
X139400000Y-40425000I0J75000D01*
G01*
G37*
G36*
G01*
X138900000Y-40425000D02*
X138900000Y-39100000D01*
G75*
G02*
X138975000Y-39025000I75000J0D01*
G01*
X139125000Y-39025000D01*
G75*
G02*
X139200000Y-39100000I0J-75000D01*
G01*
X139200000Y-40425000D01*
G75*
G02*
X139125000Y-40500000I-75000J0D01*
G01*
X138975000Y-40500000D01*
G75*
G02*
X138900000Y-40425000I0J75000D01*
G01*
G37*
G36*
G01*
X138400000Y-40425000D02*
X138400000Y-39100000D01*
G75*
G02*
X138475000Y-39025000I75000J0D01*
G01*
X138625000Y-39025000D01*
G75*
G02*
X138700000Y-39100000I0J-75000D01*
G01*
X138700000Y-40425000D01*
G75*
G02*
X138625000Y-40500000I-75000J0D01*
G01*
X138475000Y-40500000D01*
G75*
G02*
X138400000Y-40425000I0J75000D01*
G01*
G37*
G36*
G01*
X137900000Y-40425000D02*
X137900000Y-39100000D01*
G75*
G02*
X137975000Y-39025000I75000J0D01*
G01*
X138125000Y-39025000D01*
G75*
G02*
X138200000Y-39100000I0J-75000D01*
G01*
X138200000Y-40425000D01*
G75*
G02*
X138125000Y-40500000I-75000J0D01*
G01*
X137975000Y-40500000D01*
G75*
G02*
X137900000Y-40425000I0J75000D01*
G01*
G37*
G36*
G01*
X137400000Y-40425000D02*
X137400000Y-39100000D01*
G75*
G02*
X137475000Y-39025000I75000J0D01*
G01*
X137625000Y-39025000D01*
G75*
G02*
X137700000Y-39100000I0J-75000D01*
G01*
X137700000Y-40425000D01*
G75*
G02*
X137625000Y-40500000I-75000J0D01*
G01*
X137475000Y-40500000D01*
G75*
G02*
X137400000Y-40425000I0J75000D01*
G01*
G37*
G36*
G01*
X136900000Y-40425000D02*
X136900000Y-39100000D01*
G75*
G02*
X136975000Y-39025000I75000J0D01*
G01*
X137125000Y-39025000D01*
G75*
G02*
X137200000Y-39100000I0J-75000D01*
G01*
X137200000Y-40425000D01*
G75*
G02*
X137125000Y-40500000I-75000J0D01*
G01*
X136975000Y-40500000D01*
G75*
G02*
X136900000Y-40425000I0J75000D01*
G01*
G37*
G36*
G01*
X136400000Y-40425000D02*
X136400000Y-39100000D01*
G75*
G02*
X136475000Y-39025000I75000J0D01*
G01*
X136625000Y-39025000D01*
G75*
G02*
X136700000Y-39100000I0J-75000D01*
G01*
X136700000Y-40425000D01*
G75*
G02*
X136625000Y-40500000I-75000J0D01*
G01*
X136475000Y-40500000D01*
G75*
G02*
X136400000Y-40425000I0J75000D01*
G01*
G37*
G36*
G01*
X135900000Y-40425000D02*
X135900000Y-39100000D01*
G75*
G02*
X135975000Y-39025000I75000J0D01*
G01*
X136125000Y-39025000D01*
G75*
G02*
X136200000Y-39100000I0J-75000D01*
G01*
X136200000Y-40425000D01*
G75*
G02*
X136125000Y-40500000I-75000J0D01*
G01*
X135975000Y-40500000D01*
G75*
G02*
X135900000Y-40425000I0J75000D01*
G01*
G37*
G36*
G01*
X135400000Y-40425000D02*
X135400000Y-39100000D01*
G75*
G02*
X135475000Y-39025000I75000J0D01*
G01*
X135625000Y-39025000D01*
G75*
G02*
X135700000Y-39100000I0J-75000D01*
G01*
X135700000Y-40425000D01*
G75*
G02*
X135625000Y-40500000I-75000J0D01*
G01*
X135475000Y-40500000D01*
G75*
G02*
X135400000Y-40425000I0J75000D01*
G01*
G37*
G36*
G01*
X134900000Y-40425000D02*
X134900000Y-39100000D01*
G75*
G02*
X134975000Y-39025000I75000J0D01*
G01*
X135125000Y-39025000D01*
G75*
G02*
X135200000Y-39100000I0J-75000D01*
G01*
X135200000Y-40425000D01*
G75*
G02*
X135125000Y-40500000I-75000J0D01*
G01*
X134975000Y-40500000D01*
G75*
G02*
X134900000Y-40425000I0J75000D01*
G01*
G37*
G36*
G01*
X134400000Y-40425000D02*
X134400000Y-39100000D01*
G75*
G02*
X134475000Y-39025000I75000J0D01*
G01*
X134625000Y-39025000D01*
G75*
G02*
X134700000Y-39100000I0J-75000D01*
G01*
X134700000Y-40425000D01*
G75*
G02*
X134625000Y-40500000I-75000J0D01*
G01*
X134475000Y-40500000D01*
G75*
G02*
X134400000Y-40425000I0J75000D01*
G01*
G37*
G36*
G01*
X132400000Y-38425000D02*
X132400000Y-38275000D01*
G75*
G02*
X132475000Y-38200000I75000J0D01*
G01*
X133800000Y-38200000D01*
G75*
G02*
X133875000Y-38275000I0J-75000D01*
G01*
X133875000Y-38425000D01*
G75*
G02*
X133800000Y-38500000I-75000J0D01*
G01*
X132475000Y-38500000D01*
G75*
G02*
X132400000Y-38425000I0J75000D01*
G01*
G37*
G36*
G01*
X132400000Y-37925000D02*
X132400000Y-37775000D01*
G75*
G02*
X132475000Y-37700000I75000J0D01*
G01*
X133800000Y-37700000D01*
G75*
G02*
X133875000Y-37775000I0J-75000D01*
G01*
X133875000Y-37925000D01*
G75*
G02*
X133800000Y-38000000I-75000J0D01*
G01*
X132475000Y-38000000D01*
G75*
G02*
X132400000Y-37925000I0J75000D01*
G01*
G37*
G36*
G01*
X132400000Y-37425000D02*
X132400000Y-37275000D01*
G75*
G02*
X132475000Y-37200000I75000J0D01*
G01*
X133800000Y-37200000D01*
G75*
G02*
X133875000Y-37275000I0J-75000D01*
G01*
X133875000Y-37425000D01*
G75*
G02*
X133800000Y-37500000I-75000J0D01*
G01*
X132475000Y-37500000D01*
G75*
G02*
X132400000Y-37425000I0J75000D01*
G01*
G37*
G36*
G01*
X132400000Y-36925000D02*
X132400000Y-36775000D01*
G75*
G02*
X132475000Y-36700000I75000J0D01*
G01*
X133800000Y-36700000D01*
G75*
G02*
X133875000Y-36775000I0J-75000D01*
G01*
X133875000Y-36925000D01*
G75*
G02*
X133800000Y-37000000I-75000J0D01*
G01*
X132475000Y-37000000D01*
G75*
G02*
X132400000Y-36925000I0J75000D01*
G01*
G37*
G36*
G01*
X132400000Y-36425000D02*
X132400000Y-36275000D01*
G75*
G02*
X132475000Y-36200000I75000J0D01*
G01*
X133800000Y-36200000D01*
G75*
G02*
X133875000Y-36275000I0J-75000D01*
G01*
X133875000Y-36425000D01*
G75*
G02*
X133800000Y-36500000I-75000J0D01*
G01*
X132475000Y-36500000D01*
G75*
G02*
X132400000Y-36425000I0J75000D01*
G01*
G37*
G36*
G01*
X132400000Y-35925000D02*
X132400000Y-35775000D01*
G75*
G02*
X132475000Y-35700000I75000J0D01*
G01*
X133800000Y-35700000D01*
G75*
G02*
X133875000Y-35775000I0J-75000D01*
G01*
X133875000Y-35925000D01*
G75*
G02*
X133800000Y-36000000I-75000J0D01*
G01*
X132475000Y-36000000D01*
G75*
G02*
X132400000Y-35925000I0J75000D01*
G01*
G37*
G36*
G01*
X132400000Y-35425000D02*
X132400000Y-35275000D01*
G75*
G02*
X132475000Y-35200000I75000J0D01*
G01*
X133800000Y-35200000D01*
G75*
G02*
X133875000Y-35275000I0J-75000D01*
G01*
X133875000Y-35425000D01*
G75*
G02*
X133800000Y-35500000I-75000J0D01*
G01*
X132475000Y-35500000D01*
G75*
G02*
X132400000Y-35425000I0J75000D01*
G01*
G37*
G36*
G01*
X132400000Y-34925000D02*
X132400000Y-34775000D01*
G75*
G02*
X132475000Y-34700000I75000J0D01*
G01*
X133800000Y-34700000D01*
G75*
G02*
X133875000Y-34775000I0J-75000D01*
G01*
X133875000Y-34925000D01*
G75*
G02*
X133800000Y-35000000I-75000J0D01*
G01*
X132475000Y-35000000D01*
G75*
G02*
X132400000Y-34925000I0J75000D01*
G01*
G37*
G36*
G01*
X132400000Y-34425000D02*
X132400000Y-34275000D01*
G75*
G02*
X132475000Y-34200000I75000J0D01*
G01*
X133800000Y-34200000D01*
G75*
G02*
X133875000Y-34275000I0J-75000D01*
G01*
X133875000Y-34425000D01*
G75*
G02*
X133800000Y-34500000I-75000J0D01*
G01*
X132475000Y-34500000D01*
G75*
G02*
X132400000Y-34425000I0J75000D01*
G01*
G37*
G36*
G01*
X132400000Y-33925000D02*
X132400000Y-33775000D01*
G75*
G02*
X132475000Y-33700000I75000J0D01*
G01*
X133800000Y-33700000D01*
G75*
G02*
X133875000Y-33775000I0J-75000D01*
G01*
X133875000Y-33925000D01*
G75*
G02*
X133800000Y-34000000I-75000J0D01*
G01*
X132475000Y-34000000D01*
G75*
G02*
X132400000Y-33925000I0J75000D01*
G01*
G37*
G36*
G01*
X132400000Y-33425000D02*
X132400000Y-33275000D01*
G75*
G02*
X132475000Y-33200000I75000J0D01*
G01*
X133800000Y-33200000D01*
G75*
G02*
X133875000Y-33275000I0J-75000D01*
G01*
X133875000Y-33425000D01*
G75*
G02*
X133800000Y-33500000I-75000J0D01*
G01*
X132475000Y-33500000D01*
G75*
G02*
X132400000Y-33425000I0J75000D01*
G01*
G37*
G36*
G01*
X132400000Y-32925000D02*
X132400000Y-32775000D01*
G75*
G02*
X132475000Y-32700000I75000J0D01*
G01*
X133800000Y-32700000D01*
G75*
G02*
X133875000Y-32775000I0J-75000D01*
G01*
X133875000Y-32925000D01*
G75*
G02*
X133800000Y-33000000I-75000J0D01*
G01*
X132475000Y-33000000D01*
G75*
G02*
X132400000Y-32925000I0J75000D01*
G01*
G37*
%TD*%
D13*
%TO.C,SS1*%
X119090000Y-57575000D03*
X115090000Y-57575000D03*
%TD*%
%TO.C,RED1*%
G36*
G01*
X118140000Y-25326250D02*
X118140000Y-24813750D01*
G75*
G02*
X118358750Y-24595000I218750J0D01*
G01*
X118796250Y-24595000D01*
G75*
G02*
X119015000Y-24813750I0J-218750D01*
G01*
X119015000Y-25326250D01*
G75*
G02*
X118796250Y-25545000I-218750J0D01*
G01*
X118358750Y-25545000D01*
G75*
G02*
X118140000Y-25326250I0J218750D01*
G01*
G37*
G36*
G01*
X116565000Y-25326250D02*
X116565000Y-24813750D01*
G75*
G02*
X116783750Y-24595000I218750J0D01*
G01*
X117221250Y-24595000D01*
G75*
G02*
X117440000Y-24813750I0J-218750D01*
G01*
X117440000Y-25326250D01*
G75*
G02*
X117221250Y-25545000I-218750J0D01*
G01*
X116783750Y-25545000D01*
G75*
G02*
X116565000Y-25326250I0J218750D01*
G01*
G37*
%TD*%
%TO.C,R2*%
G36*
G01*
X133160001Y-54050000D02*
X132259999Y-54050000D01*
G75*
G02*
X132010000Y-53800001I0J249999D01*
G01*
X132010000Y-53099999D01*
G75*
G02*
X132259999Y-52850000I249999J0D01*
G01*
X133160001Y-52850000D01*
G75*
G02*
X133410000Y-53099999I0J-249999D01*
G01*
X133410000Y-53800001D01*
G75*
G02*
X133160001Y-54050000I-249999J0D01*
G01*
G37*
G36*
G01*
X133160001Y-56050000D02*
X132259999Y-56050000D01*
G75*
G02*
X132010000Y-55800001I0J249999D01*
G01*
X132010000Y-55099999D01*
G75*
G02*
X132259999Y-54850000I249999J0D01*
G01*
X133160001Y-54850000D01*
G75*
G02*
X133410000Y-55099999I0J-249999D01*
G01*
X133410000Y-55800001D01*
G75*
G02*
X133160001Y-56050000I-249999J0D01*
G01*
G37*
%TD*%
%TO.C,R1*%
G36*
G01*
X129859999Y-54800000D02*
X130760001Y-54800000D01*
G75*
G02*
X131010000Y-55049999I0J-249999D01*
G01*
X131010000Y-55750001D01*
G75*
G02*
X130760001Y-56000000I-249999J0D01*
G01*
X129859999Y-56000000D01*
G75*
G02*
X129610000Y-55750001I0J249999D01*
G01*
X129610000Y-55049999D01*
G75*
G02*
X129859999Y-54800000I249999J0D01*
G01*
G37*
G36*
G01*
X129859999Y-52800000D02*
X130760001Y-52800000D01*
G75*
G02*
X131010000Y-53049999I0J-249999D01*
G01*
X131010000Y-53750001D01*
G75*
G02*
X130760001Y-54000000I-249999J0D01*
G01*
X129859999Y-54000000D01*
G75*
G02*
X129610000Y-53750001I0J249999D01*
G01*
X129610000Y-53049999D01*
G75*
G02*
X129859999Y-52800000I249999J0D01*
G01*
G37*
%TD*%
D14*
%TO.C,Q8*%
X156680000Y-27449999D03*
X158580000Y-27449999D03*
X157630000Y-24849999D03*
%TD*%
%TO.C,Q7*%
X156230000Y-33850001D03*
X158130000Y-33850001D03*
X157180000Y-31250001D03*
%TD*%
%TO.C,Q6*%
X156130000Y-39950000D03*
X158030000Y-39950000D03*
X157080000Y-37350000D03*
%TD*%
D15*
%TO.C,Q5*%
X154260000Y-47880000D03*
X154260000Y-49780000D03*
X156860000Y-48830000D03*
%TD*%
%TO.C,Q4*%
X147740000Y-47560000D03*
X147740000Y-49460000D03*
X150340000Y-48510000D03*
%TD*%
%TO.C,Q3*%
X141110000Y-47420000D03*
X141110000Y-49320000D03*
X143710000Y-48370000D03*
%TD*%
%TO.C,Q2*%
X134090000Y-47240000D03*
X134090000Y-49140000D03*
X136690000Y-48190000D03*
%TD*%
%TO.C,Q1*%
X127540000Y-47170000D03*
X127540000Y-49070000D03*
X130140000Y-48120000D03*
%TD*%
D16*
%TO.C,J4*%
X143950000Y-28625000D03*
X148550000Y-28625000D03*
X146250000Y-28625000D03*
D17*
X146250000Y-22325000D03*
%TD*%
%TO.C,GREEN1*%
G36*
G01*
X118127500Y-28926250D02*
X118127500Y-28413750D01*
G75*
G02*
X118346250Y-28195000I218750J0D01*
G01*
X118783750Y-28195000D01*
G75*
G02*
X119002500Y-28413750I0J-218750D01*
G01*
X119002500Y-28926250D01*
G75*
G02*
X118783750Y-29145000I-218750J0D01*
G01*
X118346250Y-29145000D01*
G75*
G02*
X118127500Y-28926250I0J218750D01*
G01*
G37*
G36*
G01*
X116552500Y-28926250D02*
X116552500Y-28413750D01*
G75*
G02*
X116771250Y-28195000I218750J0D01*
G01*
X117208750Y-28195000D01*
G75*
G02*
X117427500Y-28413750I0J-218750D01*
G01*
X117427500Y-28926250D01*
G75*
G02*
X117208750Y-29145000I-218750J0D01*
G01*
X116771250Y-29145000D01*
G75*
G02*
X116552500Y-28926250I0J218750D01*
G01*
G37*
%TD*%
%TO.C,C19*%
G36*
G01*
X123162500Y-38665000D02*
X123637500Y-38665000D01*
G75*
G02*
X123875000Y-38902500I0J-237500D01*
G01*
X123875000Y-39502500D01*
G75*
G02*
X123637500Y-39740000I-237500J0D01*
G01*
X123162500Y-39740000D01*
G75*
G02*
X122925000Y-39502500I0J237500D01*
G01*
X122925000Y-38902500D01*
G75*
G02*
X123162500Y-38665000I237500J0D01*
G01*
G37*
G36*
G01*
X123162500Y-36940000D02*
X123637500Y-36940000D01*
G75*
G02*
X123875000Y-37177500I0J-237500D01*
G01*
X123875000Y-37777500D01*
G75*
G02*
X123637500Y-38015000I-237500J0D01*
G01*
X123162500Y-38015000D01*
G75*
G02*
X122925000Y-37777500I0J237500D01*
G01*
X122925000Y-37177500D01*
G75*
G02*
X123162500Y-36940000I237500J0D01*
G01*
G37*
%TD*%
%TO.C,C18*%
G36*
G01*
X138595000Y-16280001D02*
X137645000Y-16280001D01*
G75*
G02*
X137395000Y-16030001I0J250000D01*
G01*
X137395000Y-15530001D01*
G75*
G02*
X137645000Y-15280001I250000J0D01*
G01*
X138595000Y-15280001D01*
G75*
G02*
X138845000Y-15530001I0J-250000D01*
G01*
X138845000Y-16030001D01*
G75*
G02*
X138595000Y-16280001I-250000J0D01*
G01*
G37*
G36*
G01*
X138595000Y-18180001D02*
X137645000Y-18180001D01*
G75*
G02*
X137395000Y-17930001I0J250000D01*
G01*
X137395000Y-17430001D01*
G75*
G02*
X137645000Y-17180001I250000J0D01*
G01*
X138595000Y-17180001D01*
G75*
G02*
X138845000Y-17430001I0J-250000D01*
G01*
X138845000Y-17930001D01*
G75*
G02*
X138595000Y-18180001I-250000J0D01*
G01*
G37*
%TD*%
%TO.C,C17*%
G36*
G01*
X118355000Y-37790000D02*
X117405000Y-37790000D01*
G75*
G02*
X117155000Y-37540000I0J250000D01*
G01*
X117155000Y-37040000D01*
G75*
G02*
X117405000Y-36790000I250000J0D01*
G01*
X118355000Y-36790000D01*
G75*
G02*
X118605000Y-37040000I0J-250000D01*
G01*
X118605000Y-37540000D01*
G75*
G02*
X118355000Y-37790000I-250000J0D01*
G01*
G37*
G36*
G01*
X118355000Y-39690000D02*
X117405000Y-39690000D01*
G75*
G02*
X117155000Y-39440000I0J250000D01*
G01*
X117155000Y-38940000D01*
G75*
G02*
X117405000Y-38690000I250000J0D01*
G01*
X118355000Y-38690000D01*
G75*
G02*
X118605000Y-38940000I0J-250000D01*
G01*
X118605000Y-39440000D01*
G75*
G02*
X118355000Y-39690000I-250000J0D01*
G01*
G37*
%TD*%
%TO.C,C16*%
G36*
G01*
X121000000Y-37825000D02*
X120050000Y-37825000D01*
G75*
G02*
X119800000Y-37575000I0J250000D01*
G01*
X119800000Y-37075000D01*
G75*
G02*
X120050000Y-36825000I250000J0D01*
G01*
X121000000Y-36825000D01*
G75*
G02*
X121250000Y-37075000I0J-250000D01*
G01*
X121250000Y-37575000D01*
G75*
G02*
X121000000Y-37825000I-250000J0D01*
G01*
G37*
G36*
G01*
X121000000Y-39725000D02*
X120050000Y-39725000D01*
G75*
G02*
X119800000Y-39475000I0J250000D01*
G01*
X119800000Y-38975000D01*
G75*
G02*
X120050000Y-38725000I250000J0D01*
G01*
X121000000Y-38725000D01*
G75*
G02*
X121250000Y-38975000I0J-250000D01*
G01*
X121250000Y-39475000D01*
G75*
G02*
X121000000Y-39725000I-250000J0D01*
G01*
G37*
%TD*%
%TO.C,C14*%
G36*
G01*
X144650000Y-40625000D02*
X144650000Y-40125000D01*
G75*
G02*
X144875000Y-39900000I225000J0D01*
G01*
X145325000Y-39900000D01*
G75*
G02*
X145550000Y-40125000I0J-225000D01*
G01*
X145550000Y-40625000D01*
G75*
G02*
X145325000Y-40850000I-225000J0D01*
G01*
X144875000Y-40850000D01*
G75*
G02*
X144650000Y-40625000I0J225000D01*
G01*
G37*
G36*
G01*
X143100000Y-40625000D02*
X143100000Y-40125000D01*
G75*
G02*
X143325000Y-39900000I225000J0D01*
G01*
X143775000Y-39900000D01*
G75*
G02*
X144000000Y-40125000I0J-225000D01*
G01*
X144000000Y-40625000D01*
G75*
G02*
X143775000Y-40850000I-225000J0D01*
G01*
X143325000Y-40850000D01*
G75*
G02*
X143100000Y-40625000I0J225000D01*
G01*
G37*
%TD*%
%TO.C,C13*%
G36*
G01*
X144900000Y-36075000D02*
X144900000Y-35125000D01*
G75*
G02*
X145150000Y-34875000I250000J0D01*
G01*
X145650000Y-34875000D01*
G75*
G02*
X145900000Y-35125000I0J-250000D01*
G01*
X145900000Y-36075000D01*
G75*
G02*
X145650000Y-36325000I-250000J0D01*
G01*
X145150000Y-36325000D01*
G75*
G02*
X144900000Y-36075000I0J250000D01*
G01*
G37*
G36*
G01*
X143000000Y-36075000D02*
X143000000Y-35125000D01*
G75*
G02*
X143250000Y-34875000I250000J0D01*
G01*
X143750000Y-34875000D01*
G75*
G02*
X144000000Y-35125000I0J-250000D01*
G01*
X144000000Y-36075000D01*
G75*
G02*
X143750000Y-36325000I-250000J0D01*
G01*
X143250000Y-36325000D01*
G75*
G02*
X143000000Y-36075000I0J250000D01*
G01*
G37*
%TD*%
%TO.C,C12*%
G36*
G01*
X131125000Y-28512500D02*
X132075000Y-28512500D01*
G75*
G02*
X132325000Y-28762500I0J-250000D01*
G01*
X132325000Y-29437500D01*
G75*
G02*
X132075000Y-29687500I-250000J0D01*
G01*
X131125000Y-29687500D01*
G75*
G02*
X130875000Y-29437500I0J250000D01*
G01*
X130875000Y-28762500D01*
G75*
G02*
X131125000Y-28512500I250000J0D01*
G01*
G37*
G36*
G01*
X131125000Y-26437500D02*
X132075000Y-26437500D01*
G75*
G02*
X132325000Y-26687500I0J-250000D01*
G01*
X132325000Y-27362500D01*
G75*
G02*
X132075000Y-27612500I-250000J0D01*
G01*
X131125000Y-27612500D01*
G75*
G02*
X130875000Y-27362500I0J250000D01*
G01*
X130875000Y-26687500D01*
G75*
G02*
X131125000Y-26437500I250000J0D01*
G01*
G37*
%TD*%
%TO.C,C11*%
G36*
G01*
X133725000Y-28512500D02*
X134675000Y-28512500D01*
G75*
G02*
X134925000Y-28762500I0J-250000D01*
G01*
X134925000Y-29437500D01*
G75*
G02*
X134675000Y-29687500I-250000J0D01*
G01*
X133725000Y-29687500D01*
G75*
G02*
X133475000Y-29437500I0J250000D01*
G01*
X133475000Y-28762500D01*
G75*
G02*
X133725000Y-28512500I250000J0D01*
G01*
G37*
G36*
G01*
X133725000Y-26437500D02*
X134675000Y-26437500D01*
G75*
G02*
X134925000Y-26687500I0J-250000D01*
G01*
X134925000Y-27362500D01*
G75*
G02*
X134675000Y-27612500I-250000J0D01*
G01*
X133725000Y-27612500D01*
G75*
G02*
X133475000Y-27362500I0J250000D01*
G01*
X133475000Y-26687500D01*
G75*
G02*
X133725000Y-26437500I250000J0D01*
G01*
G37*
%TD*%
%TO.C,C6*%
G36*
G01*
X138525000Y-28512500D02*
X139475000Y-28512500D01*
G75*
G02*
X139725000Y-28762500I0J-250000D01*
G01*
X139725000Y-29437500D01*
G75*
G02*
X139475000Y-29687500I-250000J0D01*
G01*
X138525000Y-29687500D01*
G75*
G02*
X138275000Y-29437500I0J250000D01*
G01*
X138275000Y-28762500D01*
G75*
G02*
X138525000Y-28512500I250000J0D01*
G01*
G37*
G36*
G01*
X138525000Y-26437500D02*
X139475000Y-26437500D01*
G75*
G02*
X139725000Y-26687500I0J-250000D01*
G01*
X139725000Y-27362500D01*
G75*
G02*
X139475000Y-27612500I-250000J0D01*
G01*
X138525000Y-27612500D01*
G75*
G02*
X138275000Y-27362500I0J250000D01*
G01*
X138275000Y-26687500D01*
G75*
G02*
X138525000Y-26437500I250000J0D01*
G01*
G37*
%TD*%
%TO.C,C5*%
G36*
G01*
X144575000Y-38125000D02*
X144575000Y-37625000D01*
G75*
G02*
X144800000Y-37400000I225000J0D01*
G01*
X145250000Y-37400000D01*
G75*
G02*
X145475000Y-37625000I0J-225000D01*
G01*
X145475000Y-38125000D01*
G75*
G02*
X145250000Y-38350000I-225000J0D01*
G01*
X144800000Y-38350000D01*
G75*
G02*
X144575000Y-38125000I0J225000D01*
G01*
G37*
G36*
G01*
X143025000Y-38125000D02*
X143025000Y-37625000D01*
G75*
G02*
X143250000Y-37400000I225000J0D01*
G01*
X143700000Y-37400000D01*
G75*
G02*
X143925000Y-37625000I0J-225000D01*
G01*
X143925000Y-38125000D01*
G75*
G02*
X143700000Y-38350000I-225000J0D01*
G01*
X143250000Y-38350000D01*
G75*
G02*
X143025000Y-38125000I0J225000D01*
G01*
G37*
%TD*%
%TO.C,C4*%
G36*
G01*
X140925000Y-28512500D02*
X141875000Y-28512500D01*
G75*
G02*
X142125000Y-28762500I0J-250000D01*
G01*
X142125000Y-29437500D01*
G75*
G02*
X141875000Y-29687500I-250000J0D01*
G01*
X140925000Y-29687500D01*
G75*
G02*
X140675000Y-29437500I0J250000D01*
G01*
X140675000Y-28762500D01*
G75*
G02*
X140925000Y-28512500I250000J0D01*
G01*
G37*
G36*
G01*
X140925000Y-26437500D02*
X141875000Y-26437500D01*
G75*
G02*
X142125000Y-26687500I0J-250000D01*
G01*
X142125000Y-27362500D01*
G75*
G02*
X141875000Y-27612500I-250000J0D01*
G01*
X140925000Y-27612500D01*
G75*
G02*
X140675000Y-27362500I0J250000D01*
G01*
X140675000Y-26687500D01*
G75*
G02*
X140925000Y-26437500I250000J0D01*
G01*
G37*
%TD*%
%TO.C,C3*%
G36*
G01*
X128485000Y-54012500D02*
X127535000Y-54012500D01*
G75*
G02*
X127285000Y-53762500I0J250000D01*
G01*
X127285000Y-53087500D01*
G75*
G02*
X127535000Y-52837500I250000J0D01*
G01*
X128485000Y-52837500D01*
G75*
G02*
X128735000Y-53087500I0J-250000D01*
G01*
X128735000Y-53762500D01*
G75*
G02*
X128485000Y-54012500I-250000J0D01*
G01*
G37*
G36*
G01*
X128485000Y-56087500D02*
X127535000Y-56087500D01*
G75*
G02*
X127285000Y-55837500I0J250000D01*
G01*
X127285000Y-55162500D01*
G75*
G02*
X127535000Y-54912500I250000J0D01*
G01*
X128485000Y-54912500D01*
G75*
G02*
X128735000Y-55162500I0J-250000D01*
G01*
X128735000Y-55837500D01*
G75*
G02*
X128485000Y-56087500I-250000J0D01*
G01*
G37*
%TD*%
%TO.C,C2*%
G36*
G01*
X144775000Y-32975000D02*
X144775000Y-32025000D01*
G75*
G02*
X145025000Y-31775000I250000J0D01*
G01*
X145525000Y-31775000D01*
G75*
G02*
X145775000Y-32025000I0J-250000D01*
G01*
X145775000Y-32975000D01*
G75*
G02*
X145525000Y-33225000I-250000J0D01*
G01*
X145025000Y-33225000D01*
G75*
G02*
X144775000Y-32975000I0J250000D01*
G01*
G37*
G36*
G01*
X142875000Y-32975000D02*
X142875000Y-32025000D01*
G75*
G02*
X143125000Y-31775000I250000J0D01*
G01*
X143625000Y-31775000D01*
G75*
G02*
X143875000Y-32025000I0J-250000D01*
G01*
X143875000Y-32975000D01*
G75*
G02*
X143625000Y-33225000I-250000J0D01*
G01*
X143125000Y-33225000D01*
G75*
G02*
X142875000Y-32975000I0J250000D01*
G01*
G37*
%TD*%
%TO.C,C1*%
G36*
G01*
X136125000Y-28700000D02*
X137075000Y-28700000D01*
G75*
G02*
X137325000Y-28950000I0J-250000D01*
G01*
X137325000Y-29450000D01*
G75*
G02*
X137075000Y-29700000I-250000J0D01*
G01*
X136125000Y-29700000D01*
G75*
G02*
X135875000Y-29450000I0J250000D01*
G01*
X135875000Y-28950000D01*
G75*
G02*
X136125000Y-28700000I250000J0D01*
G01*
G37*
G36*
G01*
X136125000Y-26800000D02*
X137075000Y-26800000D01*
G75*
G02*
X137325000Y-27050000I0J-250000D01*
G01*
X137325000Y-27550000D01*
G75*
G02*
X137075000Y-27800000I-250000J0D01*
G01*
X136125000Y-27800000D01*
G75*
G02*
X135875000Y-27550000I0J250000D01*
G01*
X135875000Y-27050000D01*
G75*
G02*
X136125000Y-26800000I250000J0D01*
G01*
G37*
%TD*%
%TO.C,BLUE1*%
G36*
G01*
X118240000Y-32476250D02*
X118240000Y-31963750D01*
G75*
G02*
X118458750Y-31745000I218750J0D01*
G01*
X118896250Y-31745000D01*
G75*
G02*
X119115000Y-31963750I0J-218750D01*
G01*
X119115000Y-32476250D01*
G75*
G02*
X118896250Y-32695000I-218750J0D01*
G01*
X118458750Y-32695000D01*
G75*
G02*
X118240000Y-32476250I0J218750D01*
G01*
G37*
G36*
G01*
X116665000Y-32476250D02*
X116665000Y-31963750D01*
G75*
G02*
X116883750Y-31745000I218750J0D01*
G01*
X117321250Y-31745000D01*
G75*
G02*
X117540000Y-31963750I0J-218750D01*
G01*
X117540000Y-32476250D01*
G75*
G02*
X117321250Y-32695000I-218750J0D01*
G01*
X116883750Y-32695000D01*
G75*
G02*
X116665000Y-32476250I0J218750D01*
G01*
G37*
%TD*%
M02*
