M48
; DRILL file {KiCad (5.1.10)-1} date 05/16/22 19:26:09
; FORMAT={-:-/ absolute / metric / decimal}
; #@! TF.CreationDate,2022-05-16T19:26:09+08:00
; #@! TF.GenerationSoftware,Kicad,Pcbnew,(5.1.10)-1
; #@! TF.FileFunction,Plated,1,2,PTH
FMAT,2
METRIC
T1C0.300
T2C0.500
T3C0.800
T4C1.000
T5C1.320
%
G90
G05
T1
X112.0Y-64.55
X114.3Y-18.875
X116.15Y-16.1
X117.875Y-36.3
X118.65Y-33.65
X118.675Y-31.325
X119.325Y-15.775
X119.325Y-23.675
X119.825Y-29.05
X119.85Y-17.275
X120.75Y-40.775
X122.85Y-41.55
X122.85Y-47.9
X123.126Y-33.617
X123.711Y-26.568
X123.859Y-17.191
X123.952Y-35.306
X124.917Y-29.058
X125.476Y-42.672
X125.984Y-29.227
X126.238Y-40.64
X127.2Y-38.475
X127.368Y-33.058
X127.622Y-30.747
X127.686Y-31.839
X128.27Y-30.48
X128.324Y-35.44
X128.88Y-27.838
X129.083Y-18.05
X129.54Y-42.672
X130.048Y-51.308
X130.693Y-33.391
X131.266Y-36.641
X131.542Y-36.108
X132.334Y-42.672
X132.7Y-50.075
X132.7Y-52.3
X133.858Y-40.894
X134.366Y-36.875
X134.62Y-34.798
X135.128Y-22.606
X135.128Y-35.56
X135.184Y-14.991
X135.55Y-30.022
X135.636Y-21.336
X136.225Y-16.825
X136.544Y-30.196
X137.668Y-37.592
X137.795Y-29.845
X138.12Y-19.248
X138.175Y-14.675
X138.176Y-38.117
X138.684Y-30.226
X138.684Y-41.656
X138.701Y-35.779
X138.701Y-36.379
X138.925Y-34.175
X138.938Y-25.654
X139.183Y-34.782
X139.284Y-41.225
X139.7Y-34.29
X139.721Y-33.529
X140.208Y-23.694
X140.208Y-27.94
X140.946Y-31.321
X141.224Y-40.132
X141.478Y-22.352
X141.619Y-30.875
X141.816Y-32.174
X142.167Y-39.873
X142.531Y-37.375
X142.72Y-14.395
X142.748Y-28.956
X142.748Y-34.29
X142.748Y-39.116
X143.009Y-36.841
X143.781Y-41.767
X144.018Y-25.654
X144.306Y-39.574
X144.775Y-10.975
X146.452Y-26.502
X146.812Y-32.512
X146.812Y-41.402
X147.0Y-9.825
X148.573Y-30.734
X148.844Y-54.61
X149.352Y-41.402
X150.368Y-23.368
X151.13Y-49.53
X151.384Y-48.006
X154.575Y-8.275
X159.1Y-36.075
X159.65Y-47.75
T3
X118.14Y-51.0
X121.94Y-51.0
X127.01Y-58.53
X127.01Y-66.15
X134.64Y-58.38
X134.64Y-66.0
X141.19Y-58.41
X141.19Y-66.03
X147.85Y-58.36
X147.85Y-65.98
X150.39Y-11.09
X150.39Y-13.63
X150.39Y-16.17
X150.39Y-18.71
X158.01Y-11.09
X158.01Y-13.63
X158.01Y-16.17
X158.01Y-18.71
T4
X100.81Y-11.255
X100.81Y-13.795
X100.81Y-16.335
X100.81Y-18.875
X103.35Y-11.255
X103.35Y-13.795
X103.35Y-16.335
X103.35Y-18.875
X109.035Y-11.225
X109.035Y-13.765
X111.575Y-11.225
X111.575Y-13.765
X116.26Y-11.21
X118.8Y-11.21
X121.34Y-11.21
X123.88Y-11.21
X126.42Y-11.21
X128.96Y-11.21
X134.16Y-11.28
X136.7Y-11.28
X139.24Y-11.28
X141.78Y-11.28
T5
X105.625Y-59.325
X105.625Y-64.325
X155.17Y-60.7
X160.17Y-60.7
X166.2Y-10.2
X166.2Y-15.2
X166.2Y-21.5
X166.2Y-26.5
X166.2Y-32.8
X166.2Y-37.8
X166.2Y-44.2
X166.2Y-49.2
X166.54Y-60.7
X171.54Y-60.7
T2
G00X107.15Y-34.2
M15
G01X104.15Y-34.2
M16
G05
G00X107.15Y-53.7
M15
G01X104.15Y-53.7
M16
G05
T4
G00X107.0Y-24.825
M15
G01X107.0Y-26.825
M16
G05
G00X109.0Y-30.525
M15
G01X111.0Y-30.525
M16
G05
G00X113.0Y-24.825
M15
G01X113.0Y-26.825
M16
G05
T0
M30
