%TF.GenerationSoftware,KiCad,Pcbnew,(5.1.10)-1*%
%TF.CreationDate,2022-04-14T15:55:02+08:00*%
%TF.ProjectId,lamp,6c616d70-2e6b-4696-9361-645f70636258,rev?*%
%TF.SameCoordinates,Original*%
%TF.FileFunction,Copper,L1,Top*%
%TF.FilePolarity,Positive*%
%FSLAX46Y46*%
G04 Gerber Fmt 4.6, Leading zero omitted, Abs format (unit mm)*
G04 Created by KiCad (PCBNEW (5.1.10)-1) date 2022-04-14 15:55:02*
%MOMM*%
%LPD*%
G01*
G04 APERTURE LIST*
%TA.AperFunction,SMDPad,CuDef*%
%ADD10R,3.500000X2.400000*%
%TD*%
%TA.AperFunction,SMDPad,CuDef*%
%ADD11R,1.800000X1.000000*%
%TD*%
%TA.AperFunction,ComponentPad*%
%ADD12O,1.600000X1.600000*%
%TD*%
%TA.AperFunction,ComponentPad*%
%ADD13R,1.600000X1.600000*%
%TD*%
%TA.AperFunction,SMDPad,CuDef*%
%ADD14R,2.500000X1.800000*%
%TD*%
%TA.AperFunction,SMDPad,CuDef*%
%ADD15R,0.600000X0.900000*%
%TD*%
%TA.AperFunction,SMDPad,CuDef*%
%ADD16R,0.900000X0.600000*%
%TD*%
%TA.AperFunction,ComponentPad*%
%ADD17O,1.700000X1.700000*%
%TD*%
%TA.AperFunction,ComponentPad*%
%ADD18R,1.700000X1.700000*%
%TD*%
%TA.AperFunction,ComponentPad*%
%ADD19O,3.960000X1.980000*%
%TD*%
%TA.AperFunction,ComponentPad*%
%ADD20R,3.960000X1.980000*%
%TD*%
%TA.AperFunction,ComponentPad*%
%ADD21O,1.980000X3.960000*%
%TD*%
%TA.AperFunction,ComponentPad*%
%ADD22R,1.980000X3.960000*%
%TD*%
%TA.AperFunction,ComponentPad*%
%ADD23R,3.500000X3.500000*%
%TD*%
%TA.AperFunction,SMDPad,CuDef*%
%ADD24R,1.500000X2.000000*%
%TD*%
%TA.AperFunction,SMDPad,CuDef*%
%ADD25R,3.800000X2.000000*%
%TD*%
%TA.AperFunction,ComponentPad*%
%ADD26C,1.500000*%
%TD*%
%TA.AperFunction,ComponentPad*%
%ADD27C,1.600000*%
%TD*%
%TA.AperFunction,SMDPad,CuDef*%
%ADD28R,2.300000X2.500000*%
%TD*%
G04 APERTURE END LIST*
D10*
%TO.P,Y2,2*%
%TO.N,Net-(C10-Pad1)*%
X121400000Y-34900000D03*
%TO.P,Y2,1*%
%TO.N,Net-(C9-Pad1)*%
X126600000Y-34900000D03*
%TD*%
D11*
%TO.P,Y1,2*%
%TO.N,Net-(C8-Pad1)*%
X126500000Y-41150000D03*
%TO.P,Y1,1*%
%TO.N,Net-(C7-Pad1)*%
X126500000Y-38650000D03*
%TD*%
%TO.P,U2,8*%
%TO.N,/+3.3*%
%TA.AperFunction,SMDPad,CuDef*%
G36*
G01*
X150700000Y-22255000D02*
X150700000Y-22555000D01*
G75*
G02*
X150550000Y-22705000I-150000J0D01*
G01*
X148900000Y-22705000D01*
G75*
G02*
X148750000Y-22555000I0J150000D01*
G01*
X148750000Y-22255000D01*
G75*
G02*
X148900000Y-22105000I150000J0D01*
G01*
X150550000Y-22105000D01*
G75*
G02*
X150700000Y-22255000I0J-150000D01*
G01*
G37*
%TD.AperFunction*%
%TO.P,U2,7*%
%TO.N,GND*%
%TA.AperFunction,SMDPad,CuDef*%
G36*
G01*
X150700000Y-20985000D02*
X150700000Y-21285000D01*
G75*
G02*
X150550000Y-21435000I-150000J0D01*
G01*
X148900000Y-21435000D01*
G75*
G02*
X148750000Y-21285000I0J150000D01*
G01*
X148750000Y-20985000D01*
G75*
G02*
X148900000Y-20835000I150000J0D01*
G01*
X150550000Y-20835000D01*
G75*
G02*
X150700000Y-20985000I0J-150000D01*
G01*
G37*
%TD.AperFunction*%
%TO.P,U2,6*%
%TO.N,/IIC_SCL*%
%TA.AperFunction,SMDPad,CuDef*%
G36*
G01*
X150700000Y-19715000D02*
X150700000Y-20015000D01*
G75*
G02*
X150550000Y-20165000I-150000J0D01*
G01*
X148900000Y-20165000D01*
G75*
G02*
X148750000Y-20015000I0J150000D01*
G01*
X148750000Y-19715000D01*
G75*
G02*
X148900000Y-19565000I150000J0D01*
G01*
X150550000Y-19565000D01*
G75*
G02*
X150700000Y-19715000I0J-150000D01*
G01*
G37*
%TD.AperFunction*%
%TO.P,U2,5*%
%TO.N,/IIC_SDA*%
%TA.AperFunction,SMDPad,CuDef*%
G36*
G01*
X150700000Y-18445000D02*
X150700000Y-18745000D01*
G75*
G02*
X150550000Y-18895000I-150000J0D01*
G01*
X148900000Y-18895000D01*
G75*
G02*
X148750000Y-18745000I0J150000D01*
G01*
X148750000Y-18445000D01*
G75*
G02*
X148900000Y-18295000I150000J0D01*
G01*
X150550000Y-18295000D01*
G75*
G02*
X150700000Y-18445000I0J-150000D01*
G01*
G37*
%TD.AperFunction*%
%TO.P,U2,4*%
%TO.N,GND*%
%TA.AperFunction,SMDPad,CuDef*%
G36*
G01*
X155650000Y-18445000D02*
X155650000Y-18745000D01*
G75*
G02*
X155500000Y-18895000I-150000J0D01*
G01*
X153850000Y-18895000D01*
G75*
G02*
X153700000Y-18745000I0J150000D01*
G01*
X153700000Y-18445000D01*
G75*
G02*
X153850000Y-18295000I150000J0D01*
G01*
X155500000Y-18295000D01*
G75*
G02*
X155650000Y-18445000I0J-150000D01*
G01*
G37*
%TD.AperFunction*%
%TO.P,U2,3*%
%TA.AperFunction,SMDPad,CuDef*%
G36*
G01*
X155650000Y-19715000D02*
X155650000Y-20015000D01*
G75*
G02*
X155500000Y-20165000I-150000J0D01*
G01*
X153850000Y-20165000D01*
G75*
G02*
X153700000Y-20015000I0J150000D01*
G01*
X153700000Y-19715000D01*
G75*
G02*
X153850000Y-19565000I150000J0D01*
G01*
X155500000Y-19565000D01*
G75*
G02*
X155650000Y-19715000I0J-150000D01*
G01*
G37*
%TD.AperFunction*%
%TO.P,U2,2*%
%TA.AperFunction,SMDPad,CuDef*%
G36*
G01*
X155650000Y-20985000D02*
X155650000Y-21285000D01*
G75*
G02*
X155500000Y-21435000I-150000J0D01*
G01*
X153850000Y-21435000D01*
G75*
G02*
X153700000Y-21285000I0J150000D01*
G01*
X153700000Y-20985000D01*
G75*
G02*
X153850000Y-20835000I150000J0D01*
G01*
X155500000Y-20835000D01*
G75*
G02*
X155650000Y-20985000I0J-150000D01*
G01*
G37*
%TD.AperFunction*%
%TO.P,U2,1*%
%TA.AperFunction,SMDPad,CuDef*%
G36*
G01*
X155650000Y-22255000D02*
X155650000Y-22555000D01*
G75*
G02*
X155500000Y-22705000I-150000J0D01*
G01*
X153850000Y-22705000D01*
G75*
G02*
X153700000Y-22555000I0J150000D01*
G01*
X153700000Y-22255000D01*
G75*
G02*
X153850000Y-22105000I150000J0D01*
G01*
X155500000Y-22105000D01*
G75*
G02*
X155650000Y-22255000I0J-150000D01*
G01*
G37*
%TD.AperFunction*%
%TD*%
%TO.P,U1,48*%
%TO.N,/+3.3*%
%TA.AperFunction,SMDPad,CuDef*%
G36*
G01*
X134400000Y-32100000D02*
X134400000Y-30775000D01*
G75*
G02*
X134475000Y-30700000I75000J0D01*
G01*
X134625000Y-30700000D01*
G75*
G02*
X134700000Y-30775000I0J-75000D01*
G01*
X134700000Y-32100000D01*
G75*
G02*
X134625000Y-32175000I-75000J0D01*
G01*
X134475000Y-32175000D01*
G75*
G02*
X134400000Y-32100000I0J75000D01*
G01*
G37*
%TD.AperFunction*%
%TO.P,U1,47*%
%TO.N,GND*%
%TA.AperFunction,SMDPad,CuDef*%
G36*
G01*
X134900000Y-32100000D02*
X134900000Y-30775000D01*
G75*
G02*
X134975000Y-30700000I75000J0D01*
G01*
X135125000Y-30700000D01*
G75*
G02*
X135200000Y-30775000I0J-75000D01*
G01*
X135200000Y-32100000D01*
G75*
G02*
X135125000Y-32175000I-75000J0D01*
G01*
X134975000Y-32175000D01*
G75*
G02*
X134900000Y-32100000I0J75000D01*
G01*
G37*
%TD.AperFunction*%
%TO.P,U1,46*%
%TO.N,/T4_W*%
%TA.AperFunction,SMDPad,CuDef*%
G36*
G01*
X135400000Y-32100000D02*
X135400000Y-30775000D01*
G75*
G02*
X135475000Y-30700000I75000J0D01*
G01*
X135625000Y-30700000D01*
G75*
G02*
X135700000Y-30775000I0J-75000D01*
G01*
X135700000Y-32100000D01*
G75*
G02*
X135625000Y-32175000I-75000J0D01*
G01*
X135475000Y-32175000D01*
G75*
G02*
X135400000Y-32100000I0J75000D01*
G01*
G37*
%TD.AperFunction*%
%TO.P,U1,45*%
%TO.N,/T4_B*%
%TA.AperFunction,SMDPad,CuDef*%
G36*
G01*
X135900000Y-32100000D02*
X135900000Y-30775000D01*
G75*
G02*
X135975000Y-30700000I75000J0D01*
G01*
X136125000Y-30700000D01*
G75*
G02*
X136200000Y-30775000I0J-75000D01*
G01*
X136200000Y-32100000D01*
G75*
G02*
X136125000Y-32175000I-75000J0D01*
G01*
X135975000Y-32175000D01*
G75*
G02*
X135900000Y-32100000I0J75000D01*
G01*
G37*
%TD.AperFunction*%
%TO.P,U1,44*%
%TO.N,GND*%
%TA.AperFunction,SMDPad,CuDef*%
G36*
G01*
X136400000Y-32100000D02*
X136400000Y-30775000D01*
G75*
G02*
X136475000Y-30700000I75000J0D01*
G01*
X136625000Y-30700000D01*
G75*
G02*
X136700000Y-30775000I0J-75000D01*
G01*
X136700000Y-32100000D01*
G75*
G02*
X136625000Y-32175000I-75000J0D01*
G01*
X136475000Y-32175000D01*
G75*
G02*
X136400000Y-32100000I0J75000D01*
G01*
G37*
%TD.AperFunction*%
%TO.P,U1,43*%
%TO.N,/T4_G*%
%TA.AperFunction,SMDPad,CuDef*%
G36*
G01*
X136900000Y-32100000D02*
X136900000Y-30775000D01*
G75*
G02*
X136975000Y-30700000I75000J0D01*
G01*
X137125000Y-30700000D01*
G75*
G02*
X137200000Y-30775000I0J-75000D01*
G01*
X137200000Y-32100000D01*
G75*
G02*
X137125000Y-32175000I-75000J0D01*
G01*
X136975000Y-32175000D01*
G75*
G02*
X136900000Y-32100000I0J75000D01*
G01*
G37*
%TD.AperFunction*%
%TO.P,U1,42*%
%TO.N,/T4_R*%
%TA.AperFunction,SMDPad,CuDef*%
G36*
G01*
X137400000Y-32100000D02*
X137400000Y-30775000D01*
G75*
G02*
X137475000Y-30700000I75000J0D01*
G01*
X137625000Y-30700000D01*
G75*
G02*
X137700000Y-30775000I0J-75000D01*
G01*
X137700000Y-32100000D01*
G75*
G02*
X137625000Y-32175000I-75000J0D01*
G01*
X137475000Y-32175000D01*
G75*
G02*
X137400000Y-32100000I0J75000D01*
G01*
G37*
%TD.AperFunction*%
%TO.P,U1,41*%
%TO.N,/SW_1*%
%TA.AperFunction,SMDPad,CuDef*%
G36*
G01*
X137900000Y-32100000D02*
X137900000Y-30775000D01*
G75*
G02*
X137975000Y-30700000I75000J0D01*
G01*
X138125000Y-30700000D01*
G75*
G02*
X138200000Y-30775000I0J-75000D01*
G01*
X138200000Y-32100000D01*
G75*
G02*
X138125000Y-32175000I-75000J0D01*
G01*
X137975000Y-32175000D01*
G75*
G02*
X137900000Y-32100000I0J75000D01*
G01*
G37*
%TD.AperFunction*%
%TO.P,U1,40*%
%TO.N,Net-(U1-Pad40)*%
%TA.AperFunction,SMDPad,CuDef*%
G36*
G01*
X138400000Y-32100000D02*
X138400000Y-30775000D01*
G75*
G02*
X138475000Y-30700000I75000J0D01*
G01*
X138625000Y-30700000D01*
G75*
G02*
X138700000Y-30775000I0J-75000D01*
G01*
X138700000Y-32100000D01*
G75*
G02*
X138625000Y-32175000I-75000J0D01*
G01*
X138475000Y-32175000D01*
G75*
G02*
X138400000Y-32100000I0J75000D01*
G01*
G37*
%TD.AperFunction*%
%TO.P,U1,39*%
%TO.N,Net-(U1-Pad39)*%
%TA.AperFunction,SMDPad,CuDef*%
G36*
G01*
X138900000Y-32100000D02*
X138900000Y-30775000D01*
G75*
G02*
X138975000Y-30700000I75000J0D01*
G01*
X139125000Y-30700000D01*
G75*
G02*
X139200000Y-30775000I0J-75000D01*
G01*
X139200000Y-32100000D01*
G75*
G02*
X139125000Y-32175000I-75000J0D01*
G01*
X138975000Y-32175000D01*
G75*
G02*
X138900000Y-32100000I0J75000D01*
G01*
G37*
%TD.AperFunction*%
%TO.P,U1,38*%
%TO.N,Net-(U1-Pad38)*%
%TA.AperFunction,SMDPad,CuDef*%
G36*
G01*
X139400000Y-32100000D02*
X139400000Y-30775000D01*
G75*
G02*
X139475000Y-30700000I75000J0D01*
G01*
X139625000Y-30700000D01*
G75*
G02*
X139700000Y-30775000I0J-75000D01*
G01*
X139700000Y-32100000D01*
G75*
G02*
X139625000Y-32175000I-75000J0D01*
G01*
X139475000Y-32175000D01*
G75*
G02*
X139400000Y-32100000I0J75000D01*
G01*
G37*
%TD.AperFunction*%
%TO.P,U1,37*%
%TO.N,/SWCLK*%
%TA.AperFunction,SMDPad,CuDef*%
G36*
G01*
X139900000Y-32100000D02*
X139900000Y-30775000D01*
G75*
G02*
X139975000Y-30700000I75000J0D01*
G01*
X140125000Y-30700000D01*
G75*
G02*
X140200000Y-30775000I0J-75000D01*
G01*
X140200000Y-32100000D01*
G75*
G02*
X140125000Y-32175000I-75000J0D01*
G01*
X139975000Y-32175000D01*
G75*
G02*
X139900000Y-32100000I0J75000D01*
G01*
G37*
%TD.AperFunction*%
%TO.P,U1,36*%
%TO.N,/+3.3*%
%TA.AperFunction,SMDPad,CuDef*%
G36*
G01*
X140725000Y-32925000D02*
X140725000Y-32775000D01*
G75*
G02*
X140800000Y-32700000I75000J0D01*
G01*
X142125000Y-32700000D01*
G75*
G02*
X142200000Y-32775000I0J-75000D01*
G01*
X142200000Y-32925000D01*
G75*
G02*
X142125000Y-33000000I-75000J0D01*
G01*
X140800000Y-33000000D01*
G75*
G02*
X140725000Y-32925000I0J75000D01*
G01*
G37*
%TD.AperFunction*%
%TO.P,U1,35*%
%TO.N,GND*%
%TA.AperFunction,SMDPad,CuDef*%
G36*
G01*
X140725000Y-33425000D02*
X140725000Y-33275000D01*
G75*
G02*
X140800000Y-33200000I75000J0D01*
G01*
X142125000Y-33200000D01*
G75*
G02*
X142200000Y-33275000I0J-75000D01*
G01*
X142200000Y-33425000D01*
G75*
G02*
X142125000Y-33500000I-75000J0D01*
G01*
X140800000Y-33500000D01*
G75*
G02*
X140725000Y-33425000I0J75000D01*
G01*
G37*
%TD.AperFunction*%
%TO.P,U1,34*%
%TO.N,/SWDIO*%
%TA.AperFunction,SMDPad,CuDef*%
G36*
G01*
X140725000Y-33925000D02*
X140725000Y-33775000D01*
G75*
G02*
X140800000Y-33700000I75000J0D01*
G01*
X142125000Y-33700000D01*
G75*
G02*
X142200000Y-33775000I0J-75000D01*
G01*
X142200000Y-33925000D01*
G75*
G02*
X142125000Y-34000000I-75000J0D01*
G01*
X140800000Y-34000000D01*
G75*
G02*
X140725000Y-33925000I0J75000D01*
G01*
G37*
%TD.AperFunction*%
%TO.P,U1,33*%
%TO.N,/LED1*%
%TA.AperFunction,SMDPad,CuDef*%
G36*
G01*
X140725000Y-34425000D02*
X140725000Y-34275000D01*
G75*
G02*
X140800000Y-34200000I75000J0D01*
G01*
X142125000Y-34200000D01*
G75*
G02*
X142200000Y-34275000I0J-75000D01*
G01*
X142200000Y-34425000D01*
G75*
G02*
X142125000Y-34500000I-75000J0D01*
G01*
X140800000Y-34500000D01*
G75*
G02*
X140725000Y-34425000I0J75000D01*
G01*
G37*
%TD.AperFunction*%
%TO.P,U1,32*%
%TO.N,/BT_STATE*%
%TA.AperFunction,SMDPad,CuDef*%
G36*
G01*
X140725000Y-34925000D02*
X140725000Y-34775000D01*
G75*
G02*
X140800000Y-34700000I75000J0D01*
G01*
X142125000Y-34700000D01*
G75*
G02*
X142200000Y-34775000I0J-75000D01*
G01*
X142200000Y-34925000D01*
G75*
G02*
X142125000Y-35000000I-75000J0D01*
G01*
X140800000Y-35000000D01*
G75*
G02*
X140725000Y-34925000I0J75000D01*
G01*
G37*
%TD.AperFunction*%
%TO.P,U1,31*%
%TO.N,/BT_TXD*%
%TA.AperFunction,SMDPad,CuDef*%
G36*
G01*
X140725000Y-35425000D02*
X140725000Y-35275000D01*
G75*
G02*
X140800000Y-35200000I75000J0D01*
G01*
X142125000Y-35200000D01*
G75*
G02*
X142200000Y-35275000I0J-75000D01*
G01*
X142200000Y-35425000D01*
G75*
G02*
X142125000Y-35500000I-75000J0D01*
G01*
X140800000Y-35500000D01*
G75*
G02*
X140725000Y-35425000I0J75000D01*
G01*
G37*
%TD.AperFunction*%
%TO.P,U1,30*%
%TO.N,/BT_RXD*%
%TA.AperFunction,SMDPad,CuDef*%
G36*
G01*
X140725000Y-35925000D02*
X140725000Y-35775000D01*
G75*
G02*
X140800000Y-35700000I75000J0D01*
G01*
X142125000Y-35700000D01*
G75*
G02*
X142200000Y-35775000I0J-75000D01*
G01*
X142200000Y-35925000D01*
G75*
G02*
X142125000Y-36000000I-75000J0D01*
G01*
X140800000Y-36000000D01*
G75*
G02*
X140725000Y-35925000I0J75000D01*
G01*
G37*
%TD.AperFunction*%
%TO.P,U1,29*%
%TO.N,/BT_EN*%
%TA.AperFunction,SMDPad,CuDef*%
G36*
G01*
X140725000Y-36425000D02*
X140725000Y-36275000D01*
G75*
G02*
X140800000Y-36200000I75000J0D01*
G01*
X142125000Y-36200000D01*
G75*
G02*
X142200000Y-36275000I0J-75000D01*
G01*
X142200000Y-36425000D01*
G75*
G02*
X142125000Y-36500000I-75000J0D01*
G01*
X140800000Y-36500000D01*
G75*
G02*
X140725000Y-36425000I0J75000D01*
G01*
G37*
%TD.AperFunction*%
%TO.P,U1,28*%
%TO.N,/SDA_OLED*%
%TA.AperFunction,SMDPad,CuDef*%
G36*
G01*
X140725000Y-36925000D02*
X140725000Y-36775000D01*
G75*
G02*
X140800000Y-36700000I75000J0D01*
G01*
X142125000Y-36700000D01*
G75*
G02*
X142200000Y-36775000I0J-75000D01*
G01*
X142200000Y-36925000D01*
G75*
G02*
X142125000Y-37000000I-75000J0D01*
G01*
X140800000Y-37000000D01*
G75*
G02*
X140725000Y-36925000I0J75000D01*
G01*
G37*
%TD.AperFunction*%
%TO.P,U1,27*%
%TO.N,/SCL_OLED*%
%TA.AperFunction,SMDPad,CuDef*%
G36*
G01*
X140725000Y-37425000D02*
X140725000Y-37275000D01*
G75*
G02*
X140800000Y-37200000I75000J0D01*
G01*
X142125000Y-37200000D01*
G75*
G02*
X142200000Y-37275000I0J-75000D01*
G01*
X142200000Y-37425000D01*
G75*
G02*
X142125000Y-37500000I-75000J0D01*
G01*
X140800000Y-37500000D01*
G75*
G02*
X140725000Y-37425000I0J75000D01*
G01*
G37*
%TD.AperFunction*%
%TO.P,U1,26*%
%TO.N,/IIC_SDA*%
%TA.AperFunction,SMDPad,CuDef*%
G36*
G01*
X140725000Y-37925000D02*
X140725000Y-37775000D01*
G75*
G02*
X140800000Y-37700000I75000J0D01*
G01*
X142125000Y-37700000D01*
G75*
G02*
X142200000Y-37775000I0J-75000D01*
G01*
X142200000Y-37925000D01*
G75*
G02*
X142125000Y-38000000I-75000J0D01*
G01*
X140800000Y-38000000D01*
G75*
G02*
X140725000Y-37925000I0J75000D01*
G01*
G37*
%TD.AperFunction*%
%TO.P,U1,25*%
%TO.N,/IIC_SCL*%
%TA.AperFunction,SMDPad,CuDef*%
G36*
G01*
X140725000Y-38425000D02*
X140725000Y-38275000D01*
G75*
G02*
X140800000Y-38200000I75000J0D01*
G01*
X142125000Y-38200000D01*
G75*
G02*
X142200000Y-38275000I0J-75000D01*
G01*
X142200000Y-38425000D01*
G75*
G02*
X142125000Y-38500000I-75000J0D01*
G01*
X140800000Y-38500000D01*
G75*
G02*
X140725000Y-38425000I0J75000D01*
G01*
G37*
%TD.AperFunction*%
%TO.P,U1,24*%
%TO.N,/+3.3*%
%TA.AperFunction,SMDPad,CuDef*%
G36*
G01*
X139900000Y-40425000D02*
X139900000Y-39100000D01*
G75*
G02*
X139975000Y-39025000I75000J0D01*
G01*
X140125000Y-39025000D01*
G75*
G02*
X140200000Y-39100000I0J-75000D01*
G01*
X140200000Y-40425000D01*
G75*
G02*
X140125000Y-40500000I-75000J0D01*
G01*
X139975000Y-40500000D01*
G75*
G02*
X139900000Y-40425000I0J75000D01*
G01*
G37*
%TD.AperFunction*%
%TO.P,U1,23*%
%TO.N,GND*%
%TA.AperFunction,SMDPad,CuDef*%
G36*
G01*
X139400000Y-40425000D02*
X139400000Y-39100000D01*
G75*
G02*
X139475000Y-39025000I75000J0D01*
G01*
X139625000Y-39025000D01*
G75*
G02*
X139700000Y-39100000I0J-75000D01*
G01*
X139700000Y-40425000D01*
G75*
G02*
X139625000Y-40500000I-75000J0D01*
G01*
X139475000Y-40500000D01*
G75*
G02*
X139400000Y-40425000I0J75000D01*
G01*
G37*
%TD.AperFunction*%
%TO.P,U1,22*%
%TO.N,/SW_3*%
%TA.AperFunction,SMDPad,CuDef*%
G36*
G01*
X138900000Y-40425000D02*
X138900000Y-39100000D01*
G75*
G02*
X138975000Y-39025000I75000J0D01*
G01*
X139125000Y-39025000D01*
G75*
G02*
X139200000Y-39100000I0J-75000D01*
G01*
X139200000Y-40425000D01*
G75*
G02*
X139125000Y-40500000I-75000J0D01*
G01*
X138975000Y-40500000D01*
G75*
G02*
X138900000Y-40425000I0J75000D01*
G01*
G37*
%TD.AperFunction*%
%TO.P,U1,21*%
%TO.N,/SW_2*%
%TA.AperFunction,SMDPad,CuDef*%
G36*
G01*
X138400000Y-40425000D02*
X138400000Y-39100000D01*
G75*
G02*
X138475000Y-39025000I75000J0D01*
G01*
X138625000Y-39025000D01*
G75*
G02*
X138700000Y-39100000I0J-75000D01*
G01*
X138700000Y-40425000D01*
G75*
G02*
X138625000Y-40500000I-75000J0D01*
G01*
X138475000Y-40500000D01*
G75*
G02*
X138400000Y-40425000I0J75000D01*
G01*
G37*
%TD.AperFunction*%
%TO.P,U1,20*%
%TO.N,GND*%
%TA.AperFunction,SMDPad,CuDef*%
G36*
G01*
X137900000Y-40425000D02*
X137900000Y-39100000D01*
G75*
G02*
X137975000Y-39025000I75000J0D01*
G01*
X138125000Y-39025000D01*
G75*
G02*
X138200000Y-39100000I0J-75000D01*
G01*
X138200000Y-40425000D01*
G75*
G02*
X138125000Y-40500000I-75000J0D01*
G01*
X137975000Y-40500000D01*
G75*
G02*
X137900000Y-40425000I0J75000D01*
G01*
G37*
%TD.AperFunction*%
%TO.P,U1,19*%
%TO.N,/T3_W*%
%TA.AperFunction,SMDPad,CuDef*%
G36*
G01*
X137400000Y-40425000D02*
X137400000Y-39100000D01*
G75*
G02*
X137475000Y-39025000I75000J0D01*
G01*
X137625000Y-39025000D01*
G75*
G02*
X137700000Y-39100000I0J-75000D01*
G01*
X137700000Y-40425000D01*
G75*
G02*
X137625000Y-40500000I-75000J0D01*
G01*
X137475000Y-40500000D01*
G75*
G02*
X137400000Y-40425000I0J75000D01*
G01*
G37*
%TD.AperFunction*%
%TO.P,U1,18*%
%TO.N,/T3_B*%
%TA.AperFunction,SMDPad,CuDef*%
G36*
G01*
X136900000Y-40425000D02*
X136900000Y-39100000D01*
G75*
G02*
X136975000Y-39025000I75000J0D01*
G01*
X137125000Y-39025000D01*
G75*
G02*
X137200000Y-39100000I0J-75000D01*
G01*
X137200000Y-40425000D01*
G75*
G02*
X137125000Y-40500000I-75000J0D01*
G01*
X136975000Y-40500000D01*
G75*
G02*
X136900000Y-40425000I0J75000D01*
G01*
G37*
%TD.AperFunction*%
%TO.P,U1,17*%
%TO.N,/T3_G*%
%TA.AperFunction,SMDPad,CuDef*%
G36*
G01*
X136400000Y-40425000D02*
X136400000Y-39100000D01*
G75*
G02*
X136475000Y-39025000I75000J0D01*
G01*
X136625000Y-39025000D01*
G75*
G02*
X136700000Y-39100000I0J-75000D01*
G01*
X136700000Y-40425000D01*
G75*
G02*
X136625000Y-40500000I-75000J0D01*
G01*
X136475000Y-40500000D01*
G75*
G02*
X136400000Y-40425000I0J75000D01*
G01*
G37*
%TD.AperFunction*%
%TO.P,U1,16*%
%TO.N,/T3_R*%
%TA.AperFunction,SMDPad,CuDef*%
G36*
G01*
X135900000Y-40425000D02*
X135900000Y-39100000D01*
G75*
G02*
X135975000Y-39025000I75000J0D01*
G01*
X136125000Y-39025000D01*
G75*
G02*
X136200000Y-39100000I0J-75000D01*
G01*
X136200000Y-40425000D01*
G75*
G02*
X136125000Y-40500000I-75000J0D01*
G01*
X135975000Y-40500000D01*
G75*
G02*
X135900000Y-40425000I0J75000D01*
G01*
G37*
%TD.AperFunction*%
%TO.P,U1,15*%
%TO.N,/LIGHT*%
%TA.AperFunction,SMDPad,CuDef*%
G36*
G01*
X135400000Y-40425000D02*
X135400000Y-39100000D01*
G75*
G02*
X135475000Y-39025000I75000J0D01*
G01*
X135625000Y-39025000D01*
G75*
G02*
X135700000Y-39100000I0J-75000D01*
G01*
X135700000Y-40425000D01*
G75*
G02*
X135625000Y-40500000I-75000J0D01*
G01*
X135475000Y-40500000D01*
G75*
G02*
X135400000Y-40425000I0J75000D01*
G01*
G37*
%TD.AperFunction*%
%TO.P,U1,14*%
%TO.N,/LED0*%
%TA.AperFunction,SMDPad,CuDef*%
G36*
G01*
X134900000Y-40425000D02*
X134900000Y-39100000D01*
G75*
G02*
X134975000Y-39025000I75000J0D01*
G01*
X135125000Y-39025000D01*
G75*
G02*
X135200000Y-39100000I0J-75000D01*
G01*
X135200000Y-40425000D01*
G75*
G02*
X135125000Y-40500000I-75000J0D01*
G01*
X134975000Y-40500000D01*
G75*
G02*
X134900000Y-40425000I0J75000D01*
G01*
G37*
%TD.AperFunction*%
%TO.P,U1,13*%
%TO.N,/WIFI_TX*%
%TA.AperFunction,SMDPad,CuDef*%
G36*
G01*
X134400000Y-40425000D02*
X134400000Y-39100000D01*
G75*
G02*
X134475000Y-39025000I75000J0D01*
G01*
X134625000Y-39025000D01*
G75*
G02*
X134700000Y-39100000I0J-75000D01*
G01*
X134700000Y-40425000D01*
G75*
G02*
X134625000Y-40500000I-75000J0D01*
G01*
X134475000Y-40500000D01*
G75*
G02*
X134400000Y-40425000I0J75000D01*
G01*
G37*
%TD.AperFunction*%
%TO.P,U1,12*%
%TO.N,/WIFI_RX*%
%TA.AperFunction,SMDPad,CuDef*%
G36*
G01*
X132400000Y-38425000D02*
X132400000Y-38275000D01*
G75*
G02*
X132475000Y-38200000I75000J0D01*
G01*
X133800000Y-38200000D01*
G75*
G02*
X133875000Y-38275000I0J-75000D01*
G01*
X133875000Y-38425000D01*
G75*
G02*
X133800000Y-38500000I-75000J0D01*
G01*
X132475000Y-38500000D01*
G75*
G02*
X132400000Y-38425000I0J75000D01*
G01*
G37*
%TD.AperFunction*%
%TO.P,U1,11*%
%TO.N,/WIFI_EN*%
%TA.AperFunction,SMDPad,CuDef*%
G36*
G01*
X132400000Y-37925000D02*
X132400000Y-37775000D01*
G75*
G02*
X132475000Y-37700000I75000J0D01*
G01*
X133800000Y-37700000D01*
G75*
G02*
X133875000Y-37775000I0J-75000D01*
G01*
X133875000Y-37925000D01*
G75*
G02*
X133800000Y-38000000I-75000J0D01*
G01*
X132475000Y-38000000D01*
G75*
G02*
X132400000Y-37925000I0J75000D01*
G01*
G37*
%TD.AperFunction*%
%TO.P,U1,10*%
%TO.N,/WIFI_RST*%
%TA.AperFunction,SMDPad,CuDef*%
G36*
G01*
X132400000Y-37425000D02*
X132400000Y-37275000D01*
G75*
G02*
X132475000Y-37200000I75000J0D01*
G01*
X133800000Y-37200000D01*
G75*
G02*
X133875000Y-37275000I0J-75000D01*
G01*
X133875000Y-37425000D01*
G75*
G02*
X133800000Y-37500000I-75000J0D01*
G01*
X132475000Y-37500000D01*
G75*
G02*
X132400000Y-37425000I0J75000D01*
G01*
G37*
%TD.AperFunction*%
%TO.P,U1,9*%
%TO.N,/+3.3*%
%TA.AperFunction,SMDPad,CuDef*%
G36*
G01*
X132400000Y-36925000D02*
X132400000Y-36775000D01*
G75*
G02*
X132475000Y-36700000I75000J0D01*
G01*
X133800000Y-36700000D01*
G75*
G02*
X133875000Y-36775000I0J-75000D01*
G01*
X133875000Y-36925000D01*
G75*
G02*
X133800000Y-37000000I-75000J0D01*
G01*
X132475000Y-37000000D01*
G75*
G02*
X132400000Y-36925000I0J75000D01*
G01*
G37*
%TD.AperFunction*%
%TO.P,U1,8*%
%TO.N,GND*%
%TA.AperFunction,SMDPad,CuDef*%
G36*
G01*
X132400000Y-36425000D02*
X132400000Y-36275000D01*
G75*
G02*
X132475000Y-36200000I75000J0D01*
G01*
X133800000Y-36200000D01*
G75*
G02*
X133875000Y-36275000I0J-75000D01*
G01*
X133875000Y-36425000D01*
G75*
G02*
X133800000Y-36500000I-75000J0D01*
G01*
X132475000Y-36500000D01*
G75*
G02*
X132400000Y-36425000I0J75000D01*
G01*
G37*
%TD.AperFunction*%
%TO.P,U1,7*%
%TO.N,/NRST*%
%TA.AperFunction,SMDPad,CuDef*%
G36*
G01*
X132400000Y-35925000D02*
X132400000Y-35775000D01*
G75*
G02*
X132475000Y-35700000I75000J0D01*
G01*
X133800000Y-35700000D01*
G75*
G02*
X133875000Y-35775000I0J-75000D01*
G01*
X133875000Y-35925000D01*
G75*
G02*
X133800000Y-36000000I-75000J0D01*
G01*
X132475000Y-36000000D01*
G75*
G02*
X132400000Y-35925000I0J75000D01*
G01*
G37*
%TD.AperFunction*%
%TO.P,U1,6*%
%TO.N,Net-(C8-Pad1)*%
%TA.AperFunction,SMDPad,CuDef*%
G36*
G01*
X132400000Y-35425000D02*
X132400000Y-35275000D01*
G75*
G02*
X132475000Y-35200000I75000J0D01*
G01*
X133800000Y-35200000D01*
G75*
G02*
X133875000Y-35275000I0J-75000D01*
G01*
X133875000Y-35425000D01*
G75*
G02*
X133800000Y-35500000I-75000J0D01*
G01*
X132475000Y-35500000D01*
G75*
G02*
X132400000Y-35425000I0J75000D01*
G01*
G37*
%TD.AperFunction*%
%TO.P,U1,5*%
%TO.N,Net-(C7-Pad1)*%
%TA.AperFunction,SMDPad,CuDef*%
G36*
G01*
X132400000Y-34925000D02*
X132400000Y-34775000D01*
G75*
G02*
X132475000Y-34700000I75000J0D01*
G01*
X133800000Y-34700000D01*
G75*
G02*
X133875000Y-34775000I0J-75000D01*
G01*
X133875000Y-34925000D01*
G75*
G02*
X133800000Y-35000000I-75000J0D01*
G01*
X132475000Y-35000000D01*
G75*
G02*
X132400000Y-34925000I0J75000D01*
G01*
G37*
%TD.AperFunction*%
%TO.P,U1,4*%
%TO.N,Net-(C10-Pad1)*%
%TA.AperFunction,SMDPad,CuDef*%
G36*
G01*
X132400000Y-34425000D02*
X132400000Y-34275000D01*
G75*
G02*
X132475000Y-34200000I75000J0D01*
G01*
X133800000Y-34200000D01*
G75*
G02*
X133875000Y-34275000I0J-75000D01*
G01*
X133875000Y-34425000D01*
G75*
G02*
X133800000Y-34500000I-75000J0D01*
G01*
X132475000Y-34500000D01*
G75*
G02*
X132400000Y-34425000I0J75000D01*
G01*
G37*
%TD.AperFunction*%
%TO.P,U1,3*%
%TO.N,Net-(C9-Pad1)*%
%TA.AperFunction,SMDPad,CuDef*%
G36*
G01*
X132400000Y-33925000D02*
X132400000Y-33775000D01*
G75*
G02*
X132475000Y-33700000I75000J0D01*
G01*
X133800000Y-33700000D01*
G75*
G02*
X133875000Y-33775000I0J-75000D01*
G01*
X133875000Y-33925000D01*
G75*
G02*
X133800000Y-34000000I-75000J0D01*
G01*
X132475000Y-34000000D01*
G75*
G02*
X132400000Y-33925000I0J75000D01*
G01*
G37*
%TD.AperFunction*%
%TO.P,U1,2*%
%TO.N,Net-(U1-Pad2)*%
%TA.AperFunction,SMDPad,CuDef*%
G36*
G01*
X132400000Y-33425000D02*
X132400000Y-33275000D01*
G75*
G02*
X132475000Y-33200000I75000J0D01*
G01*
X133800000Y-33200000D01*
G75*
G02*
X133875000Y-33275000I0J-75000D01*
G01*
X133875000Y-33425000D01*
G75*
G02*
X133800000Y-33500000I-75000J0D01*
G01*
X132475000Y-33500000D01*
G75*
G02*
X132400000Y-33425000I0J75000D01*
G01*
G37*
%TD.AperFunction*%
%TO.P,U1,1*%
%TO.N,/+3.3*%
%TA.AperFunction,SMDPad,CuDef*%
G36*
G01*
X132400000Y-32925000D02*
X132400000Y-32775000D01*
G75*
G02*
X132475000Y-32700000I75000J0D01*
G01*
X133800000Y-32700000D01*
G75*
G02*
X133875000Y-32775000I0J-75000D01*
G01*
X133875000Y-32925000D01*
G75*
G02*
X133800000Y-33000000I-75000J0D01*
G01*
X132475000Y-33000000D01*
G75*
G02*
X132400000Y-32925000I0J75000D01*
G01*
G37*
%TD.AperFunction*%
%TD*%
D12*
%TO.P,SW1,2*%
%TO.N,Net-(F1-Pad2)*%
X121700000Y-56900000D03*
D13*
%TO.P,SW1,1*%
%TO.N,Net-(J3-Pad2)*%
X121700000Y-64520000D03*
%TD*%
D14*
%TO.P,SS1,2*%
%TO.N,/+5v*%
X118300000Y-53000000D03*
%TO.P,SS1,1*%
%TO.N,GND*%
X114300000Y-53000000D03*
%TD*%
%TO.P,RED1,2*%
%TO.N,GND*%
%TA.AperFunction,SMDPad,CuDef*%
G36*
G01*
X124437500Y-25456250D02*
X124437500Y-24943750D01*
G75*
G02*
X124656250Y-24725000I218750J0D01*
G01*
X125093750Y-24725000D01*
G75*
G02*
X125312500Y-24943750I0J-218750D01*
G01*
X125312500Y-25456250D01*
G75*
G02*
X125093750Y-25675000I-218750J0D01*
G01*
X124656250Y-25675000D01*
G75*
G02*
X124437500Y-25456250I0J218750D01*
G01*
G37*
%TD.AperFunction*%
%TO.P,RED1,1*%
%TO.N,Net-(R4-Pad2)*%
%TA.AperFunction,SMDPad,CuDef*%
G36*
G01*
X122862500Y-25456250D02*
X122862500Y-24943750D01*
G75*
G02*
X123081250Y-24725000I218750J0D01*
G01*
X123518750Y-24725000D01*
G75*
G02*
X123737500Y-24943750I0J-218750D01*
G01*
X123737500Y-25456250D01*
G75*
G02*
X123518750Y-25675000I-218750J0D01*
G01*
X123081250Y-25675000D01*
G75*
G02*
X122862500Y-25456250I0J218750D01*
G01*
G37*
%TD.AperFunction*%
%TD*%
%TO.P,R29,2*%
%TO.N,/+3.3*%
%TA.AperFunction,SMDPad,CuDef*%
G36*
G01*
X145262500Y-21437500D02*
X145737500Y-21437500D01*
G75*
G02*
X145975000Y-21675000I0J-237500D01*
G01*
X145975000Y-22175000D01*
G75*
G02*
X145737500Y-22412500I-237500J0D01*
G01*
X145262500Y-22412500D01*
G75*
G02*
X145025000Y-22175000I0J237500D01*
G01*
X145025000Y-21675000D01*
G75*
G02*
X145262500Y-21437500I237500J0D01*
G01*
G37*
%TD.AperFunction*%
%TO.P,R29,1*%
%TO.N,/IIC_SDA*%
%TA.AperFunction,SMDPad,CuDef*%
G36*
G01*
X145262500Y-19612500D02*
X145737500Y-19612500D01*
G75*
G02*
X145975000Y-19850000I0J-237500D01*
G01*
X145975000Y-20350000D01*
G75*
G02*
X145737500Y-20587500I-237500J0D01*
G01*
X145262500Y-20587500D01*
G75*
G02*
X145025000Y-20350000I0J237500D01*
G01*
X145025000Y-19850000D01*
G75*
G02*
X145262500Y-19612500I237500J0D01*
G01*
G37*
%TD.AperFunction*%
%TD*%
%TO.P,R28,2*%
%TO.N,/+3.3*%
%TA.AperFunction,SMDPad,CuDef*%
G36*
G01*
X143662500Y-21437500D02*
X144137500Y-21437500D01*
G75*
G02*
X144375000Y-21675000I0J-237500D01*
G01*
X144375000Y-22175000D01*
G75*
G02*
X144137500Y-22412500I-237500J0D01*
G01*
X143662500Y-22412500D01*
G75*
G02*
X143425000Y-22175000I0J237500D01*
G01*
X143425000Y-21675000D01*
G75*
G02*
X143662500Y-21437500I237500J0D01*
G01*
G37*
%TD.AperFunction*%
%TO.P,R28,1*%
%TO.N,/IIC_SCL*%
%TA.AperFunction,SMDPad,CuDef*%
G36*
G01*
X143662500Y-19612500D02*
X144137500Y-19612500D01*
G75*
G02*
X144375000Y-19850000I0J-237500D01*
G01*
X144375000Y-20350000D01*
G75*
G02*
X144137500Y-20587500I-237500J0D01*
G01*
X143662500Y-20587500D01*
G75*
G02*
X143425000Y-20350000I0J237500D01*
G01*
X143425000Y-19850000D01*
G75*
G02*
X143662500Y-19612500I237500J0D01*
G01*
G37*
%TD.AperFunction*%
%TD*%
%TO.P,R27,2*%
%TO.N,/+3.3*%
%TA.AperFunction,SMDPad,CuDef*%
G36*
G01*
X119437500Y-45087500D02*
X118962500Y-45087500D01*
G75*
G02*
X118725000Y-44850000I0J237500D01*
G01*
X118725000Y-44350000D01*
G75*
G02*
X118962500Y-44112500I237500J0D01*
G01*
X119437500Y-44112500D01*
G75*
G02*
X119675000Y-44350000I0J-237500D01*
G01*
X119675000Y-44850000D01*
G75*
G02*
X119437500Y-45087500I-237500J0D01*
G01*
G37*
%TD.AperFunction*%
%TO.P,R27,1*%
%TO.N,Net-(LD1-Pad2)*%
%TA.AperFunction,SMDPad,CuDef*%
G36*
G01*
X119437500Y-46912500D02*
X118962500Y-46912500D01*
G75*
G02*
X118725000Y-46675000I0J237500D01*
G01*
X118725000Y-46175000D01*
G75*
G02*
X118962500Y-45937500I237500J0D01*
G01*
X119437500Y-45937500D01*
G75*
G02*
X119675000Y-46175000I0J-237500D01*
G01*
X119675000Y-46675000D01*
G75*
G02*
X119437500Y-46912500I-237500J0D01*
G01*
G37*
%TD.AperFunction*%
%TD*%
%TO.P,R26,2*%
%TO.N,Net-(LD1-Pad2)*%
%TA.AperFunction,SMDPad,CuDef*%
G36*
G01*
X120662500Y-45937500D02*
X121137500Y-45937500D01*
G75*
G02*
X121375000Y-46175000I0J-237500D01*
G01*
X121375000Y-46675000D01*
G75*
G02*
X121137500Y-46912500I-237500J0D01*
G01*
X120662500Y-46912500D01*
G75*
G02*
X120425000Y-46675000I0J237500D01*
G01*
X120425000Y-46175000D01*
G75*
G02*
X120662500Y-45937500I237500J0D01*
G01*
G37*
%TD.AperFunction*%
%TO.P,R26,1*%
%TO.N,/LIGHT*%
%TA.AperFunction,SMDPad,CuDef*%
G36*
G01*
X120662500Y-44112500D02*
X121137500Y-44112500D01*
G75*
G02*
X121375000Y-44350000I0J-237500D01*
G01*
X121375000Y-44850000D01*
G75*
G02*
X121137500Y-45087500I-237500J0D01*
G01*
X120662500Y-45087500D01*
G75*
G02*
X120425000Y-44850000I0J237500D01*
G01*
X120425000Y-44350000D01*
G75*
G02*
X120662500Y-44112500I237500J0D01*
G01*
G37*
%TD.AperFunction*%
%TD*%
%TO.P,R25,2*%
%TO.N,/SW_3*%
%TA.AperFunction,SMDPad,CuDef*%
G36*
G01*
X123237500Y-52487500D02*
X122762500Y-52487500D01*
G75*
G02*
X122525000Y-52250000I0J237500D01*
G01*
X122525000Y-51750000D01*
G75*
G02*
X122762500Y-51512500I237500J0D01*
G01*
X123237500Y-51512500D01*
G75*
G02*
X123475000Y-51750000I0J-237500D01*
G01*
X123475000Y-52250000D01*
G75*
G02*
X123237500Y-52487500I-237500J0D01*
G01*
G37*
%TD.AperFunction*%
%TO.P,R25,1*%
%TO.N,/+3.3*%
%TA.AperFunction,SMDPad,CuDef*%
G36*
G01*
X123237500Y-54312500D02*
X122762500Y-54312500D01*
G75*
G02*
X122525000Y-54075000I0J237500D01*
G01*
X122525000Y-53575000D01*
G75*
G02*
X122762500Y-53337500I237500J0D01*
G01*
X123237500Y-53337500D01*
G75*
G02*
X123475000Y-53575000I0J-237500D01*
G01*
X123475000Y-54075000D01*
G75*
G02*
X123237500Y-54312500I-237500J0D01*
G01*
G37*
%TD.AperFunction*%
%TD*%
%TO.P,R24,2*%
%TO.N,/SW_2*%
%TA.AperFunction,SMDPad,CuDef*%
G36*
G01*
X121637500Y-52462500D02*
X121162500Y-52462500D01*
G75*
G02*
X120925000Y-52225000I0J237500D01*
G01*
X120925000Y-51725000D01*
G75*
G02*
X121162500Y-51487500I237500J0D01*
G01*
X121637500Y-51487500D01*
G75*
G02*
X121875000Y-51725000I0J-237500D01*
G01*
X121875000Y-52225000D01*
G75*
G02*
X121637500Y-52462500I-237500J0D01*
G01*
G37*
%TD.AperFunction*%
%TO.P,R24,1*%
%TO.N,/+3.3*%
%TA.AperFunction,SMDPad,CuDef*%
G36*
G01*
X121637500Y-54287500D02*
X121162500Y-54287500D01*
G75*
G02*
X120925000Y-54050000I0J237500D01*
G01*
X120925000Y-53550000D01*
G75*
G02*
X121162500Y-53312500I237500J0D01*
G01*
X121637500Y-53312500D01*
G75*
G02*
X121875000Y-53550000I0J-237500D01*
G01*
X121875000Y-54050000D01*
G75*
G02*
X121637500Y-54287500I-237500J0D01*
G01*
G37*
%TD.AperFunction*%
%TD*%
%TO.P,R23,2*%
%TO.N,/SW_1*%
%TA.AperFunction,SMDPad,CuDef*%
G36*
G01*
X117837500Y-45087500D02*
X117362500Y-45087500D01*
G75*
G02*
X117125000Y-44850000I0J237500D01*
G01*
X117125000Y-44350000D01*
G75*
G02*
X117362500Y-44112500I237500J0D01*
G01*
X117837500Y-44112500D01*
G75*
G02*
X118075000Y-44350000I0J-237500D01*
G01*
X118075000Y-44850000D01*
G75*
G02*
X117837500Y-45087500I-237500J0D01*
G01*
G37*
%TD.AperFunction*%
%TO.P,R23,1*%
%TO.N,/+3.3*%
%TA.AperFunction,SMDPad,CuDef*%
G36*
G01*
X117837500Y-46912500D02*
X117362500Y-46912500D01*
G75*
G02*
X117125000Y-46675000I0J237500D01*
G01*
X117125000Y-46175000D01*
G75*
G02*
X117362500Y-45937500I237500J0D01*
G01*
X117837500Y-45937500D01*
G75*
G02*
X118075000Y-46175000I0J-237500D01*
G01*
X118075000Y-46675000D01*
G75*
G02*
X117837500Y-46912500I-237500J0D01*
G01*
G37*
%TD.AperFunction*%
%TD*%
%TO.P,R22,2*%
%TO.N,GND*%
%TA.AperFunction,SMDPad,CuDef*%
G36*
G01*
X155337500Y-24962500D02*
X154862500Y-24962500D01*
G75*
G02*
X154625000Y-24725000I0J237500D01*
G01*
X154625000Y-24225000D01*
G75*
G02*
X154862500Y-23987500I237500J0D01*
G01*
X155337500Y-23987500D01*
G75*
G02*
X155575000Y-24225000I0J-237500D01*
G01*
X155575000Y-24725000D01*
G75*
G02*
X155337500Y-24962500I-237500J0D01*
G01*
G37*
%TD.AperFunction*%
%TO.P,R22,1*%
%TO.N,Net-(Q8-Pad1)*%
%TA.AperFunction,SMDPad,CuDef*%
G36*
G01*
X155337500Y-26787500D02*
X154862500Y-26787500D01*
G75*
G02*
X154625000Y-26550000I0J237500D01*
G01*
X154625000Y-26050000D01*
G75*
G02*
X154862500Y-25812500I237500J0D01*
G01*
X155337500Y-25812500D01*
G75*
G02*
X155575000Y-26050000I0J-237500D01*
G01*
X155575000Y-26550000D01*
G75*
G02*
X155337500Y-26787500I-237500J0D01*
G01*
G37*
%TD.AperFunction*%
%TD*%
%TO.P,R21,2*%
%TO.N,GND*%
%TA.AperFunction,SMDPad,CuDef*%
G36*
G01*
X154737500Y-31362500D02*
X154262500Y-31362500D01*
G75*
G02*
X154025000Y-31125000I0J237500D01*
G01*
X154025000Y-30625000D01*
G75*
G02*
X154262500Y-30387500I237500J0D01*
G01*
X154737500Y-30387500D01*
G75*
G02*
X154975000Y-30625000I0J-237500D01*
G01*
X154975000Y-31125000D01*
G75*
G02*
X154737500Y-31362500I-237500J0D01*
G01*
G37*
%TD.AperFunction*%
%TO.P,R21,1*%
%TO.N,Net-(Q7-Pad1)*%
%TA.AperFunction,SMDPad,CuDef*%
G36*
G01*
X154737500Y-33187500D02*
X154262500Y-33187500D01*
G75*
G02*
X154025000Y-32950000I0J237500D01*
G01*
X154025000Y-32450000D01*
G75*
G02*
X154262500Y-32212500I237500J0D01*
G01*
X154737500Y-32212500D01*
G75*
G02*
X154975000Y-32450000I0J-237500D01*
G01*
X154975000Y-32950000D01*
G75*
G02*
X154737500Y-33187500I-237500J0D01*
G01*
G37*
%TD.AperFunction*%
%TD*%
%TO.P,R20,2*%
%TO.N,GND*%
%TA.AperFunction,SMDPad,CuDef*%
G36*
G01*
X154637500Y-37362499D02*
X154162500Y-37362499D01*
G75*
G02*
X153925000Y-37124999I0J237500D01*
G01*
X153925000Y-36624999D01*
G75*
G02*
X154162500Y-36387499I237500J0D01*
G01*
X154637500Y-36387499D01*
G75*
G02*
X154875000Y-36624999I0J-237500D01*
G01*
X154875000Y-37124999D01*
G75*
G02*
X154637500Y-37362499I-237500J0D01*
G01*
G37*
%TD.AperFunction*%
%TO.P,R20,1*%
%TO.N,Net-(Q6-Pad1)*%
%TA.AperFunction,SMDPad,CuDef*%
G36*
G01*
X154637500Y-39187499D02*
X154162500Y-39187499D01*
G75*
G02*
X153925000Y-38949999I0J237500D01*
G01*
X153925000Y-38449999D01*
G75*
G02*
X154162500Y-38212499I237500J0D01*
G01*
X154637500Y-38212499D01*
G75*
G02*
X154875000Y-38449999I0J-237500D01*
G01*
X154875000Y-38949999D01*
G75*
G02*
X154637500Y-39187499I-237500J0D01*
G01*
G37*
%TD.AperFunction*%
%TD*%
%TO.P,R19,2*%
%TO.N,GND*%
%TA.AperFunction,SMDPad,CuDef*%
G36*
G01*
X151825000Y-46237500D02*
X151825000Y-45762500D01*
G75*
G02*
X152062500Y-45525000I237500J0D01*
G01*
X152562500Y-45525000D01*
G75*
G02*
X152800000Y-45762500I0J-237500D01*
G01*
X152800000Y-46237500D01*
G75*
G02*
X152562500Y-46475000I-237500J0D01*
G01*
X152062500Y-46475000D01*
G75*
G02*
X151825000Y-46237500I0J237500D01*
G01*
G37*
%TD.AperFunction*%
%TO.P,R19,1*%
%TO.N,Net-(Q5-Pad1)*%
%TA.AperFunction,SMDPad,CuDef*%
G36*
G01*
X150000000Y-46237500D02*
X150000000Y-45762500D01*
G75*
G02*
X150237500Y-45525000I237500J0D01*
G01*
X150737500Y-45525000D01*
G75*
G02*
X150975000Y-45762500I0J-237500D01*
G01*
X150975000Y-46237500D01*
G75*
G02*
X150737500Y-46475000I-237500J0D01*
G01*
X150237500Y-46475000D01*
G75*
G02*
X150000000Y-46237500I0J237500D01*
G01*
G37*
%TD.AperFunction*%
%TD*%
%TO.P,R18,2*%
%TO.N,GND*%
%TA.AperFunction,SMDPad,CuDef*%
G36*
G01*
X146025000Y-46237500D02*
X146025000Y-45762500D01*
G75*
G02*
X146262500Y-45525000I237500J0D01*
G01*
X146762500Y-45525000D01*
G75*
G02*
X147000000Y-45762500I0J-237500D01*
G01*
X147000000Y-46237500D01*
G75*
G02*
X146762500Y-46475000I-237500J0D01*
G01*
X146262500Y-46475000D01*
G75*
G02*
X146025000Y-46237500I0J237500D01*
G01*
G37*
%TD.AperFunction*%
%TO.P,R18,1*%
%TO.N,Net-(Q4-Pad1)*%
%TA.AperFunction,SMDPad,CuDef*%
G36*
G01*
X144200000Y-46237500D02*
X144200000Y-45762500D01*
G75*
G02*
X144437500Y-45525000I237500J0D01*
G01*
X144937500Y-45525000D01*
G75*
G02*
X145175000Y-45762500I0J-237500D01*
G01*
X145175000Y-46237500D01*
G75*
G02*
X144937500Y-46475000I-237500J0D01*
G01*
X144437500Y-46475000D01*
G75*
G02*
X144200000Y-46237500I0J237500D01*
G01*
G37*
%TD.AperFunction*%
%TD*%
%TO.P,R17,2*%
%TO.N,GND*%
%TA.AperFunction,SMDPad,CuDef*%
G36*
G01*
X140225000Y-46137500D02*
X140225000Y-45662500D01*
G75*
G02*
X140462500Y-45425000I237500J0D01*
G01*
X140962500Y-45425000D01*
G75*
G02*
X141200000Y-45662500I0J-237500D01*
G01*
X141200000Y-46137500D01*
G75*
G02*
X140962500Y-46375000I-237500J0D01*
G01*
X140462500Y-46375000D01*
G75*
G02*
X140225000Y-46137500I0J237500D01*
G01*
G37*
%TD.AperFunction*%
%TO.P,R17,1*%
%TO.N,Net-(Q3-Pad1)*%
%TA.AperFunction,SMDPad,CuDef*%
G36*
G01*
X138400000Y-46137500D02*
X138400000Y-45662500D01*
G75*
G02*
X138637500Y-45425000I237500J0D01*
G01*
X139137500Y-45425000D01*
G75*
G02*
X139375000Y-45662500I0J-237500D01*
G01*
X139375000Y-46137500D01*
G75*
G02*
X139137500Y-46375000I-237500J0D01*
G01*
X138637500Y-46375000D01*
G75*
G02*
X138400000Y-46137500I0J237500D01*
G01*
G37*
%TD.AperFunction*%
%TD*%
%TO.P,R16,2*%
%TO.N,GND*%
%TA.AperFunction,SMDPad,CuDef*%
G36*
G01*
X134437500Y-46137500D02*
X134437500Y-45662500D01*
G75*
G02*
X134675000Y-45425000I237500J0D01*
G01*
X135175000Y-45425000D01*
G75*
G02*
X135412500Y-45662500I0J-237500D01*
G01*
X135412500Y-46137500D01*
G75*
G02*
X135175000Y-46375000I-237500J0D01*
G01*
X134675000Y-46375000D01*
G75*
G02*
X134437500Y-46137500I0J237500D01*
G01*
G37*
%TD.AperFunction*%
%TO.P,R16,1*%
%TO.N,Net-(Q2-Pad1)*%
%TA.AperFunction,SMDPad,CuDef*%
G36*
G01*
X132612500Y-46137500D02*
X132612500Y-45662500D01*
G75*
G02*
X132850000Y-45425000I237500J0D01*
G01*
X133350000Y-45425000D01*
G75*
G02*
X133587500Y-45662500I0J-237500D01*
G01*
X133587500Y-46137500D01*
G75*
G02*
X133350000Y-46375000I-237500J0D01*
G01*
X132850000Y-46375000D01*
G75*
G02*
X132612500Y-46137500I0J237500D01*
G01*
G37*
%TD.AperFunction*%
%TD*%
%TO.P,R15,2*%
%TO.N,GND*%
%TA.AperFunction,SMDPad,CuDef*%
G36*
G01*
X128437500Y-46037500D02*
X128437500Y-45562500D01*
G75*
G02*
X128675000Y-45325000I237500J0D01*
G01*
X129175000Y-45325000D01*
G75*
G02*
X129412500Y-45562500I0J-237500D01*
G01*
X129412500Y-46037500D01*
G75*
G02*
X129175000Y-46275000I-237500J0D01*
G01*
X128675000Y-46275000D01*
G75*
G02*
X128437500Y-46037500I0J237500D01*
G01*
G37*
%TD.AperFunction*%
%TO.P,R15,1*%
%TO.N,Net-(Q1-Pad1)*%
%TA.AperFunction,SMDPad,CuDef*%
G36*
G01*
X126612500Y-46037500D02*
X126612500Y-45562500D01*
G75*
G02*
X126850000Y-45325000I237500J0D01*
G01*
X127350000Y-45325000D01*
G75*
G02*
X127587500Y-45562500I0J-237500D01*
G01*
X127587500Y-46037500D01*
G75*
G02*
X127350000Y-46275000I-237500J0D01*
G01*
X126850000Y-46275000D01*
G75*
G02*
X126612500Y-46037500I0J237500D01*
G01*
G37*
%TD.AperFunction*%
%TD*%
%TO.P,R14,2*%
%TO.N,Net-(Q8-Pad1)*%
%TA.AperFunction,SMDPad,CuDef*%
G36*
G01*
X154625000Y-28637500D02*
X154625000Y-28162500D01*
G75*
G02*
X154862500Y-27925000I237500J0D01*
G01*
X155362500Y-27925000D01*
G75*
G02*
X155600000Y-28162500I0J-237500D01*
G01*
X155600000Y-28637500D01*
G75*
G02*
X155362500Y-28875000I-237500J0D01*
G01*
X154862500Y-28875000D01*
G75*
G02*
X154625000Y-28637500I0J237500D01*
G01*
G37*
%TD.AperFunction*%
%TO.P,R14,1*%
%TO.N,/T4_W*%
%TA.AperFunction,SMDPad,CuDef*%
G36*
G01*
X152800000Y-28637500D02*
X152800000Y-28162500D01*
G75*
G02*
X153037500Y-27925000I237500J0D01*
G01*
X153537500Y-27925000D01*
G75*
G02*
X153775000Y-28162500I0J-237500D01*
G01*
X153775000Y-28637500D01*
G75*
G02*
X153537500Y-28875000I-237500J0D01*
G01*
X153037500Y-28875000D01*
G75*
G02*
X152800000Y-28637500I0J237500D01*
G01*
G37*
%TD.AperFunction*%
%TD*%
%TO.P,R13,2*%
%TO.N,Net-(Q7-Pad1)*%
%TA.AperFunction,SMDPad,CuDef*%
G36*
G01*
X153912500Y-34937500D02*
X153912500Y-34462500D01*
G75*
G02*
X154150000Y-34225000I237500J0D01*
G01*
X154650000Y-34225000D01*
G75*
G02*
X154887500Y-34462500I0J-237500D01*
G01*
X154887500Y-34937500D01*
G75*
G02*
X154650000Y-35175000I-237500J0D01*
G01*
X154150000Y-35175000D01*
G75*
G02*
X153912500Y-34937500I0J237500D01*
G01*
G37*
%TD.AperFunction*%
%TO.P,R13,1*%
%TO.N,/T4_B*%
%TA.AperFunction,SMDPad,CuDef*%
G36*
G01*
X152087500Y-34937500D02*
X152087500Y-34462500D01*
G75*
G02*
X152325000Y-34225000I237500J0D01*
G01*
X152825000Y-34225000D01*
G75*
G02*
X153062500Y-34462500I0J-237500D01*
G01*
X153062500Y-34937500D01*
G75*
G02*
X152825000Y-35175000I-237500J0D01*
G01*
X152325000Y-35175000D01*
G75*
G02*
X152087500Y-34937500I0J237500D01*
G01*
G37*
%TD.AperFunction*%
%TD*%
%TO.P,R12,2*%
%TO.N,Net-(Q6-Pad1)*%
%TA.AperFunction,SMDPad,CuDef*%
G36*
G01*
X153912500Y-41037501D02*
X153912500Y-40562501D01*
G75*
G02*
X154150000Y-40325001I237500J0D01*
G01*
X154650000Y-40325001D01*
G75*
G02*
X154887500Y-40562501I0J-237500D01*
G01*
X154887500Y-41037501D01*
G75*
G02*
X154650000Y-41275001I-237500J0D01*
G01*
X154150000Y-41275001D01*
G75*
G02*
X153912500Y-41037501I0J237500D01*
G01*
G37*
%TD.AperFunction*%
%TO.P,R12,1*%
%TO.N,/T4_G*%
%TA.AperFunction,SMDPad,CuDef*%
G36*
G01*
X152087500Y-41037501D02*
X152087500Y-40562501D01*
G75*
G02*
X152325000Y-40325001I237500J0D01*
G01*
X152825000Y-40325001D01*
G75*
G02*
X153062500Y-40562501I0J-237500D01*
G01*
X153062500Y-41037501D01*
G75*
G02*
X152825000Y-41275001I-237500J0D01*
G01*
X152325000Y-41275001D01*
G75*
G02*
X152087500Y-41037501I0J237500D01*
G01*
G37*
%TD.AperFunction*%
%TD*%
%TO.P,R11,2*%
%TO.N,Net-(Q5-Pad1)*%
%TA.AperFunction,SMDPad,CuDef*%
G36*
G01*
X148262500Y-45512500D02*
X148737500Y-45512500D01*
G75*
G02*
X148975000Y-45750000I0J-237500D01*
G01*
X148975000Y-46250000D01*
G75*
G02*
X148737500Y-46487500I-237500J0D01*
G01*
X148262500Y-46487500D01*
G75*
G02*
X148025000Y-46250000I0J237500D01*
G01*
X148025000Y-45750000D01*
G75*
G02*
X148262500Y-45512500I237500J0D01*
G01*
G37*
%TD.AperFunction*%
%TO.P,R11,1*%
%TO.N,/T4_R*%
%TA.AperFunction,SMDPad,CuDef*%
G36*
G01*
X148262500Y-43687500D02*
X148737500Y-43687500D01*
G75*
G02*
X148975000Y-43925000I0J-237500D01*
G01*
X148975000Y-44425000D01*
G75*
G02*
X148737500Y-44662500I-237500J0D01*
G01*
X148262500Y-44662500D01*
G75*
G02*
X148025000Y-44425000I0J237500D01*
G01*
X148025000Y-43925000D01*
G75*
G02*
X148262500Y-43687500I237500J0D01*
G01*
G37*
%TD.AperFunction*%
%TD*%
%TO.P,R10,2*%
%TO.N,Net-(Q4-Pad1)*%
%TA.AperFunction,SMDPad,CuDef*%
G36*
G01*
X142562500Y-45525000D02*
X143037500Y-45525000D01*
G75*
G02*
X143275000Y-45762500I0J-237500D01*
G01*
X143275000Y-46262500D01*
G75*
G02*
X143037500Y-46500000I-237500J0D01*
G01*
X142562500Y-46500000D01*
G75*
G02*
X142325000Y-46262500I0J237500D01*
G01*
X142325000Y-45762500D01*
G75*
G02*
X142562500Y-45525000I237500J0D01*
G01*
G37*
%TD.AperFunction*%
%TO.P,R10,1*%
%TO.N,/T3_W*%
%TA.AperFunction,SMDPad,CuDef*%
G36*
G01*
X142562500Y-43700000D02*
X143037500Y-43700000D01*
G75*
G02*
X143275000Y-43937500I0J-237500D01*
G01*
X143275000Y-44437500D01*
G75*
G02*
X143037500Y-44675000I-237500J0D01*
G01*
X142562500Y-44675000D01*
G75*
G02*
X142325000Y-44437500I0J237500D01*
G01*
X142325000Y-43937500D01*
G75*
G02*
X142562500Y-43700000I237500J0D01*
G01*
G37*
%TD.AperFunction*%
%TD*%
%TO.P,R9,2*%
%TO.N,Net-(Q3-Pad1)*%
%TA.AperFunction,SMDPad,CuDef*%
G36*
G01*
X136762500Y-45412500D02*
X137237500Y-45412500D01*
G75*
G02*
X137475000Y-45650000I0J-237500D01*
G01*
X137475000Y-46150000D01*
G75*
G02*
X137237500Y-46387500I-237500J0D01*
G01*
X136762500Y-46387500D01*
G75*
G02*
X136525000Y-46150000I0J237500D01*
G01*
X136525000Y-45650000D01*
G75*
G02*
X136762500Y-45412500I237500J0D01*
G01*
G37*
%TD.AperFunction*%
%TO.P,R9,1*%
%TO.N,/T3_B*%
%TA.AperFunction,SMDPad,CuDef*%
G36*
G01*
X136762500Y-43587500D02*
X137237500Y-43587500D01*
G75*
G02*
X137475000Y-43825000I0J-237500D01*
G01*
X137475000Y-44325000D01*
G75*
G02*
X137237500Y-44562500I-237500J0D01*
G01*
X136762500Y-44562500D01*
G75*
G02*
X136525000Y-44325000I0J237500D01*
G01*
X136525000Y-43825000D01*
G75*
G02*
X136762500Y-43587500I237500J0D01*
G01*
G37*
%TD.AperFunction*%
%TD*%
%TO.P,R8,2*%
%TO.N,Net-(Q2-Pad1)*%
%TA.AperFunction,SMDPad,CuDef*%
G36*
G01*
X130962500Y-45425000D02*
X131437500Y-45425000D01*
G75*
G02*
X131675000Y-45662500I0J-237500D01*
G01*
X131675000Y-46162500D01*
G75*
G02*
X131437500Y-46400000I-237500J0D01*
G01*
X130962500Y-46400000D01*
G75*
G02*
X130725000Y-46162500I0J237500D01*
G01*
X130725000Y-45662500D01*
G75*
G02*
X130962500Y-45425000I237500J0D01*
G01*
G37*
%TD.AperFunction*%
%TO.P,R8,1*%
%TO.N,/T3_G*%
%TA.AperFunction,SMDPad,CuDef*%
G36*
G01*
X130962500Y-43600000D02*
X131437500Y-43600000D01*
G75*
G02*
X131675000Y-43837500I0J-237500D01*
G01*
X131675000Y-44337500D01*
G75*
G02*
X131437500Y-44575000I-237500J0D01*
G01*
X130962500Y-44575000D01*
G75*
G02*
X130725000Y-44337500I0J237500D01*
G01*
X130725000Y-43837500D01*
G75*
G02*
X130962500Y-43600000I237500J0D01*
G01*
G37*
%TD.AperFunction*%
%TD*%
%TO.P,R7,2*%
%TO.N,Net-(Q1-Pad1)*%
%TA.AperFunction,SMDPad,CuDef*%
G36*
G01*
X125062500Y-45312500D02*
X125537500Y-45312500D01*
G75*
G02*
X125775000Y-45550000I0J-237500D01*
G01*
X125775000Y-46050000D01*
G75*
G02*
X125537500Y-46287500I-237500J0D01*
G01*
X125062500Y-46287500D01*
G75*
G02*
X124825000Y-46050000I0J237500D01*
G01*
X124825000Y-45550000D01*
G75*
G02*
X125062500Y-45312500I237500J0D01*
G01*
G37*
%TD.AperFunction*%
%TO.P,R7,1*%
%TO.N,/T3_R*%
%TA.AperFunction,SMDPad,CuDef*%
G36*
G01*
X125062500Y-43487500D02*
X125537500Y-43487500D01*
G75*
G02*
X125775000Y-43725000I0J-237500D01*
G01*
X125775000Y-44225000D01*
G75*
G02*
X125537500Y-44462500I-237500J0D01*
G01*
X125062500Y-44462500D01*
G75*
G02*
X124825000Y-44225000I0J237500D01*
G01*
X124825000Y-43725000D01*
G75*
G02*
X125062500Y-43487500I237500J0D01*
G01*
G37*
%TD.AperFunction*%
%TD*%
%TO.P,R6,2*%
%TO.N,Net-(BLUE1-Pad1)*%
%TA.AperFunction,SMDPad,CuDef*%
G36*
G01*
X120300000Y-31875000D02*
X120300000Y-31325000D01*
G75*
G02*
X120500000Y-31125000I200000J0D01*
G01*
X120900000Y-31125000D01*
G75*
G02*
X121100000Y-31325000I0J-200000D01*
G01*
X121100000Y-31875000D01*
G75*
G02*
X120900000Y-32075000I-200000J0D01*
G01*
X120500000Y-32075000D01*
G75*
G02*
X120300000Y-31875000I0J200000D01*
G01*
G37*
%TD.AperFunction*%
%TO.P,R6,1*%
%TO.N,/LED1*%
%TA.AperFunction,SMDPad,CuDef*%
G36*
G01*
X118650000Y-31875000D02*
X118650000Y-31325000D01*
G75*
G02*
X118850000Y-31125000I200000J0D01*
G01*
X119250000Y-31125000D01*
G75*
G02*
X119450000Y-31325000I0J-200000D01*
G01*
X119450000Y-31875000D01*
G75*
G02*
X119250000Y-32075000I-200000J0D01*
G01*
X118850000Y-32075000D01*
G75*
G02*
X118650000Y-31875000I0J200000D01*
G01*
G37*
%TD.AperFunction*%
%TD*%
%TO.P,R5,2*%
%TO.N,Net-(GREEN1-Pad1)*%
%TA.AperFunction,SMDPad,CuDef*%
G36*
G01*
X120200000Y-28575000D02*
X120200000Y-28025000D01*
G75*
G02*
X120400000Y-27825000I200000J0D01*
G01*
X120800000Y-27825000D01*
G75*
G02*
X121000000Y-28025000I0J-200000D01*
G01*
X121000000Y-28575000D01*
G75*
G02*
X120800000Y-28775000I-200000J0D01*
G01*
X120400000Y-28775000D01*
G75*
G02*
X120200000Y-28575000I0J200000D01*
G01*
G37*
%TD.AperFunction*%
%TO.P,R5,1*%
%TO.N,/LED0*%
%TA.AperFunction,SMDPad,CuDef*%
G36*
G01*
X118550000Y-28575000D02*
X118550000Y-28025000D01*
G75*
G02*
X118750000Y-27825000I200000J0D01*
G01*
X119150000Y-27825000D01*
G75*
G02*
X119350000Y-28025000I0J-200000D01*
G01*
X119350000Y-28575000D01*
G75*
G02*
X119150000Y-28775000I-200000J0D01*
G01*
X118750000Y-28775000D01*
G75*
G02*
X118550000Y-28575000I0J200000D01*
G01*
G37*
%TD.AperFunction*%
%TD*%
%TO.P,R4,2*%
%TO.N,Net-(R4-Pad2)*%
%TA.AperFunction,SMDPad,CuDef*%
G36*
G01*
X120200000Y-25575000D02*
X120200000Y-25025000D01*
G75*
G02*
X120400000Y-24825000I200000J0D01*
G01*
X120800000Y-24825000D01*
G75*
G02*
X121000000Y-25025000I0J-200000D01*
G01*
X121000000Y-25575000D01*
G75*
G02*
X120800000Y-25775000I-200000J0D01*
G01*
X120400000Y-25775000D01*
G75*
G02*
X120200000Y-25575000I0J200000D01*
G01*
G37*
%TD.AperFunction*%
%TO.P,R4,1*%
%TO.N,/+5v*%
%TA.AperFunction,SMDPad,CuDef*%
G36*
G01*
X118550000Y-25575000D02*
X118550000Y-25025000D01*
G75*
G02*
X118750000Y-24825000I200000J0D01*
G01*
X119150000Y-24825000D01*
G75*
G02*
X119350000Y-25025000I0J-200000D01*
G01*
X119350000Y-25575000D01*
G75*
G02*
X119150000Y-25775000I-200000J0D01*
G01*
X118750000Y-25775000D01*
G75*
G02*
X118550000Y-25575000I0J200000D01*
G01*
G37*
%TD.AperFunction*%
%TD*%
%TO.P,R3,2*%
%TO.N,Net-(C8-Pad1)*%
%TA.AperFunction,SMDPad,CuDef*%
G36*
G01*
X130462500Y-35412500D02*
X130937500Y-35412500D01*
G75*
G02*
X131175000Y-35650000I0J-237500D01*
G01*
X131175000Y-36150000D01*
G75*
G02*
X130937500Y-36387500I-237500J0D01*
G01*
X130462500Y-36387500D01*
G75*
G02*
X130225000Y-36150000I0J237500D01*
G01*
X130225000Y-35650000D01*
G75*
G02*
X130462500Y-35412500I237500J0D01*
G01*
G37*
%TD.AperFunction*%
%TO.P,R3,1*%
%TO.N,Net-(C7-Pad1)*%
%TA.AperFunction,SMDPad,CuDef*%
G36*
G01*
X130462500Y-33587500D02*
X130937500Y-33587500D01*
G75*
G02*
X131175000Y-33825000I0J-237500D01*
G01*
X131175000Y-34325000D01*
G75*
G02*
X130937500Y-34562500I-237500J0D01*
G01*
X130462500Y-34562500D01*
G75*
G02*
X130225000Y-34325000I0J237500D01*
G01*
X130225000Y-33825000D01*
G75*
G02*
X130462500Y-33587500I237500J0D01*
G01*
G37*
%TD.AperFunction*%
%TD*%
%TO.P,R2,2*%
%TO.N,GND*%
%TA.AperFunction,SMDPad,CuDef*%
G36*
G01*
X115650001Y-26200000D02*
X114749999Y-26200000D01*
G75*
G02*
X114500000Y-25950001I0J249999D01*
G01*
X114500000Y-25249999D01*
G75*
G02*
X114749999Y-25000000I249999J0D01*
G01*
X115650001Y-25000000D01*
G75*
G02*
X115900000Y-25249999I0J-249999D01*
G01*
X115900000Y-25950001D01*
G75*
G02*
X115650001Y-26200000I-249999J0D01*
G01*
G37*
%TD.AperFunction*%
%TO.P,R2,1*%
%TO.N,Net-(J2-Pad2)*%
%TA.AperFunction,SMDPad,CuDef*%
G36*
G01*
X115650001Y-28200000D02*
X114749999Y-28200000D01*
G75*
G02*
X114500000Y-27950001I0J249999D01*
G01*
X114500000Y-27249999D01*
G75*
G02*
X114749999Y-27000000I249999J0D01*
G01*
X115650001Y-27000000D01*
G75*
G02*
X115900000Y-27249999I0J-249999D01*
G01*
X115900000Y-27950001D01*
G75*
G02*
X115650001Y-28200000I-249999J0D01*
G01*
G37*
%TD.AperFunction*%
%TD*%
%TO.P,R1,2*%
%TO.N,/NRST*%
%TA.AperFunction,SMDPad,CuDef*%
G36*
G01*
X121049999Y-40400000D02*
X121950001Y-40400000D01*
G75*
G02*
X122200000Y-40649999I0J-249999D01*
G01*
X122200000Y-41350001D01*
G75*
G02*
X121950001Y-41600000I-249999J0D01*
G01*
X121049999Y-41600000D01*
G75*
G02*
X120800000Y-41350001I0J249999D01*
G01*
X120800000Y-40649999D01*
G75*
G02*
X121049999Y-40400000I249999J0D01*
G01*
G37*
%TD.AperFunction*%
%TO.P,R1,1*%
%TO.N,/+3.3*%
%TA.AperFunction,SMDPad,CuDef*%
G36*
G01*
X121049999Y-38400000D02*
X121950001Y-38400000D01*
G75*
G02*
X122200000Y-38649999I0J-249999D01*
G01*
X122200000Y-39350001D01*
G75*
G02*
X121950001Y-39600000I-249999J0D01*
G01*
X121049999Y-39600000D01*
G75*
G02*
X120800000Y-39350001I0J249999D01*
G01*
X120800000Y-38649999D01*
G75*
G02*
X121049999Y-38400000I249999J0D01*
G01*
G37*
%TD.AperFunction*%
%TD*%
D15*
%TO.P,Q8,1*%
%TO.N,Net-(Q8-Pad1)*%
X156850000Y-28499999D03*
%TO.P,Q8,2*%
%TO.N,GND*%
X158750000Y-28499999D03*
%TO.P,Q8,3*%
%TO.N,/LED2_W*%
X157800000Y-25899999D03*
%TD*%
%TO.P,Q7,1*%
%TO.N,Net-(Q7-Pad1)*%
X156400000Y-34900001D03*
%TO.P,Q7,2*%
%TO.N,GND*%
X158300000Y-34900001D03*
%TO.P,Q7,3*%
%TO.N,/LED2_B*%
X157350000Y-32300001D03*
%TD*%
%TO.P,Q6,1*%
%TO.N,Net-(Q6-Pad1)*%
X156300000Y-41000000D03*
%TO.P,Q6,2*%
%TO.N,GND*%
X158200000Y-41000000D03*
%TO.P,Q6,3*%
%TO.N,/LED2_G*%
X157250000Y-38400000D03*
%TD*%
D16*
%TO.P,Q5,1*%
%TO.N,Net-(Q5-Pad1)*%
X148400000Y-47950000D03*
%TO.P,Q5,2*%
%TO.N,GND*%
X148400000Y-49850000D03*
%TO.P,Q5,3*%
%TO.N,/LED2_R*%
X151000000Y-48900000D03*
%TD*%
%TO.P,Q4,1*%
%TO.N,Net-(Q4-Pad1)*%
X142600000Y-47850000D03*
%TO.P,Q4,2*%
%TO.N,GND*%
X142600000Y-49750000D03*
%TO.P,Q4,3*%
%TO.N,/LED1_W*%
X145200000Y-48800000D03*
%TD*%
%TO.P,Q3,1*%
%TO.N,Net-(Q3-Pad1)*%
X136900000Y-47750000D03*
%TO.P,Q3,2*%
%TO.N,GND*%
X136900000Y-49650000D03*
%TO.P,Q3,3*%
%TO.N,/LED1_B*%
X139500000Y-48700000D03*
%TD*%
%TO.P,Q2,1*%
%TO.N,Net-(Q2-Pad1)*%
X131000000Y-47700000D03*
%TO.P,Q2,2*%
%TO.N,GND*%
X131000000Y-49600000D03*
%TO.P,Q2,3*%
%TO.N,/LED1_G*%
X133600000Y-48650000D03*
%TD*%
%TO.P,Q1,1*%
%TO.N,Net-(Q1-Pad1)*%
X125300000Y-47700000D03*
%TO.P,Q1,2*%
%TO.N,GND*%
X125300000Y-49600000D03*
%TO.P,Q1,3*%
%TO.N,/LED1_R*%
X127900000Y-48650000D03*
%TD*%
D14*
%TO.P,LD1,2*%
%TO.N,Net-(LD1-Pad2)*%
X127000000Y-53000000D03*
%TO.P,LD1,1*%
%TO.N,GND*%
X131000000Y-53000000D03*
%TD*%
D12*
%TO.P,J17,2*%
%TO.N,GND*%
X142700001Y-64420000D03*
D13*
%TO.P,J17,1*%
%TO.N,/SW_3*%
X142700001Y-56800000D03*
%TD*%
D12*
%TO.P,J16,2*%
%TO.N,GND*%
X137500000Y-64420000D03*
D13*
%TO.P,J16,1*%
%TO.N,/SW_2*%
X137500000Y-56800000D03*
%TD*%
D12*
%TO.P,J15,2*%
%TO.N,GND*%
X132200000Y-64420000D03*
D13*
%TO.P,J15,1*%
%TO.N,/SW_1*%
X132200000Y-56800000D03*
%TD*%
D17*
%TO.P,J14,6*%
%TO.N,/BT_EN*%
X116240000Y-21200000D03*
%TO.P,J14,5*%
%TO.N,/+5v*%
X118780000Y-21200000D03*
%TO.P,J14,4*%
%TO.N,GND*%
X121320000Y-21200000D03*
%TO.P,J14,3*%
%TO.N,/BT_TXD*%
X123860000Y-21200000D03*
%TO.P,J14,2*%
%TO.N,/BT_RXD*%
X126400000Y-21200000D03*
D18*
%TO.P,J14,1*%
%TO.N,/BT_STATE*%
X128940000Y-21200000D03*
%TD*%
D17*
%TO.P,J13,4*%
%TO.N,/+3.3*%
X140820000Y-21200000D03*
%TO.P,J13,3*%
%TO.N,GND*%
X138280000Y-21200000D03*
%TO.P,J13,2*%
%TO.N,/SCL_OLED*%
X135740000Y-21200000D03*
D18*
%TO.P,J13,1*%
%TO.N,/SDA_OLED*%
X133200000Y-21200000D03*
%TD*%
D19*
%TO.P,J12,2*%
%TO.N,/LED2_W*%
X166200000Y-15200000D03*
D20*
%TO.P,J12,1*%
%TO.N,/+5v*%
X166200000Y-10200000D03*
%TD*%
D19*
%TO.P,J11,2*%
%TO.N,/LED2_G*%
X166200000Y-26499999D03*
D20*
%TO.P,J11,1*%
%TO.N,/LED2_B*%
X166200000Y-21499999D03*
%TD*%
D19*
%TO.P,J10,2*%
%TO.N,/+5v*%
X166200000Y-37799999D03*
D20*
%TO.P,J10,1*%
%TO.N,/LED2_R*%
X166200000Y-32799999D03*
%TD*%
D19*
%TO.P,J9,2*%
%TO.N,/LED1_W*%
X166200000Y-44900000D03*
D20*
%TO.P,J9,1*%
%TO.N,/+5v*%
X166200000Y-49900000D03*
%TD*%
D21*
%TO.P,J8,2*%
%TO.N,/LED1_G*%
X160600000Y-60300000D03*
D22*
%TO.P,J8,1*%
%TO.N,/LED1_B*%
X165600000Y-60300000D03*
%TD*%
D21*
%TO.P,J7,2*%
%TO.N,/+5v*%
X149200000Y-60300000D03*
D22*
%TO.P,J7,1*%
%TO.N,/LED1_R*%
X154200000Y-60300000D03*
%TD*%
D17*
%TO.P,J6,4*%
%TO.N,GND*%
X113340000Y-36460000D03*
%TO.P,J6,3*%
%TO.N,/SWCLK*%
X113340000Y-39000000D03*
%TO.P,J6,2*%
%TO.N,/SWDIO*%
X110800000Y-36460000D03*
D18*
%TO.P,J6,1*%
%TO.N,/+3.3*%
X110800000Y-39000000D03*
%TD*%
%TO.P,J5,3*%
%TO.N,GND*%
%TA.AperFunction,ComponentPad*%
G36*
G01*
X103150000Y-43125000D02*
X103150000Y-44875000D01*
G75*
G02*
X102275000Y-45750000I-875000J0D01*
G01*
X100525000Y-45750000D01*
G75*
G02*
X99650000Y-44875000I0J875000D01*
G01*
X99650000Y-43125000D01*
G75*
G02*
X100525000Y-42250000I875000J0D01*
G01*
X102275000Y-42250000D01*
G75*
G02*
X103150000Y-43125000I0J-875000D01*
G01*
G37*
%TD.AperFunction*%
%TO.P,J5,2*%
%TA.AperFunction,ComponentPad*%
G36*
G01*
X105900000Y-47700000D02*
X105900000Y-49700000D01*
G75*
G02*
X105150000Y-50450000I-750000J0D01*
G01*
X103650000Y-50450000D01*
G75*
G02*
X102900000Y-49700000I0J750000D01*
G01*
X102900000Y-47700000D01*
G75*
G02*
X103650000Y-46950000I750000J0D01*
G01*
X105150000Y-46950000D01*
G75*
G02*
X105900000Y-47700000I0J-750000D01*
G01*
G37*
%TD.AperFunction*%
D23*
%TO.P,J5,1*%
%TO.N,Net-(J3-Pad2)*%
X98400000Y-48700000D03*
%TD*%
D24*
%TO.P,J4,1*%
%TO.N,/+3.3*%
X144600000Y-32050000D03*
%TO.P,J4,3*%
%TO.N,GND*%
X149200000Y-32050000D03*
%TO.P,J4,2*%
%TO.N,/+5v*%
X146900000Y-32050000D03*
D25*
%TO.P,J4,4*%
%TO.N,N/C*%
X146900000Y-25750000D03*
%TD*%
D19*
%TO.P,J3,2*%
%TO.N,Net-(J3-Pad2)*%
X102400000Y-58100000D03*
D20*
%TO.P,J3,1*%
%TO.N,GND*%
X102400000Y-63100000D03*
%TD*%
D12*
%TO.P,J2,2*%
%TO.N,Net-(J2-Pad2)*%
X126900000Y-56800000D03*
D13*
%TO.P,J2,1*%
%TO.N,/NRST*%
X126900000Y-64420000D03*
%TD*%
D17*
%TO.P,J1,8*%
%TO.N,/+3.3*%
X106820000Y-36560000D03*
%TO.P,J1,7*%
X106820000Y-39100000D03*
%TO.P,J1,6*%
%TO.N,GND*%
X104280000Y-36560000D03*
%TO.P,J1,5*%
X104280000Y-39100000D03*
%TO.P,J1,4*%
X101740000Y-36560000D03*
%TO.P,J1,3*%
X101740000Y-39100000D03*
%TO.P,J1,2*%
%TO.N,/+5v*%
X99200000Y-36560000D03*
D18*
%TO.P,J1,1*%
X99200000Y-39100000D03*
%TD*%
%TO.P,GREEN1,2*%
%TO.N,GND*%
%TA.AperFunction,SMDPad,CuDef*%
G36*
G01*
X124437500Y-28656250D02*
X124437500Y-28143750D01*
G75*
G02*
X124656250Y-27925000I218750J0D01*
G01*
X125093750Y-27925000D01*
G75*
G02*
X125312500Y-28143750I0J-218750D01*
G01*
X125312500Y-28656250D01*
G75*
G02*
X125093750Y-28875000I-218750J0D01*
G01*
X124656250Y-28875000D01*
G75*
G02*
X124437500Y-28656250I0J218750D01*
G01*
G37*
%TD.AperFunction*%
%TO.P,GREEN1,1*%
%TO.N,Net-(GREEN1-Pad1)*%
%TA.AperFunction,SMDPad,CuDef*%
G36*
G01*
X122862500Y-28656250D02*
X122862500Y-28143750D01*
G75*
G02*
X123081250Y-27925000I218750J0D01*
G01*
X123518750Y-27925000D01*
G75*
G02*
X123737500Y-28143750I0J-218750D01*
G01*
X123737500Y-28656250D01*
G75*
G02*
X123518750Y-28875000I-218750J0D01*
G01*
X123081250Y-28875000D01*
G75*
G02*
X122862500Y-28656250I0J218750D01*
G01*
G37*
%TD.AperFunction*%
%TD*%
D26*
%TO.P,F1,1*%
%TO.N,/+5v*%
X111600000Y-58800000D03*
D27*
%TO.P,F1,2*%
%TO.N,Net-(F1-Pad2)*%
X111600000Y-63880000D03*
%TD*%
D28*
%TO.P,D1,2*%
%TO.N,GND*%
X116700000Y-64200000D03*
%TO.P,D1,1*%
%TO.N,/+5v*%
X116700000Y-59900000D03*
%TD*%
%TO.P,C19,2*%
%TO.N,/LIGHT*%
%TA.AperFunction,SMDPad,CuDef*%
G36*
G01*
X130362500Y-40462500D02*
X130837500Y-40462500D01*
G75*
G02*
X131075000Y-40700000I0J-237500D01*
G01*
X131075000Y-41300000D01*
G75*
G02*
X130837500Y-41537500I-237500J0D01*
G01*
X130362500Y-41537500D01*
G75*
G02*
X130125000Y-41300000I0J237500D01*
G01*
X130125000Y-40700000D01*
G75*
G02*
X130362500Y-40462500I237500J0D01*
G01*
G37*
%TD.AperFunction*%
%TO.P,C19,1*%
%TO.N,GND*%
%TA.AperFunction,SMDPad,CuDef*%
G36*
G01*
X130362500Y-38737500D02*
X130837500Y-38737500D01*
G75*
G02*
X131075000Y-38975000I0J-237500D01*
G01*
X131075000Y-39575000D01*
G75*
G02*
X130837500Y-39812500I-237500J0D01*
G01*
X130362500Y-39812500D01*
G75*
G02*
X130125000Y-39575000I0J237500D01*
G01*
X130125000Y-38975000D01*
G75*
G02*
X130362500Y-38737500I237500J0D01*
G01*
G37*
%TD.AperFunction*%
%TD*%
%TO.P,C18,2*%
%TO.N,GND*%
%TA.AperFunction,SMDPad,CuDef*%
G36*
G01*
X128225000Y-27850000D02*
X129175000Y-27850000D01*
G75*
G02*
X129425000Y-28100000I0J-250000D01*
G01*
X129425000Y-28600000D01*
G75*
G02*
X129175000Y-28850000I-250000J0D01*
G01*
X128225000Y-28850000D01*
G75*
G02*
X127975000Y-28600000I0J250000D01*
G01*
X127975000Y-28100000D01*
G75*
G02*
X128225000Y-27850000I250000J0D01*
G01*
G37*
%TD.AperFunction*%
%TO.P,C18,1*%
%TO.N,/+3.3*%
%TA.AperFunction,SMDPad,CuDef*%
G36*
G01*
X128225000Y-25950000D02*
X129175000Y-25950000D01*
G75*
G02*
X129425000Y-26200000I0J-250000D01*
G01*
X129425000Y-26700000D01*
G75*
G02*
X129175000Y-26950000I-250000J0D01*
G01*
X128225000Y-26950000D01*
G75*
G02*
X127975000Y-26700000I0J250000D01*
G01*
X127975000Y-26200000D01*
G75*
G02*
X128225000Y-25950000I250000J0D01*
G01*
G37*
%TD.AperFunction*%
%TD*%
%TO.P,C17,2*%
%TO.N,GND*%
%TA.AperFunction,SMDPad,CuDef*%
G36*
G01*
X114158578Y-47766422D02*
X114158578Y-48716422D01*
G75*
G02*
X113908578Y-48966422I-250000J0D01*
G01*
X113408578Y-48966422D01*
G75*
G02*
X113158578Y-48716422I0J250000D01*
G01*
X113158578Y-47766422D01*
G75*
G02*
X113408578Y-47516422I250000J0D01*
G01*
X113908578Y-47516422D01*
G75*
G02*
X114158578Y-47766422I0J-250000D01*
G01*
G37*
%TD.AperFunction*%
%TO.P,C17,1*%
%TO.N,/+5v*%
%TA.AperFunction,SMDPad,CuDef*%
G36*
G01*
X116058578Y-47766422D02*
X116058578Y-48716422D01*
G75*
G02*
X115808578Y-48966422I-250000J0D01*
G01*
X115308578Y-48966422D01*
G75*
G02*
X115058578Y-48716422I0J250000D01*
G01*
X115058578Y-47766422D01*
G75*
G02*
X115308578Y-47516422I250000J0D01*
G01*
X115808578Y-47516422D01*
G75*
G02*
X116058578Y-47766422I0J-250000D01*
G01*
G37*
%TD.AperFunction*%
%TD*%
%TO.P,C16,2*%
%TO.N,GND*%
%TA.AperFunction,SMDPad,CuDef*%
G36*
G01*
X114150000Y-44401420D02*
X114150000Y-45351420D01*
G75*
G02*
X113900000Y-45601420I-250000J0D01*
G01*
X113400000Y-45601420D01*
G75*
G02*
X113150000Y-45351420I0J250000D01*
G01*
X113150000Y-44401420D01*
G75*
G02*
X113400000Y-44151420I250000J0D01*
G01*
X113900000Y-44151420D01*
G75*
G02*
X114150000Y-44401420I0J-250000D01*
G01*
G37*
%TD.AperFunction*%
%TO.P,C16,1*%
%TO.N,/+5v*%
%TA.AperFunction,SMDPad,CuDef*%
G36*
G01*
X116050000Y-44401420D02*
X116050000Y-45351420D01*
G75*
G02*
X115800000Y-45601420I-250000J0D01*
G01*
X115300000Y-45601420D01*
G75*
G02*
X115050000Y-45351420I0J250000D01*
G01*
X115050000Y-44401420D01*
G75*
G02*
X115300000Y-44151420I250000J0D01*
G01*
X115800000Y-44151420D01*
G75*
G02*
X116050000Y-44401420I0J-250000D01*
G01*
G37*
%TD.AperFunction*%
%TD*%
%TO.P,C15,2*%
%TO.N,GND*%
%TA.AperFunction,SMDPad,CuDef*%
G36*
G01*
X104350000Y-25000000D02*
X104350000Y-23400000D01*
G75*
G02*
X104600000Y-23150000I250000J0D01*
G01*
X108600000Y-23150000D01*
G75*
G02*
X108850000Y-23400000I0J-250000D01*
G01*
X108850000Y-25000000D01*
G75*
G02*
X108600000Y-25250000I-250000J0D01*
G01*
X104600000Y-25250000D01*
G75*
G02*
X104350000Y-25000000I0J250000D01*
G01*
G37*
%TD.AperFunction*%
%TO.P,C15,1*%
%TO.N,/+5v*%
%TA.AperFunction,SMDPad,CuDef*%
G36*
G01*
X97150000Y-25000000D02*
X97150000Y-23400000D01*
G75*
G02*
X97400000Y-23150000I250000J0D01*
G01*
X101400000Y-23150000D01*
G75*
G02*
X101650000Y-23400000I0J-250000D01*
G01*
X101650000Y-25000000D01*
G75*
G02*
X101400000Y-25250000I-250000J0D01*
G01*
X97400000Y-25250000D01*
G75*
G02*
X97150000Y-25000000I0J250000D01*
G01*
G37*
%TD.AperFunction*%
%TD*%
%TO.P,C14,2*%
%TO.N,GND*%
%TA.AperFunction,SMDPad,CuDef*%
G36*
G01*
X144900000Y-37850000D02*
X144900000Y-37350000D01*
G75*
G02*
X145125000Y-37125000I225000J0D01*
G01*
X145575000Y-37125000D01*
G75*
G02*
X145800000Y-37350000I0J-225000D01*
G01*
X145800000Y-37850000D01*
G75*
G02*
X145575000Y-38075000I-225000J0D01*
G01*
X145125000Y-38075000D01*
G75*
G02*
X144900000Y-37850000I0J225000D01*
G01*
G37*
%TD.AperFunction*%
%TO.P,C14,1*%
%TO.N,/+3.3*%
%TA.AperFunction,SMDPad,CuDef*%
G36*
G01*
X143350000Y-37850000D02*
X143350000Y-37350000D01*
G75*
G02*
X143575000Y-37125000I225000J0D01*
G01*
X144025000Y-37125000D01*
G75*
G02*
X144250000Y-37350000I0J-225000D01*
G01*
X144250000Y-37850000D01*
G75*
G02*
X144025000Y-38075000I-225000J0D01*
G01*
X143575000Y-38075000D01*
G75*
G02*
X143350000Y-37850000I0J225000D01*
G01*
G37*
%TD.AperFunction*%
%TD*%
%TO.P,C13,2*%
%TO.N,GND*%
%TA.AperFunction,SMDPad,CuDef*%
G36*
G01*
X144900000Y-36175000D02*
X144900000Y-35225000D01*
G75*
G02*
X145150000Y-34975000I250000J0D01*
G01*
X145650000Y-34975000D01*
G75*
G02*
X145900000Y-35225000I0J-250000D01*
G01*
X145900000Y-36175000D01*
G75*
G02*
X145650000Y-36425000I-250000J0D01*
G01*
X145150000Y-36425000D01*
G75*
G02*
X144900000Y-36175000I0J250000D01*
G01*
G37*
%TD.AperFunction*%
%TO.P,C13,1*%
%TO.N,/+3.3*%
%TA.AperFunction,SMDPad,CuDef*%
G36*
G01*
X143000000Y-36175000D02*
X143000000Y-35225000D01*
G75*
G02*
X143250000Y-34975000I250000J0D01*
G01*
X143750000Y-34975000D01*
G75*
G02*
X144000000Y-35225000I0J-250000D01*
G01*
X144000000Y-36175000D01*
G75*
G02*
X143750000Y-36425000I-250000J0D01*
G01*
X143250000Y-36425000D01*
G75*
G02*
X143000000Y-36175000I0J250000D01*
G01*
G37*
%TD.AperFunction*%
%TD*%
%TO.P,C12,2*%
%TO.N,GND*%
%TA.AperFunction,SMDPad,CuDef*%
G36*
G01*
X131125000Y-28012500D02*
X132075000Y-28012500D01*
G75*
G02*
X132325000Y-28262500I0J-250000D01*
G01*
X132325000Y-28937500D01*
G75*
G02*
X132075000Y-29187500I-250000J0D01*
G01*
X131125000Y-29187500D01*
G75*
G02*
X130875000Y-28937500I0J250000D01*
G01*
X130875000Y-28262500D01*
G75*
G02*
X131125000Y-28012500I250000J0D01*
G01*
G37*
%TD.AperFunction*%
%TO.P,C12,1*%
%TO.N,/+3.3*%
%TA.AperFunction,SMDPad,CuDef*%
G36*
G01*
X131125000Y-25937500D02*
X132075000Y-25937500D01*
G75*
G02*
X132325000Y-26187500I0J-250000D01*
G01*
X132325000Y-26862500D01*
G75*
G02*
X132075000Y-27112500I-250000J0D01*
G01*
X131125000Y-27112500D01*
G75*
G02*
X130875000Y-26862500I0J250000D01*
G01*
X130875000Y-26187500D01*
G75*
G02*
X131125000Y-25937500I250000J0D01*
G01*
G37*
%TD.AperFunction*%
%TD*%
%TO.P,C11,2*%
%TO.N,GND*%
%TA.AperFunction,SMDPad,CuDef*%
G36*
G01*
X133725000Y-28012500D02*
X134675000Y-28012500D01*
G75*
G02*
X134925000Y-28262500I0J-250000D01*
G01*
X134925000Y-28937500D01*
G75*
G02*
X134675000Y-29187500I-250000J0D01*
G01*
X133725000Y-29187500D01*
G75*
G02*
X133475000Y-28937500I0J250000D01*
G01*
X133475000Y-28262500D01*
G75*
G02*
X133725000Y-28012500I250000J0D01*
G01*
G37*
%TD.AperFunction*%
%TO.P,C11,1*%
%TO.N,/+3.3*%
%TA.AperFunction,SMDPad,CuDef*%
G36*
G01*
X133725000Y-25937500D02*
X134675000Y-25937500D01*
G75*
G02*
X134925000Y-26187500I0J-250000D01*
G01*
X134925000Y-26862500D01*
G75*
G02*
X134675000Y-27112500I-250000J0D01*
G01*
X133725000Y-27112500D01*
G75*
G02*
X133475000Y-26862500I0J250000D01*
G01*
X133475000Y-26187500D01*
G75*
G02*
X133725000Y-25937500I250000J0D01*
G01*
G37*
%TD.AperFunction*%
%TD*%
%TO.P,C10,2*%
%TO.N,GND*%
%TA.AperFunction,SMDPad,CuDef*%
G36*
G01*
X128697500Y-31300000D02*
X128697500Y-31100000D01*
G75*
G02*
X128797500Y-31000000I100000J0D01*
G01*
X129232500Y-31000000D01*
G75*
G02*
X129332500Y-31100000I0J-100000D01*
G01*
X129332500Y-31300000D01*
G75*
G02*
X129232500Y-31400000I-100000J0D01*
G01*
X128797500Y-31400000D01*
G75*
G02*
X128697500Y-31300000I0J100000D01*
G01*
G37*
%TD.AperFunction*%
%TO.P,C10,1*%
%TO.N,Net-(C10-Pad1)*%
%TA.AperFunction,SMDPad,CuDef*%
G36*
G01*
X127882500Y-31300000D02*
X127882500Y-31100000D01*
G75*
G02*
X127982500Y-31000000I100000J0D01*
G01*
X128417500Y-31000000D01*
G75*
G02*
X128517500Y-31100000I0J-100000D01*
G01*
X128517500Y-31300000D01*
G75*
G02*
X128417500Y-31400000I-100000J0D01*
G01*
X127982500Y-31400000D01*
G75*
G02*
X127882500Y-31300000I0J100000D01*
G01*
G37*
%TD.AperFunction*%
%TD*%
%TO.P,C9,2*%
%TO.N,GND*%
%TA.AperFunction,SMDPad,CuDef*%
G36*
G01*
X128690000Y-30000000D02*
X128690000Y-29800000D01*
G75*
G02*
X128790000Y-29700000I100000J0D01*
G01*
X129225000Y-29700000D01*
G75*
G02*
X129325000Y-29800000I0J-100000D01*
G01*
X129325000Y-30000000D01*
G75*
G02*
X129225000Y-30100000I-100000J0D01*
G01*
X128790000Y-30100000D01*
G75*
G02*
X128690000Y-30000000I0J100000D01*
G01*
G37*
%TD.AperFunction*%
%TO.P,C9,1*%
%TO.N,Net-(C9-Pad1)*%
%TA.AperFunction,SMDPad,CuDef*%
G36*
G01*
X127875000Y-30000000D02*
X127875000Y-29800000D01*
G75*
G02*
X127975000Y-29700000I100000J0D01*
G01*
X128410000Y-29700000D01*
G75*
G02*
X128510000Y-29800000I0J-100000D01*
G01*
X128510000Y-30000000D01*
G75*
G02*
X128410000Y-30100000I-100000J0D01*
G01*
X127975000Y-30100000D01*
G75*
G02*
X127875000Y-30000000I0J100000D01*
G01*
G37*
%TD.AperFunction*%
%TD*%
%TO.P,C8,2*%
%TO.N,GND*%
%TA.AperFunction,SMDPad,CuDef*%
G36*
G01*
X123410000Y-41400000D02*
X123410000Y-41600000D01*
G75*
G02*
X123310000Y-41700000I-100000J0D01*
G01*
X122875000Y-41700000D01*
G75*
G02*
X122775000Y-41600000I0J100000D01*
G01*
X122775000Y-41400000D01*
G75*
G02*
X122875000Y-41300000I100000J0D01*
G01*
X123310000Y-41300000D01*
G75*
G02*
X123410000Y-41400000I0J-100000D01*
G01*
G37*
%TD.AperFunction*%
%TO.P,C8,1*%
%TO.N,Net-(C8-Pad1)*%
%TA.AperFunction,SMDPad,CuDef*%
G36*
G01*
X124225000Y-41400000D02*
X124225000Y-41600000D01*
G75*
G02*
X124125000Y-41700000I-100000J0D01*
G01*
X123690000Y-41700000D01*
G75*
G02*
X123590000Y-41600000I0J100000D01*
G01*
X123590000Y-41400000D01*
G75*
G02*
X123690000Y-41300000I100000J0D01*
G01*
X124125000Y-41300000D01*
G75*
G02*
X124225000Y-41400000I0J-100000D01*
G01*
G37*
%TD.AperFunction*%
%TD*%
%TO.P,C7,2*%
%TO.N,GND*%
%TA.AperFunction,SMDPad,CuDef*%
G36*
G01*
X123410001Y-39300000D02*
X123410001Y-39500000D01*
G75*
G02*
X123310001Y-39600000I-100000J0D01*
G01*
X122875001Y-39600000D01*
G75*
G02*
X122775001Y-39500000I0J100000D01*
G01*
X122775001Y-39300000D01*
G75*
G02*
X122875001Y-39200000I100000J0D01*
G01*
X123310001Y-39200000D01*
G75*
G02*
X123410001Y-39300000I0J-100000D01*
G01*
G37*
%TD.AperFunction*%
%TO.P,C7,1*%
%TO.N,Net-(C7-Pad1)*%
%TA.AperFunction,SMDPad,CuDef*%
G36*
G01*
X124225001Y-39300000D02*
X124225001Y-39500000D01*
G75*
G02*
X124125001Y-39600000I-100000J0D01*
G01*
X123690001Y-39600000D01*
G75*
G02*
X123590001Y-39500000I0J100000D01*
G01*
X123590001Y-39300000D01*
G75*
G02*
X123690001Y-39200000I100000J0D01*
G01*
X124125001Y-39200000D01*
G75*
G02*
X124225001Y-39300000I0J-100000D01*
G01*
G37*
%TD.AperFunction*%
%TD*%
%TO.P,C6,2*%
%TO.N,GND*%
%TA.AperFunction,SMDPad,CuDef*%
G36*
G01*
X138525000Y-28012500D02*
X139475000Y-28012500D01*
G75*
G02*
X139725000Y-28262500I0J-250000D01*
G01*
X139725000Y-28937500D01*
G75*
G02*
X139475000Y-29187500I-250000J0D01*
G01*
X138525000Y-29187500D01*
G75*
G02*
X138275000Y-28937500I0J250000D01*
G01*
X138275000Y-28262500D01*
G75*
G02*
X138525000Y-28012500I250000J0D01*
G01*
G37*
%TD.AperFunction*%
%TO.P,C6,1*%
%TO.N,/+3.3*%
%TA.AperFunction,SMDPad,CuDef*%
G36*
G01*
X138525000Y-25937500D02*
X139475000Y-25937500D01*
G75*
G02*
X139725000Y-26187500I0J-250000D01*
G01*
X139725000Y-26862500D01*
G75*
G02*
X139475000Y-27112500I-250000J0D01*
G01*
X138525000Y-27112500D01*
G75*
G02*
X138275000Y-26862500I0J250000D01*
G01*
X138275000Y-26187500D01*
G75*
G02*
X138525000Y-25937500I250000J0D01*
G01*
G37*
%TD.AperFunction*%
%TD*%
%TO.P,C5,2*%
%TO.N,GND*%
%TA.AperFunction,SMDPad,CuDef*%
G36*
G01*
X148750000Y-37850000D02*
X148750000Y-37350000D01*
G75*
G02*
X148975000Y-37125000I225000J0D01*
G01*
X149425000Y-37125000D01*
G75*
G02*
X149650000Y-37350000I0J-225000D01*
G01*
X149650000Y-37850000D01*
G75*
G02*
X149425000Y-38075000I-225000J0D01*
G01*
X148975000Y-38075000D01*
G75*
G02*
X148750000Y-37850000I0J225000D01*
G01*
G37*
%TD.AperFunction*%
%TO.P,C5,1*%
%TO.N,/+5v*%
%TA.AperFunction,SMDPad,CuDef*%
G36*
G01*
X147200000Y-37850000D02*
X147200000Y-37350000D01*
G75*
G02*
X147425000Y-37125000I225000J0D01*
G01*
X147875000Y-37125000D01*
G75*
G02*
X148100000Y-37350000I0J-225000D01*
G01*
X148100000Y-37850000D01*
G75*
G02*
X147875000Y-38075000I-225000J0D01*
G01*
X147425000Y-38075000D01*
G75*
G02*
X147200000Y-37850000I0J225000D01*
G01*
G37*
%TD.AperFunction*%
%TD*%
%TO.P,C4,2*%
%TO.N,GND*%
%TA.AperFunction,SMDPad,CuDef*%
G36*
G01*
X140925000Y-28012500D02*
X141875000Y-28012500D01*
G75*
G02*
X142125000Y-28262500I0J-250000D01*
G01*
X142125000Y-28937500D01*
G75*
G02*
X141875000Y-29187500I-250000J0D01*
G01*
X140925000Y-29187500D01*
G75*
G02*
X140675000Y-28937500I0J250000D01*
G01*
X140675000Y-28262500D01*
G75*
G02*
X140925000Y-28012500I250000J0D01*
G01*
G37*
%TD.AperFunction*%
%TO.P,C4,1*%
%TO.N,/+3.3*%
%TA.AperFunction,SMDPad,CuDef*%
G36*
G01*
X140925000Y-25937500D02*
X141875000Y-25937500D01*
G75*
G02*
X142125000Y-26187500I0J-250000D01*
G01*
X142125000Y-26862500D01*
G75*
G02*
X141875000Y-27112500I-250000J0D01*
G01*
X140925000Y-27112500D01*
G75*
G02*
X140675000Y-26862500I0J250000D01*
G01*
X140675000Y-26187500D01*
G75*
G02*
X140925000Y-25937500I250000J0D01*
G01*
G37*
%TD.AperFunction*%
%TD*%
%TO.P,C3,2*%
%TO.N,GND*%
%TA.AperFunction,SMDPad,CuDef*%
G36*
G01*
X118625000Y-40550000D02*
X119575000Y-40550000D01*
G75*
G02*
X119825000Y-40800000I0J-250000D01*
G01*
X119825000Y-41475000D01*
G75*
G02*
X119575000Y-41725000I-250000J0D01*
G01*
X118625000Y-41725000D01*
G75*
G02*
X118375000Y-41475000I0J250000D01*
G01*
X118375000Y-40800000D01*
G75*
G02*
X118625000Y-40550000I250000J0D01*
G01*
G37*
%TD.AperFunction*%
%TO.P,C3,1*%
%TO.N,/NRST*%
%TA.AperFunction,SMDPad,CuDef*%
G36*
G01*
X118625000Y-38475000D02*
X119575000Y-38475000D01*
G75*
G02*
X119825000Y-38725000I0J-250000D01*
G01*
X119825000Y-39400000D01*
G75*
G02*
X119575000Y-39650000I-250000J0D01*
G01*
X118625000Y-39650000D01*
G75*
G02*
X118375000Y-39400000I0J250000D01*
G01*
X118375000Y-38725000D01*
G75*
G02*
X118625000Y-38475000I250000J0D01*
G01*
G37*
%TD.AperFunction*%
%TD*%
%TO.P,C2,2*%
%TO.N,GND*%
%TA.AperFunction,SMDPad,CuDef*%
G36*
G01*
X148700000Y-36175000D02*
X148700000Y-35225000D01*
G75*
G02*
X148950000Y-34975000I250000J0D01*
G01*
X149450000Y-34975000D01*
G75*
G02*
X149700000Y-35225000I0J-250000D01*
G01*
X149700000Y-36175000D01*
G75*
G02*
X149450000Y-36425000I-250000J0D01*
G01*
X148950000Y-36425000D01*
G75*
G02*
X148700000Y-36175000I0J250000D01*
G01*
G37*
%TD.AperFunction*%
%TO.P,C2,1*%
%TO.N,/+5v*%
%TA.AperFunction,SMDPad,CuDef*%
G36*
G01*
X146800000Y-36175000D02*
X146800000Y-35225000D01*
G75*
G02*
X147050000Y-34975000I250000J0D01*
G01*
X147550000Y-34975000D01*
G75*
G02*
X147800000Y-35225000I0J-250000D01*
G01*
X147800000Y-36175000D01*
G75*
G02*
X147550000Y-36425000I-250000J0D01*
G01*
X147050000Y-36425000D01*
G75*
G02*
X146800000Y-36175000I0J250000D01*
G01*
G37*
%TD.AperFunction*%
%TD*%
%TO.P,C1,2*%
%TO.N,GND*%
%TA.AperFunction,SMDPad,CuDef*%
G36*
G01*
X136125000Y-28200000D02*
X137075000Y-28200000D01*
G75*
G02*
X137325000Y-28450000I0J-250000D01*
G01*
X137325000Y-28950000D01*
G75*
G02*
X137075000Y-29200000I-250000J0D01*
G01*
X136125000Y-29200000D01*
G75*
G02*
X135875000Y-28950000I0J250000D01*
G01*
X135875000Y-28450000D01*
G75*
G02*
X136125000Y-28200000I250000J0D01*
G01*
G37*
%TD.AperFunction*%
%TO.P,C1,1*%
%TO.N,/+3.3*%
%TA.AperFunction,SMDPad,CuDef*%
G36*
G01*
X136125000Y-26300000D02*
X137075000Y-26300000D01*
G75*
G02*
X137325000Y-26550000I0J-250000D01*
G01*
X137325000Y-27050000D01*
G75*
G02*
X137075000Y-27300000I-250000J0D01*
G01*
X136125000Y-27300000D01*
G75*
G02*
X135875000Y-27050000I0J250000D01*
G01*
X135875000Y-26550000D01*
G75*
G02*
X136125000Y-26300000I250000J0D01*
G01*
G37*
%TD.AperFunction*%
%TD*%
%TO.P,BLUE1,2*%
%TO.N,GND*%
%TA.AperFunction,SMDPad,CuDef*%
G36*
G01*
X124550000Y-31856249D02*
X124550000Y-31343749D01*
G75*
G02*
X124768750Y-31124999I218750J0D01*
G01*
X125206250Y-31124999D01*
G75*
G02*
X125425000Y-31343749I0J-218750D01*
G01*
X125425000Y-31856249D01*
G75*
G02*
X125206250Y-32074999I-218750J0D01*
G01*
X124768750Y-32074999D01*
G75*
G02*
X124550000Y-31856249I0J218750D01*
G01*
G37*
%TD.AperFunction*%
%TO.P,BLUE1,1*%
%TO.N,Net-(BLUE1-Pad1)*%
%TA.AperFunction,SMDPad,CuDef*%
G36*
G01*
X122975000Y-31856249D02*
X122975000Y-31343749D01*
G75*
G02*
X123193750Y-31124999I218750J0D01*
G01*
X123631250Y-31124999D01*
G75*
G02*
X123850000Y-31343749I0J-218750D01*
G01*
X123850000Y-31856249D01*
G75*
G02*
X123631250Y-32074999I-218750J0D01*
G01*
X123193750Y-32074999D01*
G75*
G02*
X122975000Y-31856249I0J218750D01*
G01*
G37*
%TD.AperFunction*%
%TD*%
M02*
