%TF.GenerationSoftware,KiCad,Pcbnew,(5.1.10)-1*%
%TF.CreationDate,2022-04-14T15:55:02+08:00*%
%TF.ProjectId,lamp,6c616d70-2e6b-4696-9361-645f70636258,rev?*%
%TF.SameCoordinates,Original*%
%TF.FileFunction,Soldermask,Bot*%
%TF.FilePolarity,Negative*%
%FSLAX46Y46*%
G04 Gerber Fmt 4.6, Leading zero omitted, Abs format (unit mm)*
G04 Created by KiCad (PCBNEW (5.1.10)-1) date 2022-04-14 15:55:02*
%MOMM*%
%LPD*%
G01*
G04 APERTURE LIST*
%ADD10O,1.600000X1.600000*%
%ADD11R,1.600000X1.600000*%
%ADD12O,1.700000X1.700000*%
%ADD13R,1.700000X1.700000*%
%ADD14O,3.960000X1.980000*%
%ADD15R,3.960000X1.980000*%
%ADD16O,1.980000X3.960000*%
%ADD17R,1.980000X3.960000*%
%ADD18R,3.500000X3.500000*%
%ADD19C,1.500000*%
%ADD20C,1.600000*%
G04 APERTURE END LIST*
D10*
%TO.C,SW1*%
X121700000Y-56900000D03*
D11*
X121700000Y-64520000D03*
%TD*%
D10*
%TO.C,J17*%
X142700001Y-64420000D03*
D11*
X142700001Y-56800000D03*
%TD*%
D10*
%TO.C,J16*%
X137500000Y-64420000D03*
D11*
X137500000Y-56800000D03*
%TD*%
D10*
%TO.C,J15*%
X132200000Y-64420000D03*
D11*
X132200000Y-56800000D03*
%TD*%
D12*
%TO.C,J14*%
X116240000Y-21200000D03*
X118780000Y-21200000D03*
X121320000Y-21200000D03*
X123860000Y-21200000D03*
X126400000Y-21200000D03*
D13*
X128940000Y-21200000D03*
%TD*%
D12*
%TO.C,J13*%
X140820000Y-21200000D03*
X138280000Y-21200000D03*
X135740000Y-21200000D03*
D13*
X133200000Y-21200000D03*
%TD*%
D14*
%TO.C,J12*%
X166200000Y-15200000D03*
D15*
X166200000Y-10200000D03*
%TD*%
D14*
%TO.C,J11*%
X166200000Y-26499999D03*
D15*
X166200000Y-21499999D03*
%TD*%
D14*
%TO.C,J10*%
X166200000Y-37799999D03*
D15*
X166200000Y-32799999D03*
%TD*%
D14*
%TO.C,J9*%
X166200000Y-44900000D03*
D15*
X166200000Y-49900000D03*
%TD*%
D16*
%TO.C,J8*%
X160600000Y-60300000D03*
D17*
X165600000Y-60300000D03*
%TD*%
D16*
%TO.C,J7*%
X149200000Y-60300000D03*
D17*
X154200000Y-60300000D03*
%TD*%
D12*
%TO.C,J6*%
X113340000Y-36460000D03*
X113340000Y-39000000D03*
X110800000Y-36460000D03*
D13*
X110800000Y-39000000D03*
%TD*%
%TO.C,J5*%
G36*
G01*
X103150000Y-43125000D02*
X103150000Y-44875000D01*
G75*
G02*
X102275000Y-45750000I-875000J0D01*
G01*
X100525000Y-45750000D01*
G75*
G02*
X99650000Y-44875000I0J875000D01*
G01*
X99650000Y-43125000D01*
G75*
G02*
X100525000Y-42250000I875000J0D01*
G01*
X102275000Y-42250000D01*
G75*
G02*
X103150000Y-43125000I0J-875000D01*
G01*
G37*
G36*
G01*
X105900000Y-47700000D02*
X105900000Y-49700000D01*
G75*
G02*
X105150000Y-50450000I-750000J0D01*
G01*
X103650000Y-50450000D01*
G75*
G02*
X102900000Y-49700000I0J750000D01*
G01*
X102900000Y-47700000D01*
G75*
G02*
X103650000Y-46950000I750000J0D01*
G01*
X105150000Y-46950000D01*
G75*
G02*
X105900000Y-47700000I0J-750000D01*
G01*
G37*
D18*
X98400000Y-48700000D03*
%TD*%
D14*
%TO.C,J3*%
X102400000Y-58100000D03*
D15*
X102400000Y-63100000D03*
%TD*%
D10*
%TO.C,J2*%
X126900000Y-56800000D03*
D11*
X126900000Y-64420000D03*
%TD*%
D12*
%TO.C,J1*%
X106820000Y-36560000D03*
X106820000Y-39100000D03*
X104280000Y-36560000D03*
X104280000Y-39100000D03*
X101740000Y-36560000D03*
X101740000Y-39100000D03*
X99200000Y-36560000D03*
D13*
X99200000Y-39100000D03*
%TD*%
D19*
%TO.C,F1*%
X111600000Y-58800000D03*
D20*
X111600000Y-63880000D03*
%TD*%
M02*
