%TF.GenerationSoftware,KiCad,Pcbnew,(5.1.10)-1*%
%TF.CreationDate,2022-04-27T18:27:10+08:00*%
%TF.ProjectId,lamp,6c616d70-2e6b-4696-9361-645f70636258,rev?*%
%TF.SameCoordinates,Original*%
%TF.FileFunction,Copper,L2,Bot*%
%TF.FilePolarity,Positive*%
%FSLAX46Y46*%
G04 Gerber Fmt 4.6, Leading zero omitted, Abs format (unit mm)*
G04 Created by KiCad (PCBNEW (5.1.10)-1) date 2022-04-27 18:27:10*
%MOMM*%
%LPD*%
G01*
G04 APERTURE LIST*
%TA.AperFunction,ComponentPad*%
%ADD10O,1.700000X1.700000*%
%TD*%
%TA.AperFunction,ComponentPad*%
%ADD11R,1.700000X1.700000*%
%TD*%
%TA.AperFunction,ComponentPad*%
%ADD12O,1.600000X1.600000*%
%TD*%
%TA.AperFunction,ComponentPad*%
%ADD13R,1.600000X1.600000*%
%TD*%
%TA.AperFunction,ComponentPad*%
%ADD14C,1.600000*%
%TD*%
%TA.AperFunction,ComponentPad*%
%ADD15O,4.000000X2.000000*%
%TD*%
%TA.AperFunction,ComponentPad*%
%ADD16O,3.960000X1.980000*%
%TD*%
%TA.AperFunction,ComponentPad*%
%ADD17R,3.960000X1.980000*%
%TD*%
%TA.AperFunction,ComponentPad*%
%ADD18O,1.980000X3.960000*%
%TD*%
%TA.AperFunction,ComponentPad*%
%ADD19R,1.980000X3.960000*%
%TD*%
%TA.AperFunction,ComponentPad*%
%ADD20R,3.500000X3.500000*%
%TD*%
%TA.AperFunction,ViaPad*%
%ADD21C,0.400000*%
%TD*%
%TA.AperFunction,Conductor*%
%ADD22C,0.250000*%
%TD*%
G04 APERTURE END LIST*
D10*
%TO.P,J1,8*%
%TO.N,/+3.3*%
X100810000Y-11255000D03*
%TO.P,J1,7*%
X103350000Y-11255000D03*
%TO.P,J1,6*%
%TO.N,GND*%
X100810000Y-13795000D03*
%TO.P,J1,5*%
X103350000Y-13795000D03*
%TO.P,J1,4*%
X100810000Y-16335000D03*
%TO.P,J1,3*%
X103350000Y-16335000D03*
%TO.P,J1,2*%
%TO.N,/+5v*%
X100810000Y-18875000D03*
D11*
%TO.P,J1,1*%
X103350000Y-18875000D03*
%TD*%
D12*
%TO.P,U2,8*%
%TO.N,/+3.3*%
X150390000Y-18710000D03*
%TO.P,U2,4*%
%TO.N,GND*%
X158010000Y-11090000D03*
%TO.P,U2,7*%
X150390000Y-16170000D03*
%TO.P,U2,3*%
X158010000Y-13630000D03*
%TO.P,U2,6*%
%TO.N,/IIC_SCL*%
X150390000Y-13630000D03*
%TO.P,U2,2*%
%TO.N,GND*%
X158010000Y-16170000D03*
%TO.P,U2,5*%
%TO.N,/IIC_SDA*%
X150390000Y-11090000D03*
D13*
%TO.P,U2,1*%
%TO.N,GND*%
X158010000Y-18710000D03*
%TD*%
D14*
%TO.P,C15,2*%
%TO.N,GND*%
X118140000Y-51000000D03*
D13*
%TO.P,C15,1*%
%TO.N,/+5v*%
X121940000Y-51000000D03*
%TD*%
D15*
%TO.P,SW1,2*%
%TO.N,Net-(F1-Pad2)*%
X105650000Y-53700000D03*
%TO.P,SW1,1*%
%TO.N,Net-(J3-Pad2)*%
X105650000Y-34200000D03*
%TD*%
D12*
%TO.P,J17,2*%
%TO.N,GND*%
X147850000Y-65980000D03*
D13*
%TO.P,J17,1*%
%TO.N,/SW_3*%
X147850000Y-58360000D03*
%TD*%
D12*
%TO.P,J16,2*%
%TO.N,GND*%
X141190000Y-66030000D03*
D13*
%TO.P,J16,1*%
%TO.N,/SW_2*%
X141190000Y-58410000D03*
%TD*%
D12*
%TO.P,J15,2*%
%TO.N,GND*%
X134640000Y-66000000D03*
D13*
%TO.P,J15,1*%
%TO.N,/SW_1*%
X134640000Y-58380000D03*
%TD*%
D10*
%TO.P,J14,6*%
%TO.N,/BT_EN*%
X116260000Y-11210000D03*
%TO.P,J14,5*%
%TO.N,/+5v*%
X118800000Y-11210000D03*
%TO.P,J14,4*%
%TO.N,GND*%
X121340000Y-11210000D03*
%TO.P,J14,3*%
%TO.N,/BT_TXD*%
X123880000Y-11210000D03*
%TO.P,J14,2*%
%TO.N,/BT_RXD*%
X126420000Y-11210000D03*
D11*
%TO.P,J14,1*%
%TO.N,/BT_STATE*%
X128960000Y-11210000D03*
%TD*%
D10*
%TO.P,J13,4*%
%TO.N,/+3.3*%
X141780000Y-11280000D03*
%TO.P,J13,3*%
%TO.N,GND*%
X139240000Y-11280000D03*
%TO.P,J13,2*%
%TO.N,/SCL_OLED*%
X136700000Y-11280000D03*
D11*
%TO.P,J13,1*%
%TO.N,/SDA_OLED*%
X134160000Y-11280000D03*
%TD*%
D16*
%TO.P,J12,2*%
%TO.N,/LED2_W*%
X166200000Y-15200000D03*
D17*
%TO.P,J12,1*%
%TO.N,/+5v*%
X166200000Y-10200000D03*
%TD*%
D16*
%TO.P,J11,2*%
%TO.N,/LED2_G*%
X166200000Y-26499999D03*
D17*
%TO.P,J11,1*%
%TO.N,/LED2_B*%
X166200000Y-21499999D03*
%TD*%
D16*
%TO.P,J10,2*%
%TO.N,/+5v*%
X166200000Y-37799999D03*
D17*
%TO.P,J10,1*%
%TO.N,/LED2_R*%
X166200000Y-32799999D03*
%TD*%
D16*
%TO.P,J9,2*%
%TO.N,/LED1_W*%
X166200000Y-49200000D03*
D17*
%TO.P,J9,1*%
%TO.N,/+5v*%
X166200000Y-44200000D03*
%TD*%
D18*
%TO.P,J8,2*%
%TO.N,/LED1_G*%
X166540000Y-60700000D03*
D19*
%TO.P,J8,1*%
%TO.N,/LED1_B*%
X171540000Y-60700000D03*
%TD*%
D18*
%TO.P,J7,2*%
%TO.N,/+5v*%
X155170000Y-60700000D03*
D19*
%TO.P,J7,1*%
%TO.N,/LED1_R*%
X160170000Y-60700000D03*
%TD*%
D10*
%TO.P,J6,4*%
%TO.N,GND*%
X109035000Y-13765000D03*
%TO.P,J6,3*%
%TO.N,/SWCLK*%
X109035000Y-11225000D03*
%TO.P,J6,2*%
%TO.N,/SWDIO*%
X111575000Y-13765000D03*
D11*
%TO.P,J6,1*%
%TO.N,/+3.3*%
X111575000Y-11225000D03*
%TD*%
%TO.P,J5,3*%
%TO.N,GND*%
%TA.AperFunction,ComponentPad*%
G36*
G01*
X108250000Y-31400000D02*
X108250000Y-29650000D01*
G75*
G02*
X109125000Y-28775000I875000J0D01*
G01*
X110875000Y-28775000D01*
G75*
G02*
X111750000Y-29650000I0J-875000D01*
G01*
X111750000Y-31400000D01*
G75*
G02*
X110875000Y-32275000I-875000J0D01*
G01*
X109125000Y-32275000D01*
G75*
G02*
X108250000Y-31400000I0J875000D01*
G01*
G37*
%TD.AperFunction*%
%TO.P,J5,2*%
%TA.AperFunction,ComponentPad*%
G36*
G01*
X105500000Y-26825000D02*
X105500000Y-24825000D01*
G75*
G02*
X106250000Y-24075000I750000J0D01*
G01*
X107750000Y-24075000D01*
G75*
G02*
X108500000Y-24825000I0J-750000D01*
G01*
X108500000Y-26825000D01*
G75*
G02*
X107750000Y-27575000I-750000J0D01*
G01*
X106250000Y-27575000D01*
G75*
G02*
X105500000Y-26825000I0J750000D01*
G01*
G37*
%TD.AperFunction*%
D20*
%TO.P,J5,1*%
%TO.N,Net-(J3-Pad2)*%
X113000000Y-25825000D03*
%TD*%
D16*
%TO.P,J3,2*%
%TO.N,Net-(J3-Pad2)*%
X105625000Y-59325000D03*
D17*
%TO.P,J3,1*%
%TO.N,GND*%
X105625000Y-64325000D03*
%TD*%
D12*
%TO.P,J2,2*%
%TO.N,Net-(J2-Pad2)*%
X127010000Y-66150000D03*
D13*
%TO.P,J2,1*%
%TO.N,/NRST*%
X127010000Y-58530000D03*
%TD*%
D21*
%TO.N,GND*%
X140208000Y-27940000D03*
X146812000Y-32512000D03*
X119825000Y-29050000D03*
X118675000Y-31325000D03*
X117875000Y-36300000D03*
X132700000Y-50075000D03*
X132700000Y-52300000D03*
X119325000Y-15775000D03*
X147000000Y-9825000D03*
X138175000Y-14675000D03*
X119325000Y-23675000D03*
X118650000Y-33650000D03*
X148572990Y-30734000D03*
X140208000Y-23876000D03*
%TO.N,/+3.3*%
X151130000Y-49530000D03*
X150368000Y-23368000D03*
X142748000Y-28956000D03*
X142748000Y-34290000D03*
X141224000Y-40132000D03*
X130048000Y-51308000D03*
X125476000Y-42672000D03*
X144018000Y-25654000D03*
X141815728Y-32174272D03*
X126238000Y-40640000D03*
X138938000Y-25654000D03*
X138120000Y-19248000D03*
X148844000Y-54610000D03*
X135128000Y-35560000D03*
X134366000Y-36875010D03*
X151384000Y-48006000D03*
%TO.N,/NRST*%
X131266476Y-36641422D03*
%TO.N,Net-(C7-Pad1)*%
X127200000Y-38475000D03*
X123952000Y-35306000D03*
%TO.N,Net-(C8-Pad1)*%
X126746000Y-29718000D03*
X127507994Y-32004000D03*
X130692761Y-33391239D03*
X131541928Y-36108374D03*
%TO.N,Net-(C9-Pad1)*%
X125984000Y-30480000D03*
X125984000Y-29227010D03*
X128323526Y-35440011D03*
%TO.N,Net-(C10-Pad1)*%
X134620000Y-34798000D03*
X128269994Y-30480000D03*
%TO.N,/LIGHT*%
X122850000Y-41550000D03*
X122850000Y-47900000D03*
%TO.N,Net-(F1-Pad2)*%
X112000000Y-64550000D03*
%TO.N,/SWCLK*%
X135183739Y-14991261D03*
X140945910Y-31320910D03*
%TO.N,/SWDIO*%
X136225000Y-16825000D03*
X139720761Y-33529239D03*
%TO.N,/LED2_R*%
X159650000Y-47750000D03*
%TO.N,/LED2_G*%
X159100000Y-36075000D03*
%TO.N,/SCL_OLED*%
X142531000Y-37375000D03*
%TO.N,/SDA_OLED*%
X143008739Y-36841261D03*
%TO.N,/BT_EN*%
X116150000Y-16100000D03*
X119850000Y-17275000D03*
X138701010Y-36379052D03*
%TO.N,/BT_TXD*%
X123858739Y-17191261D03*
X138925000Y-34175000D03*
X129082520Y-18050002D03*
%TO.N,/BT_RXD*%
X138701010Y-35779039D03*
%TO.N,/BT_STATE*%
X139182788Y-34781980D03*
%TO.N,/SW_1*%
X138176000Y-38117010D03*
%TO.N,/SW_2*%
X138684000Y-41655988D03*
%TO.N,/SW_3*%
X139284013Y-41225035D03*
%TO.N,/LED0*%
X133858000Y-40894000D03*
X124968000Y-28702000D03*
%TO.N,/LED1*%
X139700000Y-34290000D03*
X132334000Y-42672000D03*
X129540000Y-42672000D03*
X124460000Y-32258000D03*
%TO.N,/T4_R*%
X146812000Y-41402000D03*
X149352000Y-41402000D03*
X143781001Y-41767473D03*
X137668000Y-37592000D03*
%TO.N,/T4_G*%
X135128000Y-22606000D03*
X141478000Y-22352000D03*
X141618985Y-30874999D03*
X137794990Y-29844990D03*
%TO.N,/T4_B*%
X138684000Y-30226000D03*
X136543960Y-30196141D03*
%TO.N,/T4_W*%
X135636000Y-21336000D03*
X135550005Y-30022013D03*
%TO.N,/IIC_SCL*%
X142166583Y-39872805D03*
%TO.N,/IIC_SDA*%
X142720000Y-14395000D03*
X144775000Y-10975000D03*
X142748000Y-39116008D03*
%TO.N,/+5v*%
X154575000Y-8275000D03*
X120750000Y-40775000D03*
X114300000Y-18875000D03*
X146452239Y-26502239D03*
X144306011Y-39574295D03*
%TD*%
D22*
%TO.N,GND*%
X100810000Y-13795000D02*
X100810000Y-16335000D01*
X147350000Y-13130000D02*
X150390000Y-16170000D01*
X147350000Y-10175000D02*
X147350000Y-13130000D01*
X147000000Y-9825000D02*
X147350000Y-10175000D01*
X158010000Y-11090000D02*
X158010000Y-13630000D01*
X158010000Y-16170000D02*
X158010000Y-13630000D01*
X158010000Y-18710000D02*
X158010000Y-16170000D01*
X121325000Y-11225000D02*
X121340000Y-11210000D01*
X121325000Y-13775000D02*
X121325000Y-11225000D01*
X119325000Y-15775000D02*
X121325000Y-13775000D01*
X139240000Y-13610000D02*
X138175000Y-14675000D01*
X139240000Y-11280000D02*
X139240000Y-13610000D01*
X119325000Y-15775000D02*
X119325000Y-23650000D01*
X107275000Y-30525000D02*
X110000000Y-30525000D01*
X107100000Y-30350000D02*
X107275000Y-30525000D01*
X107100000Y-25925000D02*
X107100000Y-30350000D01*
X107000000Y-25825000D02*
X107100000Y-25925000D01*
X132700000Y-52300000D02*
X132700000Y-50100000D01*
X117875000Y-36300000D02*
X117875000Y-34425000D01*
X117875000Y-34425000D02*
X118650000Y-33650000D01*
X118675000Y-31325000D02*
X118675000Y-30200000D01*
X118675000Y-30200000D02*
X119825000Y-29050000D01*
X146812000Y-32512000D02*
X148572990Y-30751010D01*
X148572990Y-30751010D02*
X148572990Y-30734000D01*
X140208000Y-27940000D02*
X140208000Y-27657158D01*
X140208000Y-27657158D02*
X140208000Y-23876000D01*
%TO.N,/+3.3*%
X125476000Y-42672000D02*
X125476000Y-46736000D01*
X125476000Y-46736000D02*
X130048000Y-51308000D01*
X141780000Y-18082000D02*
X144018000Y-20320000D01*
X144018000Y-20320000D02*
X144018000Y-25654000D01*
X141780000Y-11280000D02*
X141780000Y-18082000D01*
X141224000Y-40132000D02*
X141224000Y-36576000D01*
X141224000Y-36576000D02*
X141224000Y-35814000D01*
X141224000Y-35814000D02*
X142748000Y-34290000D01*
X125476000Y-42672000D02*
X125476000Y-41402000D01*
X125476000Y-41402000D02*
X126238000Y-40640000D01*
X138938000Y-20066000D02*
X138120000Y-19248000D01*
X138938000Y-25654000D02*
X138938000Y-20066000D01*
X142240000Y-31750000D02*
X141815728Y-32174272D01*
X142240000Y-29464000D02*
X142240000Y-31750000D01*
X142748000Y-28956000D02*
X142240000Y-29464000D01*
X151130000Y-49530000D02*
X151130000Y-52070000D01*
X151130000Y-52070000D02*
X151130000Y-52324000D01*
X151130000Y-52324000D02*
X148844000Y-54610000D01*
X135128000Y-35560000D02*
X135128000Y-36113010D01*
X135128000Y-36113010D02*
X134366000Y-36875010D01*
X150368000Y-23368000D02*
X150368000Y-46990000D01*
X150368000Y-46990000D02*
X151384000Y-48006000D01*
%TO.N,/NRST*%
X131499065Y-36874011D02*
X131266476Y-36641422D01*
X131499065Y-55090935D02*
X131499065Y-36874011D01*
X128060000Y-58530000D02*
X131499065Y-55090935D01*
X127010000Y-58530000D02*
X128060000Y-58530000D01*
%TO.N,Net-(C7-Pad1)*%
X127200000Y-38475000D02*
X123952000Y-35227000D01*
%TO.N,Net-(C8-Pad1)*%
X126746000Y-29718000D02*
X127507994Y-30479994D01*
X127507994Y-30479994D02*
X127507994Y-32004000D01*
X130692761Y-35259207D02*
X131541928Y-36108374D01*
X130692761Y-33391239D02*
X130692761Y-35259207D01*
%TO.N,Net-(C9-Pad1)*%
X125984000Y-30480000D02*
X125984000Y-32766000D01*
X125984000Y-32766000D02*
X128016000Y-34798000D01*
X128016000Y-34798000D02*
X128133239Y-34915239D01*
X125984000Y-30480000D02*
X125984000Y-29227010D01*
X128323526Y-35105526D02*
X128323526Y-35440011D01*
X128016000Y-34798000D02*
X128323526Y-35105526D01*
%TO.N,Net-(C10-Pad1)*%
X134620000Y-34798000D02*
X130302000Y-30480000D01*
X130302000Y-30480000D02*
X128269994Y-30480000D01*
%TO.N,/LIGHT*%
X122850000Y-47900000D02*
X122850000Y-41575000D01*
%TO.N,Net-(F1-Pad2)*%
X105650000Y-55350000D02*
X105650000Y-53700000D01*
X108825000Y-58525000D02*
X105650000Y-55350000D01*
X108825000Y-64375000D02*
X108825000Y-58525000D01*
X109000000Y-64550000D02*
X108825000Y-64375000D01*
X112000000Y-64550000D02*
X109000000Y-64550000D01*
%TO.N,Net-(J3-Pad2)*%
X102975000Y-59325000D02*
X105625000Y-59325000D01*
X101350000Y-57700000D02*
X102975000Y-59325000D01*
X101350000Y-36075000D02*
X101350000Y-57700000D01*
X103225000Y-34200000D02*
X101350000Y-36075000D01*
X105650000Y-34200000D02*
X103225000Y-34200000D01*
X105650000Y-34200000D02*
X111400000Y-34200000D01*
X113000000Y-32600000D02*
X113000000Y-25825000D01*
X111400000Y-34200000D02*
X113000000Y-32600000D01*
%TO.N,/SWCLK*%
X135183739Y-14991261D02*
X140945910Y-20753432D01*
X140945910Y-20753432D02*
X140945910Y-31320910D01*
%TO.N,/SWDIO*%
X139446000Y-33271000D02*
X139725000Y-33550000D01*
X139446000Y-28702000D02*
X139446000Y-33271000D01*
X136225000Y-25481000D02*
X139446000Y-28702000D01*
X136225000Y-16825000D02*
X136225000Y-25481000D01*
%TO.N,/LED2_R*%
X159650000Y-39349999D02*
X166200000Y-32799999D01*
X159650000Y-47750000D02*
X159650000Y-39349999D01*
%TO.N,/LED2_G*%
X165950000Y-26749999D02*
X166200000Y-26499999D01*
X165950000Y-27875000D02*
X165950000Y-26749999D01*
X159100000Y-34725000D02*
X165950000Y-27875000D01*
X159100000Y-36075000D02*
X159100000Y-34725000D01*
%TO.N,/SCL_OLED*%
X144214011Y-36412991D02*
X143252002Y-37375000D01*
X144214011Y-28769600D02*
X144214011Y-36412991D01*
X143256000Y-20839590D02*
X143256000Y-27811589D01*
X136700000Y-14283590D02*
X143256000Y-20839590D01*
X143256000Y-27811589D02*
X144214011Y-28769600D01*
X136700000Y-11280000D02*
X136700000Y-14283590D01*
X143252002Y-37375000D02*
X142531000Y-37375000D01*
%TO.N,/SDA_OLED*%
X143764000Y-36061000D02*
X143000000Y-36825000D01*
X143764000Y-28956000D02*
X143764000Y-36061000D01*
X142788715Y-27980591D02*
X142788715Y-27980715D01*
X142450001Y-20670001D02*
X142450001Y-27641877D01*
X142788715Y-27980715D02*
X143764000Y-28956000D01*
X134160000Y-11280000D02*
X134160000Y-12380000D01*
X134160000Y-12380000D02*
X142450001Y-20670001D01*
X142450001Y-27641877D02*
X142788715Y-27980591D01*
%TO.N,/BT_EN*%
X116150000Y-11320000D02*
X116260000Y-11210000D01*
X116150000Y-16100000D02*
X116150000Y-11320000D01*
X119850000Y-17275000D02*
X119850000Y-17993178D01*
X119850000Y-17993178D02*
X138235874Y-36379052D01*
X138235874Y-36379052D02*
X138701010Y-36379052D01*
%TO.N,/BT_TXD*%
X123880000Y-11210000D02*
X123880000Y-17145000D01*
X138925000Y-34175000D02*
X129082520Y-24332520D01*
X129082520Y-24332520D02*
X129082520Y-18050002D01*
%TO.N,/BT_RXD*%
X126420000Y-11210000D02*
X126420000Y-23545480D01*
X138692309Y-35787740D02*
X138701010Y-35779039D01*
X138662260Y-35787740D02*
X138692309Y-35787740D01*
X126420000Y-23545480D02*
X138662260Y-35787740D01*
%TO.N,/BT_STATE*%
X128960000Y-11210000D02*
X128960000Y-12790000D01*
X128200000Y-13550000D02*
X128200000Y-24288592D01*
X128960000Y-12790000D02*
X128200000Y-13550000D01*
X138693388Y-34781980D02*
X139182788Y-34781980D01*
X128200000Y-24288592D02*
X138693388Y-34781980D01*
%TO.N,/SW_1*%
X134640000Y-58380000D02*
X134640000Y-41653010D01*
X134640000Y-41653010D02*
X138176000Y-38117010D01*
%TO.N,/SW_2*%
X141190000Y-44161988D02*
X138684000Y-41655988D01*
X141190000Y-58410000D02*
X141190000Y-44161988D01*
%TO.N,/SW_3*%
X147850000Y-58360000D02*
X147850000Y-49791022D01*
X147850000Y-49791022D02*
X139284013Y-41225035D01*
%TO.N,/LED0*%
X125250842Y-28702000D02*
X124968000Y-28702000D01*
X133858000Y-40894000D02*
X135653002Y-39098998D01*
X135653002Y-39098998D02*
X135653002Y-34432591D01*
X129922411Y-28702000D02*
X125250842Y-28702000D01*
X135653002Y-34432591D02*
X129922411Y-28702000D01*
%TO.N,/LED1*%
X129540000Y-39878000D02*
X129540000Y-42672000D01*
X124460000Y-34798000D02*
X129540000Y-39878000D01*
X124460000Y-32258000D02*
X124460000Y-34798000D01*
X132334000Y-42672000D02*
X132857002Y-42672000D01*
X139899999Y-36376001D02*
X139899999Y-34489999D01*
X136144000Y-39385002D02*
X136144000Y-37576998D01*
X132857002Y-42672000D02*
X136144000Y-39385002D01*
X136907999Y-36812999D02*
X137920001Y-36812999D01*
X138011055Y-36904053D02*
X139371947Y-36904053D01*
X139899999Y-34489999D02*
X139700000Y-34290000D01*
X137920001Y-36812999D02*
X138011055Y-36904053D01*
X139371947Y-36904053D02*
X139899999Y-36376001D01*
X136144000Y-37576998D02*
X136907999Y-36812999D01*
%TO.N,/T4_R*%
X149352000Y-41402000D02*
X146812000Y-41402000D01*
X142082471Y-41767473D02*
X143781001Y-41767473D01*
X138938000Y-37592000D02*
X138938000Y-38623002D01*
X138938000Y-38623002D02*
X142082471Y-41767473D01*
X138938000Y-37592000D02*
X137668000Y-37592000D01*
%TO.N,/T4_G*%
X141618985Y-30874999D02*
X141478000Y-30734014D01*
X137794990Y-29844990D02*
X134874000Y-26924000D01*
X134874000Y-26924000D02*
X134874000Y-22860000D01*
X134874000Y-22860000D02*
X135128000Y-22606000D01*
X141478000Y-22352000D02*
X141478000Y-22777920D01*
X141478000Y-22777920D02*
X141478000Y-23114000D01*
X141478000Y-23114000D02*
X141478000Y-22606000D01*
X141478000Y-30734014D02*
X141478000Y-23114000D01*
%TO.N,/T4_B*%
X136773818Y-30425999D02*
X136543960Y-30196141D01*
X138684000Y-30226000D02*
X138484001Y-30425999D01*
X138484001Y-30425999D02*
X136773818Y-30425999D01*
%TO.N,/T4_W*%
X135382000Y-21590000D02*
X135550005Y-21421995D01*
X135636000Y-21336000D02*
X135382000Y-21590000D01*
X133604000Y-23368000D02*
X135382000Y-21590000D01*
X133604000Y-28076008D02*
X133604000Y-23368000D01*
X135550005Y-30022013D02*
X133604000Y-28076008D01*
%TO.N,/IIC_SCL*%
X153924000Y-17164000D02*
X153924000Y-17526000D01*
X153924000Y-13970000D02*
X153924000Y-17526000D01*
X153584000Y-13630000D02*
X153924000Y-13970000D01*
X150390000Y-13630000D02*
X153584000Y-13630000D01*
X153924000Y-18288000D02*
X145558999Y-26653001D01*
X142822198Y-40072804D02*
X142366582Y-40072804D01*
X142366582Y-40072804D02*
X142166583Y-39872805D01*
X153924000Y-17526000D02*
X153924000Y-18288000D01*
X145558999Y-26653001D02*
X145558999Y-37336003D01*
X145558999Y-37336003D02*
X142822198Y-40072804D01*
%TO.N,/IIC_SDA*%
X142720000Y-14395000D02*
X142720000Y-13080000D01*
X142720000Y-13080000D02*
X142720000Y-13055000D01*
X142720000Y-13080000D02*
X142720000Y-13030000D01*
X142720000Y-13030000D02*
X144775000Y-10975000D01*
X144775000Y-10975000D02*
X144775000Y-10975000D01*
X144780000Y-16455000D02*
X144780000Y-37084008D01*
X142720000Y-14395000D02*
X144780000Y-16455000D01*
X144780000Y-37084008D02*
X142748000Y-39116008D01*
%TO.N,/+5v*%
X121940000Y-51000000D02*
X121940000Y-41965000D01*
X121940000Y-41965000D02*
X120750000Y-40775000D01*
X116000000Y-20575000D02*
X114300000Y-18875000D01*
X116000000Y-36025000D02*
X116000000Y-20575000D01*
X120750000Y-40775000D02*
X116000000Y-36025000D01*
X118825000Y-14375000D02*
X118825000Y-11235000D01*
X118825000Y-11235000D02*
X118800000Y-11210000D01*
X114325000Y-18875000D02*
X118825000Y-14375000D01*
X114300000Y-18875000D02*
X114325000Y-18875000D01*
X166200000Y-37799999D02*
X166200000Y-44200000D01*
X155170000Y-55230000D02*
X155170000Y-60700000D01*
X166200000Y-44200000D02*
X155170000Y-55230000D01*
X154575000Y-18379478D02*
X146452239Y-26502239D01*
X154575000Y-8275000D02*
X154575000Y-18379478D01*
X149098000Y-34782306D02*
X144306011Y-39574295D01*
X146452239Y-26502239D02*
X149098000Y-29148000D01*
X149098000Y-29148000D02*
X149098000Y-34782306D01*
X144306011Y-43976011D02*
X144306011Y-39574295D01*
X149098000Y-48768000D02*
X144306011Y-43976011D01*
X161632000Y-48768000D02*
X149098000Y-48768000D01*
X166200000Y-44200000D02*
X161632000Y-48768000D01*
%TD*%
M02*
