%TF.GenerationSoftware,KiCad,Pcbnew,(5.1.10)-1*%
%TF.CreationDate,2022-04-27T18:27:10+08:00*%
%TF.ProjectId,lamp,6c616d70-2e6b-4696-9361-645f70636258,rev?*%
%TF.SameCoordinates,Original*%
%TF.FileFunction,Legend,Top*%
%TF.FilePolarity,Positive*%
%FSLAX46Y46*%
G04 Gerber Fmt 4.6, Leading zero omitted, Abs format (unit mm)*
G04 Created by KiCad (PCBNEW (5.1.10)-1) date 2022-04-27 18:27:10*
%MOMM*%
%LPD*%
G01*
G04 APERTURE LIST*
%ADD10C,0.150000*%
%ADD11C,0.300000*%
%ADD12C,0.750000*%
%ADD13C,0.120000*%
%ADD14C,0.152400*%
%ADD15C,0.100000*%
G04 APERTURE END LIST*
D10*
X145946666Y-68208571D02*
X146089523Y-68256190D01*
X146137142Y-68303809D01*
X146184761Y-68399047D01*
X146184761Y-68541904D01*
X146137142Y-68637142D01*
X146089523Y-68684761D01*
X145994285Y-68732380D01*
X145613333Y-68732380D01*
X145613333Y-67732380D01*
X145946666Y-67732380D01*
X146041904Y-67780000D01*
X146089523Y-67827619D01*
X146137142Y-67922857D01*
X146137142Y-68018095D01*
X146089523Y-68113333D01*
X146041904Y-68160952D01*
X145946666Y-68208571D01*
X145613333Y-68208571D01*
X147041904Y-68065714D02*
X147041904Y-68732380D01*
X146613333Y-68065714D02*
X146613333Y-68589523D01*
X146660952Y-68684761D01*
X146756190Y-68732380D01*
X146899047Y-68732380D01*
X146994285Y-68684761D01*
X147041904Y-68637142D01*
X147375238Y-68065714D02*
X147756190Y-68065714D01*
X147518095Y-67732380D02*
X147518095Y-68589523D01*
X147565714Y-68684761D01*
X147660952Y-68732380D01*
X147756190Y-68732380D01*
X147946666Y-68065714D02*
X148327619Y-68065714D01*
X148089523Y-67732380D02*
X148089523Y-68589523D01*
X148137142Y-68684761D01*
X148232380Y-68732380D01*
X148327619Y-68732380D01*
X148803809Y-68732380D02*
X148708571Y-68684761D01*
X148660952Y-68637142D01*
X148613333Y-68541904D01*
X148613333Y-68256190D01*
X148660952Y-68160952D01*
X148708571Y-68113333D01*
X148803809Y-68065714D01*
X148946666Y-68065714D01*
X149041904Y-68113333D01*
X149089523Y-68160952D01*
X149137142Y-68256190D01*
X149137142Y-68541904D01*
X149089523Y-68637142D01*
X149041904Y-68684761D01*
X148946666Y-68732380D01*
X148803809Y-68732380D01*
X149565714Y-68065714D02*
X149565714Y-68732380D01*
X149565714Y-68160952D02*
X149613333Y-68113333D01*
X149708571Y-68065714D01*
X149851428Y-68065714D01*
X149946666Y-68113333D01*
X149994285Y-68208571D01*
X149994285Y-68732380D01*
X150375238Y-67732380D02*
X150994285Y-67732380D01*
X150660952Y-68113333D01*
X150803809Y-68113333D01*
X150899047Y-68160952D01*
X150946666Y-68208571D01*
X150994285Y-68303809D01*
X150994285Y-68541904D01*
X150946666Y-68637142D01*
X150899047Y-68684761D01*
X150803809Y-68732380D01*
X150518095Y-68732380D01*
X150422857Y-68684761D01*
X150375238Y-68637142D01*
X139366666Y-68208571D02*
X139509523Y-68256190D01*
X139557142Y-68303809D01*
X139604761Y-68399047D01*
X139604761Y-68541904D01*
X139557142Y-68637142D01*
X139509523Y-68684761D01*
X139414285Y-68732380D01*
X139033333Y-68732380D01*
X139033333Y-67732380D01*
X139366666Y-67732380D01*
X139461904Y-67780000D01*
X139509523Y-67827619D01*
X139557142Y-67922857D01*
X139557142Y-68018095D01*
X139509523Y-68113333D01*
X139461904Y-68160952D01*
X139366666Y-68208571D01*
X139033333Y-68208571D01*
X140461904Y-68065714D02*
X140461904Y-68732380D01*
X140033333Y-68065714D02*
X140033333Y-68589523D01*
X140080952Y-68684761D01*
X140176190Y-68732380D01*
X140319047Y-68732380D01*
X140414285Y-68684761D01*
X140461904Y-68637142D01*
X140795238Y-68065714D02*
X141176190Y-68065714D01*
X140938095Y-67732380D02*
X140938095Y-68589523D01*
X140985714Y-68684761D01*
X141080952Y-68732380D01*
X141176190Y-68732380D01*
X141366666Y-68065714D02*
X141747619Y-68065714D01*
X141509523Y-67732380D02*
X141509523Y-68589523D01*
X141557142Y-68684761D01*
X141652380Y-68732380D01*
X141747619Y-68732380D01*
X142223809Y-68732380D02*
X142128571Y-68684761D01*
X142080952Y-68637142D01*
X142033333Y-68541904D01*
X142033333Y-68256190D01*
X142080952Y-68160952D01*
X142128571Y-68113333D01*
X142223809Y-68065714D01*
X142366666Y-68065714D01*
X142461904Y-68113333D01*
X142509523Y-68160952D01*
X142557142Y-68256190D01*
X142557142Y-68541904D01*
X142509523Y-68637142D01*
X142461904Y-68684761D01*
X142366666Y-68732380D01*
X142223809Y-68732380D01*
X142985714Y-68065714D02*
X142985714Y-68732380D01*
X142985714Y-68160952D02*
X143033333Y-68113333D01*
X143128571Y-68065714D01*
X143271428Y-68065714D01*
X143366666Y-68113333D01*
X143414285Y-68208571D01*
X143414285Y-68732380D01*
X143842857Y-67827619D02*
X143890476Y-67780000D01*
X143985714Y-67732380D01*
X144223809Y-67732380D01*
X144319047Y-67780000D01*
X144366666Y-67827619D01*
X144414285Y-67922857D01*
X144414285Y-68018095D01*
X144366666Y-68160952D01*
X143795238Y-68732380D01*
X144414285Y-68732380D01*
X132346666Y-68148571D02*
X132489523Y-68196190D01*
X132537142Y-68243809D01*
X132584761Y-68339047D01*
X132584761Y-68481904D01*
X132537142Y-68577142D01*
X132489523Y-68624761D01*
X132394285Y-68672380D01*
X132013333Y-68672380D01*
X132013333Y-67672380D01*
X132346666Y-67672380D01*
X132441904Y-67720000D01*
X132489523Y-67767619D01*
X132537142Y-67862857D01*
X132537142Y-67958095D01*
X132489523Y-68053333D01*
X132441904Y-68100952D01*
X132346666Y-68148571D01*
X132013333Y-68148571D01*
X133441904Y-68005714D02*
X133441904Y-68672380D01*
X133013333Y-68005714D02*
X133013333Y-68529523D01*
X133060952Y-68624761D01*
X133156190Y-68672380D01*
X133299047Y-68672380D01*
X133394285Y-68624761D01*
X133441904Y-68577142D01*
X133775238Y-68005714D02*
X134156190Y-68005714D01*
X133918095Y-67672380D02*
X133918095Y-68529523D01*
X133965714Y-68624761D01*
X134060952Y-68672380D01*
X134156190Y-68672380D01*
X134346666Y-68005714D02*
X134727619Y-68005714D01*
X134489523Y-67672380D02*
X134489523Y-68529523D01*
X134537142Y-68624761D01*
X134632380Y-68672380D01*
X134727619Y-68672380D01*
X135203809Y-68672380D02*
X135108571Y-68624761D01*
X135060952Y-68577142D01*
X135013333Y-68481904D01*
X135013333Y-68196190D01*
X135060952Y-68100952D01*
X135108571Y-68053333D01*
X135203809Y-68005714D01*
X135346666Y-68005714D01*
X135441904Y-68053333D01*
X135489523Y-68100952D01*
X135537142Y-68196190D01*
X135537142Y-68481904D01*
X135489523Y-68577142D01*
X135441904Y-68624761D01*
X135346666Y-68672380D01*
X135203809Y-68672380D01*
X135965714Y-68005714D02*
X135965714Y-68672380D01*
X135965714Y-68100952D02*
X136013333Y-68053333D01*
X136108571Y-68005714D01*
X136251428Y-68005714D01*
X136346666Y-68053333D01*
X136394285Y-68148571D01*
X136394285Y-68672380D01*
X137394285Y-68672380D02*
X136822857Y-68672380D01*
X137108571Y-68672380D02*
X137108571Y-67672380D01*
X137013333Y-67815238D01*
X136918095Y-67910476D01*
X136822857Y-67958095D01*
X125307142Y-68642380D02*
X125307142Y-67642380D01*
X125878571Y-68642380D01*
X125878571Y-67642380D01*
X126926190Y-68642380D02*
X126592857Y-68166190D01*
X126354761Y-68642380D02*
X126354761Y-67642380D01*
X126735714Y-67642380D01*
X126830952Y-67690000D01*
X126878571Y-67737619D01*
X126926190Y-67832857D01*
X126926190Y-67975714D01*
X126878571Y-68070952D01*
X126830952Y-68118571D01*
X126735714Y-68166190D01*
X126354761Y-68166190D01*
X127307142Y-68594761D02*
X127450000Y-68642380D01*
X127688095Y-68642380D01*
X127783333Y-68594761D01*
X127830952Y-68547142D01*
X127878571Y-68451904D01*
X127878571Y-68356666D01*
X127830952Y-68261428D01*
X127783333Y-68213809D01*
X127688095Y-68166190D01*
X127497619Y-68118571D01*
X127402380Y-68070952D01*
X127354761Y-68023333D01*
X127307142Y-67928095D01*
X127307142Y-67832857D01*
X127354761Y-67737619D01*
X127402380Y-67690000D01*
X127497619Y-67642380D01*
X127735714Y-67642380D01*
X127878571Y-67690000D01*
X128164285Y-67642380D02*
X128735714Y-67642380D01*
X128450000Y-68642380D02*
X128450000Y-67642380D01*
D11*
X115372857Y-20717142D02*
X115587142Y-20788571D01*
X115944285Y-20788571D01*
X116087142Y-20717142D01*
X116158571Y-20645714D01*
X116230000Y-20502857D01*
X116230000Y-20360000D01*
X116158571Y-20217142D01*
X116087142Y-20145714D01*
X115944285Y-20074285D01*
X115658571Y-20002857D01*
X115515714Y-19931428D01*
X115444285Y-19860000D01*
X115372857Y-19717142D01*
X115372857Y-19574285D01*
X115444285Y-19431428D01*
X115515714Y-19360000D01*
X115658571Y-19288571D01*
X116015714Y-19288571D01*
X116230000Y-19360000D01*
X116872857Y-20788571D02*
X116872857Y-19288571D01*
X117730000Y-20788571D01*
X117730000Y-19288571D01*
X118372857Y-19431428D02*
X118444285Y-19360000D01*
X118587142Y-19288571D01*
X118944285Y-19288571D01*
X119087142Y-19360000D01*
X119158571Y-19431428D01*
X119230000Y-19574285D01*
X119230000Y-19717142D01*
X119158571Y-19931428D01*
X118301428Y-20788571D01*
X119230000Y-20788571D01*
X120158571Y-19288571D02*
X120301428Y-19288571D01*
X120444285Y-19360000D01*
X120515714Y-19431428D01*
X120587142Y-19574285D01*
X120658571Y-19860000D01*
X120658571Y-20217142D01*
X120587142Y-20502857D01*
X120515714Y-20645714D01*
X120444285Y-20717142D01*
X120301428Y-20788571D01*
X120158571Y-20788571D01*
X120015714Y-20717142D01*
X119944285Y-20645714D01*
X119872857Y-20502857D01*
X119801428Y-20217142D01*
X119801428Y-19860000D01*
X119872857Y-19574285D01*
X119944285Y-19431428D01*
X120015714Y-19360000D01*
X120158571Y-19288571D01*
X121230000Y-19431428D02*
X121301428Y-19360000D01*
X121444285Y-19288571D01*
X121801428Y-19288571D01*
X121944285Y-19360000D01*
X122015714Y-19431428D01*
X122087142Y-19574285D01*
X122087142Y-19717142D01*
X122015714Y-19931428D01*
X121158571Y-20788571D01*
X122087142Y-20788571D01*
X122658571Y-19431428D02*
X122730000Y-19360000D01*
X122872857Y-19288571D01*
X123230000Y-19288571D01*
X123372857Y-19360000D01*
X123444285Y-19431428D01*
X123515714Y-19574285D01*
X123515714Y-19717142D01*
X123444285Y-19931428D01*
X122587142Y-20788571D01*
X123515714Y-20788571D01*
X124444285Y-19288571D02*
X124587142Y-19288571D01*
X124730000Y-19360000D01*
X124801428Y-19431428D01*
X124872857Y-19574285D01*
X124944285Y-19860000D01*
X124944285Y-20217142D01*
X124872857Y-20502857D01*
X124801428Y-20645714D01*
X124730000Y-20717142D01*
X124587142Y-20788571D01*
X124444285Y-20788571D01*
X124301428Y-20717142D01*
X124230000Y-20645714D01*
X124158571Y-20502857D01*
X124087142Y-20217142D01*
X124087142Y-19860000D01*
X124158571Y-19574285D01*
X124230000Y-19431428D01*
X124301428Y-19360000D01*
X124444285Y-19288571D01*
X126230000Y-19788571D02*
X126230000Y-20788571D01*
X125872857Y-19217142D02*
X125515714Y-20288571D01*
X126444285Y-20288571D01*
X127301428Y-19288571D02*
X127444285Y-19288571D01*
X127587142Y-19360000D01*
X127658571Y-19431428D01*
X127730000Y-19574285D01*
X127801428Y-19860000D01*
X127801428Y-20217142D01*
X127730000Y-20502857D01*
X127658571Y-20645714D01*
X127587142Y-20717142D01*
X127444285Y-20788571D01*
X127301428Y-20788571D01*
X127158571Y-20717142D01*
X127087142Y-20645714D01*
X127015714Y-20502857D01*
X126944285Y-20217142D01*
X126944285Y-19860000D01*
X127015714Y-19574285D01*
X127087142Y-19431428D01*
X127158571Y-19360000D01*
X127301428Y-19288571D01*
X128301428Y-19288571D02*
X129301428Y-19288571D01*
X128658571Y-20788571D01*
X129872857Y-20788571D02*
X129872857Y-19288571D01*
X130444285Y-19288571D01*
X130587142Y-19360000D01*
X130658571Y-19431428D01*
X130730000Y-19574285D01*
X130730000Y-19788571D01*
X130658571Y-19931428D01*
X130587142Y-20002857D01*
X130444285Y-20074285D01*
X129872857Y-20074285D01*
X131658571Y-19288571D02*
X131801428Y-19288571D01*
X131944285Y-19360000D01*
X132015714Y-19431428D01*
X132087142Y-19574285D01*
X132158571Y-19860000D01*
X132158571Y-20217142D01*
X132087142Y-20502857D01*
X132015714Y-20645714D01*
X131944285Y-20717142D01*
X131801428Y-20788571D01*
X131658571Y-20788571D01*
X131515714Y-20717142D01*
X131444285Y-20645714D01*
X131372857Y-20502857D01*
X131301428Y-20217142D01*
X131301428Y-19860000D01*
X131372857Y-19574285D01*
X131444285Y-19431428D01*
X131515714Y-19360000D01*
X131658571Y-19288571D01*
X133587142Y-20788571D02*
X132730000Y-20788571D01*
X133158571Y-20788571D02*
X133158571Y-19288571D01*
X133015714Y-19502857D01*
X132872857Y-19645714D01*
X132730000Y-19717142D01*
D10*
X175000000Y-5000000D02*
X175000000Y-69300000D01*
X95000000Y-69300000D02*
X175000000Y-69300000D01*
X95000000Y-5000000D02*
X95000000Y-69300000D01*
D12*
X116908571Y-17717142D02*
X115480000Y-17717142D01*
X115480000Y-14717142D01*
X119194285Y-17717142D02*
X119194285Y-16145714D01*
X119051428Y-15860000D01*
X118765714Y-15717142D01*
X118194285Y-15717142D01*
X117908571Y-15860000D01*
X119194285Y-17574285D02*
X118908571Y-17717142D01*
X118194285Y-17717142D01*
X117908571Y-17574285D01*
X117765714Y-17288571D01*
X117765714Y-17002857D01*
X117908571Y-16717142D01*
X118194285Y-16574285D01*
X118908571Y-16574285D01*
X119194285Y-16431428D01*
X120622857Y-17717142D02*
X120622857Y-15717142D01*
X120622857Y-16002857D02*
X120765714Y-15860000D01*
X121051428Y-15717142D01*
X121480000Y-15717142D01*
X121765714Y-15860000D01*
X121908571Y-16145714D01*
X121908571Y-17717142D01*
X121908571Y-16145714D02*
X122051428Y-15860000D01*
X122337142Y-15717142D01*
X122765714Y-15717142D01*
X123051428Y-15860000D01*
X123194285Y-16145714D01*
X123194285Y-17717142D01*
X124622857Y-15717142D02*
X124622857Y-18717142D01*
X124622857Y-15860000D02*
X124908571Y-15717142D01*
X125480000Y-15717142D01*
X125765714Y-15860000D01*
X125908571Y-16002857D01*
X126051428Y-16288571D01*
X126051428Y-17145714D01*
X125908571Y-17431428D01*
X125765714Y-17574285D01*
X125480000Y-17717142D01*
X124908571Y-17717142D01*
X124622857Y-17574285D01*
X127337142Y-16574285D02*
X129622857Y-16574285D01*
X132622857Y-17717142D02*
X130908571Y-17717142D01*
X131765714Y-17717142D02*
X131765714Y-14717142D01*
X131480000Y-15145714D01*
X131194285Y-15431428D01*
X130908571Y-15574285D01*
D10*
X95000000Y-5000000D02*
X175000000Y-5000000D01*
D13*
%TO.C,C100*%
X145679000Y-16912253D02*
X145679000Y-16389749D01*
X144209000Y-16912253D02*
X144209000Y-16389749D01*
%TO.C,R28*%
X139785000Y-16352936D02*
X139785000Y-16807064D01*
X141255000Y-16352936D02*
X141255000Y-16807064D01*
%TO.C,D1*%
X120625000Y-59975000D02*
X120625000Y-65675000D01*
X116325000Y-59975000D02*
X116325000Y-65675000D01*
X120625000Y-59975000D02*
X116325000Y-59975000D01*
%TO.C,J1*%
X104680000Y-20205000D02*
X103350000Y-20205000D01*
X104680000Y-18875000D02*
X104680000Y-20205000D01*
X102080000Y-20205000D02*
X99480000Y-20205000D01*
X102080000Y-17605000D02*
X102080000Y-20205000D01*
X104680000Y-17605000D02*
X102080000Y-17605000D01*
X99480000Y-20205000D02*
X99480000Y-9925000D01*
X104680000Y-17605000D02*
X104680000Y-9925000D01*
X104680000Y-9925000D02*
X99480000Y-9925000D01*
%TO.C,LD1*%
X118900000Y-45900000D02*
X118900000Y-43040000D01*
X116980000Y-45900000D02*
X118900000Y-45900000D01*
X116980000Y-43040000D02*
X116980000Y-45900000D01*
%TO.C,F1*%
X113440000Y-62302500D02*
X113440000Y-66362500D01*
X115710000Y-62302500D02*
X113440000Y-62302500D01*
X115710000Y-66362500D02*
X115710000Y-62302500D01*
%TO.C,U2*%
X155200000Y-20040000D02*
X156850000Y-20040000D01*
X156850000Y-20040000D02*
X156850000Y-9760000D01*
X156850000Y-9760000D02*
X151550000Y-9760000D01*
X151550000Y-9760000D02*
X151550000Y-20040000D01*
X151550000Y-20040000D02*
X153200000Y-20040000D01*
X153200000Y-20040000D02*
G75*
G02*
X155200000Y-20040000I1000000J0D01*
G01*
%TO.C,C15*%
X124160000Y-51000000D02*
G75*
G03*
X124160000Y-51000000I-4120000J0D01*
G01*
X120040000Y-55080000D02*
X120040000Y-46920000D01*
X120000000Y-55080000D02*
X120000000Y-46920000D01*
X119960000Y-55080000D02*
X119960000Y-46920000D01*
X119920000Y-55079000D02*
X119920000Y-46921000D01*
X119880000Y-55077000D02*
X119880000Y-46923000D01*
X119840000Y-55076000D02*
X119840000Y-46924000D01*
X119800000Y-55074000D02*
X119800000Y-46926000D01*
X119760000Y-55071000D02*
X119760000Y-46929000D01*
X119720000Y-55068000D02*
X119720000Y-46932000D01*
X119680000Y-55065000D02*
X119680000Y-46935000D01*
X119640000Y-55061000D02*
X119640000Y-46939000D01*
X119600000Y-55057000D02*
X119600000Y-46943000D01*
X119560000Y-55052000D02*
X119560000Y-46948000D01*
X119520000Y-55048000D02*
X119520000Y-46952000D01*
X119480000Y-55042000D02*
X119480000Y-46958000D01*
X119440000Y-55037000D02*
X119440000Y-46963000D01*
X119400000Y-55030000D02*
X119400000Y-46970000D01*
X119360000Y-55024000D02*
X119360000Y-46976000D01*
X119319000Y-55017000D02*
X119319000Y-46983000D01*
X119279000Y-55010000D02*
X119279000Y-46990000D01*
X119239000Y-55002000D02*
X119239000Y-46998000D01*
X119199000Y-54994000D02*
X119199000Y-47006000D01*
X119159000Y-54985000D02*
X119159000Y-52040000D01*
X119159000Y-49960000D02*
X119159000Y-47015000D01*
X119119000Y-54976000D02*
X119119000Y-52040000D01*
X119119000Y-49960000D02*
X119119000Y-47024000D01*
X119079000Y-54967000D02*
X119079000Y-52040000D01*
X119079000Y-49960000D02*
X119079000Y-47033000D01*
X119039000Y-54957000D02*
X119039000Y-52040000D01*
X119039000Y-49960000D02*
X119039000Y-47043000D01*
X118999000Y-54947000D02*
X118999000Y-52040000D01*
X118999000Y-49960000D02*
X118999000Y-47053000D01*
X118959000Y-54936000D02*
X118959000Y-52040000D01*
X118959000Y-49960000D02*
X118959000Y-47064000D01*
X118919000Y-54925000D02*
X118919000Y-52040000D01*
X118919000Y-49960000D02*
X118919000Y-47075000D01*
X118879000Y-54914000D02*
X118879000Y-52040000D01*
X118879000Y-49960000D02*
X118879000Y-47086000D01*
X118839000Y-54902000D02*
X118839000Y-52040000D01*
X118839000Y-49960000D02*
X118839000Y-47098000D01*
X118799000Y-54889000D02*
X118799000Y-52040000D01*
X118799000Y-49960000D02*
X118799000Y-47111000D01*
X118759000Y-54877000D02*
X118759000Y-52040000D01*
X118759000Y-49960000D02*
X118759000Y-47123000D01*
X118719000Y-54863000D02*
X118719000Y-52040000D01*
X118719000Y-49960000D02*
X118719000Y-47137000D01*
X118679000Y-54850000D02*
X118679000Y-52040000D01*
X118679000Y-49960000D02*
X118679000Y-47150000D01*
X118639000Y-54835000D02*
X118639000Y-52040000D01*
X118639000Y-49960000D02*
X118639000Y-47165000D01*
X118599000Y-54821000D02*
X118599000Y-52040000D01*
X118599000Y-49960000D02*
X118599000Y-47179000D01*
X118559000Y-54805000D02*
X118559000Y-52040000D01*
X118559000Y-49960000D02*
X118559000Y-47195000D01*
X118519000Y-54790000D02*
X118519000Y-52040000D01*
X118519000Y-49960000D02*
X118519000Y-47210000D01*
X118479000Y-54774000D02*
X118479000Y-52040000D01*
X118479000Y-49960000D02*
X118479000Y-47226000D01*
X118439000Y-54757000D02*
X118439000Y-52040000D01*
X118439000Y-49960000D02*
X118439000Y-47243000D01*
X118399000Y-54740000D02*
X118399000Y-52040000D01*
X118399000Y-49960000D02*
X118399000Y-47260000D01*
X118359000Y-54722000D02*
X118359000Y-52040000D01*
X118359000Y-49960000D02*
X118359000Y-47278000D01*
X118319000Y-54704000D02*
X118319000Y-52040000D01*
X118319000Y-49960000D02*
X118319000Y-47296000D01*
X118279000Y-54686000D02*
X118279000Y-52040000D01*
X118279000Y-49960000D02*
X118279000Y-47314000D01*
X118239000Y-54666000D02*
X118239000Y-52040000D01*
X118239000Y-49960000D02*
X118239000Y-47334000D01*
X118199000Y-54647000D02*
X118199000Y-52040000D01*
X118199000Y-49960000D02*
X118199000Y-47353000D01*
X118159000Y-54627000D02*
X118159000Y-52040000D01*
X118159000Y-49960000D02*
X118159000Y-47373000D01*
X118119000Y-54606000D02*
X118119000Y-52040000D01*
X118119000Y-49960000D02*
X118119000Y-47394000D01*
X118079000Y-54584000D02*
X118079000Y-52040000D01*
X118079000Y-49960000D02*
X118079000Y-47416000D01*
X118039000Y-54562000D02*
X118039000Y-52040000D01*
X118039000Y-49960000D02*
X118039000Y-47438000D01*
X117999000Y-54540000D02*
X117999000Y-52040000D01*
X117999000Y-49960000D02*
X117999000Y-47460000D01*
X117959000Y-54517000D02*
X117959000Y-52040000D01*
X117959000Y-49960000D02*
X117959000Y-47483000D01*
X117919000Y-54493000D02*
X117919000Y-52040000D01*
X117919000Y-49960000D02*
X117919000Y-47507000D01*
X117879000Y-54469000D02*
X117879000Y-52040000D01*
X117879000Y-49960000D02*
X117879000Y-47531000D01*
X117839000Y-54444000D02*
X117839000Y-52040000D01*
X117839000Y-49960000D02*
X117839000Y-47556000D01*
X117799000Y-54418000D02*
X117799000Y-52040000D01*
X117799000Y-49960000D02*
X117799000Y-47582000D01*
X117759000Y-54392000D02*
X117759000Y-52040000D01*
X117759000Y-49960000D02*
X117759000Y-47608000D01*
X117719000Y-54365000D02*
X117719000Y-52040000D01*
X117719000Y-49960000D02*
X117719000Y-47635000D01*
X117679000Y-54338000D02*
X117679000Y-52040000D01*
X117679000Y-49960000D02*
X117679000Y-47662000D01*
X117639000Y-54309000D02*
X117639000Y-52040000D01*
X117639000Y-49960000D02*
X117639000Y-47691000D01*
X117599000Y-54280000D02*
X117599000Y-52040000D01*
X117599000Y-49960000D02*
X117599000Y-47720000D01*
X117559000Y-54250000D02*
X117559000Y-52040000D01*
X117559000Y-49960000D02*
X117559000Y-47750000D01*
X117519000Y-54220000D02*
X117519000Y-52040000D01*
X117519000Y-49960000D02*
X117519000Y-47780000D01*
X117479000Y-54189000D02*
X117479000Y-52040000D01*
X117479000Y-49960000D02*
X117479000Y-47811000D01*
X117439000Y-54156000D02*
X117439000Y-52040000D01*
X117439000Y-49960000D02*
X117439000Y-47844000D01*
X117399000Y-54124000D02*
X117399000Y-52040000D01*
X117399000Y-49960000D02*
X117399000Y-47876000D01*
X117359000Y-54090000D02*
X117359000Y-52040000D01*
X117359000Y-49960000D02*
X117359000Y-47910000D01*
X117319000Y-54055000D02*
X117319000Y-52040000D01*
X117319000Y-49960000D02*
X117319000Y-47945000D01*
X117279000Y-54019000D02*
X117279000Y-52040000D01*
X117279000Y-49960000D02*
X117279000Y-47981000D01*
X117239000Y-53983000D02*
X117239000Y-52040000D01*
X117239000Y-49960000D02*
X117239000Y-48017000D01*
X117199000Y-53945000D02*
X117199000Y-52040000D01*
X117199000Y-49960000D02*
X117199000Y-48055000D01*
X117159000Y-53907000D02*
X117159000Y-52040000D01*
X117159000Y-49960000D02*
X117159000Y-48093000D01*
X117119000Y-53867000D02*
X117119000Y-52040000D01*
X117119000Y-49960000D02*
X117119000Y-48133000D01*
X117079000Y-53826000D02*
X117079000Y-48174000D01*
X117039000Y-53784000D02*
X117039000Y-48216000D01*
X116999000Y-53741000D02*
X116999000Y-48259000D01*
X116959000Y-53697000D02*
X116959000Y-48303000D01*
X116919000Y-53651000D02*
X116919000Y-48349000D01*
X116879000Y-53604000D02*
X116879000Y-48396000D01*
X116839000Y-53556000D02*
X116839000Y-48444000D01*
X116799000Y-53505000D02*
X116799000Y-48495000D01*
X116759000Y-53454000D02*
X116759000Y-48546000D01*
X116719000Y-53400000D02*
X116719000Y-48600000D01*
X116679000Y-53345000D02*
X116679000Y-48655000D01*
X116639000Y-53287000D02*
X116639000Y-48713000D01*
X116599000Y-53228000D02*
X116599000Y-48772000D01*
X116559000Y-53166000D02*
X116559000Y-48834000D01*
X116519000Y-53102000D02*
X116519000Y-48898000D01*
X116479000Y-53034000D02*
X116479000Y-48966000D01*
X116439000Y-52964000D02*
X116439000Y-49036000D01*
X116399000Y-52890000D02*
X116399000Y-49110000D01*
X116359000Y-52813000D02*
X116359000Y-49187000D01*
X116319000Y-52731000D02*
X116319000Y-49269000D01*
X116279000Y-52645000D02*
X116279000Y-49355000D01*
X116239000Y-52552000D02*
X116239000Y-49448000D01*
X116199000Y-52453000D02*
X116199000Y-49547000D01*
X116159000Y-52346000D02*
X116159000Y-49654000D01*
X116119000Y-52229000D02*
X116119000Y-49771000D01*
X116079000Y-52098000D02*
X116079000Y-49902000D01*
X116039000Y-51948000D02*
X116039000Y-50052000D01*
X115999000Y-51768000D02*
X115999000Y-50232000D01*
X115959000Y-51533000D02*
X115959000Y-50467000D01*
X124449698Y-53315000D02*
X123649698Y-53315000D01*
X124049698Y-53715000D02*
X124049698Y-52915000D01*
%TO.C,Y1*%
X131060000Y-39990000D02*
X131060000Y-32740000D01*
X127460000Y-39990000D02*
X131060000Y-39990000D01*
X127460000Y-32740000D02*
X127460000Y-39990000D01*
%TO.C,Y2*%
X127995000Y-28655000D02*
X127995000Y-27305000D01*
X129745000Y-28655000D02*
X129745000Y-27305000D01*
%TO.C,R29*%
X141985000Y-16315436D02*
X141985000Y-16769564D01*
X143455000Y-16315436D02*
X143455000Y-16769564D01*
%TO.C,R27*%
X124315000Y-44227064D02*
X124315000Y-43772936D01*
X122845000Y-44227064D02*
X122845000Y-43772936D01*
%TO.C,R26*%
X121315000Y-44227064D02*
X121315000Y-43772936D01*
X119845000Y-44227064D02*
X119845000Y-43772936D01*
%TO.C,R25*%
X139305000Y-54382936D02*
X139305000Y-54837064D01*
X140775000Y-54382936D02*
X140775000Y-54837064D01*
%TO.C,R24*%
X136965000Y-54302936D02*
X136965000Y-54757064D01*
X138435000Y-54302936D02*
X138435000Y-54757064D01*
%TO.C,R23*%
X134505000Y-54262936D02*
X134505000Y-54717064D01*
X135975000Y-54262936D02*
X135975000Y-54717064D01*
%TO.C,R22*%
X155375000Y-24457064D02*
X155375000Y-24002936D01*
X153905000Y-24457064D02*
X153905000Y-24002936D01*
%TO.C,R21*%
X154975000Y-30847064D02*
X154975000Y-30392936D01*
X153505000Y-30847064D02*
X153505000Y-30392936D01*
%TO.C,R20*%
X154765000Y-37007064D02*
X154765000Y-36552936D01*
X153295000Y-37007064D02*
X153295000Y-36552936D01*
%TO.C,R19*%
X157032936Y-46255000D02*
X157487064Y-46255000D01*
X157032936Y-44785000D02*
X157487064Y-44785000D01*
%TO.C,R18*%
X150492936Y-46305000D02*
X150947064Y-46305000D01*
X150492936Y-44835000D02*
X150947064Y-44835000D01*
%TO.C,R17*%
X143702936Y-46125000D02*
X144157064Y-46125000D01*
X143702936Y-44655000D02*
X144157064Y-44655000D01*
%TO.C,R16*%
X136872936Y-45965000D02*
X137327064Y-45965000D01*
X136872936Y-44495000D02*
X137327064Y-44495000D01*
%TO.C,R15*%
X130022936Y-45835000D02*
X130477064Y-45835000D01*
X130022936Y-44365000D02*
X130477064Y-44365000D01*
%TO.C,R14*%
X153532936Y-28205000D02*
X153987064Y-28205000D01*
X153532936Y-26735000D02*
X153987064Y-26735000D01*
%TO.C,R13*%
X153032936Y-34425000D02*
X153487064Y-34425000D01*
X153032936Y-32955000D02*
X153487064Y-32955000D01*
%TO.C,R12*%
X153002936Y-40675000D02*
X153457064Y-40675000D01*
X153002936Y-39205000D02*
X153457064Y-39205000D01*
%TO.C,R11*%
X153485000Y-44432936D02*
X153485000Y-44887064D01*
X154955000Y-44432936D02*
X154955000Y-44887064D01*
%TO.C,R10*%
X146855000Y-44442936D02*
X146855000Y-44897064D01*
X148325000Y-44442936D02*
X148325000Y-44897064D01*
%TO.C,R9*%
X140165000Y-44282936D02*
X140165000Y-44737064D01*
X141635000Y-44282936D02*
X141635000Y-44737064D01*
%TO.C,R8*%
X133315000Y-44172936D02*
X133315000Y-44627064D01*
X134785000Y-44172936D02*
X134785000Y-44627064D01*
%TO.C,R7*%
X126525000Y-43972936D02*
X126525000Y-44427064D01*
X127995000Y-43972936D02*
X127995000Y-44427064D01*
%TO.C,R6*%
X122377064Y-31405000D02*
X121922936Y-31405000D01*
X122377064Y-32875000D02*
X121922936Y-32875000D01*
%TO.C,R5*%
X122327064Y-27955000D02*
X121872936Y-27955000D01*
X122327064Y-29425000D02*
X121872936Y-29425000D01*
%TO.C,R4*%
X122377064Y-24355000D02*
X121922936Y-24355000D01*
X122377064Y-25825000D02*
X121922936Y-25825000D01*
%TO.C,R3*%
X126555000Y-38387064D02*
X126555000Y-37932936D01*
X125085000Y-38387064D02*
X125085000Y-37932936D01*
%TO.C,U1*%
X133690000Y-32440000D02*
X132400000Y-32440000D01*
X133690000Y-31990000D02*
X133690000Y-32440000D01*
X134140000Y-31990000D02*
X133690000Y-31990000D01*
X140910000Y-31990000D02*
X140910000Y-32440000D01*
X140460000Y-31990000D02*
X140910000Y-31990000D01*
X133690000Y-39210000D02*
X133690000Y-38760000D01*
X134140000Y-39210000D02*
X133690000Y-39210000D01*
X140910000Y-39210000D02*
X140910000Y-38760000D01*
X140460000Y-39210000D02*
X140910000Y-39210000D01*
%TO.C,SS1*%
X113690000Y-55925000D02*
X119090000Y-55925000D01*
X113690000Y-59225000D02*
X119090000Y-59225000D01*
X113690000Y-55925000D02*
X113690000Y-59225000D01*
%TO.C,RED1*%
X116305000Y-25805000D02*
X118590000Y-25805000D01*
X116305000Y-24335000D02*
X116305000Y-25805000D01*
X118590000Y-24335000D02*
X116305000Y-24335000D01*
%TO.C,R2*%
X133445000Y-54677064D02*
X133445000Y-54222936D01*
X131975000Y-54677064D02*
X131975000Y-54222936D01*
%TO.C,R1*%
X129575000Y-54172936D02*
X129575000Y-54627064D01*
X131045000Y-54172936D02*
X131045000Y-54627064D01*
D14*
%TO.C,Q8*%
X157017860Y-25324499D02*
X156004400Y-25324499D01*
X157292139Y-26975499D02*
X157967861Y-26975499D01*
X156004400Y-25324499D02*
X156004400Y-26975499D01*
X159255600Y-25324499D02*
X158242140Y-25324499D01*
X159255600Y-26975499D02*
X159255600Y-25324499D01*
%TO.C,Q7*%
X156567860Y-31724501D02*
X155554400Y-31724501D01*
X156842139Y-33375501D02*
X157517861Y-33375501D01*
X155554400Y-31724501D02*
X155554400Y-33375501D01*
X158805600Y-31724501D02*
X157792140Y-31724501D01*
X158805600Y-33375501D02*
X158805600Y-31724501D01*
%TO.C,Q6*%
X156467860Y-37824500D02*
X155454400Y-37824500D01*
X156742139Y-39475500D02*
X157417861Y-39475500D01*
X155454400Y-37824500D02*
X155454400Y-39475500D01*
X158705600Y-37824500D02*
X157692140Y-37824500D01*
X158705600Y-39475500D02*
X158705600Y-37824500D01*
%TO.C,Q5*%
X156385500Y-48217860D02*
X156385500Y-47204400D01*
X154734500Y-48492139D02*
X154734500Y-49167861D01*
X156385500Y-47204400D02*
X154734500Y-47204400D01*
X156385500Y-50455600D02*
X156385500Y-49442140D01*
X154734500Y-50455600D02*
X156385500Y-50455600D01*
%TO.C,Q4*%
X149865500Y-47897860D02*
X149865500Y-46884400D01*
X148214500Y-48172139D02*
X148214500Y-48847861D01*
X149865500Y-46884400D02*
X148214500Y-46884400D01*
X149865500Y-50135600D02*
X149865500Y-49122140D01*
X148214500Y-50135600D02*
X149865500Y-50135600D01*
%TO.C,Q3*%
X143235500Y-47757860D02*
X143235500Y-46744400D01*
X141584500Y-48032139D02*
X141584500Y-48707861D01*
X143235500Y-46744400D02*
X141584500Y-46744400D01*
X143235500Y-49995600D02*
X143235500Y-48982140D01*
X141584500Y-49995600D02*
X143235500Y-49995600D01*
%TO.C,Q2*%
X136215500Y-47577860D02*
X136215500Y-46564400D01*
X134564500Y-47852139D02*
X134564500Y-48527861D01*
X136215500Y-46564400D02*
X134564500Y-46564400D01*
X136215500Y-49815600D02*
X136215500Y-48802140D01*
X134564500Y-49815600D02*
X136215500Y-49815600D01*
%TO.C,Q1*%
X129665500Y-47507860D02*
X129665500Y-46494400D01*
X128014500Y-47782139D02*
X128014500Y-48457861D01*
X129665500Y-46494400D02*
X128014500Y-46494400D01*
X129665500Y-49745600D02*
X129665500Y-48732140D01*
X128014500Y-49745600D02*
X129665500Y-49745600D01*
D13*
%TO.C,J17*%
X148485000Y-61566667D02*
X147215000Y-61566667D01*
X147285000Y-60360000D02*
X147285000Y-61566667D01*
X147405000Y-60360000D02*
X147405000Y-61566667D01*
X147525000Y-60360000D02*
X147525000Y-61566667D01*
X147645000Y-60360000D02*
X147645000Y-61566667D01*
X147765000Y-60360000D02*
X147765000Y-61566667D01*
X147885000Y-60360000D02*
X147885000Y-61566667D01*
X148005000Y-60360000D02*
X148005000Y-61566667D01*
X148125000Y-60360000D02*
X148125000Y-61566667D01*
X148245000Y-60360000D02*
X148245000Y-61566667D01*
X148365000Y-60360000D02*
X148365000Y-61566667D01*
X148485000Y-63980000D02*
X148485000Y-60360000D01*
X147215000Y-63980000D02*
X148485000Y-63980000D01*
X147215000Y-60360000D02*
X147215000Y-63980000D01*
X148485000Y-60360000D02*
X147215000Y-60360000D01*
X150200000Y-58520000D02*
X148890000Y-58520000D01*
X150200000Y-58520000D02*
X150200000Y-59903000D01*
X146860000Y-65581000D02*
X145740000Y-65581000D01*
X149960000Y-65581000D02*
X148840000Y-65581000D01*
X146810000Y-58760000D02*
X145740000Y-58760000D01*
X149960000Y-58760000D02*
X148890000Y-58760000D01*
X145740000Y-58760000D02*
X145740000Y-65581000D01*
X149960000Y-58760000D02*
X149960000Y-65581000D01*
%TO.C,J16*%
X141825000Y-61616667D02*
X140555000Y-61616667D01*
X140625000Y-60410000D02*
X140625000Y-61616667D01*
X140745000Y-60410000D02*
X140745000Y-61616667D01*
X140865000Y-60410000D02*
X140865000Y-61616667D01*
X140985000Y-60410000D02*
X140985000Y-61616667D01*
X141105000Y-60410000D02*
X141105000Y-61616667D01*
X141225000Y-60410000D02*
X141225000Y-61616667D01*
X141345000Y-60410000D02*
X141345000Y-61616667D01*
X141465000Y-60410000D02*
X141465000Y-61616667D01*
X141585000Y-60410000D02*
X141585000Y-61616667D01*
X141705000Y-60410000D02*
X141705000Y-61616667D01*
X141825000Y-64030000D02*
X141825000Y-60410000D01*
X140555000Y-64030000D02*
X141825000Y-64030000D01*
X140555000Y-60410000D02*
X140555000Y-64030000D01*
X141825000Y-60410000D02*
X140555000Y-60410000D01*
X143540000Y-58570000D02*
X142230000Y-58570000D01*
X143540000Y-58570000D02*
X143540000Y-59953000D01*
X140200000Y-65631000D02*
X139080000Y-65631000D01*
X143300000Y-65631000D02*
X142180000Y-65631000D01*
X140150000Y-58810000D02*
X139080000Y-58810000D01*
X143300000Y-58810000D02*
X142230000Y-58810000D01*
X139080000Y-58810000D02*
X139080000Y-65631000D01*
X143300000Y-58810000D02*
X143300000Y-65631000D01*
%TO.C,J15*%
X135275000Y-61586667D02*
X134005000Y-61586667D01*
X134075000Y-60380000D02*
X134075000Y-61586667D01*
X134195000Y-60380000D02*
X134195000Y-61586667D01*
X134315000Y-60380000D02*
X134315000Y-61586667D01*
X134435000Y-60380000D02*
X134435000Y-61586667D01*
X134555000Y-60380000D02*
X134555000Y-61586667D01*
X134675000Y-60380000D02*
X134675000Y-61586667D01*
X134795000Y-60380000D02*
X134795000Y-61586667D01*
X134915000Y-60380000D02*
X134915000Y-61586667D01*
X135035000Y-60380000D02*
X135035000Y-61586667D01*
X135155000Y-60380000D02*
X135155000Y-61586667D01*
X135275000Y-64000000D02*
X135275000Y-60380000D01*
X134005000Y-64000000D02*
X135275000Y-64000000D01*
X134005000Y-60380000D02*
X134005000Y-64000000D01*
X135275000Y-60380000D02*
X134005000Y-60380000D01*
X136990000Y-58540000D02*
X135680000Y-58540000D01*
X136990000Y-58540000D02*
X136990000Y-59923000D01*
X133650000Y-65601000D02*
X132530000Y-65601000D01*
X136750000Y-65601000D02*
X135630000Y-65601000D01*
X133600000Y-58780000D02*
X132530000Y-58780000D01*
X136750000Y-58780000D02*
X135680000Y-58780000D01*
X132530000Y-58780000D02*
X132530000Y-65601000D01*
X136750000Y-58780000D02*
X136750000Y-65601000D01*
%TO.C,J14*%
X130290000Y-9880000D02*
X130290000Y-11210000D01*
X128960000Y-9880000D02*
X130290000Y-9880000D01*
X127690000Y-9880000D02*
X127690000Y-12540000D01*
X127690000Y-12540000D02*
X114930000Y-12540000D01*
X127690000Y-9880000D02*
X114930000Y-9880000D01*
X114930000Y-9880000D02*
X114930000Y-12540000D01*
%TO.C,J13*%
X132830000Y-12610000D02*
X132830000Y-11280000D01*
X134160000Y-12610000D02*
X132830000Y-12610000D01*
X135430000Y-12610000D02*
X135430000Y-9950000D01*
X135430000Y-9950000D02*
X143110000Y-9950000D01*
X135430000Y-12610000D02*
X143110000Y-12610000D01*
X143110000Y-12610000D02*
X143110000Y-9950000D01*
%TO.C,J12*%
X172500000Y-18400000D02*
X172500000Y-7550000D01*
X167400000Y-18400000D02*
X172500000Y-18400000D01*
X167700000Y-17900000D02*
X167400000Y-18400000D01*
X162300000Y-17900000D02*
X167700000Y-17900000D01*
X162550000Y-18400000D02*
X162300000Y-17900000D01*
X162500000Y-18400000D02*
X162550000Y-18400000D01*
X160600000Y-18400000D02*
X162500000Y-18400000D01*
X160850000Y-17900000D02*
X160600000Y-18400000D01*
X159900000Y-17900000D02*
X160850000Y-17900000D01*
X159900000Y-7550000D02*
X159900000Y-17900000D01*
X172500000Y-7550000D02*
X159900000Y-7550000D01*
%TO.C,J11*%
X172500000Y-29699999D02*
X172500000Y-18849999D01*
X167400000Y-29699999D02*
X172500000Y-29699999D01*
X167700000Y-29199999D02*
X167400000Y-29699999D01*
X162300000Y-29199999D02*
X167700000Y-29199999D01*
X162550000Y-29699999D02*
X162300000Y-29199999D01*
X162500000Y-29699999D02*
X162550000Y-29699999D01*
X160600000Y-29699999D02*
X162500000Y-29699999D01*
X160850000Y-29199999D02*
X160600000Y-29699999D01*
X159900000Y-29199999D02*
X160850000Y-29199999D01*
X159900000Y-18849999D02*
X159900000Y-29199999D01*
X172500000Y-18849999D02*
X159900000Y-18849999D01*
%TO.C,J10*%
X172500000Y-40999999D02*
X172500000Y-30149999D01*
X167400000Y-40999999D02*
X172500000Y-40999999D01*
X167700000Y-40499999D02*
X167400000Y-40999999D01*
X162300000Y-40499999D02*
X167700000Y-40499999D01*
X162550000Y-40999999D02*
X162300000Y-40499999D01*
X162500000Y-40999999D02*
X162550000Y-40999999D01*
X160600000Y-40999999D02*
X162500000Y-40999999D01*
X160850000Y-40499999D02*
X160600000Y-40999999D01*
X159900000Y-40499999D02*
X160850000Y-40499999D01*
X159900000Y-30149999D02*
X159900000Y-40499999D01*
X172500000Y-30149999D02*
X159900000Y-30149999D01*
%TO.C,J9*%
X172500000Y-52400000D02*
X172500000Y-41550000D01*
X167400000Y-52400000D02*
X172500000Y-52400000D01*
X167700000Y-51900000D02*
X167400000Y-52400000D01*
X162300000Y-51900000D02*
X167700000Y-51900000D01*
X162550000Y-52400000D02*
X162300000Y-51900000D01*
X162500000Y-52400000D02*
X162550000Y-52400000D01*
X160600000Y-52400000D02*
X162500000Y-52400000D01*
X160850000Y-51900000D02*
X160600000Y-52400000D01*
X159900000Y-51900000D02*
X160850000Y-51900000D01*
X159900000Y-41550000D02*
X159900000Y-51900000D01*
X172500000Y-41550000D02*
X159900000Y-41550000D01*
%TO.C,J8*%
X163340000Y-67000000D02*
X174190000Y-67000000D01*
X163340000Y-61900000D02*
X163340000Y-67000000D01*
X163840000Y-62200000D02*
X163340000Y-61900000D01*
X163840000Y-56800000D02*
X163840000Y-62200000D01*
X163340000Y-57050000D02*
X163840000Y-56800000D01*
X163340000Y-57000000D02*
X163340000Y-57050000D01*
X163340000Y-55100000D02*
X163340000Y-57000000D01*
X163840000Y-55350000D02*
X163340000Y-55100000D01*
X163840000Y-54400000D02*
X163840000Y-55350000D01*
X174190000Y-54400000D02*
X163840000Y-54400000D01*
X174190000Y-67000000D02*
X174190000Y-54400000D01*
%TO.C,J7*%
X151970000Y-67000000D02*
X162820000Y-67000000D01*
X151970000Y-61900000D02*
X151970000Y-67000000D01*
X152470000Y-62200000D02*
X151970000Y-61900000D01*
X152470000Y-56800000D02*
X152470000Y-62200000D01*
X151970000Y-57050000D02*
X152470000Y-56800000D01*
X151970000Y-57000000D02*
X151970000Y-57050000D01*
X151970000Y-55100000D02*
X151970000Y-57000000D01*
X152470000Y-55350000D02*
X151970000Y-55100000D01*
X152470000Y-54400000D02*
X152470000Y-55350000D01*
X162820000Y-54400000D02*
X152470000Y-54400000D01*
X162820000Y-67000000D02*
X162820000Y-54400000D01*
%TO.C,J6*%
X112905000Y-9895000D02*
X112905000Y-11225000D01*
X111575000Y-9895000D02*
X112905000Y-9895000D01*
X112905000Y-12495000D02*
X112905000Y-15095000D01*
X110305000Y-12495000D02*
X112905000Y-12495000D01*
X110305000Y-9895000D02*
X110305000Y-12495000D01*
X112905000Y-15095000D02*
X107705000Y-15095000D01*
X110305000Y-9895000D02*
X107705000Y-9895000D01*
X107705000Y-9895000D02*
X107705000Y-15095000D01*
%TO.C,J5*%
X113900000Y-21225000D02*
X113900000Y-23825000D01*
X99200000Y-21225000D02*
X113900000Y-21225000D01*
X113900000Y-30425000D02*
X112000000Y-30425000D01*
X113900000Y-27725000D02*
X113900000Y-30425000D01*
X99200000Y-30425000D02*
X99200000Y-21225000D01*
X108000000Y-30425000D02*
X99200000Y-30425000D01*
X113050000Y-21025000D02*
X114100000Y-21025000D01*
X114100000Y-22075000D02*
X114100000Y-21025000D01*
%TO.C,J4*%
X142840000Y-29575000D02*
X142840000Y-23565000D01*
X149660000Y-27325000D02*
X149660000Y-23565000D01*
X142840000Y-23565000D02*
X144100000Y-23565000D01*
X149660000Y-23565000D02*
X148400000Y-23565000D01*
%TO.C,J3*%
X99325000Y-56125000D02*
X99325000Y-66975000D01*
X104425000Y-56125000D02*
X99325000Y-56125000D01*
X104125000Y-56625000D02*
X104425000Y-56125000D01*
X109525000Y-56625000D02*
X104125000Y-56625000D01*
X109275000Y-56125000D02*
X109525000Y-56625000D01*
X109325000Y-56125000D02*
X109275000Y-56125000D01*
X111225000Y-56125000D02*
X109325000Y-56125000D01*
X110975000Y-56625000D02*
X111225000Y-56125000D01*
X111925000Y-56625000D02*
X110975000Y-56625000D01*
X111925000Y-66975000D02*
X111925000Y-56625000D01*
X99325000Y-66975000D02*
X111925000Y-66975000D01*
%TO.C,J2*%
X127645000Y-61736667D02*
X126375000Y-61736667D01*
X126445000Y-60530000D02*
X126445000Y-61736667D01*
X126565000Y-60530000D02*
X126565000Y-61736667D01*
X126685000Y-60530000D02*
X126685000Y-61736667D01*
X126805000Y-60530000D02*
X126805000Y-61736667D01*
X126925000Y-60530000D02*
X126925000Y-61736667D01*
X127045000Y-60530000D02*
X127045000Y-61736667D01*
X127165000Y-60530000D02*
X127165000Y-61736667D01*
X127285000Y-60530000D02*
X127285000Y-61736667D01*
X127405000Y-60530000D02*
X127405000Y-61736667D01*
X127525000Y-60530000D02*
X127525000Y-61736667D01*
X127645000Y-64150000D02*
X127645000Y-60530000D01*
X126375000Y-64150000D02*
X127645000Y-64150000D01*
X126375000Y-60530000D02*
X126375000Y-64150000D01*
X127645000Y-60530000D02*
X126375000Y-60530000D01*
X129360000Y-58690000D02*
X128050000Y-58690000D01*
X129360000Y-58690000D02*
X129360000Y-60073000D01*
X126020000Y-65751000D02*
X124900000Y-65751000D01*
X129120000Y-65751000D02*
X128000000Y-65751000D01*
X125970000Y-58930000D02*
X124900000Y-58930000D01*
X129120000Y-58930000D02*
X128050000Y-58930000D01*
X124900000Y-58930000D02*
X124900000Y-65751000D01*
X129120000Y-58930000D02*
X129120000Y-65751000D01*
%TO.C,GREEN1*%
X116292500Y-29405000D02*
X118577500Y-29405000D01*
X116292500Y-27935000D02*
X116292500Y-29405000D01*
X118577500Y-27935000D02*
X116292500Y-27935000D01*
%TO.C,C19*%
X122890000Y-38193733D02*
X122890000Y-38486267D01*
X123910000Y-38193733D02*
X123910000Y-38486267D01*
%TO.C,C18*%
X138855000Y-16991253D02*
X138855000Y-16468749D01*
X137385000Y-16991253D02*
X137385000Y-16468749D01*
%TO.C,C17*%
X118615000Y-38501252D02*
X118615000Y-37978748D01*
X117145000Y-38501252D02*
X117145000Y-37978748D01*
%TO.C,C16*%
X121260000Y-38536252D02*
X121260000Y-38013748D01*
X119790000Y-38536252D02*
X119790000Y-38013748D01*
%TO.C,C14*%
X144184420Y-40885000D02*
X144465580Y-40885000D01*
X144184420Y-39865000D02*
X144465580Y-39865000D01*
%TO.C,C13*%
X144188748Y-36335000D02*
X144711252Y-36335000D01*
X144188748Y-34865000D02*
X144711252Y-34865000D01*
%TO.C,C12*%
X130865000Y-27801248D02*
X130865000Y-28323752D01*
X132335000Y-27801248D02*
X132335000Y-28323752D01*
%TO.C,C11*%
X133465000Y-27801248D02*
X133465000Y-28323752D01*
X134935000Y-27801248D02*
X134935000Y-28323752D01*
%TO.C,C6*%
X138265000Y-27801248D02*
X138265000Y-28323752D01*
X139735000Y-27801248D02*
X139735000Y-28323752D01*
%TO.C,C5*%
X144109420Y-38385000D02*
X144390580Y-38385000D01*
X144109420Y-37365000D02*
X144390580Y-37365000D01*
%TO.C,C4*%
X140665000Y-27801248D02*
X140665000Y-28323752D01*
X142135000Y-27801248D02*
X142135000Y-28323752D01*
%TO.C,C3*%
X128745000Y-54723752D02*
X128745000Y-54201248D01*
X127275000Y-54723752D02*
X127275000Y-54201248D01*
%TO.C,C2*%
X144063748Y-33235000D02*
X144586252Y-33235000D01*
X144063748Y-31765000D02*
X144586252Y-31765000D01*
%TO.C,C1*%
X135865000Y-27988748D02*
X135865000Y-28511252D01*
X137335000Y-27988748D02*
X137335000Y-28511252D01*
%TO.C,BLUE1*%
X116405000Y-32955000D02*
X118690000Y-32955000D01*
X116405000Y-31485000D02*
X116405000Y-32955000D01*
X118690000Y-31485000D02*
X116405000Y-31485000D01*
%TO.C,C100*%
D10*
X144399952Y-14508142D02*
X144352333Y-14555761D01*
X144209476Y-14603380D01*
X144114238Y-14603380D01*
X143971380Y-14555761D01*
X143876142Y-14460523D01*
X143828523Y-14365285D01*
X143780904Y-14174809D01*
X143780904Y-14031952D01*
X143828523Y-13841476D01*
X143876142Y-13746238D01*
X143971380Y-13651000D01*
X144114238Y-13603380D01*
X144209476Y-13603380D01*
X144352333Y-13651000D01*
X144399952Y-13698619D01*
X145352333Y-14603380D02*
X144780904Y-14603380D01*
X145066619Y-14603380D02*
X145066619Y-13603380D01*
X144971380Y-13746238D01*
X144876142Y-13841476D01*
X144780904Y-13889095D01*
X145971380Y-13603380D02*
X146066619Y-13603380D01*
X146161857Y-13651000D01*
X146209476Y-13698619D01*
X146257095Y-13793857D01*
X146304714Y-13984333D01*
X146304714Y-14222428D01*
X146257095Y-14412904D01*
X146209476Y-14508142D01*
X146161857Y-14555761D01*
X146066619Y-14603380D01*
X145971380Y-14603380D01*
X145876142Y-14555761D01*
X145828523Y-14508142D01*
X145780904Y-14412904D01*
X145733285Y-14222428D01*
X145733285Y-13984333D01*
X145780904Y-13793857D01*
X145828523Y-13698619D01*
X145876142Y-13651000D01*
X145971380Y-13603380D01*
X146923761Y-13603380D02*
X147019000Y-13603380D01*
X147114238Y-13651000D01*
X147161857Y-13698619D01*
X147209476Y-13793857D01*
X147257095Y-13984333D01*
X147257095Y-14222428D01*
X147209476Y-14412904D01*
X147161857Y-14508142D01*
X147114238Y-14555761D01*
X147019000Y-14603380D01*
X146923761Y-14603380D01*
X146828523Y-14555761D01*
X146780904Y-14508142D01*
X146733285Y-14412904D01*
X146685666Y-14222428D01*
X146685666Y-13984333D01*
X146733285Y-13793857D01*
X146780904Y-13698619D01*
X146828523Y-13651000D01*
X146923761Y-13603380D01*
%TO.C,R28*%
X139677142Y-14432380D02*
X139343809Y-13956190D01*
X139105714Y-14432380D02*
X139105714Y-13432380D01*
X139486666Y-13432380D01*
X139581904Y-13480000D01*
X139629523Y-13527619D01*
X139677142Y-13622857D01*
X139677142Y-13765714D01*
X139629523Y-13860952D01*
X139581904Y-13908571D01*
X139486666Y-13956190D01*
X139105714Y-13956190D01*
X140058095Y-13527619D02*
X140105714Y-13480000D01*
X140200952Y-13432380D01*
X140439047Y-13432380D01*
X140534285Y-13480000D01*
X140581904Y-13527619D01*
X140629523Y-13622857D01*
X140629523Y-13718095D01*
X140581904Y-13860952D01*
X140010476Y-14432380D01*
X140629523Y-14432380D01*
X141200952Y-13860952D02*
X141105714Y-13813333D01*
X141058095Y-13765714D01*
X141010476Y-13670476D01*
X141010476Y-13622857D01*
X141058095Y-13527619D01*
X141105714Y-13480000D01*
X141200952Y-13432380D01*
X141391428Y-13432380D01*
X141486666Y-13480000D01*
X141534285Y-13527619D01*
X141581904Y-13622857D01*
X141581904Y-13670476D01*
X141534285Y-13765714D01*
X141486666Y-13813333D01*
X141391428Y-13860952D01*
X141200952Y-13860952D01*
X141105714Y-13908571D01*
X141058095Y-13956190D01*
X141010476Y-14051428D01*
X141010476Y-14241904D01*
X141058095Y-14337142D01*
X141105714Y-14384761D01*
X141200952Y-14432380D01*
X141391428Y-14432380D01*
X141486666Y-14384761D01*
X141534285Y-14337142D01*
X141581904Y-14241904D01*
X141581904Y-14051428D01*
X141534285Y-13956190D01*
X141486666Y-13908571D01*
X141391428Y-13860952D01*
%TO.C,D1*%
X117836904Y-68527380D02*
X117836904Y-67527380D01*
X118075000Y-67527380D01*
X118217857Y-67575000D01*
X118313095Y-67670238D01*
X118360714Y-67765476D01*
X118408333Y-67955952D01*
X118408333Y-68098809D01*
X118360714Y-68289285D01*
X118313095Y-68384523D01*
X118217857Y-68479761D01*
X118075000Y-68527380D01*
X117836904Y-68527380D01*
X119360714Y-68527380D02*
X118789285Y-68527380D01*
X119075000Y-68527380D02*
X119075000Y-67527380D01*
X118979761Y-67670238D01*
X118884523Y-67765476D01*
X118789285Y-67813095D01*
%TO.C,J1*%
X101886666Y-8127380D02*
X101886666Y-8841666D01*
X101839047Y-8984523D01*
X101743809Y-9079761D01*
X101600952Y-9127380D01*
X101505714Y-9127380D01*
X102886666Y-9127380D02*
X102315238Y-9127380D01*
X102600952Y-9127380D02*
X102600952Y-8127380D01*
X102505714Y-8270238D01*
X102410476Y-8365476D01*
X102315238Y-8413095D01*
%TO.C,LD1*%
X117303333Y-41742380D02*
X116827142Y-41742380D01*
X116827142Y-40742380D01*
X117636666Y-41742380D02*
X117636666Y-40742380D01*
X117874761Y-40742380D01*
X118017619Y-40790000D01*
X118112857Y-40885238D01*
X118160476Y-40980476D01*
X118208095Y-41170952D01*
X118208095Y-41313809D01*
X118160476Y-41504285D01*
X118112857Y-41599523D01*
X118017619Y-41694761D01*
X117874761Y-41742380D01*
X117636666Y-41742380D01*
X119160476Y-41742380D02*
X118589047Y-41742380D01*
X118874761Y-41742380D02*
X118874761Y-40742380D01*
X118779523Y-40885238D01*
X118684285Y-40980476D01*
X118589047Y-41028095D01*
%TO.C,F1*%
X114491666Y-67941071D02*
X114158333Y-67941071D01*
X114158333Y-68464880D02*
X114158333Y-67464880D01*
X114634523Y-67464880D01*
X115539285Y-68464880D02*
X114967857Y-68464880D01*
X115253571Y-68464880D02*
X115253571Y-67464880D01*
X115158333Y-67607738D01*
X115063095Y-67702976D01*
X114967857Y-67750595D01*
%TO.C,U2*%
X153698095Y-8162380D02*
X153698095Y-8971904D01*
X153745714Y-9067142D01*
X153793333Y-9114761D01*
X153888571Y-9162380D01*
X154079047Y-9162380D01*
X154174285Y-9114761D01*
X154221904Y-9067142D01*
X154269523Y-8971904D01*
X154269523Y-8162380D01*
X154698095Y-8257619D02*
X154745714Y-8210000D01*
X154840952Y-8162380D01*
X155079047Y-8162380D01*
X155174285Y-8210000D01*
X155221904Y-8257619D01*
X155269523Y-8352857D01*
X155269523Y-8448095D01*
X155221904Y-8590952D01*
X154650476Y-9162380D01*
X155269523Y-9162380D01*
%TO.C,C15*%
X125447142Y-51492857D02*
X125494761Y-51540476D01*
X125542380Y-51683333D01*
X125542380Y-51778571D01*
X125494761Y-51921428D01*
X125399523Y-52016666D01*
X125304285Y-52064285D01*
X125113809Y-52111904D01*
X124970952Y-52111904D01*
X124780476Y-52064285D01*
X124685238Y-52016666D01*
X124590000Y-51921428D01*
X124542380Y-51778571D01*
X124542380Y-51683333D01*
X124590000Y-51540476D01*
X124637619Y-51492857D01*
X125542380Y-50540476D02*
X125542380Y-51111904D01*
X125542380Y-50826190D02*
X124542380Y-50826190D01*
X124685238Y-50921428D01*
X124780476Y-51016666D01*
X124828095Y-51111904D01*
X124542380Y-49635714D02*
X124542380Y-50111904D01*
X125018571Y-50159523D01*
X124970952Y-50111904D01*
X124923333Y-50016666D01*
X124923333Y-49778571D01*
X124970952Y-49683333D01*
X125018571Y-49635714D01*
X125113809Y-49588095D01*
X125351904Y-49588095D01*
X125447142Y-49635714D01*
X125494761Y-49683333D01*
X125542380Y-49778571D01*
X125542380Y-50016666D01*
X125494761Y-50111904D01*
X125447142Y-50159523D01*
%TO.C,Y1*%
X127863809Y-30106190D02*
X127863809Y-30582380D01*
X127530476Y-29582380D02*
X127863809Y-30106190D01*
X128197142Y-29582380D01*
X129054285Y-30582380D02*
X128482857Y-30582380D01*
X128768571Y-30582380D02*
X128768571Y-29582380D01*
X128673333Y-29725238D01*
X128578095Y-29820476D01*
X128482857Y-29868095D01*
%TO.C,Y2*%
X128373809Y-25146190D02*
X128373809Y-25622380D01*
X128040476Y-24622380D02*
X128373809Y-25146190D01*
X128707142Y-24622380D01*
X128992857Y-24717619D02*
X129040476Y-24670000D01*
X129135714Y-24622380D01*
X129373809Y-24622380D01*
X129469047Y-24670000D01*
X129516666Y-24717619D01*
X129564285Y-24812857D01*
X129564285Y-24908095D01*
X129516666Y-25050952D01*
X128945238Y-25622380D01*
X129564285Y-25622380D01*
%TO.C,R29*%
X141727142Y-19832380D02*
X141393809Y-19356190D01*
X141155714Y-19832380D02*
X141155714Y-18832380D01*
X141536666Y-18832380D01*
X141631904Y-18880000D01*
X141679523Y-18927619D01*
X141727142Y-19022857D01*
X141727142Y-19165714D01*
X141679523Y-19260952D01*
X141631904Y-19308571D01*
X141536666Y-19356190D01*
X141155714Y-19356190D01*
X142108095Y-18927619D02*
X142155714Y-18880000D01*
X142250952Y-18832380D01*
X142489047Y-18832380D01*
X142584285Y-18880000D01*
X142631904Y-18927619D01*
X142679523Y-19022857D01*
X142679523Y-19118095D01*
X142631904Y-19260952D01*
X142060476Y-19832380D01*
X142679523Y-19832380D01*
X143155714Y-19832380D02*
X143346190Y-19832380D01*
X143441428Y-19784761D01*
X143489047Y-19737142D01*
X143584285Y-19594285D01*
X143631904Y-19403809D01*
X143631904Y-19022857D01*
X143584285Y-18927619D01*
X143536666Y-18880000D01*
X143441428Y-18832380D01*
X143250952Y-18832380D01*
X143155714Y-18880000D01*
X143108095Y-18927619D01*
X143060476Y-19022857D01*
X143060476Y-19260952D01*
X143108095Y-19356190D01*
X143155714Y-19403809D01*
X143250952Y-19451428D01*
X143441428Y-19451428D01*
X143536666Y-19403809D01*
X143584285Y-19356190D01*
X143631904Y-19260952D01*
%TO.C,R27*%
X123077142Y-41832380D02*
X122743809Y-41356190D01*
X122505714Y-41832380D02*
X122505714Y-40832380D01*
X122886666Y-40832380D01*
X122981904Y-40880000D01*
X123029523Y-40927619D01*
X123077142Y-41022857D01*
X123077142Y-41165714D01*
X123029523Y-41260952D01*
X122981904Y-41308571D01*
X122886666Y-41356190D01*
X122505714Y-41356190D01*
X123458095Y-40927619D02*
X123505714Y-40880000D01*
X123600952Y-40832380D01*
X123839047Y-40832380D01*
X123934285Y-40880000D01*
X123981904Y-40927619D01*
X124029523Y-41022857D01*
X124029523Y-41118095D01*
X123981904Y-41260952D01*
X123410476Y-41832380D01*
X124029523Y-41832380D01*
X124362857Y-40832380D02*
X125029523Y-40832380D01*
X124600952Y-41832380D01*
%TO.C,R26*%
X120177142Y-41832380D02*
X119843809Y-41356190D01*
X119605714Y-41832380D02*
X119605714Y-40832380D01*
X119986666Y-40832380D01*
X120081904Y-40880000D01*
X120129523Y-40927619D01*
X120177142Y-41022857D01*
X120177142Y-41165714D01*
X120129523Y-41260952D01*
X120081904Y-41308571D01*
X119986666Y-41356190D01*
X119605714Y-41356190D01*
X120558095Y-40927619D02*
X120605714Y-40880000D01*
X120700952Y-40832380D01*
X120939047Y-40832380D01*
X121034285Y-40880000D01*
X121081904Y-40927619D01*
X121129523Y-41022857D01*
X121129523Y-41118095D01*
X121081904Y-41260952D01*
X120510476Y-41832380D01*
X121129523Y-41832380D01*
X121986666Y-40832380D02*
X121796190Y-40832380D01*
X121700952Y-40880000D01*
X121653333Y-40927619D01*
X121558095Y-41070476D01*
X121510476Y-41260952D01*
X121510476Y-41641904D01*
X121558095Y-41737142D01*
X121605714Y-41784761D01*
X121700952Y-41832380D01*
X121891428Y-41832380D01*
X121986666Y-41784761D01*
X122034285Y-41737142D01*
X122081904Y-41641904D01*
X122081904Y-41403809D01*
X122034285Y-41308571D01*
X121986666Y-41260952D01*
X121891428Y-41213333D01*
X121700952Y-41213333D01*
X121605714Y-41260952D01*
X121558095Y-41308571D01*
X121510476Y-41403809D01*
%TO.C,R25*%
X140367142Y-52222380D02*
X140033809Y-51746190D01*
X139795714Y-52222380D02*
X139795714Y-51222380D01*
X140176666Y-51222380D01*
X140271904Y-51270000D01*
X140319523Y-51317619D01*
X140367142Y-51412857D01*
X140367142Y-51555714D01*
X140319523Y-51650952D01*
X140271904Y-51698571D01*
X140176666Y-51746190D01*
X139795714Y-51746190D01*
X140748095Y-51317619D02*
X140795714Y-51270000D01*
X140890952Y-51222380D01*
X141129047Y-51222380D01*
X141224285Y-51270000D01*
X141271904Y-51317619D01*
X141319523Y-51412857D01*
X141319523Y-51508095D01*
X141271904Y-51650952D01*
X140700476Y-52222380D01*
X141319523Y-52222380D01*
X142224285Y-51222380D02*
X141748095Y-51222380D01*
X141700476Y-51698571D01*
X141748095Y-51650952D01*
X141843333Y-51603333D01*
X142081428Y-51603333D01*
X142176666Y-51650952D01*
X142224285Y-51698571D01*
X142271904Y-51793809D01*
X142271904Y-52031904D01*
X142224285Y-52127142D01*
X142176666Y-52174761D01*
X142081428Y-52222380D01*
X141843333Y-52222380D01*
X141748095Y-52174761D01*
X141700476Y-52127142D01*
%TO.C,R24*%
X137467142Y-52222380D02*
X137133809Y-51746190D01*
X136895714Y-52222380D02*
X136895714Y-51222380D01*
X137276666Y-51222380D01*
X137371904Y-51270000D01*
X137419523Y-51317619D01*
X137467142Y-51412857D01*
X137467142Y-51555714D01*
X137419523Y-51650952D01*
X137371904Y-51698571D01*
X137276666Y-51746190D01*
X136895714Y-51746190D01*
X137848095Y-51317619D02*
X137895714Y-51270000D01*
X137990952Y-51222380D01*
X138229047Y-51222380D01*
X138324285Y-51270000D01*
X138371904Y-51317619D01*
X138419523Y-51412857D01*
X138419523Y-51508095D01*
X138371904Y-51650952D01*
X137800476Y-52222380D01*
X138419523Y-52222380D01*
X139276666Y-51555714D02*
X139276666Y-52222380D01*
X139038571Y-51174761D02*
X138800476Y-51889047D01*
X139419523Y-51889047D01*
%TO.C,R23*%
X134447142Y-52262380D02*
X134113809Y-51786190D01*
X133875714Y-52262380D02*
X133875714Y-51262380D01*
X134256666Y-51262380D01*
X134351904Y-51310000D01*
X134399523Y-51357619D01*
X134447142Y-51452857D01*
X134447142Y-51595714D01*
X134399523Y-51690952D01*
X134351904Y-51738571D01*
X134256666Y-51786190D01*
X133875714Y-51786190D01*
X134828095Y-51357619D02*
X134875714Y-51310000D01*
X134970952Y-51262380D01*
X135209047Y-51262380D01*
X135304285Y-51310000D01*
X135351904Y-51357619D01*
X135399523Y-51452857D01*
X135399523Y-51548095D01*
X135351904Y-51690952D01*
X134780476Y-52262380D01*
X135399523Y-52262380D01*
X135732857Y-51262380D02*
X136351904Y-51262380D01*
X136018571Y-51643333D01*
X136161428Y-51643333D01*
X136256666Y-51690952D01*
X136304285Y-51738571D01*
X136351904Y-51833809D01*
X136351904Y-52071904D01*
X136304285Y-52167142D01*
X136256666Y-52214761D01*
X136161428Y-52262380D01*
X135875714Y-52262380D01*
X135780476Y-52214761D01*
X135732857Y-52167142D01*
%TO.C,R22*%
X153442380Y-24872857D02*
X152966190Y-25206190D01*
X153442380Y-25444285D02*
X152442380Y-25444285D01*
X152442380Y-25063333D01*
X152490000Y-24968095D01*
X152537619Y-24920476D01*
X152632857Y-24872857D01*
X152775714Y-24872857D01*
X152870952Y-24920476D01*
X152918571Y-24968095D01*
X152966190Y-25063333D01*
X152966190Y-25444285D01*
X152537619Y-24491904D02*
X152490000Y-24444285D01*
X152442380Y-24349047D01*
X152442380Y-24110952D01*
X152490000Y-24015714D01*
X152537619Y-23968095D01*
X152632857Y-23920476D01*
X152728095Y-23920476D01*
X152870952Y-23968095D01*
X153442380Y-24539523D01*
X153442380Y-23920476D01*
X152537619Y-23539523D02*
X152490000Y-23491904D01*
X152442380Y-23396666D01*
X152442380Y-23158571D01*
X152490000Y-23063333D01*
X152537619Y-23015714D01*
X152632857Y-22968095D01*
X152728095Y-22968095D01*
X152870952Y-23015714D01*
X153442380Y-23587142D01*
X153442380Y-22968095D01*
%TO.C,R21*%
X153042380Y-31262857D02*
X152566190Y-31596190D01*
X153042380Y-31834285D02*
X152042380Y-31834285D01*
X152042380Y-31453333D01*
X152090000Y-31358095D01*
X152137619Y-31310476D01*
X152232857Y-31262857D01*
X152375714Y-31262857D01*
X152470952Y-31310476D01*
X152518571Y-31358095D01*
X152566190Y-31453333D01*
X152566190Y-31834285D01*
X152137619Y-30881904D02*
X152090000Y-30834285D01*
X152042380Y-30739047D01*
X152042380Y-30500952D01*
X152090000Y-30405714D01*
X152137619Y-30358095D01*
X152232857Y-30310476D01*
X152328095Y-30310476D01*
X152470952Y-30358095D01*
X153042380Y-30929523D01*
X153042380Y-30310476D01*
X153042380Y-29358095D02*
X153042380Y-29929523D01*
X153042380Y-29643809D02*
X152042380Y-29643809D01*
X152185238Y-29739047D01*
X152280476Y-29834285D01*
X152328095Y-29929523D01*
%TO.C,R20*%
X152832380Y-37422857D02*
X152356190Y-37756190D01*
X152832380Y-37994285D02*
X151832380Y-37994285D01*
X151832380Y-37613333D01*
X151880000Y-37518095D01*
X151927619Y-37470476D01*
X152022857Y-37422857D01*
X152165714Y-37422857D01*
X152260952Y-37470476D01*
X152308571Y-37518095D01*
X152356190Y-37613333D01*
X152356190Y-37994285D01*
X151927619Y-37041904D02*
X151880000Y-36994285D01*
X151832380Y-36899047D01*
X151832380Y-36660952D01*
X151880000Y-36565714D01*
X151927619Y-36518095D01*
X152022857Y-36470476D01*
X152118095Y-36470476D01*
X152260952Y-36518095D01*
X152832380Y-37089523D01*
X152832380Y-36470476D01*
X151832380Y-35851428D02*
X151832380Y-35756190D01*
X151880000Y-35660952D01*
X151927619Y-35613333D01*
X152022857Y-35565714D01*
X152213333Y-35518095D01*
X152451428Y-35518095D01*
X152641904Y-35565714D01*
X152737142Y-35613333D01*
X152784761Y-35660952D01*
X152832380Y-35756190D01*
X152832380Y-35851428D01*
X152784761Y-35946666D01*
X152737142Y-35994285D01*
X152641904Y-36041904D01*
X152451428Y-36089523D01*
X152213333Y-36089523D01*
X152022857Y-36041904D01*
X151927619Y-35994285D01*
X151880000Y-35946666D01*
X151832380Y-35851428D01*
%TO.C,R19*%
X156617142Y-44322380D02*
X156283809Y-43846190D01*
X156045714Y-44322380D02*
X156045714Y-43322380D01*
X156426666Y-43322380D01*
X156521904Y-43370000D01*
X156569523Y-43417619D01*
X156617142Y-43512857D01*
X156617142Y-43655714D01*
X156569523Y-43750952D01*
X156521904Y-43798571D01*
X156426666Y-43846190D01*
X156045714Y-43846190D01*
X157569523Y-44322380D02*
X156998095Y-44322380D01*
X157283809Y-44322380D02*
X157283809Y-43322380D01*
X157188571Y-43465238D01*
X157093333Y-43560476D01*
X156998095Y-43608095D01*
X158045714Y-44322380D02*
X158236190Y-44322380D01*
X158331428Y-44274761D01*
X158379047Y-44227142D01*
X158474285Y-44084285D01*
X158521904Y-43893809D01*
X158521904Y-43512857D01*
X158474285Y-43417619D01*
X158426666Y-43370000D01*
X158331428Y-43322380D01*
X158140952Y-43322380D01*
X158045714Y-43370000D01*
X157998095Y-43417619D01*
X157950476Y-43512857D01*
X157950476Y-43750952D01*
X157998095Y-43846190D01*
X158045714Y-43893809D01*
X158140952Y-43941428D01*
X158331428Y-43941428D01*
X158426666Y-43893809D01*
X158474285Y-43846190D01*
X158521904Y-43750952D01*
%TO.C,R18*%
X150077142Y-44372380D02*
X149743809Y-43896190D01*
X149505714Y-44372380D02*
X149505714Y-43372380D01*
X149886666Y-43372380D01*
X149981904Y-43420000D01*
X150029523Y-43467619D01*
X150077142Y-43562857D01*
X150077142Y-43705714D01*
X150029523Y-43800952D01*
X149981904Y-43848571D01*
X149886666Y-43896190D01*
X149505714Y-43896190D01*
X151029523Y-44372380D02*
X150458095Y-44372380D01*
X150743809Y-44372380D02*
X150743809Y-43372380D01*
X150648571Y-43515238D01*
X150553333Y-43610476D01*
X150458095Y-43658095D01*
X151600952Y-43800952D02*
X151505714Y-43753333D01*
X151458095Y-43705714D01*
X151410476Y-43610476D01*
X151410476Y-43562857D01*
X151458095Y-43467619D01*
X151505714Y-43420000D01*
X151600952Y-43372380D01*
X151791428Y-43372380D01*
X151886666Y-43420000D01*
X151934285Y-43467619D01*
X151981904Y-43562857D01*
X151981904Y-43610476D01*
X151934285Y-43705714D01*
X151886666Y-43753333D01*
X151791428Y-43800952D01*
X151600952Y-43800952D01*
X151505714Y-43848571D01*
X151458095Y-43896190D01*
X151410476Y-43991428D01*
X151410476Y-44181904D01*
X151458095Y-44277142D01*
X151505714Y-44324761D01*
X151600952Y-44372380D01*
X151791428Y-44372380D01*
X151886666Y-44324761D01*
X151934285Y-44277142D01*
X151981904Y-44181904D01*
X151981904Y-43991428D01*
X151934285Y-43896190D01*
X151886666Y-43848571D01*
X151791428Y-43800952D01*
%TO.C,R17*%
X143287142Y-44192380D02*
X142953809Y-43716190D01*
X142715714Y-44192380D02*
X142715714Y-43192380D01*
X143096666Y-43192380D01*
X143191904Y-43240000D01*
X143239523Y-43287619D01*
X143287142Y-43382857D01*
X143287142Y-43525714D01*
X143239523Y-43620952D01*
X143191904Y-43668571D01*
X143096666Y-43716190D01*
X142715714Y-43716190D01*
X144239523Y-44192380D02*
X143668095Y-44192380D01*
X143953809Y-44192380D02*
X143953809Y-43192380D01*
X143858571Y-43335238D01*
X143763333Y-43430476D01*
X143668095Y-43478095D01*
X144572857Y-43192380D02*
X145239523Y-43192380D01*
X144810952Y-44192380D01*
%TO.C,R16*%
X136457142Y-44032380D02*
X136123809Y-43556190D01*
X135885714Y-44032380D02*
X135885714Y-43032380D01*
X136266666Y-43032380D01*
X136361904Y-43080000D01*
X136409523Y-43127619D01*
X136457142Y-43222857D01*
X136457142Y-43365714D01*
X136409523Y-43460952D01*
X136361904Y-43508571D01*
X136266666Y-43556190D01*
X135885714Y-43556190D01*
X137409523Y-44032380D02*
X136838095Y-44032380D01*
X137123809Y-44032380D02*
X137123809Y-43032380D01*
X137028571Y-43175238D01*
X136933333Y-43270476D01*
X136838095Y-43318095D01*
X138266666Y-43032380D02*
X138076190Y-43032380D01*
X137980952Y-43080000D01*
X137933333Y-43127619D01*
X137838095Y-43270476D01*
X137790476Y-43460952D01*
X137790476Y-43841904D01*
X137838095Y-43937142D01*
X137885714Y-43984761D01*
X137980952Y-44032380D01*
X138171428Y-44032380D01*
X138266666Y-43984761D01*
X138314285Y-43937142D01*
X138361904Y-43841904D01*
X138361904Y-43603809D01*
X138314285Y-43508571D01*
X138266666Y-43460952D01*
X138171428Y-43413333D01*
X137980952Y-43413333D01*
X137885714Y-43460952D01*
X137838095Y-43508571D01*
X137790476Y-43603809D01*
%TO.C,R15*%
X129607142Y-43902380D02*
X129273809Y-43426190D01*
X129035714Y-43902380D02*
X129035714Y-42902380D01*
X129416666Y-42902380D01*
X129511904Y-42950000D01*
X129559523Y-42997619D01*
X129607142Y-43092857D01*
X129607142Y-43235714D01*
X129559523Y-43330952D01*
X129511904Y-43378571D01*
X129416666Y-43426190D01*
X129035714Y-43426190D01*
X130559523Y-43902380D02*
X129988095Y-43902380D01*
X130273809Y-43902380D02*
X130273809Y-42902380D01*
X130178571Y-43045238D01*
X130083333Y-43140476D01*
X129988095Y-43188095D01*
X131464285Y-42902380D02*
X130988095Y-42902380D01*
X130940476Y-43378571D01*
X130988095Y-43330952D01*
X131083333Y-43283333D01*
X131321428Y-43283333D01*
X131416666Y-43330952D01*
X131464285Y-43378571D01*
X131511904Y-43473809D01*
X131511904Y-43711904D01*
X131464285Y-43807142D01*
X131416666Y-43854761D01*
X131321428Y-43902380D01*
X131083333Y-43902380D01*
X130988095Y-43854761D01*
X130940476Y-43807142D01*
%TO.C,R14*%
X151602380Y-28082857D02*
X151126190Y-28416190D01*
X151602380Y-28654285D02*
X150602380Y-28654285D01*
X150602380Y-28273333D01*
X150650000Y-28178095D01*
X150697619Y-28130476D01*
X150792857Y-28082857D01*
X150935714Y-28082857D01*
X151030952Y-28130476D01*
X151078571Y-28178095D01*
X151126190Y-28273333D01*
X151126190Y-28654285D01*
X151602380Y-27130476D02*
X151602380Y-27701904D01*
X151602380Y-27416190D02*
X150602380Y-27416190D01*
X150745238Y-27511428D01*
X150840476Y-27606666D01*
X150888095Y-27701904D01*
X150935714Y-26273333D02*
X151602380Y-26273333D01*
X150554761Y-26511428D02*
X151269047Y-26749523D01*
X151269047Y-26130476D01*
%TO.C,R13*%
X151124880Y-34312857D02*
X150648690Y-34646190D01*
X151124880Y-34884285D02*
X150124880Y-34884285D01*
X150124880Y-34503333D01*
X150172500Y-34408095D01*
X150220119Y-34360476D01*
X150315357Y-34312857D01*
X150458214Y-34312857D01*
X150553452Y-34360476D01*
X150601071Y-34408095D01*
X150648690Y-34503333D01*
X150648690Y-34884285D01*
X151124880Y-33360476D02*
X151124880Y-33931904D01*
X151124880Y-33646190D02*
X150124880Y-33646190D01*
X150267738Y-33741428D01*
X150362976Y-33836666D01*
X150410595Y-33931904D01*
X150124880Y-33027142D02*
X150124880Y-32408095D01*
X150505833Y-32741428D01*
X150505833Y-32598571D01*
X150553452Y-32503333D01*
X150601071Y-32455714D01*
X150696309Y-32408095D01*
X150934404Y-32408095D01*
X151029642Y-32455714D01*
X151077261Y-32503333D01*
X151124880Y-32598571D01*
X151124880Y-32884285D01*
X151077261Y-32979523D01*
X151029642Y-33027142D01*
%TO.C,R12*%
X150854880Y-40502856D02*
X150378690Y-40836189D01*
X150854880Y-41074284D02*
X149854880Y-41074284D01*
X149854880Y-40693332D01*
X149902500Y-40598094D01*
X149950119Y-40550475D01*
X150045357Y-40502856D01*
X150188214Y-40502856D01*
X150283452Y-40550475D01*
X150331071Y-40598094D01*
X150378690Y-40693332D01*
X150378690Y-41074284D01*
X150854880Y-39550475D02*
X150854880Y-40121903D01*
X150854880Y-39836189D02*
X149854880Y-39836189D01*
X149997738Y-39931427D01*
X150092976Y-40026665D01*
X150140595Y-40121903D01*
X149950119Y-39169522D02*
X149902500Y-39121903D01*
X149854880Y-39026665D01*
X149854880Y-38788570D01*
X149902500Y-38693332D01*
X149950119Y-38645713D01*
X150045357Y-38598094D01*
X150140595Y-38598094D01*
X150283452Y-38645713D01*
X150854880Y-39217141D01*
X150854880Y-38598094D01*
%TO.C,R11*%
X153967142Y-42644880D02*
X153633809Y-42168690D01*
X153395714Y-42644880D02*
X153395714Y-41644880D01*
X153776666Y-41644880D01*
X153871904Y-41692500D01*
X153919523Y-41740119D01*
X153967142Y-41835357D01*
X153967142Y-41978214D01*
X153919523Y-42073452D01*
X153871904Y-42121071D01*
X153776666Y-42168690D01*
X153395714Y-42168690D01*
X154919523Y-42644880D02*
X154348095Y-42644880D01*
X154633809Y-42644880D02*
X154633809Y-41644880D01*
X154538571Y-41787738D01*
X154443333Y-41882976D01*
X154348095Y-41930595D01*
X155871904Y-42644880D02*
X155300476Y-42644880D01*
X155586190Y-42644880D02*
X155586190Y-41644880D01*
X155490952Y-41787738D01*
X155395714Y-41882976D01*
X155300476Y-41930595D01*
%TO.C,R10*%
X147257142Y-42612380D02*
X146923809Y-42136190D01*
X146685714Y-42612380D02*
X146685714Y-41612380D01*
X147066666Y-41612380D01*
X147161904Y-41660000D01*
X147209523Y-41707619D01*
X147257142Y-41802857D01*
X147257142Y-41945714D01*
X147209523Y-42040952D01*
X147161904Y-42088571D01*
X147066666Y-42136190D01*
X146685714Y-42136190D01*
X148209523Y-42612380D02*
X147638095Y-42612380D01*
X147923809Y-42612380D02*
X147923809Y-41612380D01*
X147828571Y-41755238D01*
X147733333Y-41850476D01*
X147638095Y-41898095D01*
X148828571Y-41612380D02*
X148923809Y-41612380D01*
X149019047Y-41660000D01*
X149066666Y-41707619D01*
X149114285Y-41802857D01*
X149161904Y-41993333D01*
X149161904Y-42231428D01*
X149114285Y-42421904D01*
X149066666Y-42517142D01*
X149019047Y-42564761D01*
X148923809Y-42612380D01*
X148828571Y-42612380D01*
X148733333Y-42564761D01*
X148685714Y-42517142D01*
X148638095Y-42421904D01*
X148590476Y-42231428D01*
X148590476Y-41993333D01*
X148638095Y-41802857D01*
X148685714Y-41707619D01*
X148733333Y-41660000D01*
X148828571Y-41612380D01*
%TO.C,R9*%
X140723333Y-42514880D02*
X140390000Y-42038690D01*
X140151904Y-42514880D02*
X140151904Y-41514880D01*
X140532857Y-41514880D01*
X140628095Y-41562500D01*
X140675714Y-41610119D01*
X140723333Y-41705357D01*
X140723333Y-41848214D01*
X140675714Y-41943452D01*
X140628095Y-41991071D01*
X140532857Y-42038690D01*
X140151904Y-42038690D01*
X141199523Y-42514880D02*
X141390000Y-42514880D01*
X141485238Y-42467261D01*
X141532857Y-42419642D01*
X141628095Y-42276785D01*
X141675714Y-42086309D01*
X141675714Y-41705357D01*
X141628095Y-41610119D01*
X141580476Y-41562500D01*
X141485238Y-41514880D01*
X141294761Y-41514880D01*
X141199523Y-41562500D01*
X141151904Y-41610119D01*
X141104285Y-41705357D01*
X141104285Y-41943452D01*
X141151904Y-42038690D01*
X141199523Y-42086309D01*
X141294761Y-42133928D01*
X141485238Y-42133928D01*
X141580476Y-42086309D01*
X141628095Y-42038690D01*
X141675714Y-41943452D01*
%TO.C,R8*%
X133873333Y-42382380D02*
X133540000Y-41906190D01*
X133301904Y-42382380D02*
X133301904Y-41382380D01*
X133682857Y-41382380D01*
X133778095Y-41430000D01*
X133825714Y-41477619D01*
X133873333Y-41572857D01*
X133873333Y-41715714D01*
X133825714Y-41810952D01*
X133778095Y-41858571D01*
X133682857Y-41906190D01*
X133301904Y-41906190D01*
X134444761Y-41810952D02*
X134349523Y-41763333D01*
X134301904Y-41715714D01*
X134254285Y-41620476D01*
X134254285Y-41572857D01*
X134301904Y-41477619D01*
X134349523Y-41430000D01*
X134444761Y-41382380D01*
X134635238Y-41382380D01*
X134730476Y-41430000D01*
X134778095Y-41477619D01*
X134825714Y-41572857D01*
X134825714Y-41620476D01*
X134778095Y-41715714D01*
X134730476Y-41763333D01*
X134635238Y-41810952D01*
X134444761Y-41810952D01*
X134349523Y-41858571D01*
X134301904Y-41906190D01*
X134254285Y-42001428D01*
X134254285Y-42191904D01*
X134301904Y-42287142D01*
X134349523Y-42334761D01*
X134444761Y-42382380D01*
X134635238Y-42382380D01*
X134730476Y-42334761D01*
X134778095Y-42287142D01*
X134825714Y-42191904D01*
X134825714Y-42001428D01*
X134778095Y-41906190D01*
X134730476Y-41858571D01*
X134635238Y-41810952D01*
%TO.C,R7*%
X127213333Y-42154880D02*
X126880000Y-41678690D01*
X126641904Y-42154880D02*
X126641904Y-41154880D01*
X127022857Y-41154880D01*
X127118095Y-41202500D01*
X127165714Y-41250119D01*
X127213333Y-41345357D01*
X127213333Y-41488214D01*
X127165714Y-41583452D01*
X127118095Y-41631071D01*
X127022857Y-41678690D01*
X126641904Y-41678690D01*
X127546666Y-41154880D02*
X128213333Y-41154880D01*
X127784761Y-42154880D01*
%TO.C,R6*%
X121933333Y-30942380D02*
X121600000Y-30466190D01*
X121361904Y-30942380D02*
X121361904Y-29942380D01*
X121742857Y-29942380D01*
X121838095Y-29990000D01*
X121885714Y-30037619D01*
X121933333Y-30132857D01*
X121933333Y-30275714D01*
X121885714Y-30370952D01*
X121838095Y-30418571D01*
X121742857Y-30466190D01*
X121361904Y-30466190D01*
X122790476Y-29942380D02*
X122600000Y-29942380D01*
X122504761Y-29990000D01*
X122457142Y-30037619D01*
X122361904Y-30180476D01*
X122314285Y-30370952D01*
X122314285Y-30751904D01*
X122361904Y-30847142D01*
X122409523Y-30894761D01*
X122504761Y-30942380D01*
X122695238Y-30942380D01*
X122790476Y-30894761D01*
X122838095Y-30847142D01*
X122885714Y-30751904D01*
X122885714Y-30513809D01*
X122838095Y-30418571D01*
X122790476Y-30370952D01*
X122695238Y-30323333D01*
X122504761Y-30323333D01*
X122409523Y-30370952D01*
X122361904Y-30418571D01*
X122314285Y-30513809D01*
%TO.C,R5*%
X121933333Y-27592380D02*
X121600000Y-27116190D01*
X121361904Y-27592380D02*
X121361904Y-26592380D01*
X121742857Y-26592380D01*
X121838095Y-26640000D01*
X121885714Y-26687619D01*
X121933333Y-26782857D01*
X121933333Y-26925714D01*
X121885714Y-27020952D01*
X121838095Y-27068571D01*
X121742857Y-27116190D01*
X121361904Y-27116190D01*
X122838095Y-26592380D02*
X122361904Y-26592380D01*
X122314285Y-27068571D01*
X122361904Y-27020952D01*
X122457142Y-26973333D01*
X122695238Y-26973333D01*
X122790476Y-27020952D01*
X122838095Y-27068571D01*
X122885714Y-27163809D01*
X122885714Y-27401904D01*
X122838095Y-27497142D01*
X122790476Y-27544761D01*
X122695238Y-27592380D01*
X122457142Y-27592380D01*
X122361904Y-27544761D01*
X122314285Y-27497142D01*
%TO.C,R4*%
X121983333Y-23992380D02*
X121650000Y-23516190D01*
X121411904Y-23992380D02*
X121411904Y-22992380D01*
X121792857Y-22992380D01*
X121888095Y-23040000D01*
X121935714Y-23087619D01*
X121983333Y-23182857D01*
X121983333Y-23325714D01*
X121935714Y-23420952D01*
X121888095Y-23468571D01*
X121792857Y-23516190D01*
X121411904Y-23516190D01*
X122840476Y-23325714D02*
X122840476Y-23992380D01*
X122602380Y-22944761D02*
X122364285Y-23659047D01*
X122983333Y-23659047D01*
%TO.C,R3*%
X125563333Y-35942380D02*
X125230000Y-35466190D01*
X124991904Y-35942380D02*
X124991904Y-34942380D01*
X125372857Y-34942380D01*
X125468095Y-34990000D01*
X125515714Y-35037619D01*
X125563333Y-35132857D01*
X125563333Y-35275714D01*
X125515714Y-35370952D01*
X125468095Y-35418571D01*
X125372857Y-35466190D01*
X124991904Y-35466190D01*
X125896666Y-34942380D02*
X126515714Y-34942380D01*
X126182380Y-35323333D01*
X126325238Y-35323333D01*
X126420476Y-35370952D01*
X126468095Y-35418571D01*
X126515714Y-35513809D01*
X126515714Y-35751904D01*
X126468095Y-35847142D01*
X126420476Y-35894761D01*
X126325238Y-35942380D01*
X126039523Y-35942380D01*
X125944285Y-35894761D01*
X125896666Y-35847142D01*
%TO.C,SW1*%
X108454761Y-45633333D02*
X108502380Y-45490476D01*
X108502380Y-45252380D01*
X108454761Y-45157142D01*
X108407142Y-45109523D01*
X108311904Y-45061904D01*
X108216666Y-45061904D01*
X108121428Y-45109523D01*
X108073809Y-45157142D01*
X108026190Y-45252380D01*
X107978571Y-45442857D01*
X107930952Y-45538095D01*
X107883333Y-45585714D01*
X107788095Y-45633333D01*
X107692857Y-45633333D01*
X107597619Y-45585714D01*
X107550000Y-45538095D01*
X107502380Y-45442857D01*
X107502380Y-45204761D01*
X107550000Y-45061904D01*
X107502380Y-44728571D02*
X108502380Y-44490476D01*
X107788095Y-44300000D01*
X108502380Y-44109523D01*
X107502380Y-43871428D01*
X108502380Y-42966666D02*
X108502380Y-43538095D01*
X108502380Y-43252380D02*
X107502380Y-43252380D01*
X107645238Y-43347619D01*
X107740476Y-43442857D01*
X107788095Y-43538095D01*
X105302380Y-35961904D02*
X104302380Y-35961904D01*
X105302380Y-35390476D02*
X104730952Y-35819047D01*
X104302380Y-35390476D02*
X104873809Y-35961904D01*
%TO.C,U1*%
X136488095Y-35002380D02*
X136488095Y-35811904D01*
X136535714Y-35907142D01*
X136583333Y-35954761D01*
X136678571Y-36002380D01*
X136869047Y-36002380D01*
X136964285Y-35954761D01*
X137011904Y-35907142D01*
X137059523Y-35811904D01*
X137059523Y-35002380D01*
X138059523Y-36002380D02*
X137488095Y-36002380D01*
X137773809Y-36002380D02*
X137773809Y-35002380D01*
X137678571Y-35145238D01*
X137583333Y-35240476D01*
X137488095Y-35288095D01*
%TO.C,SS1*%
X113661904Y-55484761D02*
X113804761Y-55532380D01*
X114042857Y-55532380D01*
X114138095Y-55484761D01*
X114185714Y-55437142D01*
X114233333Y-55341904D01*
X114233333Y-55246666D01*
X114185714Y-55151428D01*
X114138095Y-55103809D01*
X114042857Y-55056190D01*
X113852380Y-55008571D01*
X113757142Y-54960952D01*
X113709523Y-54913333D01*
X113661904Y-54818095D01*
X113661904Y-54722857D01*
X113709523Y-54627619D01*
X113757142Y-54580000D01*
X113852380Y-54532380D01*
X114090476Y-54532380D01*
X114233333Y-54580000D01*
X114614285Y-55484761D02*
X114757142Y-55532380D01*
X114995238Y-55532380D01*
X115090476Y-55484761D01*
X115138095Y-55437142D01*
X115185714Y-55341904D01*
X115185714Y-55246666D01*
X115138095Y-55151428D01*
X115090476Y-55103809D01*
X114995238Y-55056190D01*
X114804761Y-55008571D01*
X114709523Y-54960952D01*
X114661904Y-54913333D01*
X114614285Y-54818095D01*
X114614285Y-54722857D01*
X114661904Y-54627619D01*
X114709523Y-54580000D01*
X114804761Y-54532380D01*
X115042857Y-54532380D01*
X115185714Y-54580000D01*
X116138095Y-55532380D02*
X115566666Y-55532380D01*
X115852380Y-55532380D02*
X115852380Y-54532380D01*
X115757142Y-54675238D01*
X115661904Y-54770476D01*
X115566666Y-54818095D01*
%TO.C,RED1*%
X116683452Y-24322380D02*
X116350119Y-23846190D01*
X116112023Y-24322380D02*
X116112023Y-23322380D01*
X116492976Y-23322380D01*
X116588214Y-23370000D01*
X116635833Y-23417619D01*
X116683452Y-23512857D01*
X116683452Y-23655714D01*
X116635833Y-23750952D01*
X116588214Y-23798571D01*
X116492976Y-23846190D01*
X116112023Y-23846190D01*
X117112023Y-23798571D02*
X117445357Y-23798571D01*
X117588214Y-24322380D02*
X117112023Y-24322380D01*
X117112023Y-23322380D01*
X117588214Y-23322380D01*
X118016785Y-24322380D02*
X118016785Y-23322380D01*
X118254880Y-23322380D01*
X118397738Y-23370000D01*
X118492976Y-23465238D01*
X118540595Y-23560476D01*
X118588214Y-23750952D01*
X118588214Y-23893809D01*
X118540595Y-24084285D01*
X118492976Y-24179523D01*
X118397738Y-24274761D01*
X118254880Y-24322380D01*
X118016785Y-24322380D01*
X119540595Y-24322380D02*
X118969166Y-24322380D01*
X119254880Y-24322380D02*
X119254880Y-23322380D01*
X119159642Y-23465238D01*
X119064404Y-23560476D01*
X118969166Y-23608095D01*
%TO.C,R2*%
X132543333Y-52252380D02*
X132210000Y-51776190D01*
X131971904Y-52252380D02*
X131971904Y-51252380D01*
X132352857Y-51252380D01*
X132448095Y-51300000D01*
X132495714Y-51347619D01*
X132543333Y-51442857D01*
X132543333Y-51585714D01*
X132495714Y-51680952D01*
X132448095Y-51728571D01*
X132352857Y-51776190D01*
X131971904Y-51776190D01*
X132924285Y-51347619D02*
X132971904Y-51300000D01*
X133067142Y-51252380D01*
X133305238Y-51252380D01*
X133400476Y-51300000D01*
X133448095Y-51347619D01*
X133495714Y-51442857D01*
X133495714Y-51538095D01*
X133448095Y-51680952D01*
X132876666Y-52252380D01*
X133495714Y-52252380D01*
%TO.C,R1*%
X130143333Y-52352380D02*
X129810000Y-51876190D01*
X129571904Y-52352380D02*
X129571904Y-51352380D01*
X129952857Y-51352380D01*
X130048095Y-51400000D01*
X130095714Y-51447619D01*
X130143333Y-51542857D01*
X130143333Y-51685714D01*
X130095714Y-51780952D01*
X130048095Y-51828571D01*
X129952857Y-51876190D01*
X129571904Y-51876190D01*
X131095714Y-52352380D02*
X130524285Y-52352380D01*
X130810000Y-52352380D02*
X130810000Y-51352380D01*
X130714761Y-51495238D01*
X130619523Y-51590476D01*
X130524285Y-51638095D01*
%TO.C,Q8*%
D15*
X157582380Y-23944285D02*
X157534761Y-23910000D01*
X157487142Y-23841428D01*
X157415714Y-23738571D01*
X157368095Y-23704285D01*
X157320476Y-23704285D01*
X157344285Y-23875714D02*
X157296666Y-23841428D01*
X157249047Y-23772857D01*
X157225238Y-23635714D01*
X157225238Y-23395714D01*
X157249047Y-23258571D01*
X157296666Y-23190000D01*
X157344285Y-23155714D01*
X157439523Y-23155714D01*
X157487142Y-23190000D01*
X157534761Y-23258571D01*
X157558571Y-23395714D01*
X157558571Y-23635714D01*
X157534761Y-23772857D01*
X157487142Y-23841428D01*
X157439523Y-23875714D01*
X157344285Y-23875714D01*
X157844285Y-23464285D02*
X157796666Y-23430000D01*
X157772857Y-23395714D01*
X157749047Y-23327142D01*
X157749047Y-23292857D01*
X157772857Y-23224285D01*
X157796666Y-23190000D01*
X157844285Y-23155714D01*
X157939523Y-23155714D01*
X157987142Y-23190000D01*
X158010952Y-23224285D01*
X158034761Y-23292857D01*
X158034761Y-23327142D01*
X158010952Y-23395714D01*
X157987142Y-23430000D01*
X157939523Y-23464285D01*
X157844285Y-23464285D01*
X157796666Y-23498571D01*
X157772857Y-23532857D01*
X157749047Y-23601428D01*
X157749047Y-23738571D01*
X157772857Y-23807142D01*
X157796666Y-23841428D01*
X157844285Y-23875714D01*
X157939523Y-23875714D01*
X157987142Y-23841428D01*
X158010952Y-23807142D01*
X158034761Y-23738571D01*
X158034761Y-23601428D01*
X158010952Y-23532857D01*
X157987142Y-23498571D01*
X157939523Y-23464285D01*
%TO.C,Q7*%
X157182380Y-30344285D02*
X157134761Y-30310000D01*
X157087142Y-30241428D01*
X157015714Y-30138571D01*
X156968095Y-30104285D01*
X156920476Y-30104285D01*
X156944285Y-30275714D02*
X156896666Y-30241428D01*
X156849047Y-30172857D01*
X156825238Y-30035714D01*
X156825238Y-29795714D01*
X156849047Y-29658571D01*
X156896666Y-29590000D01*
X156944285Y-29555714D01*
X157039523Y-29555714D01*
X157087142Y-29590000D01*
X157134761Y-29658571D01*
X157158571Y-29795714D01*
X157158571Y-30035714D01*
X157134761Y-30172857D01*
X157087142Y-30241428D01*
X157039523Y-30275714D01*
X156944285Y-30275714D01*
X157325238Y-29555714D02*
X157658571Y-29555714D01*
X157444285Y-30275714D01*
%TO.C,Q6*%
X157082380Y-36544285D02*
X157034761Y-36510000D01*
X156987142Y-36441428D01*
X156915714Y-36338571D01*
X156868095Y-36304285D01*
X156820476Y-36304285D01*
X156844285Y-36475714D02*
X156796666Y-36441428D01*
X156749047Y-36372857D01*
X156725238Y-36235714D01*
X156725238Y-35995714D01*
X156749047Y-35858571D01*
X156796666Y-35790000D01*
X156844285Y-35755714D01*
X156939523Y-35755714D01*
X156987142Y-35790000D01*
X157034761Y-35858571D01*
X157058571Y-35995714D01*
X157058571Y-36235714D01*
X157034761Y-36372857D01*
X156987142Y-36441428D01*
X156939523Y-36475714D01*
X156844285Y-36475714D01*
X157487142Y-35755714D02*
X157391904Y-35755714D01*
X157344285Y-35790000D01*
X157320476Y-35824285D01*
X157272857Y-35927142D01*
X157249047Y-36064285D01*
X157249047Y-36338571D01*
X157272857Y-36407142D01*
X157296666Y-36441428D01*
X157344285Y-36475714D01*
X157439523Y-36475714D01*
X157487142Y-36441428D01*
X157510952Y-36407142D01*
X157534761Y-36338571D01*
X157534761Y-36167142D01*
X157510952Y-36098571D01*
X157487142Y-36064285D01*
X157439523Y-36030000D01*
X157344285Y-36030000D01*
X157296666Y-36064285D01*
X157272857Y-36098571D01*
X157249047Y-36167142D01*
%TO.C,Q5*%
X153012380Y-49224285D02*
X152964761Y-49190000D01*
X152917142Y-49121428D01*
X152845714Y-49018571D01*
X152798095Y-48984285D01*
X152750476Y-48984285D01*
X152774285Y-49155714D02*
X152726666Y-49121428D01*
X152679047Y-49052857D01*
X152655238Y-48915714D01*
X152655238Y-48675714D01*
X152679047Y-48538571D01*
X152726666Y-48470000D01*
X152774285Y-48435714D01*
X152869523Y-48435714D01*
X152917142Y-48470000D01*
X152964761Y-48538571D01*
X152988571Y-48675714D01*
X152988571Y-48915714D01*
X152964761Y-49052857D01*
X152917142Y-49121428D01*
X152869523Y-49155714D01*
X152774285Y-49155714D01*
X153440952Y-48435714D02*
X153202857Y-48435714D01*
X153179047Y-48778571D01*
X153202857Y-48744285D01*
X153250476Y-48710000D01*
X153369523Y-48710000D01*
X153417142Y-48744285D01*
X153440952Y-48778571D01*
X153464761Y-48847142D01*
X153464761Y-49018571D01*
X153440952Y-49087142D01*
X153417142Y-49121428D01*
X153369523Y-49155714D01*
X153250476Y-49155714D01*
X153202857Y-49121428D01*
X153179047Y-49087142D01*
%TO.C,Q4*%
X146492380Y-48904285D02*
X146444761Y-48870000D01*
X146397142Y-48801428D01*
X146325714Y-48698571D01*
X146278095Y-48664285D01*
X146230476Y-48664285D01*
X146254285Y-48835714D02*
X146206666Y-48801428D01*
X146159047Y-48732857D01*
X146135238Y-48595714D01*
X146135238Y-48355714D01*
X146159047Y-48218571D01*
X146206666Y-48150000D01*
X146254285Y-48115714D01*
X146349523Y-48115714D01*
X146397142Y-48150000D01*
X146444761Y-48218571D01*
X146468571Y-48355714D01*
X146468571Y-48595714D01*
X146444761Y-48732857D01*
X146397142Y-48801428D01*
X146349523Y-48835714D01*
X146254285Y-48835714D01*
X146897142Y-48355714D02*
X146897142Y-48835714D01*
X146778095Y-48081428D02*
X146659047Y-48595714D01*
X146968571Y-48595714D01*
%TO.C,Q3*%
X139762380Y-48764285D02*
X139714761Y-48730000D01*
X139667142Y-48661428D01*
X139595714Y-48558571D01*
X139548095Y-48524285D01*
X139500476Y-48524285D01*
X139524285Y-48695714D02*
X139476666Y-48661428D01*
X139429047Y-48592857D01*
X139405238Y-48455714D01*
X139405238Y-48215714D01*
X139429047Y-48078571D01*
X139476666Y-48010000D01*
X139524285Y-47975714D01*
X139619523Y-47975714D01*
X139667142Y-48010000D01*
X139714761Y-48078571D01*
X139738571Y-48215714D01*
X139738571Y-48455714D01*
X139714761Y-48592857D01*
X139667142Y-48661428D01*
X139619523Y-48695714D01*
X139524285Y-48695714D01*
X139905238Y-47975714D02*
X140214761Y-47975714D01*
X140048095Y-48250000D01*
X140119523Y-48250000D01*
X140167142Y-48284285D01*
X140190952Y-48318571D01*
X140214761Y-48387142D01*
X140214761Y-48558571D01*
X140190952Y-48627142D01*
X140167142Y-48661428D01*
X140119523Y-48695714D01*
X139976666Y-48695714D01*
X139929047Y-48661428D01*
X139905238Y-48627142D01*
%TO.C,Q2*%
X132742380Y-48634285D02*
X132694761Y-48600000D01*
X132647142Y-48531428D01*
X132575714Y-48428571D01*
X132528095Y-48394285D01*
X132480476Y-48394285D01*
X132504285Y-48565714D02*
X132456666Y-48531428D01*
X132409047Y-48462857D01*
X132385238Y-48325714D01*
X132385238Y-48085714D01*
X132409047Y-47948571D01*
X132456666Y-47880000D01*
X132504285Y-47845714D01*
X132599523Y-47845714D01*
X132647142Y-47880000D01*
X132694761Y-47948571D01*
X132718571Y-48085714D01*
X132718571Y-48325714D01*
X132694761Y-48462857D01*
X132647142Y-48531428D01*
X132599523Y-48565714D01*
X132504285Y-48565714D01*
X132909047Y-47914285D02*
X132932857Y-47880000D01*
X132980476Y-47845714D01*
X133099523Y-47845714D01*
X133147142Y-47880000D01*
X133170952Y-47914285D01*
X133194761Y-47982857D01*
X133194761Y-48051428D01*
X133170952Y-48154285D01*
X132885238Y-48565714D01*
X133194761Y-48565714D01*
%TO.C,Q1*%
X126192380Y-48564285D02*
X126144761Y-48530000D01*
X126097142Y-48461428D01*
X126025714Y-48358571D01*
X125978095Y-48324285D01*
X125930476Y-48324285D01*
X125954285Y-48495714D02*
X125906666Y-48461428D01*
X125859047Y-48392857D01*
X125835238Y-48255714D01*
X125835238Y-48015714D01*
X125859047Y-47878571D01*
X125906666Y-47810000D01*
X125954285Y-47775714D01*
X126049523Y-47775714D01*
X126097142Y-47810000D01*
X126144761Y-47878571D01*
X126168571Y-48015714D01*
X126168571Y-48255714D01*
X126144761Y-48392857D01*
X126097142Y-48461428D01*
X126049523Y-48495714D01*
X125954285Y-48495714D01*
X126644761Y-48495714D02*
X126359047Y-48495714D01*
X126501904Y-48495714D02*
X126501904Y-47775714D01*
X126454285Y-47878571D01*
X126406666Y-47947142D01*
X126359047Y-47981428D01*
%TO.C,J17*%
D10*
X147020476Y-55542380D02*
X147020476Y-56256666D01*
X146972857Y-56399523D01*
X146877619Y-56494761D01*
X146734761Y-56542380D01*
X146639523Y-56542380D01*
X148020476Y-56542380D02*
X147449047Y-56542380D01*
X147734761Y-56542380D02*
X147734761Y-55542380D01*
X147639523Y-55685238D01*
X147544285Y-55780476D01*
X147449047Y-55828095D01*
X148353809Y-55542380D02*
X149020476Y-55542380D01*
X148591904Y-56542380D01*
%TO.C,J16*%
X141030476Y-55502380D02*
X141030476Y-56216666D01*
X140982857Y-56359523D01*
X140887619Y-56454761D01*
X140744761Y-56502380D01*
X140649523Y-56502380D01*
X142030476Y-56502380D02*
X141459047Y-56502380D01*
X141744761Y-56502380D02*
X141744761Y-55502380D01*
X141649523Y-55645238D01*
X141554285Y-55740476D01*
X141459047Y-55788095D01*
X142887619Y-55502380D02*
X142697142Y-55502380D01*
X142601904Y-55550000D01*
X142554285Y-55597619D01*
X142459047Y-55740476D01*
X142411428Y-55930952D01*
X142411428Y-56311904D01*
X142459047Y-56407142D01*
X142506666Y-56454761D01*
X142601904Y-56502380D01*
X142792380Y-56502380D01*
X142887619Y-56454761D01*
X142935238Y-56407142D01*
X142982857Y-56311904D01*
X142982857Y-56073809D01*
X142935238Y-55978571D01*
X142887619Y-55930952D01*
X142792380Y-55883333D01*
X142601904Y-55883333D01*
X142506666Y-55930952D01*
X142459047Y-55978571D01*
X142411428Y-56073809D01*
%TO.C,J15*%
X130010476Y-62032380D02*
X130010476Y-62746666D01*
X129962857Y-62889523D01*
X129867619Y-62984761D01*
X129724761Y-63032380D01*
X129629523Y-63032380D01*
X131010476Y-63032380D02*
X130439047Y-63032380D01*
X130724761Y-63032380D02*
X130724761Y-62032380D01*
X130629523Y-62175238D01*
X130534285Y-62270476D01*
X130439047Y-62318095D01*
X131915238Y-62032380D02*
X131439047Y-62032380D01*
X131391428Y-62508571D01*
X131439047Y-62460952D01*
X131534285Y-62413333D01*
X131772380Y-62413333D01*
X131867619Y-62460952D01*
X131915238Y-62508571D01*
X131962857Y-62603809D01*
X131962857Y-62841904D01*
X131915238Y-62937142D01*
X131867619Y-62984761D01*
X131772380Y-63032380D01*
X131534285Y-63032380D01*
X131439047Y-62984761D01*
X131391428Y-62937142D01*
%TO.C,J14*%
X122150477Y-8062380D02*
X122150477Y-8776666D01*
X122102858Y-8919523D01*
X122007620Y-9014761D01*
X121864762Y-9062380D01*
X121769524Y-9062380D01*
X123150477Y-9062380D02*
X122579048Y-9062380D01*
X122864762Y-9062380D02*
X122864762Y-8062380D01*
X122769524Y-8205238D01*
X122674286Y-8300476D01*
X122579048Y-8348095D01*
X124007620Y-8395714D02*
X124007620Y-9062380D01*
X123769524Y-8014761D02*
X123531429Y-8729047D01*
X124150477Y-8729047D01*
%TO.C,J13*%
X137350476Y-8132380D02*
X137350476Y-8846666D01*
X137302857Y-8989523D01*
X137207619Y-9084761D01*
X137064761Y-9132380D01*
X136969523Y-9132380D01*
X138350476Y-9132380D02*
X137779047Y-9132380D01*
X138064761Y-9132380D02*
X138064761Y-8132380D01*
X137969523Y-8275238D01*
X137874285Y-8370476D01*
X137779047Y-8418095D01*
X138683809Y-8132380D02*
X139302857Y-8132380D01*
X138969523Y-8513333D01*
X139112380Y-8513333D01*
X139207619Y-8560952D01*
X139255238Y-8608571D01*
X139302857Y-8703809D01*
X139302857Y-8941904D01*
X139255238Y-9037142D01*
X139207619Y-9084761D01*
X139112380Y-9132380D01*
X138826666Y-9132380D01*
X138731428Y-9084761D01*
X138683809Y-9037142D01*
%TO.C,J12*%
X172952380Y-13909523D02*
X173666666Y-13909523D01*
X173809523Y-13957142D01*
X173904761Y-14052380D01*
X173952380Y-14195238D01*
X173952380Y-14290476D01*
X173952380Y-12909523D02*
X173952380Y-13480952D01*
X173952380Y-13195238D02*
X172952380Y-13195238D01*
X173095238Y-13290476D01*
X173190476Y-13385714D01*
X173238095Y-13480952D01*
X173047619Y-12528571D02*
X173000000Y-12480952D01*
X172952380Y-12385714D01*
X172952380Y-12147619D01*
X173000000Y-12052380D01*
X173047619Y-12004761D01*
X173142857Y-11957142D01*
X173238095Y-11957142D01*
X173380952Y-12004761D01*
X173952380Y-12576190D01*
X173952380Y-11957142D01*
%TO.C,J11*%
X172952380Y-24709523D02*
X173666666Y-24709523D01*
X173809523Y-24757142D01*
X173904761Y-24852380D01*
X173952380Y-24995238D01*
X173952380Y-25090476D01*
X173952380Y-23709523D02*
X173952380Y-24280952D01*
X173952380Y-23995238D02*
X172952380Y-23995238D01*
X173095238Y-24090476D01*
X173190476Y-24185714D01*
X173238095Y-24280952D01*
X173952380Y-22757142D02*
X173952380Y-23328571D01*
X173952380Y-23042857D02*
X172952380Y-23042857D01*
X173095238Y-23138095D01*
X173190476Y-23233333D01*
X173238095Y-23328571D01*
%TO.C,J10*%
X172852380Y-36209523D02*
X173566666Y-36209523D01*
X173709523Y-36257142D01*
X173804761Y-36352380D01*
X173852380Y-36495238D01*
X173852380Y-36590476D01*
X173852380Y-35209523D02*
X173852380Y-35780952D01*
X173852380Y-35495238D02*
X172852380Y-35495238D01*
X172995238Y-35590476D01*
X173090476Y-35685714D01*
X173138095Y-35780952D01*
X172852380Y-34590476D02*
X172852380Y-34495238D01*
X172900000Y-34400000D01*
X172947619Y-34352380D01*
X173042857Y-34304761D01*
X173233333Y-34257142D01*
X173471428Y-34257142D01*
X173661904Y-34304761D01*
X173757142Y-34352380D01*
X173804761Y-34400000D01*
X173852380Y-34495238D01*
X173852380Y-34590476D01*
X173804761Y-34685714D01*
X173757142Y-34733333D01*
X173661904Y-34780952D01*
X173471428Y-34828571D01*
X173233333Y-34828571D01*
X173042857Y-34780952D01*
X172947619Y-34733333D01*
X172900000Y-34685714D01*
X172852380Y-34590476D01*
%TO.C,J9*%
X172952380Y-47233333D02*
X173666666Y-47233333D01*
X173809523Y-47280952D01*
X173904761Y-47376190D01*
X173952380Y-47519047D01*
X173952380Y-47614285D01*
X173952380Y-46709523D02*
X173952380Y-46519047D01*
X173904761Y-46423809D01*
X173857142Y-46376190D01*
X173714285Y-46280952D01*
X173523809Y-46233333D01*
X173142857Y-46233333D01*
X173047619Y-46280952D01*
X173000000Y-46328571D01*
X172952380Y-46423809D01*
X172952380Y-46614285D01*
X173000000Y-46709523D01*
X173047619Y-46757142D01*
X173142857Y-46804761D01*
X173380952Y-46804761D01*
X173476190Y-46757142D01*
X173523809Y-46709523D01*
X173571428Y-46614285D01*
X173571428Y-46423809D01*
X173523809Y-46328571D01*
X173476190Y-46280952D01*
X173380952Y-46233333D01*
%TO.C,J8*%
X167906666Y-67452380D02*
X167906666Y-68166666D01*
X167859047Y-68309523D01*
X167763809Y-68404761D01*
X167620952Y-68452380D01*
X167525714Y-68452380D01*
X168525714Y-67880952D02*
X168430476Y-67833333D01*
X168382857Y-67785714D01*
X168335238Y-67690476D01*
X168335238Y-67642857D01*
X168382857Y-67547619D01*
X168430476Y-67500000D01*
X168525714Y-67452380D01*
X168716190Y-67452380D01*
X168811428Y-67500000D01*
X168859047Y-67547619D01*
X168906666Y-67642857D01*
X168906666Y-67690476D01*
X168859047Y-67785714D01*
X168811428Y-67833333D01*
X168716190Y-67880952D01*
X168525714Y-67880952D01*
X168430476Y-67928571D01*
X168382857Y-67976190D01*
X168335238Y-68071428D01*
X168335238Y-68261904D01*
X168382857Y-68357142D01*
X168430476Y-68404761D01*
X168525714Y-68452380D01*
X168716190Y-68452380D01*
X168811428Y-68404761D01*
X168859047Y-68357142D01*
X168906666Y-68261904D01*
X168906666Y-68071428D01*
X168859047Y-67976190D01*
X168811428Y-67928571D01*
X168716190Y-67880952D01*
%TO.C,J7*%
X157236666Y-67552380D02*
X157236666Y-68266666D01*
X157189047Y-68409523D01*
X157093809Y-68504761D01*
X156950952Y-68552380D01*
X156855714Y-68552380D01*
X157617619Y-67552380D02*
X158284285Y-67552380D01*
X157855714Y-68552380D01*
%TO.C,J6*%
X109731666Y-8027380D02*
X109731666Y-8741666D01*
X109684047Y-8884523D01*
X109588809Y-8979761D01*
X109445952Y-9027380D01*
X109350714Y-9027380D01*
X110636428Y-8027380D02*
X110445952Y-8027380D01*
X110350714Y-8075000D01*
X110303095Y-8122619D01*
X110207857Y-8265476D01*
X110160238Y-8455952D01*
X110160238Y-8836904D01*
X110207857Y-8932142D01*
X110255476Y-8979761D01*
X110350714Y-9027380D01*
X110541190Y-9027380D01*
X110636428Y-8979761D01*
X110684047Y-8932142D01*
X110731666Y-8836904D01*
X110731666Y-8598809D01*
X110684047Y-8503571D01*
X110636428Y-8455952D01*
X110541190Y-8408333D01*
X110350714Y-8408333D01*
X110255476Y-8455952D01*
X110207857Y-8503571D01*
X110160238Y-8598809D01*
%TO.C,J5*%
X106566666Y-19777380D02*
X106566666Y-20491666D01*
X106519047Y-20634523D01*
X106423809Y-20729761D01*
X106280952Y-20777380D01*
X106185714Y-20777380D01*
X107519047Y-19777380D02*
X107042857Y-19777380D01*
X106995238Y-20253571D01*
X107042857Y-20205952D01*
X107138095Y-20158333D01*
X107376190Y-20158333D01*
X107471428Y-20205952D01*
X107519047Y-20253571D01*
X107566666Y-20348809D01*
X107566666Y-20586904D01*
X107519047Y-20682142D01*
X107471428Y-20729761D01*
X107376190Y-20777380D01*
X107138095Y-20777380D01*
X107042857Y-20729761D01*
X106995238Y-20682142D01*
%TO.C,J4*%
X145916666Y-19577380D02*
X145916666Y-20291666D01*
X145869047Y-20434523D01*
X145773809Y-20529761D01*
X145630952Y-20577380D01*
X145535714Y-20577380D01*
X146821428Y-19910714D02*
X146821428Y-20577380D01*
X146583333Y-19529761D02*
X146345238Y-20244047D01*
X146964285Y-20244047D01*
%TO.C,J3*%
X105431666Y-67597380D02*
X105431666Y-68311666D01*
X105384047Y-68454523D01*
X105288809Y-68549761D01*
X105145952Y-68597380D01*
X105050714Y-68597380D01*
X105812619Y-67597380D02*
X106431666Y-67597380D01*
X106098333Y-67978333D01*
X106241190Y-67978333D01*
X106336428Y-68025952D01*
X106384047Y-68073571D01*
X106431666Y-68168809D01*
X106431666Y-68406904D01*
X106384047Y-68502142D01*
X106336428Y-68549761D01*
X106241190Y-68597380D01*
X105955476Y-68597380D01*
X105860238Y-68549761D01*
X105812619Y-68502142D01*
%TO.C,J2*%
X123146666Y-62012380D02*
X123146666Y-62726666D01*
X123099047Y-62869523D01*
X123003809Y-62964761D01*
X122860952Y-63012380D01*
X122765714Y-63012380D01*
X123575238Y-62107619D02*
X123622857Y-62060000D01*
X123718095Y-62012380D01*
X123956190Y-62012380D01*
X124051428Y-62060000D01*
X124099047Y-62107619D01*
X124146666Y-62202857D01*
X124146666Y-62298095D01*
X124099047Y-62440952D01*
X123527619Y-63012380D01*
X124146666Y-63012380D01*
%TO.C,GREEN1*%
X115847142Y-26770000D02*
X115751904Y-26722380D01*
X115609047Y-26722380D01*
X115466190Y-26770000D01*
X115370952Y-26865238D01*
X115323333Y-26960476D01*
X115275714Y-27150952D01*
X115275714Y-27293809D01*
X115323333Y-27484285D01*
X115370952Y-27579523D01*
X115466190Y-27674761D01*
X115609047Y-27722380D01*
X115704285Y-27722380D01*
X115847142Y-27674761D01*
X115894761Y-27627142D01*
X115894761Y-27293809D01*
X115704285Y-27293809D01*
X116894761Y-27722380D02*
X116561428Y-27246190D01*
X116323333Y-27722380D02*
X116323333Y-26722380D01*
X116704285Y-26722380D01*
X116799523Y-26770000D01*
X116847142Y-26817619D01*
X116894761Y-26912857D01*
X116894761Y-27055714D01*
X116847142Y-27150952D01*
X116799523Y-27198571D01*
X116704285Y-27246190D01*
X116323333Y-27246190D01*
X117323333Y-27198571D02*
X117656666Y-27198571D01*
X117799523Y-27722380D02*
X117323333Y-27722380D01*
X117323333Y-26722380D01*
X117799523Y-26722380D01*
X118228095Y-27198571D02*
X118561428Y-27198571D01*
X118704285Y-27722380D02*
X118228095Y-27722380D01*
X118228095Y-26722380D01*
X118704285Y-26722380D01*
X119132857Y-27722380D02*
X119132857Y-26722380D01*
X119704285Y-27722380D01*
X119704285Y-26722380D01*
X120704285Y-27722380D02*
X120132857Y-27722380D01*
X120418571Y-27722380D02*
X120418571Y-26722380D01*
X120323333Y-26865238D01*
X120228095Y-26960476D01*
X120132857Y-27008095D01*
%TO.C,C19*%
X122857142Y-36434642D02*
X122809523Y-36482261D01*
X122666666Y-36529880D01*
X122571428Y-36529880D01*
X122428571Y-36482261D01*
X122333333Y-36387023D01*
X122285714Y-36291785D01*
X122238095Y-36101309D01*
X122238095Y-35958452D01*
X122285714Y-35767976D01*
X122333333Y-35672738D01*
X122428571Y-35577500D01*
X122571428Y-35529880D01*
X122666666Y-35529880D01*
X122809523Y-35577500D01*
X122857142Y-35625119D01*
X123809523Y-36529880D02*
X123238095Y-36529880D01*
X123523809Y-36529880D02*
X123523809Y-35529880D01*
X123428571Y-35672738D01*
X123333333Y-35767976D01*
X123238095Y-35815595D01*
X124285714Y-36529880D02*
X124476190Y-36529880D01*
X124571428Y-36482261D01*
X124619047Y-36434642D01*
X124714285Y-36291785D01*
X124761904Y-36101309D01*
X124761904Y-35720357D01*
X124714285Y-35625119D01*
X124666666Y-35577500D01*
X124571428Y-35529880D01*
X124380952Y-35529880D01*
X124285714Y-35577500D01*
X124238095Y-35625119D01*
X124190476Y-35720357D01*
X124190476Y-35958452D01*
X124238095Y-36053690D01*
X124285714Y-36101309D01*
X124380952Y-36148928D01*
X124571428Y-36148928D01*
X124666666Y-36101309D01*
X124714285Y-36053690D01*
X124761904Y-35958452D01*
%TO.C,C18*%
X137377142Y-19587143D02*
X137329523Y-19634762D01*
X137186666Y-19682381D01*
X137091428Y-19682381D01*
X136948571Y-19634762D01*
X136853333Y-19539524D01*
X136805714Y-19444286D01*
X136758095Y-19253810D01*
X136758095Y-19110953D01*
X136805714Y-18920477D01*
X136853333Y-18825239D01*
X136948571Y-18730001D01*
X137091428Y-18682381D01*
X137186666Y-18682381D01*
X137329523Y-18730001D01*
X137377142Y-18777620D01*
X138329523Y-19682381D02*
X137758095Y-19682381D01*
X138043809Y-19682381D02*
X138043809Y-18682381D01*
X137948571Y-18825239D01*
X137853333Y-18920477D01*
X137758095Y-18968096D01*
X138900952Y-19110953D02*
X138805714Y-19063334D01*
X138758095Y-19015715D01*
X138710476Y-18920477D01*
X138710476Y-18872858D01*
X138758095Y-18777620D01*
X138805714Y-18730001D01*
X138900952Y-18682381D01*
X139091428Y-18682381D01*
X139186666Y-18730001D01*
X139234285Y-18777620D01*
X139281904Y-18872858D01*
X139281904Y-18920477D01*
X139234285Y-19015715D01*
X139186666Y-19063334D01*
X139091428Y-19110953D01*
X138900952Y-19110953D01*
X138805714Y-19158572D01*
X138758095Y-19206191D01*
X138710476Y-19301429D01*
X138710476Y-19491905D01*
X138758095Y-19587143D01*
X138805714Y-19634762D01*
X138900952Y-19682381D01*
X139091428Y-19682381D01*
X139186666Y-19634762D01*
X139234285Y-19587143D01*
X139281904Y-19491905D01*
X139281904Y-19301429D01*
X139234285Y-19206191D01*
X139186666Y-19158572D01*
X139091428Y-19110953D01*
%TO.C,C17*%
X117062142Y-36322142D02*
X117014523Y-36369761D01*
X116871666Y-36417380D01*
X116776428Y-36417380D01*
X116633571Y-36369761D01*
X116538333Y-36274523D01*
X116490714Y-36179285D01*
X116443095Y-35988809D01*
X116443095Y-35845952D01*
X116490714Y-35655476D01*
X116538333Y-35560238D01*
X116633571Y-35465000D01*
X116776428Y-35417380D01*
X116871666Y-35417380D01*
X117014523Y-35465000D01*
X117062142Y-35512619D01*
X118014523Y-36417380D02*
X117443095Y-36417380D01*
X117728809Y-36417380D02*
X117728809Y-35417380D01*
X117633571Y-35560238D01*
X117538333Y-35655476D01*
X117443095Y-35703095D01*
X118347857Y-35417380D02*
X119014523Y-35417380D01*
X118585952Y-36417380D01*
%TO.C,C16*%
X119857142Y-36307142D02*
X119809523Y-36354761D01*
X119666666Y-36402380D01*
X119571428Y-36402380D01*
X119428571Y-36354761D01*
X119333333Y-36259523D01*
X119285714Y-36164285D01*
X119238095Y-35973809D01*
X119238095Y-35830952D01*
X119285714Y-35640476D01*
X119333333Y-35545238D01*
X119428571Y-35450000D01*
X119571428Y-35402380D01*
X119666666Y-35402380D01*
X119809523Y-35450000D01*
X119857142Y-35497619D01*
X120809523Y-36402380D02*
X120238095Y-36402380D01*
X120523809Y-36402380D02*
X120523809Y-35402380D01*
X120428571Y-35545238D01*
X120333333Y-35640476D01*
X120238095Y-35688095D01*
X121666666Y-35402380D02*
X121476190Y-35402380D01*
X121380952Y-35450000D01*
X121333333Y-35497619D01*
X121238095Y-35640476D01*
X121190476Y-35830952D01*
X121190476Y-36211904D01*
X121238095Y-36307142D01*
X121285714Y-36354761D01*
X121380952Y-36402380D01*
X121571428Y-36402380D01*
X121666666Y-36354761D01*
X121714285Y-36307142D01*
X121761904Y-36211904D01*
X121761904Y-35973809D01*
X121714285Y-35878571D01*
X121666666Y-35830952D01*
X121571428Y-35783333D01*
X121380952Y-35783333D01*
X121285714Y-35830952D01*
X121238095Y-35878571D01*
X121190476Y-35973809D01*
%TO.C,C14*%
X147207142Y-41142857D02*
X147254761Y-41190476D01*
X147302380Y-41333333D01*
X147302380Y-41428571D01*
X147254761Y-41571428D01*
X147159523Y-41666666D01*
X147064285Y-41714285D01*
X146873809Y-41761904D01*
X146730952Y-41761904D01*
X146540476Y-41714285D01*
X146445238Y-41666666D01*
X146350000Y-41571428D01*
X146302380Y-41428571D01*
X146302380Y-41333333D01*
X146350000Y-41190476D01*
X146397619Y-41142857D01*
X147302380Y-40190476D02*
X147302380Y-40761904D01*
X147302380Y-40476190D02*
X146302380Y-40476190D01*
X146445238Y-40571428D01*
X146540476Y-40666666D01*
X146588095Y-40761904D01*
X146635714Y-39333333D02*
X147302380Y-39333333D01*
X146254761Y-39571428D02*
X146969047Y-39809523D01*
X146969047Y-39190476D01*
%TO.C,C13*%
X147282142Y-36042857D02*
X147329761Y-36090476D01*
X147377380Y-36233333D01*
X147377380Y-36328571D01*
X147329761Y-36471428D01*
X147234523Y-36566666D01*
X147139285Y-36614285D01*
X146948809Y-36661904D01*
X146805952Y-36661904D01*
X146615476Y-36614285D01*
X146520238Y-36566666D01*
X146425000Y-36471428D01*
X146377380Y-36328571D01*
X146377380Y-36233333D01*
X146425000Y-36090476D01*
X146472619Y-36042857D01*
X147377380Y-35090476D02*
X147377380Y-35661904D01*
X147377380Y-35376190D02*
X146377380Y-35376190D01*
X146520238Y-35471428D01*
X146615476Y-35566666D01*
X146663095Y-35661904D01*
X146377380Y-34757142D02*
X146377380Y-34138095D01*
X146758333Y-34471428D01*
X146758333Y-34328571D01*
X146805952Y-34233333D01*
X146853571Y-34185714D01*
X146948809Y-34138095D01*
X147186904Y-34138095D01*
X147282142Y-34185714D01*
X147329761Y-34233333D01*
X147377380Y-34328571D01*
X147377380Y-34614285D01*
X147329761Y-34709523D01*
X147282142Y-34757142D01*
%TO.C,C12*%
X130857142Y-25719642D02*
X130809523Y-25767261D01*
X130666666Y-25814880D01*
X130571428Y-25814880D01*
X130428571Y-25767261D01*
X130333333Y-25672023D01*
X130285714Y-25576785D01*
X130238095Y-25386309D01*
X130238095Y-25243452D01*
X130285714Y-25052976D01*
X130333333Y-24957738D01*
X130428571Y-24862500D01*
X130571428Y-24814880D01*
X130666666Y-24814880D01*
X130809523Y-24862500D01*
X130857142Y-24910119D01*
X131809523Y-25814880D02*
X131238095Y-25814880D01*
X131523809Y-25814880D02*
X131523809Y-24814880D01*
X131428571Y-24957738D01*
X131333333Y-25052976D01*
X131238095Y-25100595D01*
X132190476Y-24910119D02*
X132238095Y-24862500D01*
X132333333Y-24814880D01*
X132571428Y-24814880D01*
X132666666Y-24862500D01*
X132714285Y-24910119D01*
X132761904Y-25005357D01*
X132761904Y-25100595D01*
X132714285Y-25243452D01*
X132142857Y-25814880D01*
X132761904Y-25814880D01*
%TO.C,C11*%
X133557142Y-25719642D02*
X133509523Y-25767261D01*
X133366666Y-25814880D01*
X133271428Y-25814880D01*
X133128571Y-25767261D01*
X133033333Y-25672023D01*
X132985714Y-25576785D01*
X132938095Y-25386309D01*
X132938095Y-25243452D01*
X132985714Y-25052976D01*
X133033333Y-24957738D01*
X133128571Y-24862500D01*
X133271428Y-24814880D01*
X133366666Y-24814880D01*
X133509523Y-24862500D01*
X133557142Y-24910119D01*
X134509523Y-25814880D02*
X133938095Y-25814880D01*
X134223809Y-25814880D02*
X134223809Y-24814880D01*
X134128571Y-24957738D01*
X134033333Y-25052976D01*
X133938095Y-25100595D01*
X135461904Y-25814880D02*
X134890476Y-25814880D01*
X135176190Y-25814880D02*
X135176190Y-24814880D01*
X135080952Y-24957738D01*
X134985714Y-25052976D01*
X134890476Y-25100595D01*
%TO.C,C10*%
X125539642Y-28727142D02*
X125492023Y-28774761D01*
X125349166Y-28822380D01*
X125253928Y-28822380D01*
X125111071Y-28774761D01*
X125015833Y-28679523D01*
X124968214Y-28584285D01*
X124920595Y-28393809D01*
X124920595Y-28250952D01*
X124968214Y-28060476D01*
X125015833Y-27965238D01*
X125111071Y-27870000D01*
X125253928Y-27822380D01*
X125349166Y-27822380D01*
X125492023Y-27870000D01*
X125539642Y-27917619D01*
X126492023Y-28822380D02*
X125920595Y-28822380D01*
X126206309Y-28822380D02*
X126206309Y-27822380D01*
X126111071Y-27965238D01*
X126015833Y-28060476D01*
X125920595Y-28108095D01*
X127111071Y-27822380D02*
X127206309Y-27822380D01*
X127301547Y-27870000D01*
X127349166Y-27917619D01*
X127396785Y-28012857D01*
X127444404Y-28203333D01*
X127444404Y-28441428D01*
X127396785Y-28631904D01*
X127349166Y-28727142D01*
X127301547Y-28774761D01*
X127206309Y-28822380D01*
X127111071Y-28822380D01*
X127015833Y-28774761D01*
X126968214Y-28727142D01*
X126920595Y-28631904D01*
X126872976Y-28441428D01*
X126872976Y-28203333D01*
X126920595Y-28012857D01*
X126968214Y-27917619D01*
X127015833Y-27870000D01*
X127111071Y-27822380D01*
%TO.C,C9*%
X125973333Y-25727142D02*
X125925714Y-25774761D01*
X125782857Y-25822380D01*
X125687619Y-25822380D01*
X125544761Y-25774761D01*
X125449523Y-25679523D01*
X125401904Y-25584285D01*
X125354285Y-25393809D01*
X125354285Y-25250952D01*
X125401904Y-25060476D01*
X125449523Y-24965238D01*
X125544761Y-24870000D01*
X125687619Y-24822380D01*
X125782857Y-24822380D01*
X125925714Y-24870000D01*
X125973333Y-24917619D01*
X126449523Y-25822380D02*
X126640000Y-25822380D01*
X126735238Y-25774761D01*
X126782857Y-25727142D01*
X126878095Y-25584285D01*
X126925714Y-25393809D01*
X126925714Y-25012857D01*
X126878095Y-24917619D01*
X126830476Y-24870000D01*
X126735238Y-24822380D01*
X126544761Y-24822380D01*
X126449523Y-24870000D01*
X126401904Y-24917619D01*
X126354285Y-25012857D01*
X126354285Y-25250952D01*
X126401904Y-25346190D01*
X126449523Y-25393809D01*
X126544761Y-25441428D01*
X126735238Y-25441428D01*
X126830476Y-25393809D01*
X126878095Y-25346190D01*
X126925714Y-25250952D01*
%TO.C,C8*%
X125690833Y-30687142D02*
X125643214Y-30734761D01*
X125500357Y-30782380D01*
X125405119Y-30782380D01*
X125262261Y-30734761D01*
X125167023Y-30639523D01*
X125119404Y-30544285D01*
X125071785Y-30353809D01*
X125071785Y-30210952D01*
X125119404Y-30020476D01*
X125167023Y-29925238D01*
X125262261Y-29830000D01*
X125405119Y-29782380D01*
X125500357Y-29782380D01*
X125643214Y-29830000D01*
X125690833Y-29877619D01*
X126262261Y-30210952D02*
X126167023Y-30163333D01*
X126119404Y-30115714D01*
X126071785Y-30020476D01*
X126071785Y-29972857D01*
X126119404Y-29877619D01*
X126167023Y-29830000D01*
X126262261Y-29782380D01*
X126452738Y-29782380D01*
X126547976Y-29830000D01*
X126595595Y-29877619D01*
X126643214Y-29972857D01*
X126643214Y-30020476D01*
X126595595Y-30115714D01*
X126547976Y-30163333D01*
X126452738Y-30210952D01*
X126262261Y-30210952D01*
X126167023Y-30258571D01*
X126119404Y-30306190D01*
X126071785Y-30401428D01*
X126071785Y-30591904D01*
X126119404Y-30687142D01*
X126167023Y-30734761D01*
X126262261Y-30782380D01*
X126452738Y-30782380D01*
X126547976Y-30734761D01*
X126595595Y-30687142D01*
X126643214Y-30591904D01*
X126643214Y-30401428D01*
X126595595Y-30306190D01*
X126547976Y-30258571D01*
X126452738Y-30210952D01*
%TO.C,C7*%
X125683332Y-33537142D02*
X125635713Y-33584761D01*
X125492856Y-33632380D01*
X125397618Y-33632380D01*
X125254760Y-33584761D01*
X125159522Y-33489523D01*
X125111903Y-33394285D01*
X125064284Y-33203809D01*
X125064284Y-33060952D01*
X125111903Y-32870476D01*
X125159522Y-32775238D01*
X125254760Y-32680000D01*
X125397618Y-32632380D01*
X125492856Y-32632380D01*
X125635713Y-32680000D01*
X125683332Y-32727619D01*
X126016665Y-32632380D02*
X126683332Y-32632380D01*
X126254760Y-33632380D01*
%TO.C,C6*%
X138933333Y-25719642D02*
X138885714Y-25767261D01*
X138742857Y-25814880D01*
X138647619Y-25814880D01*
X138504761Y-25767261D01*
X138409523Y-25672023D01*
X138361904Y-25576785D01*
X138314285Y-25386309D01*
X138314285Y-25243452D01*
X138361904Y-25052976D01*
X138409523Y-24957738D01*
X138504761Y-24862500D01*
X138647619Y-24814880D01*
X138742857Y-24814880D01*
X138885714Y-24862500D01*
X138933333Y-24910119D01*
X139790476Y-24814880D02*
X139600000Y-24814880D01*
X139504761Y-24862500D01*
X139457142Y-24910119D01*
X139361904Y-25052976D01*
X139314285Y-25243452D01*
X139314285Y-25624404D01*
X139361904Y-25719642D01*
X139409523Y-25767261D01*
X139504761Y-25814880D01*
X139695238Y-25814880D01*
X139790476Y-25767261D01*
X139838095Y-25719642D01*
X139885714Y-25624404D01*
X139885714Y-25386309D01*
X139838095Y-25291071D01*
X139790476Y-25243452D01*
X139695238Y-25195833D01*
X139504761Y-25195833D01*
X139409523Y-25243452D01*
X139361904Y-25291071D01*
X139314285Y-25386309D01*
%TO.C,C5*%
X147182142Y-37966666D02*
X147229761Y-38014285D01*
X147277380Y-38157142D01*
X147277380Y-38252380D01*
X147229761Y-38395238D01*
X147134523Y-38490476D01*
X147039285Y-38538095D01*
X146848809Y-38585714D01*
X146705952Y-38585714D01*
X146515476Y-38538095D01*
X146420238Y-38490476D01*
X146325000Y-38395238D01*
X146277380Y-38252380D01*
X146277380Y-38157142D01*
X146325000Y-38014285D01*
X146372619Y-37966666D01*
X146277380Y-37061904D02*
X146277380Y-37538095D01*
X146753571Y-37585714D01*
X146705952Y-37538095D01*
X146658333Y-37442857D01*
X146658333Y-37204761D01*
X146705952Y-37109523D01*
X146753571Y-37061904D01*
X146848809Y-37014285D01*
X147086904Y-37014285D01*
X147182142Y-37061904D01*
X147229761Y-37109523D01*
X147277380Y-37204761D01*
X147277380Y-37442857D01*
X147229761Y-37538095D01*
X147182142Y-37585714D01*
%TO.C,C4*%
X141233333Y-25819642D02*
X141185714Y-25867261D01*
X141042857Y-25914880D01*
X140947619Y-25914880D01*
X140804761Y-25867261D01*
X140709523Y-25772023D01*
X140661904Y-25676785D01*
X140614285Y-25486309D01*
X140614285Y-25343452D01*
X140661904Y-25152976D01*
X140709523Y-25057738D01*
X140804761Y-24962500D01*
X140947619Y-24914880D01*
X141042857Y-24914880D01*
X141185714Y-24962500D01*
X141233333Y-25010119D01*
X142090476Y-25248214D02*
X142090476Y-25914880D01*
X141852380Y-24867261D02*
X141614285Y-25581547D01*
X142233333Y-25581547D01*
%TO.C,C3*%
X127843333Y-52219642D02*
X127795714Y-52267261D01*
X127652857Y-52314880D01*
X127557619Y-52314880D01*
X127414761Y-52267261D01*
X127319523Y-52172023D01*
X127271904Y-52076785D01*
X127224285Y-51886309D01*
X127224285Y-51743452D01*
X127271904Y-51552976D01*
X127319523Y-51457738D01*
X127414761Y-51362500D01*
X127557619Y-51314880D01*
X127652857Y-51314880D01*
X127795714Y-51362500D01*
X127843333Y-51410119D01*
X128176666Y-51314880D02*
X128795714Y-51314880D01*
X128462380Y-51695833D01*
X128605238Y-51695833D01*
X128700476Y-51743452D01*
X128748095Y-51791071D01*
X128795714Y-51886309D01*
X128795714Y-52124404D01*
X128748095Y-52219642D01*
X128700476Y-52267261D01*
X128605238Y-52314880D01*
X128319523Y-52314880D01*
X128224285Y-52267261D01*
X128176666Y-52219642D01*
%TO.C,C2*%
X147332142Y-32316666D02*
X147379761Y-32364285D01*
X147427380Y-32507142D01*
X147427380Y-32602380D01*
X147379761Y-32745238D01*
X147284523Y-32840476D01*
X147189285Y-32888095D01*
X146998809Y-32935714D01*
X146855952Y-32935714D01*
X146665476Y-32888095D01*
X146570238Y-32840476D01*
X146475000Y-32745238D01*
X146427380Y-32602380D01*
X146427380Y-32507142D01*
X146475000Y-32364285D01*
X146522619Y-32316666D01*
X146522619Y-31935714D02*
X146475000Y-31888095D01*
X146427380Y-31792857D01*
X146427380Y-31554761D01*
X146475000Y-31459523D01*
X146522619Y-31411904D01*
X146617857Y-31364285D01*
X146713095Y-31364285D01*
X146855952Y-31411904D01*
X147427380Y-31983333D01*
X147427380Y-31364285D01*
%TO.C,C1*%
X136433333Y-25657142D02*
X136385714Y-25704761D01*
X136242857Y-25752380D01*
X136147619Y-25752380D01*
X136004761Y-25704761D01*
X135909523Y-25609523D01*
X135861904Y-25514285D01*
X135814285Y-25323809D01*
X135814285Y-25180952D01*
X135861904Y-24990476D01*
X135909523Y-24895238D01*
X136004761Y-24800000D01*
X136147619Y-24752380D01*
X136242857Y-24752380D01*
X136385714Y-24800000D01*
X136433333Y-24847619D01*
X137385714Y-25752380D02*
X136814285Y-25752380D01*
X137100000Y-25752380D02*
X137100000Y-24752380D01*
X137004761Y-24895238D01*
X136909523Y-24990476D01*
X136814285Y-25038095D01*
%TO.C,BLUE1*%
X116004285Y-30648572D02*
X116147142Y-30696191D01*
X116194761Y-30743810D01*
X116242380Y-30839048D01*
X116242380Y-30981905D01*
X116194761Y-31077143D01*
X116147142Y-31124762D01*
X116051904Y-31172381D01*
X115670952Y-31172381D01*
X115670952Y-30172381D01*
X116004285Y-30172381D01*
X116099523Y-30220001D01*
X116147142Y-30267620D01*
X116194761Y-30362858D01*
X116194761Y-30458096D01*
X116147142Y-30553334D01*
X116099523Y-30600953D01*
X116004285Y-30648572D01*
X115670952Y-30648572D01*
X117147142Y-31172381D02*
X116670952Y-31172381D01*
X116670952Y-30172381D01*
X117480476Y-30172381D02*
X117480476Y-30981905D01*
X117528095Y-31077143D01*
X117575714Y-31124762D01*
X117670952Y-31172381D01*
X117861428Y-31172381D01*
X117956666Y-31124762D01*
X118004285Y-31077143D01*
X118051904Y-30981905D01*
X118051904Y-30172381D01*
X118528095Y-30648572D02*
X118861428Y-30648572D01*
X119004285Y-31172381D02*
X118528095Y-31172381D01*
X118528095Y-30172381D01*
X119004285Y-30172381D01*
X119956666Y-31172381D02*
X119385238Y-31172381D01*
X119670952Y-31172381D02*
X119670952Y-30172381D01*
X119575714Y-30315239D01*
X119480476Y-30410477D01*
X119385238Y-30458096D01*
%TD*%
M02*
