M48
; DRILL file {KiCad (5.1.10)-1} date 04/14/22 15:58:57
; FORMAT={-:-/ absolute / metric / decimal}
; #@! TF.CreationDate,2022-04-14T15:58:57+08:00
; #@! TF.GenerationSoftware,Kicad,Pcbnew,(5.1.10)-1
; #@! TF.FileFunction,Plated,1,2,PTH
FMAT,2
METRIC
T1C0.800
T2C1.000
T3C1.320
%
G90
G05
T1
X121.7Y-56.9
X121.7Y-64.52
X126.9Y-56.8
X126.9Y-64.42
X132.2Y-56.8
X132.2Y-64.42
X137.5Y-56.8
X137.5Y-64.42
X142.7Y-56.8
X142.7Y-64.42
T2
X99.2Y-36.56
X99.2Y-39.1
X101.74Y-36.56
X101.74Y-39.1
X104.28Y-36.56
X104.28Y-39.1
X106.82Y-36.56
X106.82Y-39.1
X110.8Y-36.46
X110.8Y-39.0
X111.6Y-58.8
X111.6Y-63.88
X113.34Y-36.46
X113.34Y-39.0
X116.24Y-21.2
X118.78Y-21.2
X121.32Y-21.2
X123.86Y-21.2
X126.4Y-21.2
X128.94Y-21.2
X133.2Y-21.2
X135.74Y-21.2
X138.28Y-21.2
X140.82Y-21.2
T3
X102.4Y-58.1
X102.4Y-63.1
X149.2Y-60.3
X154.2Y-60.3
X160.6Y-60.3
X165.6Y-60.3
X166.2Y-10.2
X166.2Y-15.2
X166.2Y-21.5
X166.2Y-26.5
X166.2Y-32.8
X166.2Y-37.8
X166.2Y-44.9
X166.2Y-49.9
T2
G00X98.4Y-49.7
M15
G01X98.4Y-47.7
M16
G05
G00X102.4Y-44.0
M15
G01X100.4Y-44.0
M16
G05
G00X104.4Y-49.7
M15
G01X104.4Y-47.7
M16
G05
T0
M30
