%TF.GenerationSoftware,KiCad,Pcbnew,(5.1.10)-1*%
%TF.CreationDate,2022-04-14T15:58:53+08:00*%
%TF.ProjectId,lamp,6c616d70-2e6b-4696-9361-645f70636258,rev?*%
%TF.SameCoordinates,Original*%
%TF.FileFunction,Legend,Top*%
%TF.FilePolarity,Positive*%
%FSLAX46Y46*%
G04 Gerber Fmt 4.6, Leading zero omitted, Abs format (unit mm)*
G04 Created by KiCad (PCBNEW (5.1.10)-1) date 2022-04-14 15:58:53*
%MOMM*%
%LPD*%
G01*
G04 APERTURE LIST*
%ADD10C,0.300000*%
%ADD11C,0.150000*%
%ADD12C,1.000000*%
%ADD13C,0.120000*%
%ADD14C,0.152400*%
%ADD15C,0.100000*%
G04 APERTURE END LIST*
D10*
X100792857Y-16107142D02*
X101007142Y-16178571D01*
X101364285Y-16178571D01*
X101507142Y-16107142D01*
X101578571Y-16035714D01*
X101650000Y-15892857D01*
X101650000Y-15750000D01*
X101578571Y-15607142D01*
X101507142Y-15535714D01*
X101364285Y-15464285D01*
X101078571Y-15392857D01*
X100935714Y-15321428D01*
X100864285Y-15250000D01*
X100792857Y-15107142D01*
X100792857Y-14964285D01*
X100864285Y-14821428D01*
X100935714Y-14750000D01*
X101078571Y-14678571D01*
X101435714Y-14678571D01*
X101650000Y-14750000D01*
X102292857Y-16178571D02*
X102292857Y-14678571D01*
X103150000Y-16178571D01*
X103150000Y-14678571D01*
X103792857Y-14821428D02*
X103864285Y-14750000D01*
X104007142Y-14678571D01*
X104364285Y-14678571D01*
X104507142Y-14750000D01*
X104578571Y-14821428D01*
X104650000Y-14964285D01*
X104650000Y-15107142D01*
X104578571Y-15321428D01*
X103721428Y-16178571D01*
X104650000Y-16178571D01*
X105578571Y-14678571D02*
X105721428Y-14678571D01*
X105864285Y-14750000D01*
X105935714Y-14821428D01*
X106007142Y-14964285D01*
X106078571Y-15250000D01*
X106078571Y-15607142D01*
X106007142Y-15892857D01*
X105935714Y-16035714D01*
X105864285Y-16107142D01*
X105721428Y-16178571D01*
X105578571Y-16178571D01*
X105435714Y-16107142D01*
X105364285Y-16035714D01*
X105292857Y-15892857D01*
X105221428Y-15607142D01*
X105221428Y-15250000D01*
X105292857Y-14964285D01*
X105364285Y-14821428D01*
X105435714Y-14750000D01*
X105578571Y-14678571D01*
X106650000Y-14821428D02*
X106721428Y-14750000D01*
X106864285Y-14678571D01*
X107221428Y-14678571D01*
X107364285Y-14750000D01*
X107435714Y-14821428D01*
X107507142Y-14964285D01*
X107507142Y-15107142D01*
X107435714Y-15321428D01*
X106578571Y-16178571D01*
X107507142Y-16178571D01*
X108078571Y-14821428D02*
X108150000Y-14750000D01*
X108292857Y-14678571D01*
X108650000Y-14678571D01*
X108792857Y-14750000D01*
X108864285Y-14821428D01*
X108935714Y-14964285D01*
X108935714Y-15107142D01*
X108864285Y-15321428D01*
X108007142Y-16178571D01*
X108935714Y-16178571D01*
X109864285Y-14678571D02*
X110007142Y-14678571D01*
X110150000Y-14750000D01*
X110221428Y-14821428D01*
X110292857Y-14964285D01*
X110364285Y-15250000D01*
X110364285Y-15607142D01*
X110292857Y-15892857D01*
X110221428Y-16035714D01*
X110150000Y-16107142D01*
X110007142Y-16178571D01*
X109864285Y-16178571D01*
X109721428Y-16107142D01*
X109650000Y-16035714D01*
X109578571Y-15892857D01*
X109507142Y-15607142D01*
X109507142Y-15250000D01*
X109578571Y-14964285D01*
X109650000Y-14821428D01*
X109721428Y-14750000D01*
X109864285Y-14678571D01*
X111650000Y-15178571D02*
X111650000Y-16178571D01*
X111292857Y-14607142D02*
X110935714Y-15678571D01*
X111864285Y-15678571D01*
X112721428Y-14678571D02*
X112864285Y-14678571D01*
X113007142Y-14750000D01*
X113078571Y-14821428D01*
X113150000Y-14964285D01*
X113221428Y-15250000D01*
X113221428Y-15607142D01*
X113150000Y-15892857D01*
X113078571Y-16035714D01*
X113007142Y-16107142D01*
X112864285Y-16178571D01*
X112721428Y-16178571D01*
X112578571Y-16107142D01*
X112507142Y-16035714D01*
X112435714Y-15892857D01*
X112364285Y-15607142D01*
X112364285Y-15250000D01*
X112435714Y-14964285D01*
X112507142Y-14821428D01*
X112578571Y-14750000D01*
X112721428Y-14678571D01*
X113721428Y-14678571D02*
X114721428Y-14678571D01*
X114078571Y-16178571D01*
X115292857Y-16178571D02*
X115292857Y-14678571D01*
X115864285Y-14678571D01*
X116007142Y-14750000D01*
X116078571Y-14821428D01*
X116150000Y-14964285D01*
X116150000Y-15178571D01*
X116078571Y-15321428D01*
X116007142Y-15392857D01*
X115864285Y-15464285D01*
X115292857Y-15464285D01*
X117078571Y-14678571D02*
X117221428Y-14678571D01*
X117364285Y-14750000D01*
X117435714Y-14821428D01*
X117507142Y-14964285D01*
X117578571Y-15250000D01*
X117578571Y-15607142D01*
X117507142Y-15892857D01*
X117435714Y-16035714D01*
X117364285Y-16107142D01*
X117221428Y-16178571D01*
X117078571Y-16178571D01*
X116935714Y-16107142D01*
X116864285Y-16035714D01*
X116792857Y-15892857D01*
X116721428Y-15607142D01*
X116721428Y-15250000D01*
X116792857Y-14964285D01*
X116864285Y-14821428D01*
X116935714Y-14750000D01*
X117078571Y-14678571D01*
X119007142Y-16178571D02*
X118150000Y-16178571D01*
X118578571Y-16178571D02*
X118578571Y-14678571D01*
X118435714Y-14892857D01*
X118292857Y-15035714D01*
X118150000Y-15107142D01*
D11*
X175000000Y-5000000D02*
X175000000Y-69300000D01*
X95000000Y-69300000D02*
X175000000Y-69300000D01*
X95000000Y-5000000D02*
X95000000Y-69300000D01*
D12*
X100290476Y-11961904D02*
X100290476Y-6961904D01*
X101480952Y-6961904D01*
X102195238Y-7200000D01*
X102671428Y-7676190D01*
X102909523Y-8152380D01*
X103147619Y-9104761D01*
X103147619Y-9819047D01*
X102909523Y-10771428D01*
X102671428Y-11247619D01*
X102195238Y-11723809D01*
X101480952Y-11961904D01*
X100290476Y-11961904D01*
X106004761Y-11961904D02*
X105528571Y-11723809D01*
X105290476Y-11485714D01*
X105052380Y-11009523D01*
X105052380Y-9580952D01*
X105290476Y-9104761D01*
X105528571Y-8866666D01*
X106004761Y-8628571D01*
X106719047Y-8628571D01*
X107195238Y-8866666D01*
X107433333Y-9104761D01*
X107671428Y-9580952D01*
X107671428Y-11009523D01*
X107433333Y-11485714D01*
X107195238Y-11723809D01*
X106719047Y-11961904D01*
X106004761Y-11961904D01*
X111957142Y-8628571D02*
X111957142Y-12676190D01*
X111719047Y-13152380D01*
X111480952Y-13390476D01*
X111004761Y-13628571D01*
X110290476Y-13628571D01*
X109814285Y-13390476D01*
X111957142Y-11723809D02*
X111480952Y-11961904D01*
X110528571Y-11961904D01*
X110052380Y-11723809D01*
X109814285Y-11485714D01*
X109576190Y-11009523D01*
X109576190Y-9580952D01*
X109814285Y-9104761D01*
X110052380Y-8866666D01*
X110528571Y-8628571D01*
X111480952Y-8628571D01*
X111957142Y-8866666D01*
X114338095Y-10057142D02*
X118147619Y-10057142D01*
X123147619Y-11961904D02*
X120290476Y-11961904D01*
X121719047Y-11961904D02*
X121719047Y-6961904D01*
X121242857Y-7676190D01*
X120766666Y-8152380D01*
X120290476Y-8390476D01*
D11*
X95000000Y-5000000D02*
X175000000Y-5000000D01*
D13*
%TO.C,Y2*%
X128550000Y-33100000D02*
X121300000Y-33100000D01*
X128550000Y-36700000D02*
X128550000Y-33100000D01*
X121300000Y-36700000D02*
X128550000Y-36700000D01*
%TO.C,Y1*%
X125625000Y-40575000D02*
X125625000Y-39225000D01*
X127375000Y-40575000D02*
X127375000Y-39225000D01*
%TO.C,U2*%
X152200000Y-23060000D02*
X155650000Y-23060000D01*
X152200000Y-23060000D02*
X150250000Y-23060000D01*
X152200000Y-17940000D02*
X154150000Y-17940000D01*
X152200000Y-17940000D02*
X150250000Y-17940000D01*
%TO.C,U1*%
X133690000Y-32440000D02*
X132400000Y-32440000D01*
X133690000Y-31990000D02*
X133690000Y-32440000D01*
X134140000Y-31990000D02*
X133690000Y-31990000D01*
X140910000Y-31990000D02*
X140910000Y-32440000D01*
X140460000Y-31990000D02*
X140910000Y-31990000D01*
X133690000Y-39210000D02*
X133690000Y-38760000D01*
X134140000Y-39210000D02*
X133690000Y-39210000D01*
X140910000Y-39210000D02*
X140910000Y-38760000D01*
X140460000Y-39210000D02*
X140910000Y-39210000D01*
%TO.C,SW1*%
X121065000Y-61313333D02*
X122335000Y-61313333D01*
X122265000Y-62520000D02*
X122265000Y-61313333D01*
X122145000Y-62520000D02*
X122145000Y-61313333D01*
X122025000Y-62520000D02*
X122025000Y-61313333D01*
X121905000Y-62520000D02*
X121905000Y-61313333D01*
X121785000Y-62520000D02*
X121785000Y-61313333D01*
X121665000Y-62520000D02*
X121665000Y-61313333D01*
X121545000Y-62520000D02*
X121545000Y-61313333D01*
X121425000Y-62520000D02*
X121425000Y-61313333D01*
X121305000Y-62520000D02*
X121305000Y-61313333D01*
X121185000Y-62520000D02*
X121185000Y-61313333D01*
X121065000Y-58900000D02*
X121065000Y-62520000D01*
X122335000Y-58900000D02*
X121065000Y-58900000D01*
X122335000Y-62520000D02*
X122335000Y-58900000D01*
X121065000Y-62520000D02*
X122335000Y-62520000D01*
X119350000Y-64360000D02*
X120660000Y-64360000D01*
X119350000Y-64360000D02*
X119350000Y-62977000D01*
X122690000Y-57299000D02*
X123810000Y-57299000D01*
X119590000Y-57299000D02*
X120710000Y-57299000D01*
X122740000Y-64120000D02*
X123810000Y-64120000D01*
X119590000Y-64120000D02*
X120660000Y-64120000D01*
X123810000Y-64120000D02*
X123810000Y-57299000D01*
X119590000Y-64120000D02*
X119590000Y-57299000D01*
%TO.C,SS1*%
X112900000Y-51350000D02*
X118300000Y-51350000D01*
X112900000Y-54650000D02*
X118300000Y-54650000D01*
X112900000Y-51350000D02*
X112900000Y-54650000D01*
%TO.C,RED1*%
X122602500Y-25935000D02*
X124887500Y-25935000D01*
X122602500Y-24465000D02*
X122602500Y-25935000D01*
X124887500Y-24465000D02*
X122602500Y-24465000D01*
%TO.C,R29*%
X144977500Y-20757776D02*
X144977500Y-21267224D01*
X146022500Y-20757776D02*
X146022500Y-21267224D01*
%TO.C,R28*%
X143377500Y-20757776D02*
X143377500Y-21267224D01*
X144422500Y-20757776D02*
X144422500Y-21267224D01*
%TO.C,R27*%
X119722500Y-45767224D02*
X119722500Y-45257776D01*
X118677500Y-45767224D02*
X118677500Y-45257776D01*
%TO.C,R26*%
X120377500Y-45257776D02*
X120377500Y-45767224D01*
X121422500Y-45257776D02*
X121422500Y-45767224D01*
%TO.C,R25*%
X123522500Y-53167224D02*
X123522500Y-52657776D01*
X122477500Y-53167224D02*
X122477500Y-52657776D01*
%TO.C,R24*%
X121922500Y-53142224D02*
X121922500Y-52632776D01*
X120877500Y-53142224D02*
X120877500Y-52632776D01*
%TO.C,R23*%
X118122500Y-45767224D02*
X118122500Y-45257776D01*
X117077500Y-45767224D02*
X117077500Y-45257776D01*
%TO.C,R22*%
X155622500Y-25642224D02*
X155622500Y-25132776D01*
X154577500Y-25642224D02*
X154577500Y-25132776D01*
%TO.C,R21*%
X155022500Y-32042224D02*
X155022500Y-31532776D01*
X153977500Y-32042224D02*
X153977500Y-31532776D01*
%TO.C,R20*%
X154922500Y-38042223D02*
X154922500Y-37532775D01*
X153877500Y-38042223D02*
X153877500Y-37532775D01*
%TO.C,R19*%
X151145276Y-46522500D02*
X151654724Y-46522500D01*
X151145276Y-45477500D02*
X151654724Y-45477500D01*
%TO.C,R18*%
X145345276Y-46522500D02*
X145854724Y-46522500D01*
X145345276Y-45477500D02*
X145854724Y-45477500D01*
%TO.C,R17*%
X139545276Y-46422500D02*
X140054724Y-46422500D01*
X139545276Y-45377500D02*
X140054724Y-45377500D01*
%TO.C,R16*%
X133757776Y-46422500D02*
X134267224Y-46422500D01*
X133757776Y-45377500D02*
X134267224Y-45377500D01*
%TO.C,R15*%
X127757776Y-46322500D02*
X128267224Y-46322500D01*
X127757776Y-45277500D02*
X128267224Y-45277500D01*
%TO.C,R14*%
X153945276Y-28922500D02*
X154454724Y-28922500D01*
X153945276Y-27877500D02*
X154454724Y-27877500D01*
%TO.C,R13*%
X153232776Y-35222500D02*
X153742224Y-35222500D01*
X153232776Y-34177500D02*
X153742224Y-34177500D01*
%TO.C,R12*%
X153232776Y-41322501D02*
X153742224Y-41322501D01*
X153232776Y-40277501D02*
X153742224Y-40277501D01*
%TO.C,R11*%
X147977500Y-44832776D02*
X147977500Y-45342224D01*
X149022500Y-44832776D02*
X149022500Y-45342224D01*
%TO.C,R10*%
X142277500Y-44845276D02*
X142277500Y-45354724D01*
X143322500Y-44845276D02*
X143322500Y-45354724D01*
%TO.C,R9*%
X136477500Y-44732776D02*
X136477500Y-45242224D01*
X137522500Y-44732776D02*
X137522500Y-45242224D01*
%TO.C,R8*%
X130677500Y-44745276D02*
X130677500Y-45254724D01*
X131722500Y-44745276D02*
X131722500Y-45254724D01*
%TO.C,R7*%
X124777500Y-44632776D02*
X124777500Y-45142224D01*
X125822500Y-44632776D02*
X125822500Y-45142224D01*
%TO.C,R6*%
X119637742Y-32122500D02*
X120112258Y-32122500D01*
X119637742Y-31077500D02*
X120112258Y-31077500D01*
%TO.C,R5*%
X119537742Y-28822500D02*
X120012258Y-28822500D01*
X119537742Y-27777500D02*
X120012258Y-27777500D01*
%TO.C,R4*%
X119537742Y-25822500D02*
X120012258Y-25822500D01*
X119537742Y-24777500D02*
X120012258Y-24777500D01*
%TO.C,R3*%
X130177500Y-34732776D02*
X130177500Y-35242224D01*
X131222500Y-34732776D02*
X131222500Y-35242224D01*
%TO.C,R2*%
X115935000Y-26827064D02*
X115935000Y-26372936D01*
X114465000Y-26827064D02*
X114465000Y-26372936D01*
%TO.C,R1*%
X120765000Y-39772936D02*
X120765000Y-40227064D01*
X122235000Y-39772936D02*
X122235000Y-40227064D01*
D14*
%TO.C,Q8*%
X157187860Y-26374499D02*
X156174400Y-26374499D01*
X157462139Y-28025499D02*
X158137861Y-28025499D01*
X156174400Y-26374499D02*
X156174400Y-28025499D01*
X159425600Y-26374499D02*
X158412140Y-26374499D01*
X159425600Y-28025499D02*
X159425600Y-26374499D01*
%TO.C,Q7*%
X156737860Y-32774501D02*
X155724400Y-32774501D01*
X157012139Y-34425501D02*
X157687861Y-34425501D01*
X155724400Y-32774501D02*
X155724400Y-34425501D01*
X158975600Y-32774501D02*
X157962140Y-32774501D01*
X158975600Y-34425501D02*
X158975600Y-32774501D01*
%TO.C,Q6*%
X156637860Y-38874500D02*
X155624400Y-38874500D01*
X156912139Y-40525500D02*
X157587861Y-40525500D01*
X155624400Y-38874500D02*
X155624400Y-40525500D01*
X158875600Y-38874500D02*
X157862140Y-38874500D01*
X158875600Y-40525500D02*
X158875600Y-38874500D01*
%TO.C,Q5*%
X150525500Y-48287860D02*
X150525500Y-47274400D01*
X148874500Y-48562139D02*
X148874500Y-49237861D01*
X150525500Y-47274400D02*
X148874500Y-47274400D01*
X150525500Y-50525600D02*
X150525500Y-49512140D01*
X148874500Y-50525600D02*
X150525500Y-50525600D01*
%TO.C,Q4*%
X144725500Y-48187860D02*
X144725500Y-47174400D01*
X143074500Y-48462139D02*
X143074500Y-49137861D01*
X144725500Y-47174400D02*
X143074500Y-47174400D01*
X144725500Y-50425600D02*
X144725500Y-49412140D01*
X143074500Y-50425600D02*
X144725500Y-50425600D01*
%TO.C,Q3*%
X139025500Y-48087860D02*
X139025500Y-47074400D01*
X137374500Y-48362139D02*
X137374500Y-49037861D01*
X139025500Y-47074400D02*
X137374500Y-47074400D01*
X139025500Y-50325600D02*
X139025500Y-49312140D01*
X137374500Y-50325600D02*
X139025500Y-50325600D01*
%TO.C,Q2*%
X133125500Y-48037860D02*
X133125500Y-47024400D01*
X131474500Y-48312139D02*
X131474500Y-48987861D01*
X133125500Y-47024400D02*
X131474500Y-47024400D01*
X133125500Y-50275600D02*
X133125500Y-49262140D01*
X131474500Y-50275600D02*
X133125500Y-50275600D01*
%TO.C,Q1*%
X127425500Y-48037860D02*
X127425500Y-47024400D01*
X125774500Y-48312139D02*
X125774500Y-48987861D01*
X127425500Y-47024400D02*
X125774500Y-47024400D01*
X127425500Y-50275600D02*
X127425500Y-49262140D01*
X125774500Y-50275600D02*
X127425500Y-50275600D01*
D13*
%TO.C,LD1*%
X132400000Y-54650000D02*
X127000000Y-54650000D01*
X132400000Y-51350000D02*
X127000000Y-51350000D01*
X132400000Y-54650000D02*
X132400000Y-51350000D01*
%TO.C,J17*%
X143335001Y-60006667D02*
X142065001Y-60006667D01*
X142135001Y-58800000D02*
X142135001Y-60006667D01*
X142255001Y-58800000D02*
X142255001Y-60006667D01*
X142375001Y-58800000D02*
X142375001Y-60006667D01*
X142495001Y-58800000D02*
X142495001Y-60006667D01*
X142615001Y-58800000D02*
X142615001Y-60006667D01*
X142735001Y-58800000D02*
X142735001Y-60006667D01*
X142855001Y-58800000D02*
X142855001Y-60006667D01*
X142975001Y-58800000D02*
X142975001Y-60006667D01*
X143095001Y-58800000D02*
X143095001Y-60006667D01*
X143215001Y-58800000D02*
X143215001Y-60006667D01*
X143335001Y-62420000D02*
X143335001Y-58800000D01*
X142065001Y-62420000D02*
X143335001Y-62420000D01*
X142065001Y-58800000D02*
X142065001Y-62420000D01*
X143335001Y-58800000D02*
X142065001Y-58800000D01*
X145050001Y-56960000D02*
X143740001Y-56960000D01*
X145050001Y-56960000D02*
X145050001Y-58343000D01*
X141710001Y-64021000D02*
X140590001Y-64021000D01*
X144810001Y-64021000D02*
X143690001Y-64021000D01*
X141660001Y-57200000D02*
X140590001Y-57200000D01*
X144810001Y-57200000D02*
X143740001Y-57200000D01*
X140590001Y-57200000D02*
X140590001Y-64021000D01*
X144810001Y-57200000D02*
X144810001Y-64021000D01*
%TO.C,J16*%
X138135000Y-60006667D02*
X136865000Y-60006667D01*
X136935000Y-58800000D02*
X136935000Y-60006667D01*
X137055000Y-58800000D02*
X137055000Y-60006667D01*
X137175000Y-58800000D02*
X137175000Y-60006667D01*
X137295000Y-58800000D02*
X137295000Y-60006667D01*
X137415000Y-58800000D02*
X137415000Y-60006667D01*
X137535000Y-58800000D02*
X137535000Y-60006667D01*
X137655000Y-58800000D02*
X137655000Y-60006667D01*
X137775000Y-58800000D02*
X137775000Y-60006667D01*
X137895000Y-58800000D02*
X137895000Y-60006667D01*
X138015000Y-58800000D02*
X138015000Y-60006667D01*
X138135000Y-62420000D02*
X138135000Y-58800000D01*
X136865000Y-62420000D02*
X138135000Y-62420000D01*
X136865000Y-58800000D02*
X136865000Y-62420000D01*
X138135000Y-58800000D02*
X136865000Y-58800000D01*
X139850000Y-56960000D02*
X138540000Y-56960000D01*
X139850000Y-56960000D02*
X139850000Y-58343000D01*
X136510000Y-64021000D02*
X135390000Y-64021000D01*
X139610000Y-64021000D02*
X138490000Y-64021000D01*
X136460000Y-57200000D02*
X135390000Y-57200000D01*
X139610000Y-57200000D02*
X138540000Y-57200000D01*
X135390000Y-57200000D02*
X135390000Y-64021000D01*
X139610000Y-57200000D02*
X139610000Y-64021000D01*
%TO.C,J15*%
X132835000Y-60006667D02*
X131565000Y-60006667D01*
X131635000Y-58800000D02*
X131635000Y-60006667D01*
X131755000Y-58800000D02*
X131755000Y-60006667D01*
X131875000Y-58800000D02*
X131875000Y-60006667D01*
X131995000Y-58800000D02*
X131995000Y-60006667D01*
X132115000Y-58800000D02*
X132115000Y-60006667D01*
X132235000Y-58800000D02*
X132235000Y-60006667D01*
X132355000Y-58800000D02*
X132355000Y-60006667D01*
X132475000Y-58800000D02*
X132475000Y-60006667D01*
X132595000Y-58800000D02*
X132595000Y-60006667D01*
X132715000Y-58800000D02*
X132715000Y-60006667D01*
X132835000Y-62420000D02*
X132835000Y-58800000D01*
X131565000Y-62420000D02*
X132835000Y-62420000D01*
X131565000Y-58800000D02*
X131565000Y-62420000D01*
X132835000Y-58800000D02*
X131565000Y-58800000D01*
X134550000Y-56960000D02*
X133240000Y-56960000D01*
X134550000Y-56960000D02*
X134550000Y-58343000D01*
X131210000Y-64021000D02*
X130090000Y-64021000D01*
X134310000Y-64021000D02*
X133190000Y-64021000D01*
X131160000Y-57200000D02*
X130090000Y-57200000D01*
X134310000Y-57200000D02*
X133240000Y-57200000D01*
X130090000Y-57200000D02*
X130090000Y-64021000D01*
X134310000Y-57200000D02*
X134310000Y-64021000D01*
%TO.C,J14*%
X130270000Y-19870000D02*
X130270000Y-21200000D01*
X128940000Y-19870000D02*
X130270000Y-19870000D01*
X127670000Y-19870000D02*
X127670000Y-22530000D01*
X127670000Y-22530000D02*
X114910000Y-22530000D01*
X127670000Y-19870000D02*
X114910000Y-19870000D01*
X114910000Y-19870000D02*
X114910000Y-22530000D01*
%TO.C,J13*%
X131870000Y-22530000D02*
X131870000Y-21200000D01*
X133200000Y-22530000D02*
X131870000Y-22530000D01*
X134470000Y-22530000D02*
X134470000Y-19870000D01*
X134470000Y-19870000D02*
X142150000Y-19870000D01*
X134470000Y-22530000D02*
X142150000Y-22530000D01*
X142150000Y-22530000D02*
X142150000Y-19870000D01*
%TO.C,J12*%
X172500000Y-18400000D02*
X172500000Y-7550000D01*
X167400000Y-18400000D02*
X172500000Y-18400000D01*
X167700000Y-17900000D02*
X167400000Y-18400000D01*
X162300000Y-17900000D02*
X167700000Y-17900000D01*
X162550000Y-18400000D02*
X162300000Y-17900000D01*
X162500000Y-18400000D02*
X162550000Y-18400000D01*
X160600000Y-18400000D02*
X162500000Y-18400000D01*
X160850000Y-17900000D02*
X160600000Y-18400000D01*
X159900000Y-17900000D02*
X160850000Y-17900000D01*
X159900000Y-7550000D02*
X159900000Y-17900000D01*
X172500000Y-7550000D02*
X159900000Y-7550000D01*
%TO.C,J11*%
X172500000Y-29699999D02*
X172500000Y-18849999D01*
X167400000Y-29699999D02*
X172500000Y-29699999D01*
X167700000Y-29199999D02*
X167400000Y-29699999D01*
X162300000Y-29199999D02*
X167700000Y-29199999D01*
X162550000Y-29699999D02*
X162300000Y-29199999D01*
X162500000Y-29699999D02*
X162550000Y-29699999D01*
X160600000Y-29699999D02*
X162500000Y-29699999D01*
X160850000Y-29199999D02*
X160600000Y-29699999D01*
X159900000Y-29199999D02*
X160850000Y-29199999D01*
X159900000Y-18849999D02*
X159900000Y-29199999D01*
X172500000Y-18849999D02*
X159900000Y-18849999D01*
%TO.C,J10*%
X172500000Y-40999999D02*
X172500000Y-30149999D01*
X167400000Y-40999999D02*
X172500000Y-40999999D01*
X167700000Y-40499999D02*
X167400000Y-40999999D01*
X162300000Y-40499999D02*
X167700000Y-40499999D01*
X162550000Y-40999999D02*
X162300000Y-40499999D01*
X162500000Y-40999999D02*
X162550000Y-40999999D01*
X160600000Y-40999999D02*
X162500000Y-40999999D01*
X160850000Y-40499999D02*
X160600000Y-40999999D01*
X159900000Y-40499999D02*
X160850000Y-40499999D01*
X159900000Y-30149999D02*
X159900000Y-40499999D01*
X172500000Y-30149999D02*
X159900000Y-30149999D01*
%TO.C,J9*%
X159900000Y-41700000D02*
X159900000Y-52550000D01*
X165000000Y-41700000D02*
X159900000Y-41700000D01*
X164700000Y-42200000D02*
X165000000Y-41700000D01*
X170100000Y-42200000D02*
X164700000Y-42200000D01*
X169850000Y-41700000D02*
X170100000Y-42200000D01*
X169900000Y-41700000D02*
X169850000Y-41700000D01*
X171800000Y-41700000D02*
X169900000Y-41700000D01*
X171550000Y-42200000D02*
X171800000Y-41700000D01*
X172500000Y-42200000D02*
X171550000Y-42200000D01*
X172500000Y-52550000D02*
X172500000Y-42200000D01*
X159900000Y-52550000D02*
X172500000Y-52550000D01*
%TO.C,J8*%
X157400000Y-66600000D02*
X168250000Y-66600000D01*
X157400000Y-61500000D02*
X157400000Y-66600000D01*
X157900000Y-61800000D02*
X157400000Y-61500000D01*
X157900000Y-56400000D02*
X157900000Y-61800000D01*
X157400000Y-56650000D02*
X157900000Y-56400000D01*
X157400000Y-56600000D02*
X157400000Y-56650000D01*
X157400000Y-54700000D02*
X157400000Y-56600000D01*
X157900000Y-54950000D02*
X157400000Y-54700000D01*
X157900000Y-54000000D02*
X157900000Y-54950000D01*
X168250000Y-54000000D02*
X157900000Y-54000000D01*
X168250000Y-66600000D02*
X168250000Y-54000000D01*
%TO.C,J7*%
X146000000Y-66600000D02*
X156850000Y-66600000D01*
X146000000Y-61500000D02*
X146000000Y-66600000D01*
X146500000Y-61800000D02*
X146000000Y-61500000D01*
X146500000Y-56400000D02*
X146500000Y-61800000D01*
X146000000Y-56650000D02*
X146500000Y-56400000D01*
X146000000Y-56600000D02*
X146000000Y-56650000D01*
X146000000Y-54700000D02*
X146000000Y-56600000D01*
X146500000Y-54950000D02*
X146000000Y-54700000D01*
X146500000Y-54000000D02*
X146500000Y-54950000D01*
X156850000Y-54000000D02*
X146500000Y-54000000D01*
X156850000Y-66600000D02*
X156850000Y-54000000D01*
%TO.C,J6*%
X109470000Y-40330000D02*
X109470000Y-39000000D01*
X110800000Y-40330000D02*
X109470000Y-40330000D01*
X109470000Y-37730000D02*
X109470000Y-35130000D01*
X112070000Y-37730000D02*
X109470000Y-37730000D01*
X112070000Y-40330000D02*
X112070000Y-37730000D01*
X109470000Y-35130000D02*
X114670000Y-35130000D01*
X112070000Y-40330000D02*
X114670000Y-40330000D01*
X114670000Y-40330000D02*
X114670000Y-35130000D01*
%TO.C,J5*%
X97500000Y-53300000D02*
X97500000Y-50700000D01*
X112200000Y-53300000D02*
X97500000Y-53300000D01*
X97500000Y-44100000D02*
X99400000Y-44100000D01*
X97500000Y-46800000D02*
X97500000Y-44100000D01*
X112200000Y-44100000D02*
X112200000Y-53300000D01*
X103400000Y-44100000D02*
X112200000Y-44100000D01*
X98350000Y-53500000D02*
X97300000Y-53500000D01*
X97300000Y-52450000D02*
X97300000Y-53500000D01*
%TO.C,J4*%
X143490000Y-33000000D02*
X143490000Y-26990000D01*
X150310000Y-30750000D02*
X150310000Y-26990000D01*
X143490000Y-26990000D02*
X144750000Y-26990000D01*
X150310000Y-26990000D02*
X149050000Y-26990000D01*
%TO.C,J3*%
X96100000Y-54900000D02*
X96100000Y-65750000D01*
X101200000Y-54900000D02*
X96100000Y-54900000D01*
X100900000Y-55400000D02*
X101200000Y-54900000D01*
X106300000Y-55400000D02*
X100900000Y-55400000D01*
X106050000Y-54900000D02*
X106300000Y-55400000D01*
X106100000Y-54900000D02*
X106050000Y-54900000D01*
X108000000Y-54900000D02*
X106100000Y-54900000D01*
X107750000Y-55400000D02*
X108000000Y-54900000D01*
X108700000Y-55400000D02*
X107750000Y-55400000D01*
X108700000Y-65750000D02*
X108700000Y-55400000D01*
X96100000Y-65750000D02*
X108700000Y-65750000D01*
%TO.C,J2*%
X126265000Y-61213333D02*
X127535000Y-61213333D01*
X127465000Y-62420000D02*
X127465000Y-61213333D01*
X127345000Y-62420000D02*
X127345000Y-61213333D01*
X127225000Y-62420000D02*
X127225000Y-61213333D01*
X127105000Y-62420000D02*
X127105000Y-61213333D01*
X126985000Y-62420000D02*
X126985000Y-61213333D01*
X126865000Y-62420000D02*
X126865000Y-61213333D01*
X126745000Y-62420000D02*
X126745000Y-61213333D01*
X126625000Y-62420000D02*
X126625000Y-61213333D01*
X126505000Y-62420000D02*
X126505000Y-61213333D01*
X126385000Y-62420000D02*
X126385000Y-61213333D01*
X126265000Y-58800000D02*
X126265000Y-62420000D01*
X127535000Y-58800000D02*
X126265000Y-58800000D01*
X127535000Y-62420000D02*
X127535000Y-58800000D01*
X126265000Y-62420000D02*
X127535000Y-62420000D01*
X124550000Y-64260000D02*
X125860000Y-64260000D01*
X124550000Y-64260000D02*
X124550000Y-62877000D01*
X127890000Y-57199000D02*
X129010000Y-57199000D01*
X124790000Y-57199000D02*
X125910000Y-57199000D01*
X127940000Y-64020000D02*
X129010000Y-64020000D01*
X124790000Y-64020000D02*
X125860000Y-64020000D01*
X129010000Y-64020000D02*
X129010000Y-57199000D01*
X124790000Y-64020000D02*
X124790000Y-57199000D01*
%TO.C,J1*%
X97870000Y-40430000D02*
X97870000Y-39100000D01*
X99200000Y-40430000D02*
X97870000Y-40430000D01*
X97870000Y-37830000D02*
X97870000Y-35230000D01*
X100470000Y-37830000D02*
X97870000Y-37830000D01*
X100470000Y-40430000D02*
X100470000Y-37830000D01*
X97870000Y-35230000D02*
X108150000Y-35230000D01*
X100470000Y-40430000D02*
X108150000Y-40430000D01*
X108150000Y-40430000D02*
X108150000Y-35230000D01*
%TO.C,GREEN1*%
X122602500Y-29135000D02*
X124887500Y-29135000D01*
X122602500Y-27665000D02*
X122602500Y-29135000D01*
X124887500Y-27665000D02*
X122602500Y-27665000D01*
D14*
%TO.C,F1*%
X113720900Y-56958500D02*
X109479100Y-56958500D01*
X113720900Y-65721500D02*
X109479100Y-65721500D01*
X109479100Y-65721500D02*
X109479100Y-56958500D01*
X113720900Y-65721500D02*
X113720900Y-56958500D01*
D13*
%TO.C,D1*%
X118850000Y-58500000D02*
X118850000Y-64200000D01*
X114550000Y-58500000D02*
X114550000Y-64200000D01*
X118850000Y-58500000D02*
X114550000Y-58500000D01*
%TO.C,C19*%
X130090000Y-39991233D02*
X130090000Y-40283767D01*
X131110000Y-39991233D02*
X131110000Y-40283767D01*
%TO.C,C18*%
X127965000Y-27138748D02*
X127965000Y-27661252D01*
X129435000Y-27138748D02*
X129435000Y-27661252D01*
%TO.C,C17*%
X114869830Y-47506422D02*
X114347326Y-47506422D01*
X114869830Y-48976422D02*
X114347326Y-48976422D01*
%TO.C,C16*%
X114861252Y-44141420D02*
X114338748Y-44141420D01*
X114861252Y-45611420D02*
X114338748Y-45611420D01*
%TO.C,C15*%
X98740000Y-27395563D02*
X99804437Y-28460000D01*
X98740000Y-21004437D02*
X99804437Y-19940000D01*
X98740000Y-21004437D02*
X98740000Y-22890000D01*
X98740000Y-27395563D02*
X98740000Y-25510000D01*
X99804437Y-28460000D02*
X107260000Y-28460000D01*
X99804437Y-19940000D02*
X107260000Y-19940000D01*
X107260000Y-19940000D02*
X107260000Y-22890000D01*
X107260000Y-28460000D02*
X107260000Y-25510000D01*
%TO.C,C14*%
X144434420Y-38110000D02*
X144715580Y-38110000D01*
X144434420Y-37090000D02*
X144715580Y-37090000D01*
%TO.C,C13*%
X144188748Y-36435000D02*
X144711252Y-36435000D01*
X144188748Y-34965000D02*
X144711252Y-34965000D01*
%TO.C,C12*%
X130865000Y-27301248D02*
X130865000Y-27823752D01*
X132335000Y-27301248D02*
X132335000Y-27823752D01*
%TO.C,C11*%
X133465000Y-27301248D02*
X133465000Y-27823752D01*
X134935000Y-27301248D02*
X134935000Y-27823752D01*
%TO.C,C6*%
X138265000Y-27301248D02*
X138265000Y-27823752D01*
X139735000Y-27301248D02*
X139735000Y-27823752D01*
%TO.C,C5*%
X148284420Y-38110000D02*
X148565580Y-38110000D01*
X148284420Y-37090000D02*
X148565580Y-37090000D01*
%TO.C,C4*%
X140665000Y-27301248D02*
X140665000Y-27823752D01*
X142135000Y-27301248D02*
X142135000Y-27823752D01*
%TO.C,C3*%
X118365000Y-39838748D02*
X118365000Y-40361252D01*
X119835000Y-39838748D02*
X119835000Y-40361252D01*
%TO.C,C2*%
X147988748Y-36435000D02*
X148511252Y-36435000D01*
X147988748Y-34965000D02*
X148511252Y-34965000D01*
%TO.C,C1*%
X135865000Y-27488748D02*
X135865000Y-28011252D01*
X137335000Y-27488748D02*
X137335000Y-28011252D01*
%TO.C,BLUE1*%
X122715000Y-32334999D02*
X125000000Y-32334999D01*
X122715000Y-30864999D02*
X122715000Y-32334999D01*
X125000000Y-30864999D02*
X122715000Y-30864999D01*
%TO.C,Y2*%
D11*
X118476190Y-35476190D02*
X118952380Y-35476190D01*
X117952380Y-35809523D02*
X118476190Y-35476190D01*
X117952380Y-35142857D01*
X118047619Y-34857142D02*
X118000000Y-34809523D01*
X117952380Y-34714285D01*
X117952380Y-34476190D01*
X118000000Y-34380952D01*
X118047619Y-34333333D01*
X118142857Y-34285714D01*
X118238095Y-34285714D01*
X118380952Y-34333333D01*
X118952380Y-34904761D01*
X118952380Y-34285714D01*
%TO.C,Y1*%
X128023809Y-39876190D02*
X128023809Y-40352380D01*
X127690476Y-39352380D02*
X128023809Y-39876190D01*
X128357142Y-39352380D01*
X129214285Y-40352380D02*
X128642857Y-40352380D01*
X128928571Y-40352380D02*
X128928571Y-39352380D01*
X128833333Y-39495238D01*
X128738095Y-39590476D01*
X128642857Y-39638095D01*
%TO.C,U2*%
X151438095Y-16452380D02*
X151438095Y-17261904D01*
X151485714Y-17357142D01*
X151533333Y-17404761D01*
X151628571Y-17452380D01*
X151819047Y-17452380D01*
X151914285Y-17404761D01*
X151961904Y-17357142D01*
X152009523Y-17261904D01*
X152009523Y-16452380D01*
X152438095Y-16547619D02*
X152485714Y-16500000D01*
X152580952Y-16452380D01*
X152819047Y-16452380D01*
X152914285Y-16500000D01*
X152961904Y-16547619D01*
X153009523Y-16642857D01*
X153009523Y-16738095D01*
X152961904Y-16880952D01*
X152390476Y-17452380D01*
X153009523Y-17452380D01*
%TO.C,U1*%
X136538095Y-29202380D02*
X136538095Y-30011904D01*
X136585714Y-30107142D01*
X136633333Y-30154761D01*
X136728571Y-30202380D01*
X136919047Y-30202380D01*
X137014285Y-30154761D01*
X137061904Y-30107142D01*
X137109523Y-30011904D01*
X137109523Y-29202380D01*
X138109523Y-30202380D02*
X137538095Y-30202380D01*
X137823809Y-30202380D02*
X137823809Y-29202380D01*
X137728571Y-29345238D01*
X137633333Y-29440476D01*
X137538095Y-29488095D01*
%TO.C,SW1*%
X120366666Y-66904761D02*
X120509523Y-66952380D01*
X120747619Y-66952380D01*
X120842857Y-66904761D01*
X120890476Y-66857142D01*
X120938095Y-66761904D01*
X120938095Y-66666666D01*
X120890476Y-66571428D01*
X120842857Y-66523809D01*
X120747619Y-66476190D01*
X120557142Y-66428571D01*
X120461904Y-66380952D01*
X120414285Y-66333333D01*
X120366666Y-66238095D01*
X120366666Y-66142857D01*
X120414285Y-66047619D01*
X120461904Y-66000000D01*
X120557142Y-65952380D01*
X120795238Y-65952380D01*
X120938095Y-66000000D01*
X121271428Y-65952380D02*
X121509523Y-66952380D01*
X121700000Y-66238095D01*
X121890476Y-66952380D01*
X122128571Y-65952380D01*
X123033333Y-66952380D02*
X122461904Y-66952380D01*
X122747619Y-66952380D02*
X122747619Y-65952380D01*
X122652380Y-66095238D01*
X122557142Y-66190476D01*
X122461904Y-66238095D01*
%TO.C,SS1*%
X114861904Y-50904761D02*
X115004761Y-50952380D01*
X115242857Y-50952380D01*
X115338095Y-50904761D01*
X115385714Y-50857142D01*
X115433333Y-50761904D01*
X115433333Y-50666666D01*
X115385714Y-50571428D01*
X115338095Y-50523809D01*
X115242857Y-50476190D01*
X115052380Y-50428571D01*
X114957142Y-50380952D01*
X114909523Y-50333333D01*
X114861904Y-50238095D01*
X114861904Y-50142857D01*
X114909523Y-50047619D01*
X114957142Y-50000000D01*
X115052380Y-49952380D01*
X115290476Y-49952380D01*
X115433333Y-50000000D01*
X115814285Y-50904761D02*
X115957142Y-50952380D01*
X116195238Y-50952380D01*
X116290476Y-50904761D01*
X116338095Y-50857142D01*
X116385714Y-50761904D01*
X116385714Y-50666666D01*
X116338095Y-50571428D01*
X116290476Y-50523809D01*
X116195238Y-50476190D01*
X116004761Y-50428571D01*
X115909523Y-50380952D01*
X115861904Y-50333333D01*
X115814285Y-50238095D01*
X115814285Y-50142857D01*
X115861904Y-50047619D01*
X115909523Y-50000000D01*
X116004761Y-49952380D01*
X116242857Y-49952380D01*
X116385714Y-50000000D01*
X117338095Y-50952380D02*
X116766666Y-50952380D01*
X117052380Y-50952380D02*
X117052380Y-49952380D01*
X116957142Y-50095238D01*
X116861904Y-50190476D01*
X116766666Y-50238095D01*
%TO.C,RED1*%
X122980952Y-24452380D02*
X122647619Y-23976190D01*
X122409523Y-24452380D02*
X122409523Y-23452380D01*
X122790476Y-23452380D01*
X122885714Y-23500000D01*
X122933333Y-23547619D01*
X122980952Y-23642857D01*
X122980952Y-23785714D01*
X122933333Y-23880952D01*
X122885714Y-23928571D01*
X122790476Y-23976190D01*
X122409523Y-23976190D01*
X123409523Y-23928571D02*
X123742857Y-23928571D01*
X123885714Y-24452380D02*
X123409523Y-24452380D01*
X123409523Y-23452380D01*
X123885714Y-23452380D01*
X124314285Y-24452380D02*
X124314285Y-23452380D01*
X124552380Y-23452380D01*
X124695238Y-23500000D01*
X124790476Y-23595238D01*
X124838095Y-23690476D01*
X124885714Y-23880952D01*
X124885714Y-24023809D01*
X124838095Y-24214285D01*
X124790476Y-24309523D01*
X124695238Y-24404761D01*
X124552380Y-24452380D01*
X124314285Y-24452380D01*
X125838095Y-24452380D02*
X125266666Y-24452380D01*
X125552380Y-24452380D02*
X125552380Y-23452380D01*
X125457142Y-23595238D01*
X125361904Y-23690476D01*
X125266666Y-23738095D01*
%TO.C,R29*%
X144757142Y-19052380D02*
X144423809Y-18576190D01*
X144185714Y-19052380D02*
X144185714Y-18052380D01*
X144566666Y-18052380D01*
X144661904Y-18100000D01*
X144709523Y-18147619D01*
X144757142Y-18242857D01*
X144757142Y-18385714D01*
X144709523Y-18480952D01*
X144661904Y-18528571D01*
X144566666Y-18576190D01*
X144185714Y-18576190D01*
X145138095Y-18147619D02*
X145185714Y-18100000D01*
X145280952Y-18052380D01*
X145519047Y-18052380D01*
X145614285Y-18100000D01*
X145661904Y-18147619D01*
X145709523Y-18242857D01*
X145709523Y-18338095D01*
X145661904Y-18480952D01*
X145090476Y-19052380D01*
X145709523Y-19052380D01*
X146185714Y-19052380D02*
X146376190Y-19052380D01*
X146471428Y-19004761D01*
X146519047Y-18957142D01*
X146614285Y-18814285D01*
X146661904Y-18623809D01*
X146661904Y-18242857D01*
X146614285Y-18147619D01*
X146566666Y-18100000D01*
X146471428Y-18052380D01*
X146280952Y-18052380D01*
X146185714Y-18100000D01*
X146138095Y-18147619D01*
X146090476Y-18242857D01*
X146090476Y-18480952D01*
X146138095Y-18576190D01*
X146185714Y-18623809D01*
X146280952Y-18671428D01*
X146471428Y-18671428D01*
X146566666Y-18623809D01*
X146614285Y-18576190D01*
X146661904Y-18480952D01*
%TO.C,R28*%
X143357142Y-23952380D02*
X143023809Y-23476190D01*
X142785714Y-23952380D02*
X142785714Y-22952380D01*
X143166666Y-22952380D01*
X143261904Y-23000000D01*
X143309523Y-23047619D01*
X143357142Y-23142857D01*
X143357142Y-23285714D01*
X143309523Y-23380952D01*
X143261904Y-23428571D01*
X143166666Y-23476190D01*
X142785714Y-23476190D01*
X143738095Y-23047619D02*
X143785714Y-23000000D01*
X143880952Y-22952380D01*
X144119047Y-22952380D01*
X144214285Y-23000000D01*
X144261904Y-23047619D01*
X144309523Y-23142857D01*
X144309523Y-23238095D01*
X144261904Y-23380952D01*
X143690476Y-23952380D01*
X144309523Y-23952380D01*
X144880952Y-23380952D02*
X144785714Y-23333333D01*
X144738095Y-23285714D01*
X144690476Y-23190476D01*
X144690476Y-23142857D01*
X144738095Y-23047619D01*
X144785714Y-23000000D01*
X144880952Y-22952380D01*
X145071428Y-22952380D01*
X145166666Y-23000000D01*
X145214285Y-23047619D01*
X145261904Y-23142857D01*
X145261904Y-23190476D01*
X145214285Y-23285714D01*
X145166666Y-23333333D01*
X145071428Y-23380952D01*
X144880952Y-23380952D01*
X144785714Y-23428571D01*
X144738095Y-23476190D01*
X144690476Y-23571428D01*
X144690476Y-23761904D01*
X144738095Y-23857142D01*
X144785714Y-23904761D01*
X144880952Y-23952380D01*
X145071428Y-23952380D01*
X145166666Y-23904761D01*
X145214285Y-23857142D01*
X145261904Y-23761904D01*
X145261904Y-23571428D01*
X145214285Y-23476190D01*
X145166666Y-23428571D01*
X145071428Y-23380952D01*
%TO.C,R27*%
X118657142Y-43577380D02*
X118323809Y-43101190D01*
X118085714Y-43577380D02*
X118085714Y-42577380D01*
X118466666Y-42577380D01*
X118561904Y-42625000D01*
X118609523Y-42672619D01*
X118657142Y-42767857D01*
X118657142Y-42910714D01*
X118609523Y-43005952D01*
X118561904Y-43053571D01*
X118466666Y-43101190D01*
X118085714Y-43101190D01*
X119038095Y-42672619D02*
X119085714Y-42625000D01*
X119180952Y-42577380D01*
X119419047Y-42577380D01*
X119514285Y-42625000D01*
X119561904Y-42672619D01*
X119609523Y-42767857D01*
X119609523Y-42863095D01*
X119561904Y-43005952D01*
X118990476Y-43577380D01*
X119609523Y-43577380D01*
X119942857Y-42577380D02*
X120609523Y-42577380D01*
X120180952Y-43577380D01*
%TO.C,R26*%
X120657142Y-48177380D02*
X120323809Y-47701190D01*
X120085714Y-48177380D02*
X120085714Y-47177380D01*
X120466666Y-47177380D01*
X120561904Y-47225000D01*
X120609523Y-47272619D01*
X120657142Y-47367857D01*
X120657142Y-47510714D01*
X120609523Y-47605952D01*
X120561904Y-47653571D01*
X120466666Y-47701190D01*
X120085714Y-47701190D01*
X121038095Y-47272619D02*
X121085714Y-47225000D01*
X121180952Y-47177380D01*
X121419047Y-47177380D01*
X121514285Y-47225000D01*
X121561904Y-47272619D01*
X121609523Y-47367857D01*
X121609523Y-47463095D01*
X121561904Y-47605952D01*
X120990476Y-48177380D01*
X121609523Y-48177380D01*
X122466666Y-47177380D02*
X122276190Y-47177380D01*
X122180952Y-47225000D01*
X122133333Y-47272619D01*
X122038095Y-47415476D01*
X121990476Y-47605952D01*
X121990476Y-47986904D01*
X122038095Y-48082142D01*
X122085714Y-48129761D01*
X122180952Y-48177380D01*
X122371428Y-48177380D01*
X122466666Y-48129761D01*
X122514285Y-48082142D01*
X122561904Y-47986904D01*
X122561904Y-47748809D01*
X122514285Y-47653571D01*
X122466666Y-47605952D01*
X122371428Y-47558333D01*
X122180952Y-47558333D01*
X122085714Y-47605952D01*
X122038095Y-47653571D01*
X121990476Y-47748809D01*
%TO.C,R25*%
X122257142Y-55552380D02*
X121923809Y-55076190D01*
X121685714Y-55552380D02*
X121685714Y-54552380D01*
X122066666Y-54552380D01*
X122161904Y-54600000D01*
X122209523Y-54647619D01*
X122257142Y-54742857D01*
X122257142Y-54885714D01*
X122209523Y-54980952D01*
X122161904Y-55028571D01*
X122066666Y-55076190D01*
X121685714Y-55076190D01*
X122638095Y-54647619D02*
X122685714Y-54600000D01*
X122780952Y-54552380D01*
X123019047Y-54552380D01*
X123114285Y-54600000D01*
X123161904Y-54647619D01*
X123209523Y-54742857D01*
X123209523Y-54838095D01*
X123161904Y-54980952D01*
X122590476Y-55552380D01*
X123209523Y-55552380D01*
X124114285Y-54552380D02*
X123638095Y-54552380D01*
X123590476Y-55028571D01*
X123638095Y-54980952D01*
X123733333Y-54933333D01*
X123971428Y-54933333D01*
X124066666Y-54980952D01*
X124114285Y-55028571D01*
X124161904Y-55123809D01*
X124161904Y-55361904D01*
X124114285Y-55457142D01*
X124066666Y-55504761D01*
X123971428Y-55552380D01*
X123733333Y-55552380D01*
X123638095Y-55504761D01*
X123590476Y-55457142D01*
%TO.C,R24*%
X120757142Y-51052380D02*
X120423809Y-50576190D01*
X120185714Y-51052380D02*
X120185714Y-50052380D01*
X120566666Y-50052380D01*
X120661904Y-50100000D01*
X120709523Y-50147619D01*
X120757142Y-50242857D01*
X120757142Y-50385714D01*
X120709523Y-50480952D01*
X120661904Y-50528571D01*
X120566666Y-50576190D01*
X120185714Y-50576190D01*
X121138095Y-50147619D02*
X121185714Y-50100000D01*
X121280952Y-50052380D01*
X121519047Y-50052380D01*
X121614285Y-50100000D01*
X121661904Y-50147619D01*
X121709523Y-50242857D01*
X121709523Y-50338095D01*
X121661904Y-50480952D01*
X121090476Y-51052380D01*
X121709523Y-51052380D01*
X122566666Y-50385714D02*
X122566666Y-51052380D01*
X122328571Y-50004761D02*
X122090476Y-50719047D01*
X122709523Y-50719047D01*
%TO.C,R23*%
X116957142Y-48164880D02*
X116623809Y-47688690D01*
X116385714Y-48164880D02*
X116385714Y-47164880D01*
X116766666Y-47164880D01*
X116861904Y-47212500D01*
X116909523Y-47260119D01*
X116957142Y-47355357D01*
X116957142Y-47498214D01*
X116909523Y-47593452D01*
X116861904Y-47641071D01*
X116766666Y-47688690D01*
X116385714Y-47688690D01*
X117338095Y-47260119D02*
X117385714Y-47212500D01*
X117480952Y-47164880D01*
X117719047Y-47164880D01*
X117814285Y-47212500D01*
X117861904Y-47260119D01*
X117909523Y-47355357D01*
X117909523Y-47450595D01*
X117861904Y-47593452D01*
X117290476Y-48164880D01*
X117909523Y-48164880D01*
X118242857Y-47164880D02*
X118861904Y-47164880D01*
X118528571Y-47545833D01*
X118671428Y-47545833D01*
X118766666Y-47593452D01*
X118814285Y-47641071D01*
X118861904Y-47736309D01*
X118861904Y-47974404D01*
X118814285Y-48069642D01*
X118766666Y-48117261D01*
X118671428Y-48164880D01*
X118385714Y-48164880D01*
X118290476Y-48117261D01*
X118242857Y-48069642D01*
%TO.C,R22*%
X154122380Y-26030357D02*
X153646190Y-26363690D01*
X154122380Y-26601785D02*
X153122380Y-26601785D01*
X153122380Y-26220833D01*
X153170000Y-26125595D01*
X153217619Y-26077976D01*
X153312857Y-26030357D01*
X153455714Y-26030357D01*
X153550952Y-26077976D01*
X153598571Y-26125595D01*
X153646190Y-26220833D01*
X153646190Y-26601785D01*
X153217619Y-25649404D02*
X153170000Y-25601785D01*
X153122380Y-25506547D01*
X153122380Y-25268452D01*
X153170000Y-25173214D01*
X153217619Y-25125595D01*
X153312857Y-25077976D01*
X153408095Y-25077976D01*
X153550952Y-25125595D01*
X154122380Y-25697023D01*
X154122380Y-25077976D01*
X153217619Y-24697023D02*
X153170000Y-24649404D01*
X153122380Y-24554166D01*
X153122380Y-24316071D01*
X153170000Y-24220833D01*
X153217619Y-24173214D01*
X153312857Y-24125595D01*
X153408095Y-24125595D01*
X153550952Y-24173214D01*
X154122380Y-24744642D01*
X154122380Y-24125595D01*
%TO.C,R21*%
X153522380Y-32430357D02*
X153046190Y-32763690D01*
X153522380Y-33001785D02*
X152522380Y-33001785D01*
X152522380Y-32620833D01*
X152570000Y-32525595D01*
X152617619Y-32477976D01*
X152712857Y-32430357D01*
X152855714Y-32430357D01*
X152950952Y-32477976D01*
X152998571Y-32525595D01*
X153046190Y-32620833D01*
X153046190Y-33001785D01*
X152617619Y-32049404D02*
X152570000Y-32001785D01*
X152522380Y-31906547D01*
X152522380Y-31668452D01*
X152570000Y-31573214D01*
X152617619Y-31525595D01*
X152712857Y-31477976D01*
X152808095Y-31477976D01*
X152950952Y-31525595D01*
X153522380Y-32097023D01*
X153522380Y-31477976D01*
X153522380Y-30525595D02*
X153522380Y-31097023D01*
X153522380Y-30811309D02*
X152522380Y-30811309D01*
X152665238Y-30906547D01*
X152760476Y-31001785D01*
X152808095Y-31097023D01*
%TO.C,R20*%
X153422380Y-38430356D02*
X152946190Y-38763689D01*
X153422380Y-39001784D02*
X152422380Y-39001784D01*
X152422380Y-38620832D01*
X152470000Y-38525594D01*
X152517619Y-38477975D01*
X152612857Y-38430356D01*
X152755714Y-38430356D01*
X152850952Y-38477975D01*
X152898571Y-38525594D01*
X152946190Y-38620832D01*
X152946190Y-39001784D01*
X152517619Y-38049403D02*
X152470000Y-38001784D01*
X152422380Y-37906546D01*
X152422380Y-37668451D01*
X152470000Y-37573213D01*
X152517619Y-37525594D01*
X152612857Y-37477975D01*
X152708095Y-37477975D01*
X152850952Y-37525594D01*
X153422380Y-38097022D01*
X153422380Y-37477975D01*
X152422380Y-36858927D02*
X152422380Y-36763689D01*
X152470000Y-36668451D01*
X152517619Y-36620832D01*
X152612857Y-36573213D01*
X152803333Y-36525594D01*
X153041428Y-36525594D01*
X153231904Y-36573213D01*
X153327142Y-36620832D01*
X153374761Y-36668451D01*
X153422380Y-36763689D01*
X153422380Y-36858927D01*
X153374761Y-36954165D01*
X153327142Y-37001784D01*
X153231904Y-37049403D01*
X153041428Y-37097022D01*
X152803333Y-37097022D01*
X152612857Y-37049403D01*
X152517619Y-37001784D01*
X152470000Y-36954165D01*
X152422380Y-36858927D01*
%TO.C,R19*%
X150757142Y-45022380D02*
X150423809Y-44546190D01*
X150185714Y-45022380D02*
X150185714Y-44022380D01*
X150566666Y-44022380D01*
X150661904Y-44070000D01*
X150709523Y-44117619D01*
X150757142Y-44212857D01*
X150757142Y-44355714D01*
X150709523Y-44450952D01*
X150661904Y-44498571D01*
X150566666Y-44546190D01*
X150185714Y-44546190D01*
X151709523Y-45022380D02*
X151138095Y-45022380D01*
X151423809Y-45022380D02*
X151423809Y-44022380D01*
X151328571Y-44165238D01*
X151233333Y-44260476D01*
X151138095Y-44308095D01*
X152185714Y-45022380D02*
X152376190Y-45022380D01*
X152471428Y-44974761D01*
X152519047Y-44927142D01*
X152614285Y-44784285D01*
X152661904Y-44593809D01*
X152661904Y-44212857D01*
X152614285Y-44117619D01*
X152566666Y-44070000D01*
X152471428Y-44022380D01*
X152280952Y-44022380D01*
X152185714Y-44070000D01*
X152138095Y-44117619D01*
X152090476Y-44212857D01*
X152090476Y-44450952D01*
X152138095Y-44546190D01*
X152185714Y-44593809D01*
X152280952Y-44641428D01*
X152471428Y-44641428D01*
X152566666Y-44593809D01*
X152614285Y-44546190D01*
X152661904Y-44450952D01*
%TO.C,R18*%
X144957142Y-45022380D02*
X144623809Y-44546190D01*
X144385714Y-45022380D02*
X144385714Y-44022380D01*
X144766666Y-44022380D01*
X144861904Y-44070000D01*
X144909523Y-44117619D01*
X144957142Y-44212857D01*
X144957142Y-44355714D01*
X144909523Y-44450952D01*
X144861904Y-44498571D01*
X144766666Y-44546190D01*
X144385714Y-44546190D01*
X145909523Y-45022380D02*
X145338095Y-45022380D01*
X145623809Y-45022380D02*
X145623809Y-44022380D01*
X145528571Y-44165238D01*
X145433333Y-44260476D01*
X145338095Y-44308095D01*
X146480952Y-44450952D02*
X146385714Y-44403333D01*
X146338095Y-44355714D01*
X146290476Y-44260476D01*
X146290476Y-44212857D01*
X146338095Y-44117619D01*
X146385714Y-44070000D01*
X146480952Y-44022380D01*
X146671428Y-44022380D01*
X146766666Y-44070000D01*
X146814285Y-44117619D01*
X146861904Y-44212857D01*
X146861904Y-44260476D01*
X146814285Y-44355714D01*
X146766666Y-44403333D01*
X146671428Y-44450952D01*
X146480952Y-44450952D01*
X146385714Y-44498571D01*
X146338095Y-44546190D01*
X146290476Y-44641428D01*
X146290476Y-44831904D01*
X146338095Y-44927142D01*
X146385714Y-44974761D01*
X146480952Y-45022380D01*
X146671428Y-45022380D01*
X146766666Y-44974761D01*
X146814285Y-44927142D01*
X146861904Y-44831904D01*
X146861904Y-44641428D01*
X146814285Y-44546190D01*
X146766666Y-44498571D01*
X146671428Y-44450952D01*
%TO.C,R17*%
X139157142Y-44922380D02*
X138823809Y-44446190D01*
X138585714Y-44922380D02*
X138585714Y-43922380D01*
X138966666Y-43922380D01*
X139061904Y-43970000D01*
X139109523Y-44017619D01*
X139157142Y-44112857D01*
X139157142Y-44255714D01*
X139109523Y-44350952D01*
X139061904Y-44398571D01*
X138966666Y-44446190D01*
X138585714Y-44446190D01*
X140109523Y-44922380D02*
X139538095Y-44922380D01*
X139823809Y-44922380D02*
X139823809Y-43922380D01*
X139728571Y-44065238D01*
X139633333Y-44160476D01*
X139538095Y-44208095D01*
X140442857Y-43922380D02*
X141109523Y-43922380D01*
X140680952Y-44922380D01*
%TO.C,R16*%
X133369642Y-44922380D02*
X133036309Y-44446190D01*
X132798214Y-44922380D02*
X132798214Y-43922380D01*
X133179166Y-43922380D01*
X133274404Y-43970000D01*
X133322023Y-44017619D01*
X133369642Y-44112857D01*
X133369642Y-44255714D01*
X133322023Y-44350952D01*
X133274404Y-44398571D01*
X133179166Y-44446190D01*
X132798214Y-44446190D01*
X134322023Y-44922380D02*
X133750595Y-44922380D01*
X134036309Y-44922380D02*
X134036309Y-43922380D01*
X133941071Y-44065238D01*
X133845833Y-44160476D01*
X133750595Y-44208095D01*
X135179166Y-43922380D02*
X134988690Y-43922380D01*
X134893452Y-43970000D01*
X134845833Y-44017619D01*
X134750595Y-44160476D01*
X134702976Y-44350952D01*
X134702976Y-44731904D01*
X134750595Y-44827142D01*
X134798214Y-44874761D01*
X134893452Y-44922380D01*
X135083928Y-44922380D01*
X135179166Y-44874761D01*
X135226785Y-44827142D01*
X135274404Y-44731904D01*
X135274404Y-44493809D01*
X135226785Y-44398571D01*
X135179166Y-44350952D01*
X135083928Y-44303333D01*
X134893452Y-44303333D01*
X134798214Y-44350952D01*
X134750595Y-44398571D01*
X134702976Y-44493809D01*
%TO.C,R15*%
X127369642Y-44822380D02*
X127036309Y-44346190D01*
X126798214Y-44822380D02*
X126798214Y-43822380D01*
X127179166Y-43822380D01*
X127274404Y-43870000D01*
X127322023Y-43917619D01*
X127369642Y-44012857D01*
X127369642Y-44155714D01*
X127322023Y-44250952D01*
X127274404Y-44298571D01*
X127179166Y-44346190D01*
X126798214Y-44346190D01*
X128322023Y-44822380D02*
X127750595Y-44822380D01*
X128036309Y-44822380D02*
X128036309Y-43822380D01*
X127941071Y-43965238D01*
X127845833Y-44060476D01*
X127750595Y-44108095D01*
X129226785Y-43822380D02*
X128750595Y-43822380D01*
X128702976Y-44298571D01*
X128750595Y-44250952D01*
X128845833Y-44203333D01*
X129083928Y-44203333D01*
X129179166Y-44250952D01*
X129226785Y-44298571D01*
X129274404Y-44393809D01*
X129274404Y-44631904D01*
X129226785Y-44727142D01*
X129179166Y-44774761D01*
X129083928Y-44822380D01*
X128845833Y-44822380D01*
X128750595Y-44774761D01*
X128702976Y-44727142D01*
%TO.C,R14*%
X151447619Y-27757142D02*
X151923809Y-27423809D01*
X151447619Y-27185714D02*
X152447619Y-27185714D01*
X152447619Y-27566666D01*
X152400000Y-27661904D01*
X152352380Y-27709523D01*
X152257142Y-27757142D01*
X152114285Y-27757142D01*
X152019047Y-27709523D01*
X151971428Y-27661904D01*
X151923809Y-27566666D01*
X151923809Y-27185714D01*
X151447619Y-28709523D02*
X151447619Y-28138095D01*
X151447619Y-28423809D02*
X152447619Y-28423809D01*
X152304761Y-28328571D01*
X152209523Y-28233333D01*
X152161904Y-28138095D01*
X152114285Y-29566666D02*
X151447619Y-29566666D01*
X152495238Y-29328571D02*
X151780952Y-29090476D01*
X151780952Y-29709523D01*
%TO.C,R13*%
X150647619Y-33957142D02*
X151123809Y-33623809D01*
X150647619Y-33385714D02*
X151647619Y-33385714D01*
X151647619Y-33766666D01*
X151600000Y-33861904D01*
X151552380Y-33909523D01*
X151457142Y-33957142D01*
X151314285Y-33957142D01*
X151219047Y-33909523D01*
X151171428Y-33861904D01*
X151123809Y-33766666D01*
X151123809Y-33385714D01*
X150647619Y-34909523D02*
X150647619Y-34338095D01*
X150647619Y-34623809D02*
X151647619Y-34623809D01*
X151504761Y-34528571D01*
X151409523Y-34433333D01*
X151361904Y-34338095D01*
X151647619Y-35242857D02*
X151647619Y-35861904D01*
X151266666Y-35528571D01*
X151266666Y-35671428D01*
X151219047Y-35766666D01*
X151171428Y-35814285D01*
X151076190Y-35861904D01*
X150838095Y-35861904D01*
X150742857Y-35814285D01*
X150695238Y-35766666D01*
X150647619Y-35671428D01*
X150647619Y-35385714D01*
X150695238Y-35290476D01*
X150742857Y-35242857D01*
%TO.C,R12*%
X150635119Y-39957143D02*
X151111309Y-39623810D01*
X150635119Y-39385715D02*
X151635119Y-39385715D01*
X151635119Y-39766667D01*
X151587500Y-39861905D01*
X151539880Y-39909524D01*
X151444642Y-39957143D01*
X151301785Y-39957143D01*
X151206547Y-39909524D01*
X151158928Y-39861905D01*
X151111309Y-39766667D01*
X151111309Y-39385715D01*
X150635119Y-40909524D02*
X150635119Y-40338096D01*
X150635119Y-40623810D02*
X151635119Y-40623810D01*
X151492261Y-40528572D01*
X151397023Y-40433334D01*
X151349404Y-40338096D01*
X151539880Y-41290477D02*
X151587500Y-41338096D01*
X151635119Y-41433334D01*
X151635119Y-41671429D01*
X151587500Y-41766667D01*
X151539880Y-41814286D01*
X151444642Y-41861905D01*
X151349404Y-41861905D01*
X151206547Y-41814286D01*
X150635119Y-41242858D01*
X150635119Y-41861905D01*
%TO.C,R11*%
X147957142Y-43152380D02*
X147623809Y-42676190D01*
X147385714Y-43152380D02*
X147385714Y-42152380D01*
X147766666Y-42152380D01*
X147861904Y-42200000D01*
X147909523Y-42247619D01*
X147957142Y-42342857D01*
X147957142Y-42485714D01*
X147909523Y-42580952D01*
X147861904Y-42628571D01*
X147766666Y-42676190D01*
X147385714Y-42676190D01*
X148909523Y-43152380D02*
X148338095Y-43152380D01*
X148623809Y-43152380D02*
X148623809Y-42152380D01*
X148528571Y-42295238D01*
X148433333Y-42390476D01*
X148338095Y-42438095D01*
X149861904Y-43152380D02*
X149290476Y-43152380D01*
X149576190Y-43152380D02*
X149576190Y-42152380D01*
X149480952Y-42295238D01*
X149385714Y-42390476D01*
X149290476Y-42438095D01*
%TO.C,R10*%
X142057142Y-43252380D02*
X141723809Y-42776190D01*
X141485714Y-43252380D02*
X141485714Y-42252380D01*
X141866666Y-42252380D01*
X141961904Y-42300000D01*
X142009523Y-42347619D01*
X142057142Y-42442857D01*
X142057142Y-42585714D01*
X142009523Y-42680952D01*
X141961904Y-42728571D01*
X141866666Y-42776190D01*
X141485714Y-42776190D01*
X143009523Y-43252380D02*
X142438095Y-43252380D01*
X142723809Y-43252380D02*
X142723809Y-42252380D01*
X142628571Y-42395238D01*
X142533333Y-42490476D01*
X142438095Y-42538095D01*
X143628571Y-42252380D02*
X143723809Y-42252380D01*
X143819047Y-42300000D01*
X143866666Y-42347619D01*
X143914285Y-42442857D01*
X143961904Y-42633333D01*
X143961904Y-42871428D01*
X143914285Y-43061904D01*
X143866666Y-43157142D01*
X143819047Y-43204761D01*
X143723809Y-43252380D01*
X143628571Y-43252380D01*
X143533333Y-43204761D01*
X143485714Y-43157142D01*
X143438095Y-43061904D01*
X143390476Y-42871428D01*
X143390476Y-42633333D01*
X143438095Y-42442857D01*
X143485714Y-42347619D01*
X143533333Y-42300000D01*
X143628571Y-42252380D01*
%TO.C,R9*%
X136933333Y-43139880D02*
X136600000Y-42663690D01*
X136361904Y-43139880D02*
X136361904Y-42139880D01*
X136742857Y-42139880D01*
X136838095Y-42187500D01*
X136885714Y-42235119D01*
X136933333Y-42330357D01*
X136933333Y-42473214D01*
X136885714Y-42568452D01*
X136838095Y-42616071D01*
X136742857Y-42663690D01*
X136361904Y-42663690D01*
X137409523Y-43139880D02*
X137600000Y-43139880D01*
X137695238Y-43092261D01*
X137742857Y-43044642D01*
X137838095Y-42901785D01*
X137885714Y-42711309D01*
X137885714Y-42330357D01*
X137838095Y-42235119D01*
X137790476Y-42187500D01*
X137695238Y-42139880D01*
X137504761Y-42139880D01*
X137409523Y-42187500D01*
X137361904Y-42235119D01*
X137314285Y-42330357D01*
X137314285Y-42568452D01*
X137361904Y-42663690D01*
X137409523Y-42711309D01*
X137504761Y-42758928D01*
X137695238Y-42758928D01*
X137790476Y-42711309D01*
X137838095Y-42663690D01*
X137885714Y-42568452D01*
%TO.C,R8*%
X131033333Y-43164880D02*
X130700000Y-42688690D01*
X130461904Y-43164880D02*
X130461904Y-42164880D01*
X130842857Y-42164880D01*
X130938095Y-42212500D01*
X130985714Y-42260119D01*
X131033333Y-42355357D01*
X131033333Y-42498214D01*
X130985714Y-42593452D01*
X130938095Y-42641071D01*
X130842857Y-42688690D01*
X130461904Y-42688690D01*
X131604761Y-42593452D02*
X131509523Y-42545833D01*
X131461904Y-42498214D01*
X131414285Y-42402976D01*
X131414285Y-42355357D01*
X131461904Y-42260119D01*
X131509523Y-42212500D01*
X131604761Y-42164880D01*
X131795238Y-42164880D01*
X131890476Y-42212500D01*
X131938095Y-42260119D01*
X131985714Y-42355357D01*
X131985714Y-42402976D01*
X131938095Y-42498214D01*
X131890476Y-42545833D01*
X131795238Y-42593452D01*
X131604761Y-42593452D01*
X131509523Y-42641071D01*
X131461904Y-42688690D01*
X131414285Y-42783928D01*
X131414285Y-42974404D01*
X131461904Y-43069642D01*
X131509523Y-43117261D01*
X131604761Y-43164880D01*
X131795238Y-43164880D01*
X131890476Y-43117261D01*
X131938095Y-43069642D01*
X131985714Y-42974404D01*
X131985714Y-42783928D01*
X131938095Y-42688690D01*
X131890476Y-42641071D01*
X131795238Y-42593452D01*
%TO.C,R7*%
X125233333Y-43052380D02*
X124900000Y-42576190D01*
X124661904Y-43052380D02*
X124661904Y-42052380D01*
X125042857Y-42052380D01*
X125138095Y-42100000D01*
X125185714Y-42147619D01*
X125233333Y-42242857D01*
X125233333Y-42385714D01*
X125185714Y-42480952D01*
X125138095Y-42528571D01*
X125042857Y-42576190D01*
X124661904Y-42576190D01*
X125566666Y-42052380D02*
X126233333Y-42052380D01*
X125804761Y-43052380D01*
%TO.C,R6*%
X119533333Y-30852380D02*
X119200000Y-30376190D01*
X118961904Y-30852380D02*
X118961904Y-29852380D01*
X119342857Y-29852380D01*
X119438095Y-29900000D01*
X119485714Y-29947619D01*
X119533333Y-30042857D01*
X119533333Y-30185714D01*
X119485714Y-30280952D01*
X119438095Y-30328571D01*
X119342857Y-30376190D01*
X118961904Y-30376190D01*
X120390476Y-29852380D02*
X120200000Y-29852380D01*
X120104761Y-29900000D01*
X120057142Y-29947619D01*
X119961904Y-30090476D01*
X119914285Y-30280952D01*
X119914285Y-30661904D01*
X119961904Y-30757142D01*
X120009523Y-30804761D01*
X120104761Y-30852380D01*
X120295238Y-30852380D01*
X120390476Y-30804761D01*
X120438095Y-30757142D01*
X120485714Y-30661904D01*
X120485714Y-30423809D01*
X120438095Y-30328571D01*
X120390476Y-30280952D01*
X120295238Y-30233333D01*
X120104761Y-30233333D01*
X120009523Y-30280952D01*
X119961904Y-30328571D01*
X119914285Y-30423809D01*
%TO.C,R5*%
X119433333Y-27352380D02*
X119100000Y-26876190D01*
X118861904Y-27352380D02*
X118861904Y-26352380D01*
X119242857Y-26352380D01*
X119338095Y-26400000D01*
X119385714Y-26447619D01*
X119433333Y-26542857D01*
X119433333Y-26685714D01*
X119385714Y-26780952D01*
X119338095Y-26828571D01*
X119242857Y-26876190D01*
X118861904Y-26876190D01*
X120338095Y-26352380D02*
X119861904Y-26352380D01*
X119814285Y-26828571D01*
X119861904Y-26780952D01*
X119957142Y-26733333D01*
X120195238Y-26733333D01*
X120290476Y-26780952D01*
X120338095Y-26828571D01*
X120385714Y-26923809D01*
X120385714Y-27161904D01*
X120338095Y-27257142D01*
X120290476Y-27304761D01*
X120195238Y-27352380D01*
X119957142Y-27352380D01*
X119861904Y-27304761D01*
X119814285Y-27257142D01*
%TO.C,R4*%
X119533333Y-24552380D02*
X119200000Y-24076190D01*
X118961904Y-24552380D02*
X118961904Y-23552380D01*
X119342857Y-23552380D01*
X119438095Y-23600000D01*
X119485714Y-23647619D01*
X119533333Y-23742857D01*
X119533333Y-23885714D01*
X119485714Y-23980952D01*
X119438095Y-24028571D01*
X119342857Y-24076190D01*
X118961904Y-24076190D01*
X120390476Y-23885714D02*
X120390476Y-24552380D01*
X120152380Y-23504761D02*
X119914285Y-24219047D01*
X120533333Y-24219047D01*
%TO.C,R3*%
X130433333Y-33139880D02*
X130100000Y-32663690D01*
X129861904Y-33139880D02*
X129861904Y-32139880D01*
X130242857Y-32139880D01*
X130338095Y-32187500D01*
X130385714Y-32235119D01*
X130433333Y-32330357D01*
X130433333Y-32473214D01*
X130385714Y-32568452D01*
X130338095Y-32616071D01*
X130242857Y-32663690D01*
X129861904Y-32663690D01*
X130766666Y-32139880D02*
X131385714Y-32139880D01*
X131052380Y-32520833D01*
X131195238Y-32520833D01*
X131290476Y-32568452D01*
X131338095Y-32616071D01*
X131385714Y-32711309D01*
X131385714Y-32949404D01*
X131338095Y-33044642D01*
X131290476Y-33092261D01*
X131195238Y-33139880D01*
X130909523Y-33139880D01*
X130814285Y-33092261D01*
X130766666Y-33044642D01*
%TO.C,R2*%
X114933333Y-29552380D02*
X114600000Y-29076190D01*
X114361904Y-29552380D02*
X114361904Y-28552380D01*
X114742857Y-28552380D01*
X114838095Y-28600000D01*
X114885714Y-28647619D01*
X114933333Y-28742857D01*
X114933333Y-28885714D01*
X114885714Y-28980952D01*
X114838095Y-29028571D01*
X114742857Y-29076190D01*
X114361904Y-29076190D01*
X115314285Y-28647619D02*
X115361904Y-28600000D01*
X115457142Y-28552380D01*
X115695238Y-28552380D01*
X115790476Y-28600000D01*
X115838095Y-28647619D01*
X115885714Y-28742857D01*
X115885714Y-28838095D01*
X115838095Y-28980952D01*
X115266666Y-29552380D01*
X115885714Y-29552380D01*
%TO.C,R1*%
X121333333Y-37952380D02*
X121000000Y-37476190D01*
X120761904Y-37952380D02*
X120761904Y-36952380D01*
X121142857Y-36952380D01*
X121238095Y-37000000D01*
X121285714Y-37047619D01*
X121333333Y-37142857D01*
X121333333Y-37285714D01*
X121285714Y-37380952D01*
X121238095Y-37428571D01*
X121142857Y-37476190D01*
X120761904Y-37476190D01*
X122285714Y-37952380D02*
X121714285Y-37952380D01*
X122000000Y-37952380D02*
X122000000Y-36952380D01*
X121904761Y-37095238D01*
X121809523Y-37190476D01*
X121714285Y-37238095D01*
%TO.C,Q8*%
D15*
X157752380Y-24994285D02*
X157704761Y-24960000D01*
X157657142Y-24891428D01*
X157585714Y-24788571D01*
X157538095Y-24754285D01*
X157490476Y-24754285D01*
X157514285Y-24925714D02*
X157466666Y-24891428D01*
X157419047Y-24822857D01*
X157395238Y-24685714D01*
X157395238Y-24445714D01*
X157419047Y-24308571D01*
X157466666Y-24240000D01*
X157514285Y-24205714D01*
X157609523Y-24205714D01*
X157657142Y-24240000D01*
X157704761Y-24308571D01*
X157728571Y-24445714D01*
X157728571Y-24685714D01*
X157704761Y-24822857D01*
X157657142Y-24891428D01*
X157609523Y-24925714D01*
X157514285Y-24925714D01*
X158014285Y-24514285D02*
X157966666Y-24480000D01*
X157942857Y-24445714D01*
X157919047Y-24377142D01*
X157919047Y-24342857D01*
X157942857Y-24274285D01*
X157966666Y-24240000D01*
X158014285Y-24205714D01*
X158109523Y-24205714D01*
X158157142Y-24240000D01*
X158180952Y-24274285D01*
X158204761Y-24342857D01*
X158204761Y-24377142D01*
X158180952Y-24445714D01*
X158157142Y-24480000D01*
X158109523Y-24514285D01*
X158014285Y-24514285D01*
X157966666Y-24548571D01*
X157942857Y-24582857D01*
X157919047Y-24651428D01*
X157919047Y-24788571D01*
X157942857Y-24857142D01*
X157966666Y-24891428D01*
X158014285Y-24925714D01*
X158109523Y-24925714D01*
X158157142Y-24891428D01*
X158180952Y-24857142D01*
X158204761Y-24788571D01*
X158204761Y-24651428D01*
X158180952Y-24582857D01*
X158157142Y-24548571D01*
X158109523Y-24514285D01*
%TO.C,Q7*%
X157352380Y-31394285D02*
X157304761Y-31360000D01*
X157257142Y-31291428D01*
X157185714Y-31188571D01*
X157138095Y-31154285D01*
X157090476Y-31154285D01*
X157114285Y-31325714D02*
X157066666Y-31291428D01*
X157019047Y-31222857D01*
X156995238Y-31085714D01*
X156995238Y-30845714D01*
X157019047Y-30708571D01*
X157066666Y-30640000D01*
X157114285Y-30605714D01*
X157209523Y-30605714D01*
X157257142Y-30640000D01*
X157304761Y-30708571D01*
X157328571Y-30845714D01*
X157328571Y-31085714D01*
X157304761Y-31222857D01*
X157257142Y-31291428D01*
X157209523Y-31325714D01*
X157114285Y-31325714D01*
X157495238Y-30605714D02*
X157828571Y-30605714D01*
X157614285Y-31325714D01*
%TO.C,Q6*%
X157252380Y-37594285D02*
X157204761Y-37560000D01*
X157157142Y-37491428D01*
X157085714Y-37388571D01*
X157038095Y-37354285D01*
X156990476Y-37354285D01*
X157014285Y-37525714D02*
X156966666Y-37491428D01*
X156919047Y-37422857D01*
X156895238Y-37285714D01*
X156895238Y-37045714D01*
X156919047Y-36908571D01*
X156966666Y-36840000D01*
X157014285Y-36805714D01*
X157109523Y-36805714D01*
X157157142Y-36840000D01*
X157204761Y-36908571D01*
X157228571Y-37045714D01*
X157228571Y-37285714D01*
X157204761Y-37422857D01*
X157157142Y-37491428D01*
X157109523Y-37525714D01*
X157014285Y-37525714D01*
X157657142Y-36805714D02*
X157561904Y-36805714D01*
X157514285Y-36840000D01*
X157490476Y-36874285D01*
X157442857Y-36977142D01*
X157419047Y-37114285D01*
X157419047Y-37388571D01*
X157442857Y-37457142D01*
X157466666Y-37491428D01*
X157514285Y-37525714D01*
X157609523Y-37525714D01*
X157657142Y-37491428D01*
X157680952Y-37457142D01*
X157704761Y-37388571D01*
X157704761Y-37217142D01*
X157680952Y-37148571D01*
X157657142Y-37114285D01*
X157609523Y-37080000D01*
X157514285Y-37080000D01*
X157466666Y-37114285D01*
X157442857Y-37148571D01*
X157419047Y-37217142D01*
%TO.C,Q5*%
X147152380Y-49294285D02*
X147104761Y-49260000D01*
X147057142Y-49191428D01*
X146985714Y-49088571D01*
X146938095Y-49054285D01*
X146890476Y-49054285D01*
X146914285Y-49225714D02*
X146866666Y-49191428D01*
X146819047Y-49122857D01*
X146795238Y-48985714D01*
X146795238Y-48745714D01*
X146819047Y-48608571D01*
X146866666Y-48540000D01*
X146914285Y-48505714D01*
X147009523Y-48505714D01*
X147057142Y-48540000D01*
X147104761Y-48608571D01*
X147128571Y-48745714D01*
X147128571Y-48985714D01*
X147104761Y-49122857D01*
X147057142Y-49191428D01*
X147009523Y-49225714D01*
X146914285Y-49225714D01*
X147580952Y-48505714D02*
X147342857Y-48505714D01*
X147319047Y-48848571D01*
X147342857Y-48814285D01*
X147390476Y-48780000D01*
X147509523Y-48780000D01*
X147557142Y-48814285D01*
X147580952Y-48848571D01*
X147604761Y-48917142D01*
X147604761Y-49088571D01*
X147580952Y-49157142D01*
X147557142Y-49191428D01*
X147509523Y-49225714D01*
X147390476Y-49225714D01*
X147342857Y-49191428D01*
X147319047Y-49157142D01*
%TO.C,Q4*%
X141352380Y-49194285D02*
X141304761Y-49160000D01*
X141257142Y-49091428D01*
X141185714Y-48988571D01*
X141138095Y-48954285D01*
X141090476Y-48954285D01*
X141114285Y-49125714D02*
X141066666Y-49091428D01*
X141019047Y-49022857D01*
X140995238Y-48885714D01*
X140995238Y-48645714D01*
X141019047Y-48508571D01*
X141066666Y-48440000D01*
X141114285Y-48405714D01*
X141209523Y-48405714D01*
X141257142Y-48440000D01*
X141304761Y-48508571D01*
X141328571Y-48645714D01*
X141328571Y-48885714D01*
X141304761Y-49022857D01*
X141257142Y-49091428D01*
X141209523Y-49125714D01*
X141114285Y-49125714D01*
X141757142Y-48645714D02*
X141757142Y-49125714D01*
X141638095Y-48371428D02*
X141519047Y-48885714D01*
X141828571Y-48885714D01*
%TO.C,Q3*%
X135552380Y-49094285D02*
X135504761Y-49060000D01*
X135457142Y-48991428D01*
X135385714Y-48888571D01*
X135338095Y-48854285D01*
X135290476Y-48854285D01*
X135314285Y-49025714D02*
X135266666Y-48991428D01*
X135219047Y-48922857D01*
X135195238Y-48785714D01*
X135195238Y-48545714D01*
X135219047Y-48408571D01*
X135266666Y-48340000D01*
X135314285Y-48305714D01*
X135409523Y-48305714D01*
X135457142Y-48340000D01*
X135504761Y-48408571D01*
X135528571Y-48545714D01*
X135528571Y-48785714D01*
X135504761Y-48922857D01*
X135457142Y-48991428D01*
X135409523Y-49025714D01*
X135314285Y-49025714D01*
X135695238Y-48305714D02*
X136004761Y-48305714D01*
X135838095Y-48580000D01*
X135909523Y-48580000D01*
X135957142Y-48614285D01*
X135980952Y-48648571D01*
X136004761Y-48717142D01*
X136004761Y-48888571D01*
X135980952Y-48957142D01*
X135957142Y-48991428D01*
X135909523Y-49025714D01*
X135766666Y-49025714D01*
X135719047Y-48991428D01*
X135695238Y-48957142D01*
%TO.C,Q2*%
X129652380Y-49094285D02*
X129604761Y-49060000D01*
X129557142Y-48991428D01*
X129485714Y-48888571D01*
X129438095Y-48854285D01*
X129390476Y-48854285D01*
X129414285Y-49025714D02*
X129366666Y-48991428D01*
X129319047Y-48922857D01*
X129295238Y-48785714D01*
X129295238Y-48545714D01*
X129319047Y-48408571D01*
X129366666Y-48340000D01*
X129414285Y-48305714D01*
X129509523Y-48305714D01*
X129557142Y-48340000D01*
X129604761Y-48408571D01*
X129628571Y-48545714D01*
X129628571Y-48785714D01*
X129604761Y-48922857D01*
X129557142Y-48991428D01*
X129509523Y-49025714D01*
X129414285Y-49025714D01*
X129819047Y-48374285D02*
X129842857Y-48340000D01*
X129890476Y-48305714D01*
X130009523Y-48305714D01*
X130057142Y-48340000D01*
X130080952Y-48374285D01*
X130104761Y-48442857D01*
X130104761Y-48511428D01*
X130080952Y-48614285D01*
X129795238Y-49025714D01*
X130104761Y-49025714D01*
%TO.C,Q1*%
X123952380Y-49094285D02*
X123904761Y-49060000D01*
X123857142Y-48991428D01*
X123785714Y-48888571D01*
X123738095Y-48854285D01*
X123690476Y-48854285D01*
X123714285Y-49025714D02*
X123666666Y-48991428D01*
X123619047Y-48922857D01*
X123595238Y-48785714D01*
X123595238Y-48545714D01*
X123619047Y-48408571D01*
X123666666Y-48340000D01*
X123714285Y-48305714D01*
X123809523Y-48305714D01*
X123857142Y-48340000D01*
X123904761Y-48408571D01*
X123928571Y-48545714D01*
X123928571Y-48785714D01*
X123904761Y-48922857D01*
X123857142Y-48991428D01*
X123809523Y-49025714D01*
X123714285Y-49025714D01*
X124404761Y-49025714D02*
X124119047Y-49025714D01*
X124261904Y-49025714D02*
X124261904Y-48305714D01*
X124214285Y-48408571D01*
X124166666Y-48477142D01*
X124119047Y-48511428D01*
%TO.C,LD1*%
D11*
X133952380Y-53466666D02*
X133952380Y-53942857D01*
X132952380Y-53942857D01*
X133952380Y-53133333D02*
X132952380Y-53133333D01*
X132952380Y-52895238D01*
X133000000Y-52752380D01*
X133095238Y-52657142D01*
X133190476Y-52609523D01*
X133380952Y-52561904D01*
X133523809Y-52561904D01*
X133714285Y-52609523D01*
X133809523Y-52657142D01*
X133904761Y-52752380D01*
X133952380Y-52895238D01*
X133952380Y-53133333D01*
X133952380Y-51609523D02*
X133952380Y-52180952D01*
X133952380Y-51895238D02*
X132952380Y-51895238D01*
X133095238Y-51990476D01*
X133190476Y-52085714D01*
X133238095Y-52180952D01*
%TO.C,J17*%
X141890476Y-65852380D02*
X141890476Y-66566666D01*
X141842857Y-66709523D01*
X141747619Y-66804761D01*
X141604761Y-66852380D01*
X141509523Y-66852380D01*
X142890476Y-66852380D02*
X142319047Y-66852380D01*
X142604761Y-66852380D02*
X142604761Y-65852380D01*
X142509523Y-65995238D01*
X142414285Y-66090476D01*
X142319047Y-66138095D01*
X143223809Y-65852380D02*
X143890476Y-65852380D01*
X143461904Y-66852380D01*
%TO.C,J16*%
X136590476Y-65752380D02*
X136590476Y-66466666D01*
X136542857Y-66609523D01*
X136447619Y-66704761D01*
X136304761Y-66752380D01*
X136209523Y-66752380D01*
X137590476Y-66752380D02*
X137019047Y-66752380D01*
X137304761Y-66752380D02*
X137304761Y-65752380D01*
X137209523Y-65895238D01*
X137114285Y-65990476D01*
X137019047Y-66038095D01*
X138447619Y-65752380D02*
X138257142Y-65752380D01*
X138161904Y-65800000D01*
X138114285Y-65847619D01*
X138019047Y-65990476D01*
X137971428Y-66180952D01*
X137971428Y-66561904D01*
X138019047Y-66657142D01*
X138066666Y-66704761D01*
X138161904Y-66752380D01*
X138352380Y-66752380D01*
X138447619Y-66704761D01*
X138495238Y-66657142D01*
X138542857Y-66561904D01*
X138542857Y-66323809D01*
X138495238Y-66228571D01*
X138447619Y-66180952D01*
X138352380Y-66133333D01*
X138161904Y-66133333D01*
X138066666Y-66180952D01*
X138019047Y-66228571D01*
X137971428Y-66323809D01*
%TO.C,J15*%
X131190476Y-65752380D02*
X131190476Y-66466666D01*
X131142857Y-66609523D01*
X131047619Y-66704761D01*
X130904761Y-66752380D01*
X130809523Y-66752380D01*
X132190476Y-66752380D02*
X131619047Y-66752380D01*
X131904761Y-66752380D02*
X131904761Y-65752380D01*
X131809523Y-65895238D01*
X131714285Y-65990476D01*
X131619047Y-66038095D01*
X133095238Y-65752380D02*
X132619047Y-65752380D01*
X132571428Y-66228571D01*
X132619047Y-66180952D01*
X132714285Y-66133333D01*
X132952380Y-66133333D01*
X133047619Y-66180952D01*
X133095238Y-66228571D01*
X133142857Y-66323809D01*
X133142857Y-66561904D01*
X133095238Y-66657142D01*
X133047619Y-66704761D01*
X132952380Y-66752380D01*
X132714285Y-66752380D01*
X132619047Y-66704761D01*
X132571428Y-66657142D01*
%TO.C,J14*%
X122130477Y-18052380D02*
X122130477Y-18766666D01*
X122082858Y-18909523D01*
X121987620Y-19004761D01*
X121844762Y-19052380D01*
X121749524Y-19052380D01*
X123130477Y-19052380D02*
X122559048Y-19052380D01*
X122844762Y-19052380D02*
X122844762Y-18052380D01*
X122749524Y-18195238D01*
X122654286Y-18290476D01*
X122559048Y-18338095D01*
X123987620Y-18385714D02*
X123987620Y-19052380D01*
X123749524Y-18004761D02*
X123511429Y-18719047D01*
X124130477Y-18719047D01*
%TO.C,J13*%
X136390476Y-18052380D02*
X136390476Y-18766666D01*
X136342857Y-18909523D01*
X136247619Y-19004761D01*
X136104761Y-19052380D01*
X136009523Y-19052380D01*
X137390476Y-19052380D02*
X136819047Y-19052380D01*
X137104761Y-19052380D02*
X137104761Y-18052380D01*
X137009523Y-18195238D01*
X136914285Y-18290476D01*
X136819047Y-18338095D01*
X137723809Y-18052380D02*
X138342857Y-18052380D01*
X138009523Y-18433333D01*
X138152380Y-18433333D01*
X138247619Y-18480952D01*
X138295238Y-18528571D01*
X138342857Y-18623809D01*
X138342857Y-18861904D01*
X138295238Y-18957142D01*
X138247619Y-19004761D01*
X138152380Y-19052380D01*
X137866666Y-19052380D01*
X137771428Y-19004761D01*
X137723809Y-18957142D01*
%TO.C,J12*%
X172952380Y-13909523D02*
X173666666Y-13909523D01*
X173809523Y-13957142D01*
X173904761Y-14052380D01*
X173952380Y-14195238D01*
X173952380Y-14290476D01*
X173952380Y-12909523D02*
X173952380Y-13480952D01*
X173952380Y-13195238D02*
X172952380Y-13195238D01*
X173095238Y-13290476D01*
X173190476Y-13385714D01*
X173238095Y-13480952D01*
X173047619Y-12528571D02*
X173000000Y-12480952D01*
X172952380Y-12385714D01*
X172952380Y-12147619D01*
X173000000Y-12052380D01*
X173047619Y-12004761D01*
X173142857Y-11957142D01*
X173238095Y-11957142D01*
X173380952Y-12004761D01*
X173952380Y-12576190D01*
X173952380Y-11957142D01*
%TO.C,J11*%
X172952380Y-24709523D02*
X173666666Y-24709523D01*
X173809523Y-24757142D01*
X173904761Y-24852380D01*
X173952380Y-24995238D01*
X173952380Y-25090476D01*
X173952380Y-23709523D02*
X173952380Y-24280952D01*
X173952380Y-23995238D02*
X172952380Y-23995238D01*
X173095238Y-24090476D01*
X173190476Y-24185714D01*
X173238095Y-24280952D01*
X173952380Y-22757142D02*
X173952380Y-23328571D01*
X173952380Y-23042857D02*
X172952380Y-23042857D01*
X173095238Y-23138095D01*
X173190476Y-23233333D01*
X173238095Y-23328571D01*
%TO.C,J10*%
X173152380Y-37209523D02*
X173866666Y-37209523D01*
X174009523Y-37257142D01*
X174104761Y-37352380D01*
X174152380Y-37495238D01*
X174152380Y-37590476D01*
X174152380Y-36209523D02*
X174152380Y-36780952D01*
X174152380Y-36495238D02*
X173152380Y-36495238D01*
X173295238Y-36590476D01*
X173390476Y-36685714D01*
X173438095Y-36780952D01*
X173152380Y-35590476D02*
X173152380Y-35495238D01*
X173200000Y-35400000D01*
X173247619Y-35352380D01*
X173342857Y-35304761D01*
X173533333Y-35257142D01*
X173771428Y-35257142D01*
X173961904Y-35304761D01*
X174057142Y-35352380D01*
X174104761Y-35400000D01*
X174152380Y-35495238D01*
X174152380Y-35590476D01*
X174104761Y-35685714D01*
X174057142Y-35733333D01*
X173961904Y-35780952D01*
X173771428Y-35828571D01*
X173533333Y-35828571D01*
X173342857Y-35780952D01*
X173247619Y-35733333D01*
X173200000Y-35685714D01*
X173152380Y-35590476D01*
%TO.C,J9*%
X173252380Y-46933333D02*
X173966666Y-46933333D01*
X174109523Y-46980952D01*
X174204761Y-47076190D01*
X174252380Y-47219047D01*
X174252380Y-47314285D01*
X174252380Y-46409523D02*
X174252380Y-46219047D01*
X174204761Y-46123809D01*
X174157142Y-46076190D01*
X174014285Y-45980952D01*
X173823809Y-45933333D01*
X173442857Y-45933333D01*
X173347619Y-45980952D01*
X173300000Y-46028571D01*
X173252380Y-46123809D01*
X173252380Y-46314285D01*
X173300000Y-46409523D01*
X173347619Y-46457142D01*
X173442857Y-46504761D01*
X173680952Y-46504761D01*
X173776190Y-46457142D01*
X173823809Y-46409523D01*
X173871428Y-46314285D01*
X173871428Y-46123809D01*
X173823809Y-46028571D01*
X173776190Y-45980952D01*
X173680952Y-45933333D01*
%TO.C,J8*%
X167186666Y-66742380D02*
X167186666Y-67456666D01*
X167139047Y-67599523D01*
X167043809Y-67694761D01*
X166900952Y-67742380D01*
X166805714Y-67742380D01*
X167805714Y-67170952D02*
X167710476Y-67123333D01*
X167662857Y-67075714D01*
X167615238Y-66980476D01*
X167615238Y-66932857D01*
X167662857Y-66837619D01*
X167710476Y-66790000D01*
X167805714Y-66742380D01*
X167996190Y-66742380D01*
X168091428Y-66790000D01*
X168139047Y-66837619D01*
X168186666Y-66932857D01*
X168186666Y-66980476D01*
X168139047Y-67075714D01*
X168091428Y-67123333D01*
X167996190Y-67170952D01*
X167805714Y-67170952D01*
X167710476Y-67218571D01*
X167662857Y-67266190D01*
X167615238Y-67361428D01*
X167615238Y-67551904D01*
X167662857Y-67647142D01*
X167710476Y-67694761D01*
X167805714Y-67742380D01*
X167996190Y-67742380D01*
X168091428Y-67694761D01*
X168139047Y-67647142D01*
X168186666Y-67551904D01*
X168186666Y-67361428D01*
X168139047Y-67266190D01*
X168091428Y-67218571D01*
X167996190Y-67170952D01*
%TO.C,J7*%
X155786666Y-66742380D02*
X155786666Y-67456666D01*
X155739047Y-67599523D01*
X155643809Y-67694761D01*
X155500952Y-67742380D01*
X155405714Y-67742380D01*
X156167619Y-66742380D02*
X156834285Y-66742380D01*
X156405714Y-67742380D01*
%TO.C,J6*%
X112166666Y-33552380D02*
X112166666Y-34266666D01*
X112119047Y-34409523D01*
X112023809Y-34504761D01*
X111880952Y-34552380D01*
X111785714Y-34552380D01*
X113071428Y-33552380D02*
X112880952Y-33552380D01*
X112785714Y-33600000D01*
X112738095Y-33647619D01*
X112642857Y-33790476D01*
X112595238Y-33980952D01*
X112595238Y-34361904D01*
X112642857Y-34457142D01*
X112690476Y-34504761D01*
X112785714Y-34552380D01*
X112976190Y-34552380D01*
X113071428Y-34504761D01*
X113119047Y-34457142D01*
X113166666Y-34361904D01*
X113166666Y-34123809D01*
X113119047Y-34028571D01*
X113071428Y-33980952D01*
X112976190Y-33933333D01*
X112785714Y-33933333D01*
X112690476Y-33980952D01*
X112642857Y-34028571D01*
X112595238Y-34123809D01*
%TO.C,J5*%
X96166666Y-42652380D02*
X96166666Y-43366666D01*
X96119047Y-43509523D01*
X96023809Y-43604761D01*
X95880952Y-43652380D01*
X95785714Y-43652380D01*
X97119047Y-42652380D02*
X96642857Y-42652380D01*
X96595238Y-43128571D01*
X96642857Y-43080952D01*
X96738095Y-43033333D01*
X96976190Y-43033333D01*
X97071428Y-43080952D01*
X97119047Y-43128571D01*
X97166666Y-43223809D01*
X97166666Y-43461904D01*
X97119047Y-43557142D01*
X97071428Y-43604761D01*
X96976190Y-43652380D01*
X96738095Y-43652380D01*
X96642857Y-43604761D01*
X96595238Y-43557142D01*
%TO.C,J4*%
X146566666Y-23002380D02*
X146566666Y-23716666D01*
X146519047Y-23859523D01*
X146423809Y-23954761D01*
X146280952Y-24002380D01*
X146185714Y-24002380D01*
X147471428Y-23335714D02*
X147471428Y-24002380D01*
X147233333Y-22954761D02*
X146995238Y-23669047D01*
X147614285Y-23669047D01*
%TO.C,J3*%
X102266666Y-53352380D02*
X102266666Y-54066666D01*
X102219047Y-54209523D01*
X102123809Y-54304761D01*
X101980952Y-54352380D01*
X101885714Y-54352380D01*
X102647619Y-53352380D02*
X103266666Y-53352380D01*
X102933333Y-53733333D01*
X103076190Y-53733333D01*
X103171428Y-53780952D01*
X103219047Y-53828571D01*
X103266666Y-53923809D01*
X103266666Y-54161904D01*
X103219047Y-54257142D01*
X103171428Y-54304761D01*
X103076190Y-54352380D01*
X102790476Y-54352380D01*
X102695238Y-54304761D01*
X102647619Y-54257142D01*
%TO.C,J2*%
X126566666Y-65852380D02*
X126566666Y-66566666D01*
X126519047Y-66709523D01*
X126423809Y-66804761D01*
X126280952Y-66852380D01*
X126185714Y-66852380D01*
X126995238Y-65947619D02*
X127042857Y-65900000D01*
X127138095Y-65852380D01*
X127376190Y-65852380D01*
X127471428Y-65900000D01*
X127519047Y-65947619D01*
X127566666Y-66042857D01*
X127566666Y-66138095D01*
X127519047Y-66280952D01*
X126947619Y-66852380D01*
X127566666Y-66852380D01*
%TO.C,J1*%
X95952380Y-38133333D02*
X96666666Y-38133333D01*
X96809523Y-38180952D01*
X96904761Y-38276190D01*
X96952380Y-38419047D01*
X96952380Y-38514285D01*
X96952380Y-37133333D02*
X96952380Y-37704761D01*
X96952380Y-37419047D02*
X95952380Y-37419047D01*
X96095238Y-37514285D01*
X96190476Y-37609523D01*
X96238095Y-37704761D01*
%TO.C,GREEN1*%
X122157142Y-26500000D02*
X122061904Y-26452380D01*
X121919047Y-26452380D01*
X121776190Y-26500000D01*
X121680952Y-26595238D01*
X121633333Y-26690476D01*
X121585714Y-26880952D01*
X121585714Y-27023809D01*
X121633333Y-27214285D01*
X121680952Y-27309523D01*
X121776190Y-27404761D01*
X121919047Y-27452380D01*
X122014285Y-27452380D01*
X122157142Y-27404761D01*
X122204761Y-27357142D01*
X122204761Y-27023809D01*
X122014285Y-27023809D01*
X123204761Y-27452380D02*
X122871428Y-26976190D01*
X122633333Y-27452380D02*
X122633333Y-26452380D01*
X123014285Y-26452380D01*
X123109523Y-26500000D01*
X123157142Y-26547619D01*
X123204761Y-26642857D01*
X123204761Y-26785714D01*
X123157142Y-26880952D01*
X123109523Y-26928571D01*
X123014285Y-26976190D01*
X122633333Y-26976190D01*
X123633333Y-26928571D02*
X123966666Y-26928571D01*
X124109523Y-27452380D02*
X123633333Y-27452380D01*
X123633333Y-26452380D01*
X124109523Y-26452380D01*
X124538095Y-26928571D02*
X124871428Y-26928571D01*
X125014285Y-27452380D02*
X124538095Y-27452380D01*
X124538095Y-26452380D01*
X125014285Y-26452380D01*
X125442857Y-27452380D02*
X125442857Y-26452380D01*
X126014285Y-27452380D01*
X126014285Y-26452380D01*
X127014285Y-27452380D02*
X126442857Y-27452380D01*
X126728571Y-27452380D02*
X126728571Y-26452380D01*
X126633333Y-26595238D01*
X126538095Y-26690476D01*
X126442857Y-26738095D01*
%TO.C,F1*%
X111166666Y-55928571D02*
X110833333Y-55928571D01*
X110833333Y-56452380D02*
X110833333Y-55452380D01*
X111309523Y-55452380D01*
X112214285Y-56452380D02*
X111642857Y-56452380D01*
X111928571Y-56452380D02*
X111928571Y-55452380D01*
X111833333Y-55595238D01*
X111738095Y-55690476D01*
X111642857Y-55738095D01*
X108228571Y-62442857D02*
X108228571Y-62776190D01*
X108752380Y-62776190D02*
X107752380Y-62776190D01*
X107752380Y-62300000D01*
X108085714Y-61490476D02*
X108752380Y-61490476D01*
X108085714Y-61919047D02*
X108609523Y-61919047D01*
X108704761Y-61871428D01*
X108752380Y-61776190D01*
X108752380Y-61633333D01*
X108704761Y-61538095D01*
X108657142Y-61490476D01*
X108704761Y-61061904D02*
X108752380Y-60966666D01*
X108752380Y-60776190D01*
X108704761Y-60680952D01*
X108609523Y-60633333D01*
X108561904Y-60633333D01*
X108466666Y-60680952D01*
X108419047Y-60776190D01*
X108419047Y-60919047D01*
X108371428Y-61014285D01*
X108276190Y-61061904D01*
X108228571Y-61061904D01*
X108133333Y-61014285D01*
X108085714Y-60919047D01*
X108085714Y-60776190D01*
X108133333Y-60680952D01*
X108704761Y-59823809D02*
X108752380Y-59919047D01*
X108752380Y-60109523D01*
X108704761Y-60204761D01*
X108609523Y-60252380D01*
X108228571Y-60252380D01*
X108133333Y-60204761D01*
X108085714Y-60109523D01*
X108085714Y-59919047D01*
X108133333Y-59823809D01*
X108228571Y-59776190D01*
X108323809Y-59776190D01*
X108419047Y-60252380D01*
X110952380Y-61300000D02*
X111190476Y-61300000D01*
X111095238Y-61538095D02*
X111190476Y-61300000D01*
X111095238Y-61061904D01*
X111380952Y-61442857D02*
X111190476Y-61300000D01*
X111380952Y-61157142D01*
%TO.C,D1*%
X115661904Y-57952380D02*
X115661904Y-56952380D01*
X115900000Y-56952380D01*
X116042857Y-57000000D01*
X116138095Y-57095238D01*
X116185714Y-57190476D01*
X116233333Y-57380952D01*
X116233333Y-57523809D01*
X116185714Y-57714285D01*
X116138095Y-57809523D01*
X116042857Y-57904761D01*
X115900000Y-57952380D01*
X115661904Y-57952380D01*
X117185714Y-57952380D02*
X116614285Y-57952380D01*
X116900000Y-57952380D02*
X116900000Y-56952380D01*
X116804761Y-57095238D01*
X116709523Y-57190476D01*
X116614285Y-57238095D01*
%TO.C,C19*%
X130057142Y-38232142D02*
X130009523Y-38279761D01*
X129866666Y-38327380D01*
X129771428Y-38327380D01*
X129628571Y-38279761D01*
X129533333Y-38184523D01*
X129485714Y-38089285D01*
X129438095Y-37898809D01*
X129438095Y-37755952D01*
X129485714Y-37565476D01*
X129533333Y-37470238D01*
X129628571Y-37375000D01*
X129771428Y-37327380D01*
X129866666Y-37327380D01*
X130009523Y-37375000D01*
X130057142Y-37422619D01*
X131009523Y-38327380D02*
X130438095Y-38327380D01*
X130723809Y-38327380D02*
X130723809Y-37327380D01*
X130628571Y-37470238D01*
X130533333Y-37565476D01*
X130438095Y-37613095D01*
X131485714Y-38327380D02*
X131676190Y-38327380D01*
X131771428Y-38279761D01*
X131819047Y-38232142D01*
X131914285Y-38089285D01*
X131961904Y-37898809D01*
X131961904Y-37517857D01*
X131914285Y-37422619D01*
X131866666Y-37375000D01*
X131771428Y-37327380D01*
X131580952Y-37327380D01*
X131485714Y-37375000D01*
X131438095Y-37422619D01*
X131390476Y-37517857D01*
X131390476Y-37755952D01*
X131438095Y-37851190D01*
X131485714Y-37898809D01*
X131580952Y-37946428D01*
X131771428Y-37946428D01*
X131866666Y-37898809D01*
X131914285Y-37851190D01*
X131961904Y-37755952D01*
%TO.C,C18*%
X128157142Y-25257142D02*
X128109523Y-25304761D01*
X127966666Y-25352380D01*
X127871428Y-25352380D01*
X127728571Y-25304761D01*
X127633333Y-25209523D01*
X127585714Y-25114285D01*
X127538095Y-24923809D01*
X127538095Y-24780952D01*
X127585714Y-24590476D01*
X127633333Y-24495238D01*
X127728571Y-24400000D01*
X127871428Y-24352380D01*
X127966666Y-24352380D01*
X128109523Y-24400000D01*
X128157142Y-24447619D01*
X129109523Y-25352380D02*
X128538095Y-25352380D01*
X128823809Y-25352380D02*
X128823809Y-24352380D01*
X128728571Y-24495238D01*
X128633333Y-24590476D01*
X128538095Y-24638095D01*
X129680952Y-24780952D02*
X129585714Y-24733333D01*
X129538095Y-24685714D01*
X129490476Y-24590476D01*
X129490476Y-24542857D01*
X129538095Y-24447619D01*
X129585714Y-24400000D01*
X129680952Y-24352380D01*
X129871428Y-24352380D01*
X129966666Y-24400000D01*
X130014285Y-24447619D01*
X130061904Y-24542857D01*
X130061904Y-24590476D01*
X130014285Y-24685714D01*
X129966666Y-24733333D01*
X129871428Y-24780952D01*
X129680952Y-24780952D01*
X129585714Y-24828571D01*
X129538095Y-24876190D01*
X129490476Y-24971428D01*
X129490476Y-25161904D01*
X129538095Y-25257142D01*
X129585714Y-25304761D01*
X129680952Y-25352380D01*
X129871428Y-25352380D01*
X129966666Y-25304761D01*
X130014285Y-25257142D01*
X130061904Y-25161904D01*
X130061904Y-24971428D01*
X130014285Y-24876190D01*
X129966666Y-24828571D01*
X129871428Y-24780952D01*
%TO.C,C17*%
X114057142Y-46957142D02*
X114009523Y-47004761D01*
X113866666Y-47052380D01*
X113771428Y-47052380D01*
X113628571Y-47004761D01*
X113533333Y-46909523D01*
X113485714Y-46814285D01*
X113438095Y-46623809D01*
X113438095Y-46480952D01*
X113485714Y-46290476D01*
X113533333Y-46195238D01*
X113628571Y-46100000D01*
X113771428Y-46052380D01*
X113866666Y-46052380D01*
X114009523Y-46100000D01*
X114057142Y-46147619D01*
X115009523Y-47052380D02*
X114438095Y-47052380D01*
X114723809Y-47052380D02*
X114723809Y-46052380D01*
X114628571Y-46195238D01*
X114533333Y-46290476D01*
X114438095Y-46338095D01*
X115342857Y-46052380D02*
X116009523Y-46052380D01*
X115580952Y-47052380D01*
%TO.C,C16*%
X114063565Y-43457142D02*
X114015946Y-43504761D01*
X113873089Y-43552380D01*
X113777851Y-43552380D01*
X113634994Y-43504761D01*
X113539756Y-43409523D01*
X113492137Y-43314285D01*
X113444518Y-43123809D01*
X113444518Y-42980952D01*
X113492137Y-42790476D01*
X113539756Y-42695238D01*
X113634994Y-42600000D01*
X113777851Y-42552380D01*
X113873089Y-42552380D01*
X114015946Y-42600000D01*
X114063565Y-42647619D01*
X115015946Y-43552380D02*
X114444518Y-43552380D01*
X114730232Y-43552380D02*
X114730232Y-42552380D01*
X114634994Y-42695238D01*
X114539756Y-42790476D01*
X114444518Y-42838095D01*
X115873089Y-42552380D02*
X115682613Y-42552380D01*
X115587375Y-42600000D01*
X115539756Y-42647619D01*
X115444518Y-42790476D01*
X115396899Y-42980952D01*
X115396899Y-43361904D01*
X115444518Y-43457142D01*
X115492137Y-43504761D01*
X115587375Y-43552380D01*
X115777851Y-43552380D01*
X115873089Y-43504761D01*
X115920708Y-43457142D01*
X115968327Y-43361904D01*
X115968327Y-43123809D01*
X115920708Y-43028571D01*
X115873089Y-42980952D01*
X115777851Y-42933333D01*
X115587375Y-42933333D01*
X115492137Y-42980952D01*
X115444518Y-43028571D01*
X115396899Y-43123809D01*
%TO.C,C15*%
X102357142Y-19357142D02*
X102309523Y-19404761D01*
X102166666Y-19452380D01*
X102071428Y-19452380D01*
X101928571Y-19404761D01*
X101833333Y-19309523D01*
X101785714Y-19214285D01*
X101738095Y-19023809D01*
X101738095Y-18880952D01*
X101785714Y-18690476D01*
X101833333Y-18595238D01*
X101928571Y-18500000D01*
X102071428Y-18452380D01*
X102166666Y-18452380D01*
X102309523Y-18500000D01*
X102357142Y-18547619D01*
X103309523Y-19452380D02*
X102738095Y-19452380D01*
X103023809Y-19452380D02*
X103023809Y-18452380D01*
X102928571Y-18595238D01*
X102833333Y-18690476D01*
X102738095Y-18738095D01*
X104214285Y-18452380D02*
X103738095Y-18452380D01*
X103690476Y-18928571D01*
X103738095Y-18880952D01*
X103833333Y-18833333D01*
X104071428Y-18833333D01*
X104166666Y-18880952D01*
X104214285Y-18928571D01*
X104261904Y-19023809D01*
X104261904Y-19261904D01*
X104214285Y-19357142D01*
X104166666Y-19404761D01*
X104071428Y-19452380D01*
X103833333Y-19452380D01*
X103738095Y-19404761D01*
X103690476Y-19357142D01*
%TO.C,C14*%
X143932142Y-39457142D02*
X143884523Y-39504761D01*
X143741666Y-39552380D01*
X143646428Y-39552380D01*
X143503571Y-39504761D01*
X143408333Y-39409523D01*
X143360714Y-39314285D01*
X143313095Y-39123809D01*
X143313095Y-38980952D01*
X143360714Y-38790476D01*
X143408333Y-38695238D01*
X143503571Y-38600000D01*
X143646428Y-38552380D01*
X143741666Y-38552380D01*
X143884523Y-38600000D01*
X143932142Y-38647619D01*
X144884523Y-39552380D02*
X144313095Y-39552380D01*
X144598809Y-39552380D02*
X144598809Y-38552380D01*
X144503571Y-38695238D01*
X144408333Y-38790476D01*
X144313095Y-38838095D01*
X145741666Y-38885714D02*
X145741666Y-39552380D01*
X145503571Y-38504761D02*
X145265476Y-39219047D01*
X145884523Y-39219047D01*
%TO.C,C13*%
X143807142Y-34377142D02*
X143759523Y-34424761D01*
X143616666Y-34472380D01*
X143521428Y-34472380D01*
X143378571Y-34424761D01*
X143283333Y-34329523D01*
X143235714Y-34234285D01*
X143188095Y-34043809D01*
X143188095Y-33900952D01*
X143235714Y-33710476D01*
X143283333Y-33615238D01*
X143378571Y-33520000D01*
X143521428Y-33472380D01*
X143616666Y-33472380D01*
X143759523Y-33520000D01*
X143807142Y-33567619D01*
X144759523Y-34472380D02*
X144188095Y-34472380D01*
X144473809Y-34472380D02*
X144473809Y-33472380D01*
X144378571Y-33615238D01*
X144283333Y-33710476D01*
X144188095Y-33758095D01*
X145092857Y-33472380D02*
X145711904Y-33472380D01*
X145378571Y-33853333D01*
X145521428Y-33853333D01*
X145616666Y-33900952D01*
X145664285Y-33948571D01*
X145711904Y-34043809D01*
X145711904Y-34281904D01*
X145664285Y-34377142D01*
X145616666Y-34424761D01*
X145521428Y-34472380D01*
X145235714Y-34472380D01*
X145140476Y-34424761D01*
X145092857Y-34377142D01*
%TO.C,C12*%
X130857142Y-25219642D02*
X130809523Y-25267261D01*
X130666666Y-25314880D01*
X130571428Y-25314880D01*
X130428571Y-25267261D01*
X130333333Y-25172023D01*
X130285714Y-25076785D01*
X130238095Y-24886309D01*
X130238095Y-24743452D01*
X130285714Y-24552976D01*
X130333333Y-24457738D01*
X130428571Y-24362500D01*
X130571428Y-24314880D01*
X130666666Y-24314880D01*
X130809523Y-24362500D01*
X130857142Y-24410119D01*
X131809523Y-25314880D02*
X131238095Y-25314880D01*
X131523809Y-25314880D02*
X131523809Y-24314880D01*
X131428571Y-24457738D01*
X131333333Y-24552976D01*
X131238095Y-24600595D01*
X132190476Y-24410119D02*
X132238095Y-24362500D01*
X132333333Y-24314880D01*
X132571428Y-24314880D01*
X132666666Y-24362500D01*
X132714285Y-24410119D01*
X132761904Y-24505357D01*
X132761904Y-24600595D01*
X132714285Y-24743452D01*
X132142857Y-25314880D01*
X132761904Y-25314880D01*
%TO.C,C11*%
X133557142Y-25219642D02*
X133509523Y-25267261D01*
X133366666Y-25314880D01*
X133271428Y-25314880D01*
X133128571Y-25267261D01*
X133033333Y-25172023D01*
X132985714Y-25076785D01*
X132938095Y-24886309D01*
X132938095Y-24743452D01*
X132985714Y-24552976D01*
X133033333Y-24457738D01*
X133128571Y-24362500D01*
X133271428Y-24314880D01*
X133366666Y-24314880D01*
X133509523Y-24362500D01*
X133557142Y-24410119D01*
X134509523Y-25314880D02*
X133938095Y-25314880D01*
X134223809Y-25314880D02*
X134223809Y-24314880D01*
X134128571Y-24457738D01*
X134033333Y-24552976D01*
X133938095Y-24600595D01*
X135461904Y-25314880D02*
X134890476Y-25314880D01*
X135176190Y-25314880D02*
X135176190Y-24314880D01*
X135080952Y-24457738D01*
X134985714Y-24552976D01*
X134890476Y-24600595D01*
%TO.C,C10*%
X130257142Y-31757142D02*
X130209523Y-31804761D01*
X130066666Y-31852380D01*
X129971428Y-31852380D01*
X129828571Y-31804761D01*
X129733333Y-31709523D01*
X129685714Y-31614285D01*
X129638095Y-31423809D01*
X129638095Y-31280952D01*
X129685714Y-31090476D01*
X129733333Y-30995238D01*
X129828571Y-30900000D01*
X129971428Y-30852380D01*
X130066666Y-30852380D01*
X130209523Y-30900000D01*
X130257142Y-30947619D01*
X131209523Y-31852380D02*
X130638095Y-31852380D01*
X130923809Y-31852380D02*
X130923809Y-30852380D01*
X130828571Y-30995238D01*
X130733333Y-31090476D01*
X130638095Y-31138095D01*
X131828571Y-30852380D02*
X131923809Y-30852380D01*
X132019047Y-30900000D01*
X132066666Y-30947619D01*
X132114285Y-31042857D01*
X132161904Y-31233333D01*
X132161904Y-31471428D01*
X132114285Y-31661904D01*
X132066666Y-31757142D01*
X132019047Y-31804761D01*
X131923809Y-31852380D01*
X131828571Y-31852380D01*
X131733333Y-31804761D01*
X131685714Y-31757142D01*
X131638095Y-31661904D01*
X131590476Y-31471428D01*
X131590476Y-31233333D01*
X131638095Y-31042857D01*
X131685714Y-30947619D01*
X131733333Y-30900000D01*
X131828571Y-30852380D01*
%TO.C,C9*%
X130233333Y-30457142D02*
X130185714Y-30504761D01*
X130042857Y-30552380D01*
X129947619Y-30552380D01*
X129804761Y-30504761D01*
X129709523Y-30409523D01*
X129661904Y-30314285D01*
X129614285Y-30123809D01*
X129614285Y-29980952D01*
X129661904Y-29790476D01*
X129709523Y-29695238D01*
X129804761Y-29600000D01*
X129947619Y-29552380D01*
X130042857Y-29552380D01*
X130185714Y-29600000D01*
X130233333Y-29647619D01*
X130709523Y-30552380D02*
X130900000Y-30552380D01*
X130995238Y-30504761D01*
X131042857Y-30457142D01*
X131138095Y-30314285D01*
X131185714Y-30123809D01*
X131185714Y-29742857D01*
X131138095Y-29647619D01*
X131090476Y-29600000D01*
X130995238Y-29552380D01*
X130804761Y-29552380D01*
X130709523Y-29600000D01*
X130661904Y-29647619D01*
X130614285Y-29742857D01*
X130614285Y-29980952D01*
X130661904Y-30076190D01*
X130709523Y-30123809D01*
X130804761Y-30171428D01*
X130995238Y-30171428D01*
X131090476Y-30123809D01*
X131138095Y-30076190D01*
X131185714Y-29980952D01*
%TO.C,C8*%
X123333333Y-40957142D02*
X123285714Y-41004761D01*
X123142857Y-41052380D01*
X123047619Y-41052380D01*
X122904761Y-41004761D01*
X122809523Y-40909523D01*
X122761904Y-40814285D01*
X122714285Y-40623809D01*
X122714285Y-40480952D01*
X122761904Y-40290476D01*
X122809523Y-40195238D01*
X122904761Y-40100000D01*
X123047619Y-40052380D01*
X123142857Y-40052380D01*
X123285714Y-40100000D01*
X123333333Y-40147619D01*
X123904761Y-40480952D02*
X123809523Y-40433333D01*
X123761904Y-40385714D01*
X123714285Y-40290476D01*
X123714285Y-40242857D01*
X123761904Y-40147619D01*
X123809523Y-40100000D01*
X123904761Y-40052380D01*
X124095238Y-40052380D01*
X124190476Y-40100000D01*
X124238095Y-40147619D01*
X124285714Y-40242857D01*
X124285714Y-40290476D01*
X124238095Y-40385714D01*
X124190476Y-40433333D01*
X124095238Y-40480952D01*
X123904761Y-40480952D01*
X123809523Y-40528571D01*
X123761904Y-40576190D01*
X123714285Y-40671428D01*
X123714285Y-40861904D01*
X123761904Y-40957142D01*
X123809523Y-41004761D01*
X123904761Y-41052380D01*
X124095238Y-41052380D01*
X124190476Y-41004761D01*
X124238095Y-40957142D01*
X124285714Y-40861904D01*
X124285714Y-40671428D01*
X124238095Y-40576190D01*
X124190476Y-40528571D01*
X124095238Y-40480952D01*
%TO.C,C7*%
X123333334Y-38757142D02*
X123285715Y-38804761D01*
X123142858Y-38852380D01*
X123047620Y-38852380D01*
X122904762Y-38804761D01*
X122809524Y-38709523D01*
X122761905Y-38614285D01*
X122714286Y-38423809D01*
X122714286Y-38280952D01*
X122761905Y-38090476D01*
X122809524Y-37995238D01*
X122904762Y-37900000D01*
X123047620Y-37852380D01*
X123142858Y-37852380D01*
X123285715Y-37900000D01*
X123333334Y-37947619D01*
X123666667Y-37852380D02*
X124333334Y-37852380D01*
X123904762Y-38852380D01*
%TO.C,C6*%
X138933333Y-25219642D02*
X138885714Y-25267261D01*
X138742857Y-25314880D01*
X138647619Y-25314880D01*
X138504761Y-25267261D01*
X138409523Y-25172023D01*
X138361904Y-25076785D01*
X138314285Y-24886309D01*
X138314285Y-24743452D01*
X138361904Y-24552976D01*
X138409523Y-24457738D01*
X138504761Y-24362500D01*
X138647619Y-24314880D01*
X138742857Y-24314880D01*
X138885714Y-24362500D01*
X138933333Y-24410119D01*
X139790476Y-24314880D02*
X139600000Y-24314880D01*
X139504761Y-24362500D01*
X139457142Y-24410119D01*
X139361904Y-24552976D01*
X139314285Y-24743452D01*
X139314285Y-25124404D01*
X139361904Y-25219642D01*
X139409523Y-25267261D01*
X139504761Y-25314880D01*
X139695238Y-25314880D01*
X139790476Y-25267261D01*
X139838095Y-25219642D01*
X139885714Y-25124404D01*
X139885714Y-24886309D01*
X139838095Y-24791071D01*
X139790476Y-24743452D01*
X139695238Y-24695833D01*
X139504761Y-24695833D01*
X139409523Y-24743452D01*
X139361904Y-24791071D01*
X139314285Y-24886309D01*
%TO.C,C5*%
X148183333Y-39457142D02*
X148135714Y-39504761D01*
X147992857Y-39552380D01*
X147897619Y-39552380D01*
X147754761Y-39504761D01*
X147659523Y-39409523D01*
X147611904Y-39314285D01*
X147564285Y-39123809D01*
X147564285Y-38980952D01*
X147611904Y-38790476D01*
X147659523Y-38695238D01*
X147754761Y-38600000D01*
X147897619Y-38552380D01*
X147992857Y-38552380D01*
X148135714Y-38600000D01*
X148183333Y-38647619D01*
X149088095Y-38552380D02*
X148611904Y-38552380D01*
X148564285Y-39028571D01*
X148611904Y-38980952D01*
X148707142Y-38933333D01*
X148945238Y-38933333D01*
X149040476Y-38980952D01*
X149088095Y-39028571D01*
X149135714Y-39123809D01*
X149135714Y-39361904D01*
X149088095Y-39457142D01*
X149040476Y-39504761D01*
X148945238Y-39552380D01*
X148707142Y-39552380D01*
X148611904Y-39504761D01*
X148564285Y-39457142D01*
%TO.C,C4*%
X141233333Y-25319642D02*
X141185714Y-25367261D01*
X141042857Y-25414880D01*
X140947619Y-25414880D01*
X140804761Y-25367261D01*
X140709523Y-25272023D01*
X140661904Y-25176785D01*
X140614285Y-24986309D01*
X140614285Y-24843452D01*
X140661904Y-24652976D01*
X140709523Y-24557738D01*
X140804761Y-24462500D01*
X140947619Y-24414880D01*
X141042857Y-24414880D01*
X141185714Y-24462500D01*
X141233333Y-24510119D01*
X142090476Y-24748214D02*
X142090476Y-25414880D01*
X141852380Y-24367261D02*
X141614285Y-25081547D01*
X142233333Y-25081547D01*
%TO.C,C3*%
X118933333Y-37957142D02*
X118885714Y-38004761D01*
X118742857Y-38052380D01*
X118647619Y-38052380D01*
X118504761Y-38004761D01*
X118409523Y-37909523D01*
X118361904Y-37814285D01*
X118314285Y-37623809D01*
X118314285Y-37480952D01*
X118361904Y-37290476D01*
X118409523Y-37195238D01*
X118504761Y-37100000D01*
X118647619Y-37052380D01*
X118742857Y-37052380D01*
X118885714Y-37100000D01*
X118933333Y-37147619D01*
X119266666Y-37052380D02*
X119885714Y-37052380D01*
X119552380Y-37433333D01*
X119695238Y-37433333D01*
X119790476Y-37480952D01*
X119838095Y-37528571D01*
X119885714Y-37623809D01*
X119885714Y-37861904D01*
X119838095Y-37957142D01*
X119790476Y-38004761D01*
X119695238Y-38052380D01*
X119409523Y-38052380D01*
X119314285Y-38004761D01*
X119266666Y-37957142D01*
%TO.C,C2*%
X148083333Y-34377142D02*
X148035714Y-34424761D01*
X147892857Y-34472380D01*
X147797619Y-34472380D01*
X147654761Y-34424761D01*
X147559523Y-34329523D01*
X147511904Y-34234285D01*
X147464285Y-34043809D01*
X147464285Y-33900952D01*
X147511904Y-33710476D01*
X147559523Y-33615238D01*
X147654761Y-33520000D01*
X147797619Y-33472380D01*
X147892857Y-33472380D01*
X148035714Y-33520000D01*
X148083333Y-33567619D01*
X148464285Y-33567619D02*
X148511904Y-33520000D01*
X148607142Y-33472380D01*
X148845238Y-33472380D01*
X148940476Y-33520000D01*
X148988095Y-33567619D01*
X149035714Y-33662857D01*
X149035714Y-33758095D01*
X148988095Y-33900952D01*
X148416666Y-34472380D01*
X149035714Y-34472380D01*
%TO.C,C1*%
X136433333Y-25157142D02*
X136385714Y-25204761D01*
X136242857Y-25252380D01*
X136147619Y-25252380D01*
X136004761Y-25204761D01*
X135909523Y-25109523D01*
X135861904Y-25014285D01*
X135814285Y-24823809D01*
X135814285Y-24680952D01*
X135861904Y-24490476D01*
X135909523Y-24395238D01*
X136004761Y-24300000D01*
X136147619Y-24252380D01*
X136242857Y-24252380D01*
X136385714Y-24300000D01*
X136433333Y-24347619D01*
X137385714Y-25252380D02*
X136814285Y-25252380D01*
X137100000Y-25252380D02*
X137100000Y-24252380D01*
X137004761Y-24395238D01*
X136909523Y-24490476D01*
X136814285Y-24538095D01*
%TO.C,BLUE1*%
X122314285Y-30028571D02*
X122457142Y-30076190D01*
X122504761Y-30123809D01*
X122552380Y-30219047D01*
X122552380Y-30361904D01*
X122504761Y-30457142D01*
X122457142Y-30504761D01*
X122361904Y-30552380D01*
X121980952Y-30552380D01*
X121980952Y-29552380D01*
X122314285Y-29552380D01*
X122409523Y-29600000D01*
X122457142Y-29647619D01*
X122504761Y-29742857D01*
X122504761Y-29838095D01*
X122457142Y-29933333D01*
X122409523Y-29980952D01*
X122314285Y-30028571D01*
X121980952Y-30028571D01*
X123457142Y-30552380D02*
X122980952Y-30552380D01*
X122980952Y-29552380D01*
X123790476Y-29552380D02*
X123790476Y-30361904D01*
X123838095Y-30457142D01*
X123885714Y-30504761D01*
X123980952Y-30552380D01*
X124171428Y-30552380D01*
X124266666Y-30504761D01*
X124314285Y-30457142D01*
X124361904Y-30361904D01*
X124361904Y-29552380D01*
X124838095Y-30028571D02*
X125171428Y-30028571D01*
X125314285Y-30552380D02*
X124838095Y-30552380D01*
X124838095Y-29552380D01*
X125314285Y-29552380D01*
X126266666Y-30552380D02*
X125695238Y-30552380D01*
X125980952Y-30552380D02*
X125980952Y-29552380D01*
X125885714Y-29695238D01*
X125790476Y-29790476D01*
X125695238Y-29838095D01*
%TD*%
M02*
